M48
; DRILL file {KiCad (6.0.4)} date Mon Jun  6 09:07:41 2022
; FORMAT={-:-/ absolute / inch / decimal}
; #@! TF.CreationDate,2022-06-06T09:07:41-07:00
; #@! TF.GenerationSoftware,Kicad,Pcbnew,(6.0.4)
; #@! TF.FileFunction,Plated,1,2,PTH
FMAT,2
INCH
; #@! TA.AperFunction,Plated,PTH,ViaDrill
T1C0.0157
; #@! TA.AperFunction,Plated,PTH,ComponentDrill
T2C0.0315
; #@! TA.AperFunction,Plated,PTH,ComponentDrill
T3C0.0350
; #@! TA.AperFunction,Plated,PTH,ComponentDrill
T4C0.0394
; #@! TA.AperFunction,Plated,PTH,ComponentDrill
T5C0.0472
; #@! TA.AperFunction,Plated,PTH,ComponentDrill
T6C0.0791
%
G90
G05
T1
X3.3032Y-3.2459
X3.372Y-3.423
X3.376Y-3.276
X3.376Y-3.529
X3.379Y-3.326
X3.379Y-3.376
X3.4701Y-3.4604
X3.5271Y-3.37
X3.533Y-5.427
X3.547Y-3.476
X3.5739Y-5.4669
X3.72Y-3.406
X3.767Y-3.362
X3.877Y-4.613
X4.0Y-5.504
X4.133Y-2.621
X4.136Y-2.319
X4.194Y-4.826
X4.2Y-2.95
X4.2Y-3.45
X4.21Y-2.253
X4.258Y-3.5655
X4.258Y-3.6405
X4.2613Y-2.3017
X4.2632Y-2.2228
X4.291Y-2.2507
X4.2952Y-3.4832
X4.2974Y-3.6405
X4.3Y-4.5
X4.322Y-4.313
X4.357Y-3.2685
X4.361Y-3.346
X4.4002Y-4.374
X4.4336Y-3.4896
X4.4462Y-4.2248
X4.4572Y-4.373
X4.496Y-3.508
X4.501Y-3.4125
X4.5143Y-4.2525
X4.5416Y-3.2816
X4.563Y-3.441
X4.5803Y-4.4
X4.6088Y-4.2208
X4.612Y-2.3215
X4.6304Y-3.448
X4.7676Y-4.2709
X4.8Y-4.35
T3
X3.55Y-2.4
X3.55Y-2.5
T4
X3.254Y-3.861
X3.3Y-5.0004
X3.3Y-5.6004
X3.4Y-5.0004
X3.4Y-5.6004
X3.5Y-5.0004
X3.5Y-5.6004
X3.6Y-5.0004
X3.6Y-5.6004
X3.638Y-3.118
X3.642Y-3.338
X3.646Y-3.563
X3.658Y-3.773
X3.7Y-5.0004
X3.7Y-5.6004
X3.8Y-5.0004
X3.8Y-5.6004
X3.9Y-2.15
X3.9Y-2.35
X3.9Y-2.5
X3.9Y-2.7
X3.9Y-5.0004
X3.9Y-5.6004
X4.0Y-5.0004
X4.0Y-5.6004
X4.1Y-5.0004
X4.1Y-5.6004
X4.2Y-5.0004
X4.2Y-5.6004
X4.3Y-5.0004
X4.3Y-5.6004
X4.35Y-2.35
X4.35Y-2.5
X4.35Y-2.7
X4.376Y-4.477
X4.4Y-5.0004
X4.4Y-5.6004
X4.5Y-2.35
X4.5Y-5.0004
X4.5Y-5.6004
X4.529Y-4.479
X4.6Y-5.0004
X4.6Y-5.6004
X4.694Y-4.48
X4.7Y-5.0004
X4.7Y-5.6004
X5.095Y-3.245
X5.108Y-2.707
X5.489Y-2.711
X5.498Y-3.24
T5
X3.548Y-4.43
X3.548Y-4.7253
T6
X3.35Y-2.2
X3.35Y-2.6
T2
G00X5.0971Y-2.4801
M15
G01X5.0971Y-2.5076
M16
G05
G00X5.1956Y-2.4801
M15
G01X5.1956Y-2.5076
M16
G05
G00X5.3078Y-2.297
M15
G01X5.2802Y-2.297
M16
G05
G00X5.3924Y-2.4801
M15
G01X5.3924Y-2.5076
M16
G05
G00X5.4909Y-2.4801
M15
G01X5.4909Y-2.5076
M16
G05
T0
M30
