%TF.GenerationSoftware,KiCad,Pcbnew,(6.0.4)*%
%TF.CreationDate,2022-04-28T21:28:56-07:00*%
%TF.ProjectId,Complete Schematic V4,436f6d70-6c65-4746-9520-536368656d61,rev?*%
%TF.SameCoordinates,Original*%
%TF.FileFunction,Copper,L1,Top*%
%TF.FilePolarity,Positive*%
%FSLAX46Y46*%
G04 Gerber Fmt 4.6, Leading zero omitted, Abs format (unit mm)*
G04 Created by KiCad (PCBNEW (6.0.4)) date 2022-04-28 21:28:56*
%MOMM*%
%LPD*%
G01*
G04 APERTURE LIST*
G04 Aperture macros list*
%AMRoundRect*
0 Rectangle with rounded corners*
0 $1 Rounding radius*
0 $2 $3 $4 $5 $6 $7 $8 $9 X,Y pos of 4 corners*
0 Add a 4 corners polygon primitive as box body*
4,1,4,$2,$3,$4,$5,$6,$7,$8,$9,$2,$3,0*
0 Add four circle primitives for the rounded corners*
1,1,$1+$1,$2,$3*
1,1,$1+$1,$4,$5*
1,1,$1+$1,$6,$7*
1,1,$1+$1,$8,$9*
0 Add four rect primitives between the rounded corners*
20,1,$1+$1,$2,$3,$4,$5,0*
20,1,$1+$1,$4,$5,$6,$7,0*
20,1,$1+$1,$6,$7,$8,$9,0*
20,1,$1+$1,$8,$9,$2,$3,0*%
G04 Aperture macros list end*
%TA.AperFunction,ComponentPad*%
%ADD10O,2.616000X1.308000*%
%TD*%
%TA.AperFunction,ComponentPad*%
%ADD11O,1.308000X2.616000*%
%TD*%
%TA.AperFunction,SMDPad,CuDef*%
%ADD12RoundRect,0.250000X-0.262500X-0.450000X0.262500X-0.450000X0.262500X0.450000X-0.262500X0.450000X0*%
%TD*%
%TA.AperFunction,SMDPad,CuDef*%
%ADD13RoundRect,0.250000X0.262500X0.450000X-0.262500X0.450000X-0.262500X-0.450000X0.262500X-0.450000X0*%
%TD*%
%TA.AperFunction,ComponentPad*%
%ADD14C,2.000000*%
%TD*%
%TA.AperFunction,ComponentPad*%
%ADD15R,2.400000X2.400000*%
%TD*%
%TA.AperFunction,ComponentPad*%
%ADD16C,2.400000*%
%TD*%
%TA.AperFunction,SMDPad,CuDef*%
%ADD17RoundRect,0.250000X0.450000X-0.262500X0.450000X0.262500X-0.450000X0.262500X-0.450000X-0.262500X0*%
%TD*%
%TA.AperFunction,ComponentPad*%
%ADD18R,2.000000X2.000000*%
%TD*%
%TA.AperFunction,SMDPad,CuDef*%
%ADD19RoundRect,0.250000X0.250000X0.475000X-0.250000X0.475000X-0.250000X-0.475000X0.250000X-0.475000X0*%
%TD*%
%TA.AperFunction,SMDPad,CuDef*%
%ADD20RoundRect,0.250000X-0.450000X0.262500X-0.450000X-0.262500X0.450000X-0.262500X0.450000X0.262500X0*%
%TD*%
%TA.AperFunction,ComponentPad*%
%ADD21R,1.600000X1.600000*%
%TD*%
%TA.AperFunction,ComponentPad*%
%ADD22O,1.600000X1.600000*%
%TD*%
%TA.AperFunction,SMDPad,CuDef*%
%ADD23RoundRect,0.250000X-0.250000X-0.475000X0.250000X-0.475000X0.250000X0.475000X-0.250000X0.475000X0*%
%TD*%
%TA.AperFunction,SMDPad,CuDef*%
%ADD24RoundRect,0.250000X-0.475000X0.250000X-0.475000X-0.250000X0.475000X-0.250000X0.475000X0.250000X0*%
%TD*%
%TA.AperFunction,SMDPad,CuDef*%
%ADD25RoundRect,0.250000X0.475000X-0.250000X0.475000X0.250000X-0.475000X0.250000X-0.475000X-0.250000X0*%
%TD*%
%TA.AperFunction,SMDPad,CuDef*%
%ADD26RoundRect,0.250000X-0.312500X-0.625000X0.312500X-0.625000X0.312500X0.625000X-0.312500X0.625000X0*%
%TD*%
%TA.AperFunction,ComponentPad*%
%ADD27O,2.500000X1.600000*%
%TD*%
%TA.AperFunction,ComponentPad*%
%ADD28O,7.000000X3.500000*%
%TD*%
%TA.AperFunction,SMDPad,CuDef*%
%ADD29R,1.400000X1.200000*%
%TD*%
%TA.AperFunction,SMDPad,CuDef*%
%ADD30R,1.400000X0.300000*%
%TD*%
%TA.AperFunction,SMDPad,CuDef*%
%ADD31RoundRect,0.150000X-0.825000X-0.150000X0.825000X-0.150000X0.825000X0.150000X-0.825000X0.150000X0*%
%TD*%
%TA.AperFunction,SMDPad,CuDef*%
%ADD32RoundRect,0.250000X0.362500X1.425000X-0.362500X1.425000X-0.362500X-1.425000X0.362500X-1.425000X0*%
%TD*%
%TA.AperFunction,SMDPad,CuDef*%
%ADD33RoundRect,0.250000X-0.362500X-1.425000X0.362500X-1.425000X0.362500X1.425000X-0.362500X1.425000X0*%
%TD*%
%TA.AperFunction,ViaPad*%
%ADD34C,0.800000*%
%TD*%
%TA.AperFunction,Conductor*%
%ADD35C,0.250000*%
%TD*%
G04 APERTURE END LIST*
D10*
%TO.P,J2,1*%
%TO.N,GND*%
X185600000Y-63500000D03*
D11*
%TO.P,J2,2*%
%TO.N,Net-(J2-Pad2)*%
X180600000Y-68500000D03*
%TO.P,J2,3*%
%TO.N,Net-(J2-Pad3)*%
X190600000Y-68500000D03*
%TO.P,J2,10*%
%TO.N,N/C*%
X183100000Y-68500000D03*
%TO.P,J2,11*%
X188100000Y-68500000D03*
%TD*%
D12*
%TO.P,R9,1*%
%TO.N,Net-(C17-Pad2)*%
X127787500Y-102700000D03*
%TO.P,R9,2*%
%TO.N,Net-(C17-Pad1)*%
X129612500Y-102700000D03*
%TD*%
D13*
%TO.P,R8,1*%
%TO.N,Net-(C16-Pad2)*%
X131012500Y-82300000D03*
%TO.P,R8,2*%
%TO.N,Net-(C16-Pad1)*%
X129187500Y-82300000D03*
%TD*%
D14*
%TO.P,L1,1,1*%
%TO.N,Net-(C1-Pad1)*%
X123100000Y-59760000D03*
%TO.P,L1,2,2*%
%TO.N,Net-(C2-Pad1)*%
X123100000Y-64840000D03*
%TD*%
%TO.P,L2,1,1*%
%TO.N,Net-(C2-Pad1)*%
X134700000Y-67360000D03*
%TO.P,L2,2,2*%
%TO.N,GND*%
X134700000Y-72440000D03*
%TD*%
%TO.P,L3,1,1*%
%TO.N,Net-(C4-Pad2)*%
X123100000Y-67600000D03*
%TO.P,L3,2,2*%
%TO.N,Net-(L3-Pad2)*%
X123100000Y-72680000D03*
%TD*%
D15*
%TO.P,C13,1*%
%TO.N,Filtered 5V*%
X113500000Y-115187246D03*
D16*
%TO.P,C13,2*%
%TO.N,GND*%
X113500000Y-122687246D03*
%TD*%
D17*
%TO.P,R1,1*%
%TO.N,+5V*%
X126100000Y-119212500D03*
%TO.P,R1,2*%
%TO.N,Filtered 5V*%
X126100000Y-117387500D03*
%TD*%
D18*
%TO.P,TP13,1,1*%
%TO.N,Net-(TP13-Pad1)*%
X151100000Y-102200000D03*
%TD*%
%TO.P,TP14,1,1*%
%TO.N,Net-(TP14-Pad1)*%
X165700000Y-93300000D03*
%TD*%
%TO.P,TP15,1,1*%
%TO.N,Net-(TP15-Pad1)*%
X164400000Y-83300000D03*
%TD*%
D19*
%TO.P,C17,1*%
%TO.N,Net-(C17-Pad1)*%
X128650000Y-105900000D03*
%TO.P,C17,2*%
%TO.N,Net-(C17-Pad2)*%
X126750000Y-105900000D03*
%TD*%
D18*
%TO.P,TP12,1,1*%
%TO.N,Net-(C27-Pad1)*%
X197200000Y-80500000D03*
%TD*%
D20*
%TO.P,R21,1*%
%TO.N,Net-(J2-Pad2)*%
X192600000Y-74187500D03*
%TO.P,R21,2*%
%TO.N,Net-(C27-Pad1)*%
X192600000Y-76012500D03*
%TD*%
D18*
%TO.P,TP2,1,1*%
%TO.N,Net-(L3-Pad2)*%
X144200000Y-70100000D03*
%TD*%
%TO.P,TP9,1,1*%
%TO.N,Net-(C19-Pad1)*%
X174900000Y-113200000D03*
%TD*%
D21*
%TO.P,A1,1,D1/TX*%
%TO.N,unconnected-(A1-Pad1)*%
X107650000Y-150010000D03*
D22*
%TO.P,A1,2,D0/RX*%
%TO.N,unconnected-(A1-Pad2)*%
X110190000Y-150010000D03*
%TO.P,A1,3,~{RESET}*%
%TO.N,unconnected-(A1-Pad3)*%
X112730000Y-150010000D03*
%TO.P,A1,4,GND*%
%TO.N,GND*%
X115270000Y-150010000D03*
%TO.P,A1,5,D2*%
%TO.N,unconnected-(A1-Pad5)*%
X117810000Y-150010000D03*
%TO.P,A1,6,D3*%
%TO.N,unconnected-(A1-Pad6)*%
X120350000Y-150010000D03*
%TO.P,A1,7,D4*%
%TO.N,unconnected-(A1-Pad7)*%
X122890000Y-150010000D03*
%TO.P,A1,8,D5*%
%TO.N,unconnected-(A1-Pad8)*%
X125430000Y-150010000D03*
%TO.P,A1,9,D6*%
%TO.N,unconnected-(A1-Pad9)*%
X127970000Y-150010000D03*
%TO.P,A1,10,D7*%
%TO.N,unconnected-(A1-Pad10)*%
X130510000Y-150010000D03*
%TO.P,A1,11,D8*%
%TO.N,unconnected-(A1-Pad11)*%
X133050000Y-150010000D03*
%TO.P,A1,12,D9*%
%TO.N,unconnected-(A1-Pad12)*%
X135590000Y-150010000D03*
%TO.P,A1,13,D10*%
%TO.N,unconnected-(A1-Pad13)*%
X138130000Y-150010000D03*
%TO.P,A1,14,D11*%
%TO.N,unconnected-(A1-Pad14)*%
X140670000Y-150010000D03*
%TO.P,A1,15,D12*%
%TO.N,unconnected-(A1-Pad15)*%
X143210000Y-150010000D03*
%TO.P,A1,16,D13*%
%TO.N,unconnected-(A1-Pad16)*%
X143210000Y-134770000D03*
%TO.P,A1,17,3V3*%
%TO.N,+3V3*%
X140670000Y-134770000D03*
%TO.P,A1,18,AREF*%
%TO.N,unconnected-(A1-Pad18)*%
X138130000Y-134770000D03*
%TO.P,A1,19,A0*%
%TO.N,unconnected-(A1-Pad19)*%
X135590000Y-134770000D03*
%TO.P,A1,20,A1*%
%TO.N,unconnected-(A1-Pad20)*%
X133050000Y-134770000D03*
%TO.P,A1,21,A2*%
%TO.N,unconnected-(A1-Pad21)*%
X130510000Y-134770000D03*
%TO.P,A1,22,A3*%
%TO.N,unconnected-(A1-Pad22)*%
X127970000Y-134770000D03*
%TO.P,A1,23,A4*%
%TO.N,/SDA*%
X125430000Y-134770000D03*
%TO.P,A1,24,A5*%
%TO.N,/SCL*%
X122890000Y-134770000D03*
%TO.P,A1,25,A6*%
%TO.N,unconnected-(A1-Pad25)*%
X120350000Y-134770000D03*
%TO.P,A1,26,A7*%
%TO.N,unconnected-(A1-Pad26)*%
X117810000Y-134770000D03*
%TO.P,A1,27,+5V*%
%TO.N,+5V*%
X115270000Y-134770000D03*
%TO.P,A1,28,~{RESET}*%
%TO.N,unconnected-(A1-Pad28)*%
X112730000Y-134770000D03*
%TO.P,A1,29,GND*%
%TO.N,GND*%
X110190000Y-134770000D03*
%TO.P,A1,30,VIN*%
%TO.N,unconnected-(A1-Pad30)*%
X107650000Y-134770000D03*
%TD*%
D23*
%TO.P,C20,1*%
%TO.N,Net-(C20-Pad1)*%
X186250000Y-108500000D03*
%TO.P,C20,2*%
%TO.N,Net-(C20-Pad2)*%
X188150000Y-108500000D03*
%TD*%
D19*
%TO.P,C27,1*%
%TO.N,Net-(C27-Pad1)*%
X191850000Y-80600000D03*
%TO.P,C27,2*%
%TO.N,Net-(C20-Pad2)*%
X189950000Y-80600000D03*
%TD*%
D20*
%TO.P,R13,1*%
%TO.N,Net-(C23-Pad2)*%
X186300000Y-102787500D03*
%TO.P,R13,2*%
%TO.N,Net-(C20-Pad1)*%
X186300000Y-104612500D03*
%TD*%
D18*
%TO.P,TP5,1,1*%
%TO.N,Net-(C11-Pad1)*%
X118237500Y-99400000D03*
%TD*%
D24*
%TO.P,C2,1*%
%TO.N,Net-(C2-Pad1)*%
X150400000Y-58950000D03*
%TO.P,C2,2*%
%TO.N,GND*%
X150400000Y-60850000D03*
%TD*%
D25*
%TO.P,C14,1*%
%TO.N,GND*%
X146400000Y-123550000D03*
%TO.P,C14,2*%
%TO.N,Filtered 5V*%
X146400000Y-121650000D03*
%TD*%
D26*
%TO.P,R5,1*%
%TO.N,Net-(C10-Pad2)*%
X126837500Y-94600000D03*
%TO.P,R5,2*%
%TO.N,Net-(C16-Pad2)*%
X129762500Y-94600000D03*
%TD*%
D25*
%TO.P,C18,1*%
%TO.N,GND*%
X134600000Y-90450000D03*
%TO.P,C18,2*%
%TO.N,Filtered 5V*%
X134600000Y-88550000D03*
%TD*%
D18*
%TO.P,TP1,1,1*%
%TO.N,Net-(C1-Pad2)*%
X144200000Y-64600000D03*
%TD*%
D23*
%TO.P,C11,1*%
%TO.N,Net-(C11-Pad1)*%
X122087500Y-89400000D03*
%TO.P,C11,2*%
%TO.N,GND*%
X123987500Y-89400000D03*
%TD*%
D18*
%TO.P,TP10,1,1*%
%TO.N,Net-(C20-Pad1)*%
X193500000Y-112600000D03*
%TD*%
D19*
%TO.P,C23,1*%
%TO.N,GND*%
X187950000Y-98900000D03*
%TO.P,C23,2*%
%TO.N,Net-(C23-Pad2)*%
X186050000Y-98900000D03*
%TD*%
D27*
%TO.P,J1,1,In*%
%TO.N,GND*%
X114450000Y-65500000D03*
%TO.P,J1,2,Ext*%
%TO.N,Net-(C1-Pad2)*%
X114450000Y-68040000D03*
D28*
X109370000Y-70580000D03*
X109370000Y-60420000D03*
%TD*%
D17*
%TO.P,R14,1*%
%TO.N,Net-(R14-Pad1)*%
X170700000Y-89112500D03*
%TO.P,R14,2*%
%TO.N,GND*%
X170700000Y-87287500D03*
%TD*%
D18*
%TO.P,TP11,1,1*%
%TO.N,Net-(C26-Pad1)*%
X171800000Y-81600000D03*
%TD*%
D17*
%TO.P,R10,1*%
%TO.N,Net-(C16-Pad1)*%
X181800000Y-114012500D03*
%TO.P,R10,2*%
%TO.N,Net-(C19-Pad1)*%
X181800000Y-112187500D03*
%TD*%
D24*
%TO.P,C25,1*%
%TO.N,GND*%
X185100000Y-80450000D03*
%TO.P,C25,2*%
%TO.N,Filtered 5V*%
X185100000Y-82350000D03*
%TD*%
D13*
%TO.P,R17,1*%
%TO.N,Net-(C20-Pad2)*%
X192112500Y-95700000D03*
%TO.P,R17,2*%
%TO.N,Net-(R15-Pad2)*%
X190287500Y-95700000D03*
%TD*%
D29*
%TO.P,Y1,1,1*%
%TO.N,Net-(U1-Pad3)*%
X149700000Y-95850000D03*
%TO.P,Y1,2,2*%
%TO.N,GND*%
X151900000Y-95850000D03*
%TO.P,Y1,3,3*%
%TO.N,Net-(U1-Pad2)*%
X151900000Y-94150000D03*
%TO.P,Y1,4,4*%
%TO.N,GND*%
X149700000Y-94150000D03*
%TD*%
D30*
%TO.P,U1,1,VDD*%
%TO.N,+3V3*%
X156500000Y-95500000D03*
%TO.P,U1,2,XA*%
%TO.N,Net-(U1-Pad2)*%
X156500000Y-96000000D03*
%TO.P,U1,3,XB*%
%TO.N,Net-(U1-Pad3)*%
X156500000Y-96500000D03*
%TO.P,U1,4,SCL*%
%TO.N,/SCL*%
X156500000Y-97000000D03*
%TO.P,U1,5,SDA*%
%TO.N,/SDA*%
X156500000Y-97500000D03*
%TO.P,U1,6,CLK2*%
%TO.N,Net-(TP13-Pad1)*%
X160900000Y-97500000D03*
%TO.P,U1,7,VDDO*%
%TO.N,+3V3*%
X160900000Y-97000000D03*
%TO.P,U1,8,GND*%
%TO.N,GND*%
X160900000Y-96500000D03*
%TO.P,U1,9,CLK1*%
%TO.N,Net-(TP15-Pad1)*%
X160900000Y-96000000D03*
%TO.P,U1,10,CLK0*%
%TO.N,Net-(TP14-Pad1)*%
X160900000Y-95500000D03*
%TD*%
D31*
%TO.P,U3,1*%
%TO.N,Net-(C16-Pad1)*%
X139025000Y-79195000D03*
%TO.P,U3,2,-*%
%TO.N,Net-(C16-Pad2)*%
X139025000Y-80465000D03*
%TO.P,U3,3,+*%
%TO.N,Net-(R4-Pad2)*%
X139025000Y-81735000D03*
%TO.P,U3,4,V-*%
%TO.N,GND*%
X139025000Y-83005000D03*
%TO.P,U3,5,+*%
%TO.N,Net-(R6-Pad2)*%
X143975000Y-83005000D03*
%TO.P,U3,6,-*%
%TO.N,Net-(C17-Pad2)*%
X143975000Y-81735000D03*
%TO.P,U3,7*%
%TO.N,Net-(C17-Pad1)*%
X143975000Y-80465000D03*
%TO.P,U3,8,V+*%
%TO.N,Filtered 5V*%
X143975000Y-79195000D03*
%TD*%
D24*
%TO.P,C3,1*%
%TO.N,GND*%
X164900000Y-95950000D03*
%TO.P,C3,2*%
%TO.N,+3V3*%
X164900000Y-97850000D03*
%TD*%
D19*
%TO.P,C12,1*%
%TO.N,GND*%
X123887500Y-84600000D03*
%TO.P,C12,2*%
%TO.N,Net-(C12-Pad2)*%
X121987500Y-84600000D03*
%TD*%
D24*
%TO.P,C21,1*%
%TO.N,GND*%
X140620000Y-129450000D03*
%TO.P,C21,2*%
%TO.N,+3V3*%
X140620000Y-131350000D03*
%TD*%
D20*
%TO.P,R19,1*%
%TO.N,+3V3*%
X121820000Y-129187500D03*
%TO.P,R19,2*%
%TO.N,/SCL*%
X121820000Y-131012500D03*
%TD*%
D17*
%TO.P,R18,1*%
%TO.N,/SDA*%
X127020000Y-130912500D03*
%TO.P,R18,2*%
%TO.N,+3V3*%
X127020000Y-129087500D03*
%TD*%
D19*
%TO.P,C22,1*%
%TO.N,Net-(C22-Pad1)*%
X181850000Y-98900000D03*
%TO.P,C22,2*%
%TO.N,GND*%
X179950000Y-98900000D03*
%TD*%
D20*
%TO.P,R15,1*%
%TO.N,GND*%
X196300000Y-87387500D03*
%TO.P,R15,2*%
%TO.N,Net-(R15-Pad2)*%
X196300000Y-89212500D03*
%TD*%
%TO.P,R12,1*%
%TO.N,Net-(C22-Pad1)*%
X181700000Y-102787500D03*
%TO.P,R12,2*%
%TO.N,Net-(C19-Pad1)*%
X181700000Y-104612500D03*
%TD*%
D18*
%TO.P,TP4,1,1*%
%TO.N,Net-(C10-Pad2)*%
X118337500Y-93000000D03*
%TD*%
%TO.P,TP8,1,1*%
%TO.N,Net-(C17-Pad1)*%
X134500000Y-107500000D03*
%TD*%
D32*
%TO.P,R3,1*%
%TO.N,Net-(L3-Pad2)*%
X160262500Y-69800000D03*
%TO.P,R3,2*%
%TO.N,GND*%
X154337500Y-69800000D03*
%TD*%
D23*
%TO.P,C5,1*%
%TO.N,GND*%
X150450000Y-66600000D03*
%TO.P,C5,2*%
%TO.N,Filtered 5V*%
X152350000Y-66600000D03*
%TD*%
D18*
%TO.P,TP6,1,1*%
%TO.N,Net-(C12-Pad2)*%
X117900000Y-84700000D03*
%TD*%
D23*
%TO.P,C9,1*%
%TO.N,Net-(C9-Pad1)*%
X122087500Y-99200000D03*
%TO.P,C9,2*%
%TO.N,GND*%
X123987500Y-99200000D03*
%TD*%
%TO.P,C4,1*%
%TO.N,Net-(C2-Pad1)*%
X158250000Y-58900000D03*
%TO.P,C4,2*%
%TO.N,Net-(C4-Pad2)*%
X160150000Y-58900000D03*
%TD*%
D26*
%TO.P,R6,1*%
%TO.N,Net-(C11-Pad1)*%
X126837500Y-90900000D03*
%TO.P,R6,2*%
%TO.N,Net-(R6-Pad2)*%
X129762500Y-90900000D03*
%TD*%
D23*
%TO.P,C16,1*%
%TO.N,Net-(C16-Pad1)*%
X129150000Y-78800000D03*
%TO.P,C16,2*%
%TO.N,Net-(C16-Pad2)*%
X131050000Y-78800000D03*
%TD*%
D24*
%TO.P,C8,1*%
%TO.N,Filtered 5V*%
X133500000Y-121250000D03*
%TO.P,C8,2*%
%TO.N,GND*%
X133500000Y-123150000D03*
%TD*%
D18*
%TO.P,TP7,1,1*%
%TO.N,Net-(C16-Pad1)*%
X181800000Y-119100000D03*
%TD*%
D31*
%TO.P,U4,8,V+*%
%TO.N,Filtered 5V*%
X181975000Y-85095000D03*
%TO.P,U4,7*%
%TO.N,Net-(C20-Pad2)*%
X181975000Y-86365000D03*
%TO.P,U4,6,-*%
%TO.N,Net-(R15-Pad2)*%
X181975000Y-87635000D03*
%TO.P,U4,5,+*%
%TO.N,Net-(C23-Pad2)*%
X181975000Y-88905000D03*
%TO.P,U4,4,V-*%
%TO.N,GND*%
X177025000Y-88905000D03*
%TO.P,U4,3,+*%
%TO.N,Net-(R14-Pad1)*%
X177025000Y-87635000D03*
%TO.P,U4,2,-*%
%TO.N,Net-(C22-Pad1)*%
X177025000Y-86365000D03*
%TO.P,U4,1*%
%TO.N,Net-(C19-Pad2)*%
X177025000Y-85095000D03*
%TD*%
D19*
%TO.P,C10,1*%
%TO.N,GND*%
X123987500Y-94200000D03*
%TO.P,C10,2*%
%TO.N,Net-(C10-Pad2)*%
X122087500Y-94200000D03*
%TD*%
D26*
%TO.P,R4,1*%
%TO.N,Net-(C9-Pad1)*%
X126900000Y-98300000D03*
%TO.P,R4,2*%
%TO.N,Net-(R4-Pad2)*%
X129825000Y-98300000D03*
%TD*%
D23*
%TO.P,C6,1*%
%TO.N,GND*%
X110487500Y-83400000D03*
%TO.P,C6,2*%
%TO.N,+5V*%
X112387500Y-83400000D03*
%TD*%
D12*
%TO.P,R16,1*%
%TO.N,Net-(R14-Pad1)*%
X175187500Y-95700000D03*
%TO.P,R16,2*%
%TO.N,Net-(C19-Pad2)*%
X177012500Y-95700000D03*
%TD*%
D20*
%TO.P,R11,1*%
%TO.N,Net-(C20-Pad1)*%
X186500000Y-112187500D03*
%TO.P,R11,2*%
%TO.N,Net-(C17-Pad1)*%
X186500000Y-114012500D03*
%TD*%
D19*
%TO.P,C1,1*%
%TO.N,Net-(C1-Pad1)*%
X142550000Y-59100000D03*
%TO.P,C1,2*%
%TO.N,Net-(C1-Pad2)*%
X140650000Y-59100000D03*
%TD*%
%TO.P,C19,1*%
%TO.N,Net-(C19-Pad1)*%
X181850000Y-108600000D03*
%TO.P,C19,2*%
%TO.N,Net-(C19-Pad2)*%
X179950000Y-108600000D03*
%TD*%
D24*
%TO.P,C7,1*%
%TO.N,Filtered 5V*%
X128700000Y-121450000D03*
%TO.P,C7,2*%
%TO.N,GND*%
X128700000Y-123350000D03*
%TD*%
D20*
%TO.P,R20,1*%
%TO.N,Net-(J2-Pad3)*%
X175300000Y-74687500D03*
%TO.P,R20,2*%
%TO.N,Net-(C26-Pad1)*%
X175300000Y-76512500D03*
%TD*%
D33*
%TO.P,R2,1*%
%TO.N,Filtered 5V*%
X154337500Y-65500000D03*
%TO.P,R2,2*%
%TO.N,Net-(L3-Pad2)*%
X160262500Y-65500000D03*
%TD*%
D24*
%TO.P,C24,1*%
%TO.N,GND*%
X115320000Y-129050000D03*
%TO.P,C24,2*%
%TO.N,+5V*%
X115320000Y-130950000D03*
%TD*%
D19*
%TO.P,C26,1*%
%TO.N,Net-(C26-Pad1)*%
X179650000Y-80700000D03*
%TO.P,C26,2*%
%TO.N,Net-(C19-Pad2)*%
X177750000Y-80700000D03*
%TD*%
D18*
%TO.P,TP3,1,1*%
%TO.N,Net-(C9-Pad1)*%
X121237500Y-105500000D03*
%TD*%
D25*
%TO.P,C15,1*%
%TO.N,GND*%
X135600000Y-103350000D03*
%TO.P,C15,2*%
%TO.N,Filtered 5V*%
X135600000Y-101450000D03*
%TD*%
D31*
%TO.P,U2,1,1~{OE}*%
%TO.N,GND*%
X108662500Y-88255000D03*
%TO.P,U2,2,S1*%
%TO.N,Net-(TP15-Pad1)*%
X108662500Y-89525000D03*
%TO.P,U2,3,1B4*%
%TO.N,Net-(C12-Pad2)*%
X108662500Y-90795000D03*
%TO.P,U2,4,1B3*%
%TO.N,Net-(C11-Pad1)*%
X108662500Y-92065000D03*
%TO.P,U2,5,1B2*%
%TO.N,Net-(C10-Pad2)*%
X108662500Y-93335000D03*
%TO.P,U2,6,1B1*%
%TO.N,Net-(C9-Pad1)*%
X108662500Y-94605000D03*
%TO.P,U2,7,1A*%
%TO.N,Net-(L3-Pad2)*%
X108662500Y-95875000D03*
%TO.P,U2,8,GND*%
%TO.N,GND*%
X108662500Y-97145000D03*
%TO.P,U2,9,2A*%
%TO.N,Net-(L3-Pad2)*%
X113612500Y-97145000D03*
%TO.P,U2,10,2B1*%
%TO.N,Net-(C9-Pad1)*%
X113612500Y-95875000D03*
%TO.P,U2,11,2B2*%
%TO.N,Net-(C10-Pad2)*%
X113612500Y-94605000D03*
%TO.P,U2,12,2B3*%
%TO.N,Net-(C11-Pad1)*%
X113612500Y-93335000D03*
%TO.P,U2,13,2B4*%
%TO.N,Net-(C12-Pad2)*%
X113612500Y-92065000D03*
%TO.P,U2,14,S0*%
%TO.N,Net-(TP14-Pad1)*%
X113612500Y-90795000D03*
%TO.P,U2,15,2~{OE}*%
%TO.N,GND*%
X113612500Y-89525000D03*
%TO.P,U2,16,VCC*%
%TO.N,+5V*%
X113612500Y-88255000D03*
%TD*%
D26*
%TO.P,R7,1*%
%TO.N,Net-(C12-Pad2)*%
X126837500Y-87200000D03*
%TO.P,R7,2*%
%TO.N,Net-(C17-Pad2)*%
X129762500Y-87200000D03*
%TD*%
D34*
%TO.N,Net-(J2-Pad3)*%
X188700000Y-73200000D03*
X188700000Y-71700000D03*
%TO.N,Net-(C1-Pad2)*%
X119100000Y-57900000D03*
X116400000Y-57000000D03*
%TO.N,Net-(C2-Pad1)*%
X146962500Y-59000000D03*
X146800000Y-61600000D03*
X141600000Y-61800000D03*
X141800000Y-65600000D03*
%TO.N,Net-(C1-Pad1)*%
X144837500Y-59000000D03*
X144600000Y-56600000D03*
X138800000Y-56600000D03*
X138800000Y-59700000D03*
%TO.N,GND*%
X138222532Y-84353790D03*
X139000000Y-91300000D03*
X173200000Y-88500000D03*
X173100000Y-86910500D03*
%TO.N,+5V*%
X118500000Y-128900000D03*
X120200000Y-126400000D03*
%TO.N,Net-(C22-Pad1)*%
X174100000Y-93700000D03*
X174200000Y-86300000D03*
%TO.N,Net-(C19-Pad2)*%
X176400000Y-81625500D03*
X174800000Y-85000000D03*
%TO.N,Filtered 5V*%
X144000000Y-77000000D03*
%TO.N,Net-(C16-Pad2)*%
X136400000Y-82600000D03*
X136500000Y-80600000D03*
%TO.N,Net-(C17-Pad2)*%
X144151000Y-92300000D03*
X145800000Y-81800000D03*
%TO.N,Net-(R6-Pad2)*%
X146575500Y-83200000D03*
X144875500Y-94200000D03*
%TO.N,Net-(C17-Pad1)*%
X147300000Y-80400000D03*
X145600000Y-96700000D03*
%TO.N,GND*%
X169200000Y-99100000D03*
X172200000Y-87300000D03*
X103900000Y-88400000D03*
X103900000Y-97200000D03*
X169000000Y-87300000D03*
X141000000Y-124600000D03*
X147400000Y-98000000D03*
X186000000Y-96200000D03*
X141100000Y-128200000D03*
X152200000Y-69600000D03*
X183800000Y-87800000D03*
X183600000Y-84600000D03*
X183500000Y-80400000D03*
X188100000Y-97100000D03*
X169000000Y-95700000D03*
X110300000Y-132900000D03*
X172100000Y-83700000D03*
X122600000Y-123400000D03*
X110100000Y-128800000D03*
X122600000Y-127600000D03*
X183500000Y-83700000D03*
X150400000Y-67800000D03*
X147400000Y-94100000D03*
%TO.N,+3V3*%
X128900000Y-129100000D03*
X149700000Y-131300000D03*
X128900000Y-132600000D03*
X149700000Y-97800000D03*
X153800000Y-97724500D03*
X154789286Y-95424608D03*
%TO.N,/SDA*%
X137800000Y-130900000D03*
X156500000Y-125700000D03*
X137700000Y-125600000D03*
X156500000Y-99100000D03*
%TO.N,/SCL*%
X121600000Y-126875500D03*
X155400000Y-126800000D03*
X119100000Y-131300000D03*
X155100000Y-97724500D03*
%TO.N,+5V*%
X114400000Y-87100000D03*
X113400000Y-82400000D03*
X106000000Y-131000000D03*
X105000000Y-80200000D03*
X114300000Y-83700000D03*
X113300000Y-80300000D03*
%TO.N,Filtered 5V*%
X128400000Y-114900000D03*
X128500000Y-120100000D03*
X173600000Y-73600000D03*
X173700000Y-82324500D03*
X148800000Y-73400000D03*
X139300000Y-114500000D03*
X137000000Y-97500000D03*
X139500000Y-101500000D03*
X137700000Y-90100000D03*
X144600000Y-74900000D03*
X152200000Y-64500000D03*
%TO.N,Net-(C9-Pad1)*%
X115600000Y-96000000D03*
X119500000Y-96000000D03*
%TO.N,Net-(C11-Pad1)*%
X105900000Y-99800000D03*
X105900000Y-92100000D03*
X115400000Y-88800000D03*
X115400000Y-93300000D03*
%TO.N,Net-(C12-Pad2)*%
X117900000Y-86500000D03*
X118000000Y-90900000D03*
%TO.N,Net-(C16-Pad1)*%
X133200000Y-112700000D03*
X135700000Y-112600000D03*
%TO.N,Net-(C16-Pad2)*%
X132549000Y-85800000D03*
X132549000Y-94800000D03*
%TO.N,Net-(C17-Pad1)*%
X170600000Y-113700000D03*
X186600000Y-116700000D03*
%TO.N,Net-(C17-Pad2)*%
X131100000Y-92700000D03*
X131000000Y-88500000D03*
X135200000Y-92900000D03*
X131100000Y-100300000D03*
X131100000Y-95600000D03*
X135700000Y-95100000D03*
%TO.N,Net-(C19-Pad2)*%
X175300000Y-80900000D03*
X178500000Y-98375500D03*
X178500000Y-108600000D03*
X175400000Y-89100000D03*
X179400000Y-92800000D03*
X179500000Y-95700000D03*
%TO.N,Net-(C20-Pad2)*%
X185724500Y-88700000D03*
X188700000Y-83900000D03*
X188700000Y-80700000D03*
X192100000Y-94600000D03*
X185935863Y-84050949D03*
X192000000Y-92675500D03*
%TO.N,Net-(C22-Pad1)*%
X181900000Y-93700000D03*
X182000000Y-97400000D03*
%TO.N,Net-(C26-Pad1)*%
X180900000Y-76800000D03*
X174593245Y-81606755D03*
X174600000Y-77800000D03*
X180900000Y-80600000D03*
%TO.N,Net-(L3-Pad2)*%
X151300000Y-70100000D03*
X120700000Y-75000000D03*
X120400000Y-94900000D03*
X151300000Y-72600000D03*
%TO.N,Net-(R4-Pad2)*%
X134000000Y-84900000D03*
X131824500Y-98300000D03*
X131800000Y-85000000D03*
X134274500Y-81400000D03*
%TO.N,Net-(R14-Pad1)*%
X170800000Y-95800000D03*
X170800000Y-90500000D03*
%TO.N,Net-(R15-Pad2)*%
X188200000Y-92400000D03*
X188200000Y-95800000D03*
%TO.N,Net-(U1-Pad2)*%
X153400000Y-96200000D03*
X153400000Y-94200000D03*
%TO.N,Net-(TP15-Pad1)*%
X137200000Y-87600000D03*
X125600000Y-84700000D03*
X106100000Y-89600000D03*
X162400000Y-95100000D03*
X162800000Y-87700000D03*
X106700000Y-79300000D03*
X125500000Y-79600000D03*
X130800000Y-84900000D03*
X131100000Y-86800000D03*
X135162701Y-86962701D03*
%TO.N,Net-(TP14-Pad1)*%
X115200000Y-78575500D03*
X161000000Y-75000000D03*
X121124500Y-76600000D03*
X116200000Y-90300000D03*
X160900000Y-93900000D03*
X121124500Y-78575500D03*
%TD*%
D35*
%TO.N,Net-(J2-Pad2)*%
X180600000Y-72200000D02*
X180600000Y-68500000D01*
X180875489Y-72475489D02*
X180600000Y-72200000D01*
X190987500Y-74187500D02*
X189275489Y-72475489D01*
X189275489Y-72475489D02*
X180875489Y-72475489D01*
X192600000Y-74187500D02*
X190987500Y-74187500D01*
%TO.N,Net-(J2-Pad3)*%
X190600000Y-69800000D02*
X190600000Y-68500000D01*
X188700000Y-71700000D02*
X190600000Y-69800000D01*
X180400000Y-73200000D02*
X188700000Y-73200000D01*
%TO.N,Net-(C1-Pad2)*%
X141000000Y-64600000D02*
X144200000Y-64600000D01*
X140650000Y-64250000D02*
X141000000Y-64600000D01*
X140650000Y-59100000D02*
X140650000Y-64250000D01*
%TO.N,Net-(L3-Pad2)*%
X121680000Y-74100000D02*
X123100000Y-72680000D01*
X121600000Y-74100000D02*
X121680000Y-74100000D01*
%TO.N,Net-(C1-Pad2)*%
X139450000Y-57900000D02*
X140650000Y-59100000D01*
X119100000Y-57900000D02*
X139450000Y-57900000D01*
X116400000Y-67800000D02*
X116400000Y-57000000D01*
X116160000Y-68040000D02*
X116400000Y-67800000D01*
X114450000Y-68040000D02*
X116160000Y-68040000D01*
%TO.N,Net-(C2-Pad1)*%
X141600000Y-61800000D02*
X141800000Y-61600000D01*
X141800000Y-61600000D02*
X146800000Y-61600000D01*
X134700000Y-65600000D02*
X141800000Y-65600000D01*
%TO.N,Net-(C4-Pad2)*%
X160200000Y-58850000D02*
X160150000Y-58900000D01*
X160200000Y-57400000D02*
X160200000Y-58850000D01*
X160124511Y-57324511D02*
X160200000Y-57400000D01*
X119200000Y-56900000D02*
X119624511Y-57324511D01*
X118700000Y-56900000D02*
X119200000Y-56900000D01*
X117400000Y-58200000D02*
X118700000Y-56900000D01*
X117400000Y-66100000D02*
X117400000Y-58200000D01*
X117600000Y-66300000D02*
X117400000Y-66100000D01*
X121800000Y-66300000D02*
X117600000Y-66300000D01*
X119624511Y-57324511D02*
X160124511Y-57324511D01*
X123100000Y-67600000D02*
X121800000Y-66300000D01*
%TO.N,Net-(C2-Pad1)*%
X123860000Y-65600000D02*
X134700000Y-65600000D01*
X134700000Y-65600000D02*
X134700000Y-67360000D01*
X123100000Y-64840000D02*
X123860000Y-65600000D01*
%TO.N,Net-(C1-Pad1)*%
X138800000Y-56600000D02*
X144600000Y-56600000D01*
X138740000Y-59760000D02*
X138800000Y-59700000D01*
X123100000Y-59760000D02*
X138740000Y-59760000D01*
%TO.N,Net-(C16-Pad2)*%
X131012500Y-82300000D02*
X133062500Y-82300000D01*
%TO.N,Net-(C16-Pad1)*%
X129187500Y-82300000D02*
X127137500Y-82300000D01*
%TO.N,Net-(C17-Pad2)*%
X127787500Y-102700000D02*
X125737500Y-102700000D01*
%TO.N,Net-(C17-Pad1)*%
X129612500Y-102700000D02*
X131662500Y-102700000D01*
%TO.N,Net-(C22-Pad1)*%
X174100000Y-93700000D02*
X181900000Y-93700000D01*
%TO.N,GND*%
X138222532Y-83807468D02*
X139025000Y-83005000D01*
X138222532Y-84353790D02*
X138222532Y-83807468D01*
X138800000Y-91500000D02*
X139000000Y-91300000D01*
X136600000Y-91500000D02*
X138800000Y-91500000D01*
X135550000Y-90450000D02*
X136600000Y-91500000D01*
X134600000Y-90450000D02*
X135550000Y-90450000D01*
X176495489Y-88375489D02*
X177025000Y-88905000D01*
X173200000Y-88500000D02*
X173324511Y-88375489D01*
X173324511Y-88375489D02*
X176495489Y-88375489D01*
X172589500Y-86910500D02*
X173100000Y-86910500D01*
X172200000Y-87300000D02*
X172589500Y-86910500D01*
%TO.N,Net-(C19-Pad2)*%
X179300000Y-89200000D02*
X179300000Y-89100000D01*
X178600000Y-89900000D02*
X179300000Y-89200000D01*
X176100000Y-89900000D02*
X178600000Y-89900000D01*
X176100000Y-89800000D02*
X176100000Y-89900000D01*
X175400000Y-89100000D02*
X176100000Y-89800000D01*
%TO.N,Net-(TP14-Pad1)*%
X161500000Y-93300000D02*
X165700000Y-93300000D01*
X160900000Y-93900000D02*
X161500000Y-93300000D01*
%TO.N,GND*%
X116770000Y-125957246D02*
X116770000Y-127600000D01*
X113500000Y-122687246D02*
X116770000Y-125957246D01*
%TO.N,+5V*%
X116570000Y-132200000D02*
X115320000Y-130950000D01*
X118000000Y-132200000D02*
X116570000Y-132200000D01*
X118000000Y-129400000D02*
X118000000Y-132200000D01*
X118500000Y-128900000D02*
X118000000Y-129400000D01*
X121700000Y-125700000D02*
X121000000Y-126400000D01*
X121000000Y-126400000D02*
X120200000Y-126400000D01*
X124611783Y-119212500D02*
X121700000Y-122124283D01*
X126100000Y-119212500D02*
X124611783Y-119212500D01*
X121700000Y-122124283D02*
X121700000Y-125700000D01*
%TO.N,Filtered 5V*%
X126100000Y-117200000D02*
X128400000Y-114900000D01*
X126100000Y-117387500D02*
X126100000Y-117200000D01*
X122272754Y-115187246D02*
X122560000Y-114900000D01*
X113500000Y-115187246D02*
X122272754Y-115187246D01*
X122560000Y-114900000D02*
X128400000Y-114900000D01*
%TO.N,Net-(TP15-Pad1)*%
X164400000Y-86100000D02*
X162800000Y-87700000D01*
X164400000Y-83300000D02*
X164400000Y-86100000D01*
%TO.N,Net-(TP13-Pad1)*%
X160900000Y-100600000D02*
X160900000Y-97500000D01*
X151100000Y-102200000D02*
X159300000Y-102200000D01*
X159300000Y-102200000D02*
X160900000Y-100600000D01*
%TO.N,Net-(R14-Pad1)*%
X171412114Y-89112500D02*
X170700000Y-89112500D01*
X172889614Y-87635000D02*
X171412114Y-89112500D01*
X177025000Y-87635000D02*
X172889614Y-87635000D01*
%TO.N,Net-(C22-Pad1)*%
X174265000Y-86365000D02*
X174200000Y-86300000D01*
X177025000Y-86365000D02*
X174265000Y-86365000D01*
%TO.N,Net-(C19-Pad2)*%
X176025500Y-81625500D02*
X175300000Y-80900000D01*
X176400000Y-81625500D02*
X176025500Y-81625500D01*
X174895000Y-85095000D02*
X174800000Y-85000000D01*
X177025000Y-85095000D02*
X174895000Y-85095000D01*
%TO.N,Filtered 5V*%
X185000000Y-84900000D02*
X185000000Y-83700000D01*
X184575489Y-85324511D02*
X185000000Y-84900000D01*
X181975000Y-85095000D02*
X182204511Y-85324511D01*
X182204511Y-85324511D02*
X184575489Y-85324511D01*
%TO.N,Net-(C20-Pad2)*%
X186100000Y-86400000D02*
X186100000Y-84215086D01*
X186100000Y-84215086D02*
X185935863Y-84050949D01*
X186065000Y-86365000D02*
X186100000Y-86400000D01*
X181975000Y-86365000D02*
X186065000Y-86365000D01*
%TO.N,Net-(R15-Pad2)*%
X186840480Y-89450480D02*
X188165000Y-90775000D01*
X184425866Y-89450480D02*
X186840480Y-89450480D01*
X182610386Y-87635000D02*
X184425866Y-89450480D01*
X181975000Y-87635000D02*
X182610386Y-87635000D01*
%TO.N,Net-(C23-Pad2)*%
X186724511Y-92175489D02*
X186724511Y-98225489D01*
X186900000Y-92000000D02*
X186724511Y-92175489D01*
X186375000Y-90775000D02*
X186895000Y-90775000D01*
X182605000Y-88905000D02*
X183600000Y-89900000D01*
X186724511Y-98225489D02*
X186050000Y-98900000D01*
X183600000Y-89900000D02*
X185500000Y-89900000D01*
X185500000Y-89900000D02*
X186375000Y-90775000D01*
X181975000Y-88905000D02*
X182605000Y-88905000D01*
X186895000Y-90775000D02*
X186900000Y-90780000D01*
X186900000Y-90780000D02*
X186900000Y-92000000D01*
%TO.N,Filtered 5V*%
X147119614Y-79195000D02*
X143975000Y-79195000D01*
X148300000Y-80375386D02*
X147119614Y-79195000D01*
X148300000Y-86300000D02*
X148300000Y-80375386D01*
X144000000Y-86300000D02*
X148300000Y-86300000D01*
X143975000Y-77025000D02*
X144000000Y-77000000D01*
X143975000Y-79195000D02*
X143975000Y-77025000D01*
%TO.N,Net-(C16-Pad2)*%
X136400000Y-82600000D02*
X135275489Y-83724511D01*
X138890000Y-80600000D02*
X136500000Y-80600000D01*
X135275489Y-83724511D02*
X134724511Y-83724511D01*
X139025000Y-80465000D02*
X138890000Y-80600000D01*
%TO.N,GND*%
X140224511Y-101800103D02*
X138674614Y-103350000D01*
X140224511Y-99254511D02*
X140224511Y-101800103D01*
X138674614Y-103350000D02*
X135600000Y-103350000D01*
X138975000Y-98005000D02*
X140224511Y-99254511D01*
%TO.N,Net-(C17-Pad2)*%
X135800000Y-92300000D02*
X135200000Y-92900000D01*
X144151000Y-92300000D02*
X135800000Y-92300000D01*
X145735000Y-81735000D02*
X145800000Y-81800000D01*
X143975000Y-81735000D02*
X145735000Y-81735000D01*
%TO.N,Net-(R6-Pad2)*%
X144170000Y-83200000D02*
X143975000Y-83005000D01*
X146575500Y-83200000D02*
X144170000Y-83200000D01*
X144870500Y-94195000D02*
X144875500Y-94200000D01*
X134025000Y-94195000D02*
X144870500Y-94195000D01*
%TO.N,Net-(C17-Pad1)*%
X147300000Y-80400000D02*
X144040000Y-80400000D01*
X144040000Y-80400000D02*
X143975000Y-80465000D01*
X145565000Y-96735000D02*
X145600000Y-96700000D01*
X132549011Y-96849011D02*
X132500000Y-96800000D01*
X132549011Y-101813489D02*
X132549011Y-96849011D01*
X131662500Y-102700000D02*
X132549011Y-101813489D01*
X132500000Y-96800000D02*
X132565000Y-96735000D01*
X132565000Y-96735000D02*
X145565000Y-96735000D01*
%TO.N,Net-(R4-Pad2)*%
X138860000Y-81900000D02*
X139025000Y-81735000D01*
X137300000Y-81900000D02*
X138860000Y-81900000D01*
X136800000Y-81400000D02*
X137300000Y-81900000D01*
X134274500Y-81400000D02*
X136800000Y-81400000D01*
%TO.N,Net-(C16-Pad1)*%
X139025000Y-78025000D02*
X139025000Y-79195000D01*
X138000000Y-77000000D02*
X139025000Y-78025000D01*
%TO.N,Net-(C1-Pad2)*%
X114450000Y-70350000D02*
X114450000Y-68040000D01*
X114220000Y-70580000D02*
X114450000Y-70350000D01*
X109370000Y-70580000D02*
X114220000Y-70580000D01*
X109370000Y-60420000D02*
X109370000Y-70580000D01*
%TO.N,GND*%
X139750000Y-123350000D02*
X141000000Y-124600000D01*
X115270000Y-137470000D02*
X115100000Y-137300000D01*
X183600000Y-83800000D02*
X183500000Y-83700000D01*
X188100000Y-97100000D02*
X188100000Y-98750000D01*
X180000000Y-96500000D02*
X180300000Y-96200000D01*
X154137500Y-69600000D02*
X154337500Y-69800000D01*
X108400000Y-87992500D02*
X108662500Y-88255000D01*
X149949022Y-94150000D02*
X150600000Y-93499022D01*
X122560000Y-121900000D02*
X122560000Y-123360000D01*
X139200000Y-123350000D02*
X139750000Y-123350000D01*
X183500000Y-80400000D02*
X185050000Y-80400000D01*
X110100000Y-128800000D02*
X110350000Y-129050000D01*
X180300000Y-96200000D02*
X186000000Y-96200000D01*
X110487500Y-83400000D02*
X108400000Y-83400000D01*
X149700000Y-94150000D02*
X149949022Y-94150000D01*
X127450000Y-123350000D02*
X128700000Y-123350000D01*
X159400000Y-96400000D02*
X159400000Y-95300000D01*
X115100000Y-137300000D02*
X110000000Y-137300000D01*
X153224511Y-95475489D02*
X152274511Y-95475489D01*
X138975000Y-98005000D02*
X138980000Y-98000000D01*
X141100000Y-128200000D02*
X141100000Y-128970000D01*
X164150000Y-96700000D02*
X163950000Y-96500000D01*
X180705000Y-83705000D02*
X183495000Y-83705000D01*
X141100000Y-128970000D02*
X140620000Y-129450000D01*
X190700000Y-87700000D02*
X185699886Y-87700000D01*
X185599886Y-87800000D02*
X183800000Y-87800000D01*
X150600000Y-93499022D02*
X150600000Y-92600000D01*
X179750000Y-99100000D02*
X179950000Y-98900000D01*
X146400000Y-123550000D02*
X142050000Y-123550000D01*
X127400000Y-122200000D02*
X127400000Y-123300000D01*
X169200000Y-99100000D02*
X179750000Y-99100000D01*
X149650000Y-94100000D02*
X149700000Y-94150000D01*
X150400000Y-66550000D02*
X150450000Y-66600000D01*
X164900000Y-95950000D02*
X168750000Y-95950000D01*
X152824614Y-92600000D02*
X154200000Y-93975386D01*
X122560000Y-121900000D02*
X127100000Y-121900000D01*
X127400000Y-123300000D02*
X127450000Y-123350000D01*
X110190000Y-133010000D02*
X110300000Y-132900000D01*
X110190000Y-134770000D02*
X110190000Y-133010000D01*
X122600000Y-127600000D02*
X116770000Y-127600000D01*
X185050000Y-80400000D02*
X185100000Y-80450000D01*
X115270000Y-150010000D02*
X115270000Y-137470000D01*
X158600000Y-94500000D02*
X154200000Y-94500000D01*
X159400000Y-95300000D02*
X158600000Y-94500000D01*
X183600000Y-84600000D02*
X183600000Y-83800000D01*
X154200000Y-93975386D02*
X154200000Y-94500000D01*
X150400000Y-60850000D02*
X150400000Y-66550000D01*
X172187500Y-87287500D02*
X172200000Y-87300000D01*
X103955000Y-97145000D02*
X103900000Y-97200000D01*
X168750000Y-95950000D02*
X169000000Y-95700000D01*
X183495000Y-83705000D02*
X183500000Y-83700000D01*
X108662500Y-97145000D02*
X103955000Y-97145000D01*
X172100000Y-83700000D02*
X180700000Y-83700000D01*
X110190000Y-137110000D02*
X110190000Y-134770000D01*
X147400000Y-94100000D02*
X149650000Y-94100000D01*
X110350000Y-129050000D02*
X115320000Y-129050000D01*
X179950000Y-98900000D02*
X179950000Y-96550000D01*
X190705000Y-85825000D02*
X190705000Y-87695000D01*
X150450000Y-66600000D02*
X150450000Y-67750000D01*
X108400000Y-83400000D02*
X108400000Y-87992500D01*
X180700000Y-83700000D02*
X180705000Y-83705000D01*
X116770000Y-127600000D02*
X115320000Y-129050000D01*
X133500000Y-123150000D02*
X133700000Y-123350000D01*
X160900000Y-96500000D02*
X159500000Y-96500000D01*
X109555000Y-88255000D02*
X110825000Y-89525000D01*
X179950000Y-96550000D02*
X180000000Y-96500000D01*
X154200000Y-94500000D02*
X153224511Y-95475489D01*
X138980000Y-98000000D02*
X147400000Y-98000000D01*
X127100000Y-121900000D02*
X127400000Y-122200000D01*
X170687500Y-87300000D02*
X170700000Y-87287500D01*
X152274511Y-95475489D02*
X151900000Y-95850000D01*
X159500000Y-96500000D02*
X159400000Y-96400000D01*
X108517500Y-88400000D02*
X108662500Y-88255000D01*
X163950000Y-96500000D02*
X160900000Y-96500000D01*
X196300000Y-87387500D02*
X194737500Y-85825000D01*
X133700000Y-123350000D02*
X139200000Y-123350000D01*
X128700000Y-123350000D02*
X133300000Y-123350000D01*
X185699886Y-87700000D02*
X185599886Y-87800000D01*
X190705000Y-87695000D02*
X190700000Y-87700000D01*
X152200000Y-69600000D02*
X154137500Y-69600000D01*
X122560000Y-123360000D02*
X122600000Y-123400000D01*
X108662500Y-88255000D02*
X109555000Y-88255000D01*
X164900000Y-95950000D02*
X164150000Y-96700000D01*
X194737500Y-85825000D02*
X190705000Y-85825000D01*
X170700000Y-87287500D02*
X172187500Y-87287500D01*
X150450000Y-67750000D02*
X150400000Y-67800000D01*
X150600000Y-92600000D02*
X152824614Y-92600000D01*
X103900000Y-88400000D02*
X108517500Y-88400000D01*
X142050000Y-123550000D02*
X141000000Y-124600000D01*
X110825000Y-89525000D02*
X113612500Y-89525000D01*
X110000000Y-137300000D02*
X110190000Y-137110000D01*
X188100000Y-98750000D02*
X187950000Y-98900000D01*
X169000000Y-87300000D02*
X170687500Y-87300000D01*
%TO.N,+3V3*%
X158700000Y-97100000D02*
X158800000Y-97000000D01*
X157799022Y-95800000D02*
X158700000Y-95800000D01*
X140620000Y-131350000D02*
X149650000Y-131350000D01*
X127020000Y-129087500D02*
X128887500Y-129087500D01*
X126920000Y-129187500D02*
X127020000Y-129087500D01*
X154789286Y-95424608D02*
X156424608Y-95424608D01*
X158700000Y-95800000D02*
X158700000Y-97100000D01*
X140670000Y-131400000D02*
X140670000Y-134770000D01*
X128900000Y-132600000D02*
X139370000Y-132600000D01*
X163100000Y-97000000D02*
X163950000Y-97850000D01*
X156500000Y-95500000D02*
X157499022Y-95500000D01*
X160900000Y-97000000D02*
X163100000Y-97000000D01*
X156424608Y-95424608D02*
X156500000Y-95500000D01*
X153724500Y-97800000D02*
X153800000Y-97724500D01*
X163950000Y-97850000D02*
X164900000Y-97850000D01*
X140620000Y-131350000D02*
X140670000Y-131400000D01*
X158800000Y-97000000D02*
X160900000Y-97000000D01*
X121820000Y-129187500D02*
X126920000Y-129187500D01*
X149650000Y-131350000D02*
X149700000Y-131300000D01*
X128887500Y-129087500D02*
X128900000Y-129100000D01*
X157499022Y-95500000D02*
X157799022Y-95800000D01*
X149700000Y-97800000D02*
X153724500Y-97800000D01*
X139370000Y-132600000D02*
X140620000Y-131350000D01*
%TO.N,/SDA*%
X137787500Y-130912500D02*
X137800000Y-130900000D01*
X137700000Y-125600000D02*
X156400000Y-125600000D01*
X125430000Y-134770000D02*
X125430000Y-132502500D01*
X125430000Y-132502500D02*
X127020000Y-130912500D01*
X156400000Y-125600000D02*
X156500000Y-125700000D01*
X156500000Y-99100000D02*
X156500000Y-97500000D01*
X127020000Y-130912500D02*
X137787500Y-130912500D01*
%TO.N,/SCL*%
X122890000Y-132082500D02*
X121820000Y-131012500D01*
X121675500Y-126800000D02*
X155400000Y-126800000D01*
X121532500Y-131300000D02*
X119100000Y-131300000D01*
X155100000Y-97400978D02*
X155500978Y-97000000D01*
X121600000Y-126875500D02*
X121675500Y-126800000D01*
X155100000Y-97724500D02*
X155100000Y-97400978D01*
X155500978Y-97000000D02*
X156500000Y-97000000D01*
X122890000Y-134770000D02*
X122890000Y-132082500D01*
X121820000Y-131012500D02*
X121532500Y-131300000D01*
%TO.N,+5V*%
X112687500Y-83700000D02*
X114300000Y-83700000D01*
X113200000Y-80200000D02*
X113300000Y-80300000D01*
X106050000Y-130950000D02*
X106000000Y-131000000D01*
X114400000Y-87467500D02*
X113612500Y-88255000D01*
X115270000Y-134770000D02*
X115270000Y-131000000D01*
X113387500Y-82400000D02*
X112387500Y-83400000D01*
X115320000Y-130950000D02*
X106050000Y-130950000D01*
X115270000Y-131000000D02*
X115320000Y-130950000D01*
X114400000Y-87100000D02*
X114400000Y-87467500D01*
X105000000Y-80200000D02*
X113200000Y-80200000D01*
X112387500Y-83400000D02*
X112687500Y-83700000D01*
X113400000Y-82400000D02*
X113387500Y-82400000D01*
%TO.N,Net-(C1-Pad1)*%
X142550000Y-59100000D02*
X144737500Y-59100000D01*
X144737500Y-59100000D02*
X144837500Y-59000000D01*
%TO.N,Net-(C2-Pad1)*%
X150350000Y-59000000D02*
X150400000Y-58950000D01*
X150400000Y-58950000D02*
X154787500Y-58950000D01*
X154900000Y-58837500D02*
X158187500Y-58837500D01*
X154787500Y-58950000D02*
X154900000Y-58837500D01*
X158187500Y-58837500D02*
X158250000Y-58900000D01*
X146962500Y-59000000D02*
X150350000Y-59000000D01*
%TO.N,Filtered 5V*%
X173600000Y-73600000D02*
X156575500Y-73600000D01*
X136150000Y-90100000D02*
X137700000Y-90100000D01*
X154337500Y-65500000D02*
X154300000Y-65537500D01*
X136325000Y-86825000D02*
X134600000Y-88550000D01*
X137905000Y-85005000D02*
X139300000Y-86400000D01*
X137000000Y-97500000D02*
X136495000Y-98005000D01*
X185000000Y-83700000D02*
X185000000Y-82450000D01*
X143900000Y-86400000D02*
X144000000Y-86300000D01*
X136325000Y-85005000D02*
X137905000Y-85005000D01*
X156300000Y-73324500D02*
X148875500Y-73324500D01*
X134600000Y-88550000D02*
X136150000Y-90100000D01*
X154300000Y-66700000D02*
X152450000Y-66700000D01*
X138900000Y-114900000D02*
X128400000Y-114900000D01*
X152200000Y-66450000D02*
X152350000Y-66600000D01*
X185100000Y-82350000D02*
X173725500Y-82350000D01*
X134900000Y-119850000D02*
X139200000Y-119850000D01*
X185000000Y-82450000D02*
X185100000Y-82350000D01*
X135600000Y-101450000D02*
X135600000Y-99580000D01*
X146400000Y-121650000D02*
X144600000Y-119850000D01*
X148875500Y-73324500D02*
X148800000Y-73400000D01*
X173725500Y-82350000D02*
X173700000Y-82324500D01*
X147300000Y-74900000D02*
X148800000Y-73400000D01*
X133300000Y-121450000D02*
X133500000Y-121250000D01*
X128500000Y-120100000D02*
X128500000Y-121250000D01*
X152200000Y-64500000D02*
X152200000Y-66450000D01*
X128700000Y-121450000D02*
X133300000Y-121450000D01*
X136495000Y-98005000D02*
X134025000Y-98005000D01*
X154300000Y-65537500D02*
X154300000Y-66700000D01*
X144600000Y-74900000D02*
X147300000Y-74900000D01*
X144600000Y-119850000D02*
X139200000Y-119850000D01*
X128500000Y-121250000D02*
X128700000Y-121450000D01*
X139450000Y-101450000D02*
X139500000Y-101500000D01*
X135600000Y-101450000D02*
X139450000Y-101450000D01*
X152450000Y-66700000D02*
X152350000Y-66600000D01*
X133500000Y-121250000D02*
X134900000Y-119850000D01*
X139300000Y-114500000D02*
X138900000Y-114900000D01*
X139300000Y-86400000D02*
X143900000Y-86400000D01*
X156575500Y-73600000D02*
X156300000Y-73324500D01*
X135600000Y-99580000D02*
X134025000Y-98005000D01*
X136325000Y-85005000D02*
X136325000Y-86825000D01*
%TO.N,Net-(C9-Pad1)*%
X111300000Y-95800000D02*
X113537500Y-95800000D01*
X121237500Y-100050000D02*
X120200000Y-99012500D01*
X120200000Y-99012500D02*
X120200000Y-97400000D01*
X110105000Y-94605000D02*
X111300000Y-95800000D01*
X115600000Y-96000000D02*
X113737500Y-96000000D01*
X113537500Y-95800000D02*
X113612500Y-95875000D01*
X113737500Y-96000000D02*
X113612500Y-95875000D01*
X121900000Y-98100000D02*
X121900000Y-99012500D01*
X121950480Y-98150480D02*
X121900000Y-98100000D01*
X121900000Y-99012500D02*
X122087500Y-99200000D01*
X121237500Y-100050000D02*
X122087500Y-99200000D01*
X108662500Y-94605000D02*
X110105000Y-94605000D01*
X126750480Y-98150480D02*
X121950480Y-98150480D01*
X121237500Y-105500000D02*
X121237500Y-100050000D01*
X120200000Y-97400000D02*
X120200000Y-96700000D01*
X120200000Y-96700000D02*
X119500000Y-96000000D01*
X126900000Y-98300000D02*
X126750480Y-98150480D01*
%TO.N,Net-(C10-Pad2)*%
X122087500Y-94200000D02*
X120887500Y-93000000D01*
X122000000Y-94287500D02*
X122087500Y-94200000D01*
X126837500Y-94600000D02*
X126187980Y-95249520D01*
X116732500Y-94605000D02*
X113612500Y-94605000D01*
X120887500Y-93000000D02*
X118337500Y-93000000D01*
X111200000Y-94600000D02*
X113607500Y-94600000D01*
X122000000Y-95600000D02*
X122000000Y-94287500D01*
X108662500Y-93335000D02*
X109935000Y-93335000D01*
X109935000Y-93335000D02*
X111200000Y-94600000D01*
X126187980Y-95249520D02*
X122350480Y-95249520D01*
X122350480Y-95249520D02*
X122000000Y-95600000D01*
X113607500Y-94600000D02*
X113612500Y-94605000D01*
X118337500Y-93000000D02*
X116732500Y-94605000D01*
%TO.N,Net-(C11-Pad1)*%
X109665000Y-92065000D02*
X110900000Y-93300000D01*
X108662500Y-92065000D02*
X109665000Y-92065000D01*
X105900000Y-92100000D02*
X108627500Y-92100000D01*
X126837500Y-90900000D02*
X122100000Y-90900000D01*
X121487500Y-88800000D02*
X122087500Y-89400000D01*
X110900000Y-93300000D02*
X113577500Y-93300000D01*
X115400000Y-88800000D02*
X121487500Y-88800000D01*
X122100000Y-90900000D02*
X121900000Y-91100000D01*
X121900000Y-91100000D02*
X121900000Y-89587500D01*
X106300000Y-99400000D02*
X105900000Y-99800000D01*
X108627500Y-92100000D02*
X108662500Y-92065000D01*
X121900000Y-89587500D02*
X122087500Y-89400000D01*
X113577500Y-93300000D02*
X113612500Y-93335000D01*
X113612500Y-93335000D02*
X115365000Y-93335000D01*
X118237500Y-99400000D02*
X106300000Y-99400000D01*
X115365000Y-93335000D02*
X115400000Y-93300000D01*
%TO.N,Net-(C12-Pad2)*%
X121900000Y-87200000D02*
X121900000Y-84687500D01*
X111000000Y-92000000D02*
X113547500Y-92000000D01*
X121887500Y-84700000D02*
X121987500Y-84600000D01*
X116700000Y-91100000D02*
X116700000Y-92100000D01*
X113547500Y-92000000D02*
X113612500Y-92065000D01*
X109795000Y-90795000D02*
X111000000Y-92000000D01*
X117900000Y-84700000D02*
X117900000Y-86500000D01*
X108662500Y-90795000D02*
X109795000Y-90795000D01*
X113647500Y-92100000D02*
X113612500Y-92065000D01*
X118000000Y-90900000D02*
X116900000Y-90900000D01*
X126837500Y-87200000D02*
X121900000Y-87200000D01*
X116700000Y-92100000D02*
X113647500Y-92100000D01*
X116900000Y-90900000D02*
X116700000Y-91100000D01*
X121900000Y-84687500D02*
X121987500Y-84600000D01*
X117900000Y-84700000D02*
X121887500Y-84700000D01*
%TO.N,Net-(C16-Pad1)*%
X129100000Y-76900000D02*
X137900000Y-76900000D01*
X170524614Y-112600000D02*
X135700000Y-112600000D01*
X127137500Y-80212886D02*
X127137500Y-82300000D01*
X181287989Y-114524511D02*
X172449125Y-114524511D01*
X126100000Y-110000000D02*
X126000000Y-109900000D01*
X129150000Y-78800000D02*
X129150000Y-76950000D01*
X104300000Y-77200000D02*
X119500000Y-77200000D01*
X181800000Y-119100000D02*
X181800000Y-114012500D01*
X103600000Y-77900000D02*
X104300000Y-77200000D01*
X119624511Y-77324511D02*
X124249125Y-77324511D01*
X103100000Y-78400000D02*
X103600000Y-77900000D01*
X126300000Y-112700000D02*
X126100000Y-112900000D01*
X127137500Y-82300000D02*
X127137500Y-80812500D01*
X133200000Y-112700000D02*
X126300000Y-112700000D01*
X103100000Y-109900000D02*
X103100000Y-78400000D01*
X124249125Y-77324511D02*
X127137500Y-80212886D01*
X172449125Y-114524511D02*
X170524614Y-112600000D01*
X129150000Y-76950000D02*
X129100000Y-76900000D01*
X126000000Y-109900000D02*
X103100000Y-109900000D01*
X137900000Y-76900000D02*
X138000000Y-77000000D01*
X126100000Y-112900000D02*
X126100000Y-110000000D01*
X127137500Y-80812500D02*
X129150000Y-78800000D01*
X119500000Y-77200000D02*
X119624511Y-77324511D01*
X181800000Y-114012500D02*
X181287989Y-114524511D01*
%TO.N,Net-(C16-Pad2)*%
X133062500Y-80812500D02*
X133062500Y-82300000D01*
X133300000Y-82300000D02*
X133062500Y-82300000D01*
X129762500Y-94600000D02*
X132349000Y-94600000D01*
X134700000Y-85800000D02*
X134724511Y-85775489D01*
X134724511Y-85775489D02*
X134724511Y-83724511D01*
X134724511Y-83724511D02*
X133300000Y-82300000D01*
X132349000Y-94600000D02*
X132549000Y-94800000D01*
X132549000Y-85800000D02*
X134700000Y-85800000D01*
X131050000Y-78800000D02*
X133062500Y-80812500D01*
%TO.N,Net-(C17-Pad1)*%
X186600000Y-116700000D02*
X186600000Y-114112500D01*
X134500000Y-113300000D02*
X134400000Y-113400000D01*
X131662500Y-104837500D02*
X131662500Y-102700000D01*
X131837500Y-104837500D02*
X131662500Y-104837500D01*
X134500000Y-107500000D02*
X134500000Y-113300000D01*
X134500000Y-107500000D02*
X131837500Y-104837500D01*
X134400000Y-113400000D02*
X134700000Y-113700000D01*
X134700000Y-113700000D02*
X170600000Y-113700000D01*
X130600000Y-105900000D02*
X131662500Y-104837500D01*
X186600000Y-114112500D02*
X186500000Y-114012500D01*
X128650000Y-105900000D02*
X130600000Y-105900000D01*
%TO.N,Net-(C17-Pad2)*%
X129762500Y-87200000D02*
X129762500Y-87262500D01*
X125600000Y-100600000D02*
X125900000Y-100300000D01*
X135700000Y-95100000D02*
X134390000Y-95100000D01*
X125737500Y-102700000D02*
X125600000Y-102562500D01*
X125400000Y-103037500D02*
X125737500Y-102700000D01*
X131100000Y-92700000D02*
X135000000Y-92700000D01*
X125400000Y-105200000D02*
X125400000Y-103037500D01*
X126100000Y-105900000D02*
X125400000Y-105200000D01*
X133890000Y-95600000D02*
X134025000Y-95465000D01*
X126750000Y-105900000D02*
X126100000Y-105900000D01*
X129762500Y-87262500D02*
X131000000Y-88500000D01*
X125900000Y-100300000D02*
X131100000Y-100300000D01*
X125600000Y-102562500D02*
X125600000Y-100600000D01*
X134390000Y-95100000D02*
X134025000Y-95465000D01*
X131100000Y-95600000D02*
X133890000Y-95600000D01*
X135000000Y-92700000D02*
X135200000Y-92900000D01*
%TO.N,Net-(C19-Pad1)*%
X180312500Y-112187500D02*
X181800000Y-112187500D01*
X181850000Y-108600000D02*
X181850000Y-112137500D01*
X180300000Y-112700000D02*
X180300000Y-112200000D01*
X179800000Y-113200000D02*
X180300000Y-112700000D01*
X174900000Y-113200000D02*
X179800000Y-113200000D01*
X181850000Y-112137500D02*
X181800000Y-112187500D01*
X181700000Y-104612500D02*
X181700000Y-108450000D01*
X180300000Y-112200000D02*
X180312500Y-112187500D01*
X181700000Y-108450000D02*
X181850000Y-108600000D01*
%TO.N,Net-(C19-Pad2)*%
X178500000Y-96700000D02*
X179500000Y-95700000D01*
X177550000Y-80900000D02*
X177750000Y-80700000D01*
X177012500Y-95700000D02*
X179500000Y-95700000D01*
X179435000Y-89235000D02*
X179300000Y-89100000D01*
X179400000Y-92800000D02*
X179400000Y-90810000D01*
X179400000Y-90810000D02*
X179435000Y-90775000D01*
X179950000Y-108600000D02*
X178500000Y-108600000D01*
X175300000Y-80900000D02*
X177550000Y-80900000D01*
X178500000Y-98375500D02*
X178500000Y-96700000D01*
X179435000Y-90775000D02*
X179435000Y-89235000D01*
%TO.N,Net-(C20-Pad1)*%
X186912500Y-112600000D02*
X186500000Y-112187500D01*
X186250000Y-108500000D02*
X186250000Y-111937500D01*
X193500000Y-112600000D02*
X186912500Y-112600000D01*
X186250000Y-111937500D02*
X186500000Y-112187500D01*
X186300000Y-104612500D02*
X186300000Y-108450000D01*
X186300000Y-108450000D02*
X186250000Y-108500000D01*
%TO.N,Net-(C20-Pad2)*%
X188150000Y-108500000D02*
X188550000Y-108100000D01*
X188550000Y-108100000D02*
X192000000Y-108100000D01*
X192112500Y-107987500D02*
X192112500Y-95700000D01*
X192112500Y-95700000D02*
X192112500Y-94612500D01*
X191824500Y-92500000D02*
X189300000Y-92500000D01*
X192000000Y-108100000D02*
X192112500Y-107987500D01*
X185724500Y-88700000D02*
X189100000Y-88700000D01*
X188800000Y-80600000D02*
X188700000Y-80700000D01*
X188700000Y-83900000D02*
X186086812Y-83900000D01*
X189200000Y-88800000D02*
X189200000Y-90540000D01*
X186086812Y-83900000D02*
X185935863Y-84050949D01*
X189200000Y-90540000D02*
X189435000Y-90775000D01*
X189300000Y-92500000D02*
X189300000Y-90910000D01*
X189950000Y-80600000D02*
X188800000Y-80600000D01*
X189300000Y-90910000D02*
X189435000Y-90775000D01*
X189100000Y-88700000D02*
X189200000Y-88800000D01*
X192000000Y-92675500D02*
X191824500Y-92500000D01*
X192112500Y-94612500D02*
X192100000Y-94600000D01*
%TO.N,Net-(C22-Pad1)*%
X181700000Y-102787500D02*
X181700000Y-99050000D01*
X182000000Y-98750000D02*
X181850000Y-98900000D01*
X182000000Y-97400000D02*
X182000000Y-98750000D01*
X181700000Y-99050000D02*
X181850000Y-98900000D01*
%TO.N,Net-(C23-Pad2)*%
X186300000Y-102787500D02*
X186300000Y-99150000D01*
X186300000Y-99150000D02*
X186050000Y-98900000D01*
%TO.N,Net-(C26-Pad1)*%
X180900000Y-76800000D02*
X175587500Y-76800000D01*
X180800000Y-80700000D02*
X180900000Y-80600000D01*
X174600000Y-77212500D02*
X175300000Y-76512500D01*
X179650000Y-80700000D02*
X180800000Y-80700000D01*
X171800000Y-81600000D02*
X174586490Y-81600000D01*
X174586490Y-81600000D02*
X174593245Y-81606755D01*
X175587500Y-76800000D02*
X175300000Y-76512500D01*
X174600000Y-77800000D02*
X174600000Y-77212500D01*
%TO.N,Net-(C27-Pad1)*%
X191850000Y-76762500D02*
X192600000Y-76012500D01*
X191950000Y-80500000D02*
X197200000Y-80500000D01*
X191850000Y-80600000D02*
X191950000Y-80500000D01*
X191850000Y-80600000D02*
X191850000Y-76762500D01*
%TO.N,Net-(J2-Pad3)*%
X175300000Y-74687500D02*
X176787500Y-73200000D01*
X176787500Y-73200000D02*
X180400000Y-73200000D01*
%TO.N,Net-(L3-Pad2)*%
X121600000Y-74100000D02*
X143900000Y-74100000D01*
X113612500Y-97145000D02*
X116355000Y-97145000D01*
X108662500Y-95875000D02*
X110075000Y-95875000D01*
X144200000Y-70100000D02*
X151300000Y-70100000D01*
X151300000Y-72600000D02*
X160300000Y-72600000D01*
X113467500Y-97000000D02*
X113612500Y-97145000D01*
X160300000Y-69837500D02*
X160262500Y-69800000D01*
X116355000Y-97145000D02*
X118600000Y-94900000D01*
X160262500Y-65500000D02*
X160262500Y-69800000D01*
X143900000Y-74100000D02*
X144200000Y-73800000D01*
X144200000Y-73800000D02*
X144200000Y-70100000D01*
X120700000Y-75000000D02*
X121600000Y-74100000D01*
X111200000Y-97000000D02*
X113467500Y-97000000D01*
X160300000Y-72600000D02*
X160300000Y-69837500D01*
X110075000Y-95875000D02*
X111200000Y-97000000D01*
X118600000Y-94900000D02*
X120400000Y-94900000D01*
%TO.N,Net-(R4-Pad2)*%
X133900000Y-85000000D02*
X134000000Y-84900000D01*
X129825000Y-98300000D02*
X131824500Y-98300000D01*
X131800000Y-85000000D02*
X133900000Y-85000000D01*
%TO.N,Net-(R6-Pad2)*%
X131450875Y-94075489D02*
X129762500Y-92387114D01*
X133905489Y-94075489D02*
X131450875Y-94075489D01*
X129762500Y-92387114D02*
X129762500Y-90900000D01*
X134025000Y-94195000D02*
X133905489Y-94075489D01*
%TO.N,Net-(R14-Pad1)*%
X170800000Y-95800000D02*
X175087500Y-95800000D01*
X175087500Y-95800000D02*
X175187500Y-95700000D01*
X170700000Y-89112500D02*
X170700000Y-90400000D01*
X170700000Y-90400000D02*
X170800000Y-90500000D01*
%TO.N,Net-(R15-Pad2)*%
X192399989Y-93400011D02*
X194300000Y-91500000D01*
X188165000Y-92635000D02*
X188165000Y-90775000D01*
X188165000Y-92365000D02*
X188200000Y-92400000D01*
X190187500Y-95800000D02*
X190287500Y-95700000D01*
X196200000Y-91200000D02*
X196300000Y-91300000D01*
X188200000Y-95800000D02*
X190187500Y-95800000D01*
X188165000Y-90775000D02*
X188165000Y-92365000D01*
X188200000Y-92400000D02*
X189200011Y-93400011D01*
X196300000Y-89212500D02*
X196300000Y-91300000D01*
X194300000Y-91500000D02*
X194300000Y-91200000D01*
X194300000Y-91200000D02*
X196200000Y-91200000D01*
X189200011Y-93400011D02*
X192399989Y-93400011D01*
%TO.N,Net-(U1-Pad2)*%
X153400000Y-96200000D02*
X155029542Y-96200000D01*
X151900000Y-94150000D02*
X153350000Y-94150000D01*
X155229542Y-96000000D02*
X156500000Y-96000000D01*
X153350000Y-94150000D02*
X153400000Y-94200000D01*
X155029542Y-96200000D02*
X155229542Y-96000000D01*
%TO.N,Net-(U1-Pad3)*%
X154865260Y-97000000D02*
X155365260Y-96500000D01*
X149700000Y-95850000D02*
X149700000Y-97000000D01*
X149700000Y-97000000D02*
X154865260Y-97000000D01*
X155365260Y-96500000D02*
X156500000Y-96500000D01*
%TO.N,Net-(TP15-Pad1)*%
X162400000Y-95499022D02*
X161899022Y-96000000D01*
X131100000Y-86800000D02*
X131262701Y-86962701D01*
X162700000Y-87600000D02*
X162800000Y-87700000D01*
X106700000Y-79300000D02*
X125200000Y-79300000D01*
X106175000Y-89525000D02*
X106100000Y-89600000D01*
X108662500Y-89525000D02*
X106175000Y-89525000D01*
X125600000Y-84700000D02*
X130600000Y-84700000D01*
X130600000Y-84700000D02*
X130800000Y-84900000D01*
X131262701Y-86962701D02*
X135162701Y-86962701D01*
X162400000Y-95100000D02*
X162400000Y-95499022D01*
X137200000Y-87600000D02*
X162700000Y-87600000D01*
X161899022Y-96000000D02*
X160900000Y-96000000D01*
X125200000Y-79300000D02*
X125500000Y-79600000D01*
%TO.N,Net-(TP14-Pad1)*%
X161000000Y-75000000D02*
X160275489Y-75724511D01*
X121700000Y-75700000D02*
X121600000Y-75800000D01*
X160900000Y-95500000D02*
X160900000Y-93900000D01*
X160275489Y-75724511D02*
X121724511Y-75724511D01*
X116200000Y-90300000D02*
X115705000Y-90795000D01*
X121724511Y-75724511D02*
X121700000Y-75700000D01*
X121600000Y-75800000D02*
X121600000Y-76300000D01*
X121124500Y-76600000D02*
X121300000Y-76600000D01*
X121300000Y-76600000D02*
X121600000Y-76300000D01*
X115705000Y-90795000D02*
X113612500Y-90795000D01*
X119324500Y-78575500D02*
X121124500Y-78575500D01*
X119324500Y-78575500D02*
X115200000Y-78575500D01*
%TD*%
M02*
