%TF.GenerationSoftware,KiCad,Pcbnew,(6.0.4)*%
%TF.CreationDate,2022-04-28T21:28:56-07:00*%
%TF.ProjectId,Complete Schematic V4,436f6d70-6c65-4746-9520-536368656d61,rev?*%
%TF.SameCoordinates,Original*%
%TF.FileFunction,Legend,Top*%
%TF.FilePolarity,Positive*%
%FSLAX46Y46*%
G04 Gerber Fmt 4.6, Leading zero omitted, Abs format (unit mm)*
G04 Created by KiCad (PCBNEW (6.0.4)) date 2022-04-28 21:28:56*
%MOMM*%
%LPD*%
G01*
G04 APERTURE LIST*
%ADD10C,0.050000*%
%ADD11C,0.150000*%
%ADD12C,0.300000*%
%ADD13C,0.450000*%
%ADD14C,0.127000*%
%ADD15C,0.340000*%
%ADD16C,0.120000*%
G04 APERTURE END LIST*
D10*
X150590000Y-128290000D02*
X150450000Y-128290000D01*
X150610000Y-128290000D02*
X150750000Y-128290000D01*
X150590000Y-128530000D02*
X150490000Y-128660000D01*
X150700000Y-128660000D02*
X150590000Y-128520000D01*
X150590000Y-128150000D02*
X150590000Y-128530000D01*
X150690000Y-128050000D02*
G75*
G03*
X150690000Y-128050000I-100000J0D01*
G01*
D11*
X168100000Y-56400000D02*
X200600000Y-56400000D01*
X200600000Y-56400000D02*
X200600000Y-122900000D01*
X200600000Y-122900000D02*
X168100000Y-122900000D01*
X168100000Y-122900000D02*
X168100000Y-56400000D01*
X101500000Y-56400000D02*
X168100000Y-56400000D01*
X168100000Y-56400000D02*
X168100000Y-75800000D01*
X168100000Y-75800000D02*
X101500000Y-75800000D01*
X101500000Y-75800000D02*
X101500000Y-56400000D01*
X166447619Y-72604761D02*
X166400000Y-72557142D01*
X166352380Y-72461904D01*
X166352380Y-72223809D01*
X166400000Y-72128571D01*
X166447619Y-72080952D01*
X166542857Y-72033333D01*
X166638095Y-72033333D01*
X166780952Y-72080952D01*
X167352380Y-72652380D01*
X167352380Y-72033333D01*
X167257142Y-71604761D02*
X167304761Y-71557142D01*
X167352380Y-71604761D01*
X167304761Y-71652380D01*
X167257142Y-71604761D01*
X167352380Y-71604761D01*
X166352380Y-70652380D02*
X166352380Y-71128571D01*
X166828571Y-71176190D01*
X166780952Y-71128571D01*
X166733333Y-71033333D01*
X166733333Y-70795238D01*
X166780952Y-70700000D01*
X166828571Y-70652380D01*
X166923809Y-70604761D01*
X167161904Y-70604761D01*
X167257142Y-70652380D01*
X167304761Y-70700000D01*
X167352380Y-70795238D01*
X167352380Y-71033333D01*
X167304761Y-71128571D01*
X167257142Y-71176190D01*
X166352380Y-70319047D02*
X167352380Y-69985714D01*
X166352380Y-69652380D01*
X166828571Y-68223809D02*
X166876190Y-68080952D01*
X166923809Y-68033333D01*
X167019047Y-67985714D01*
X167161904Y-67985714D01*
X167257142Y-68033333D01*
X167304761Y-68080952D01*
X167352380Y-68176190D01*
X167352380Y-68557142D01*
X166352380Y-68557142D01*
X166352380Y-68223809D01*
X166400000Y-68128571D01*
X166447619Y-68080952D01*
X166542857Y-68033333D01*
X166638095Y-68033333D01*
X166733333Y-68080952D01*
X166780952Y-68128571D01*
X166828571Y-68223809D01*
X166828571Y-68557142D01*
X167352380Y-67557142D02*
X166685714Y-67557142D01*
X166352380Y-67557142D02*
X166400000Y-67604761D01*
X166447619Y-67557142D01*
X166400000Y-67509523D01*
X166352380Y-67557142D01*
X166447619Y-67557142D01*
X167352380Y-66652380D02*
X166828571Y-66652380D01*
X166733333Y-66700000D01*
X166685714Y-66795238D01*
X166685714Y-66985714D01*
X166733333Y-67080952D01*
X167304761Y-66652380D02*
X167352380Y-66747619D01*
X167352380Y-66985714D01*
X167304761Y-67080952D01*
X167209523Y-67128571D01*
X167114285Y-67128571D01*
X167019047Y-67080952D01*
X166971428Y-66985714D01*
X166971428Y-66747619D01*
X166923809Y-66652380D01*
X167304761Y-66223809D02*
X167352380Y-66128571D01*
X167352380Y-65938095D01*
X167304761Y-65842857D01*
X167209523Y-65795238D01*
X167161904Y-65795238D01*
X167066666Y-65842857D01*
X167019047Y-65938095D01*
X167019047Y-66080952D01*
X166971428Y-66176190D01*
X166876190Y-66223809D01*
X166828571Y-66223809D01*
X166733333Y-66176190D01*
X166685714Y-66080952D01*
X166685714Y-65938095D01*
X166733333Y-65842857D01*
X148400000Y-62700000D02*
X168000000Y-62700000D01*
X168000000Y-62700000D02*
X168000000Y-73400000D01*
X168000000Y-73400000D02*
X148400000Y-73400000D01*
X148400000Y-73400000D02*
X148400000Y-62700000D01*
X148000000Y-89000000D02*
X167800000Y-89000000D01*
X167800000Y-89000000D02*
X167800000Y-104200000D01*
X167800000Y-104200000D02*
X148000000Y-104200000D01*
X148000000Y-104200000D02*
X148000000Y-89000000D01*
X101600000Y-75900000D02*
X148000000Y-75900000D01*
X148000000Y-75900000D02*
X148000000Y-109500000D01*
X148000000Y-109500000D02*
X101600000Y-109500000D01*
X101600000Y-109500000D02*
X101600000Y-75900000D01*
X101700000Y-127700000D02*
X151000000Y-127700000D01*
X151000000Y-127700000D02*
X151000000Y-109500000D01*
X151000000Y-109500000D02*
X101700000Y-109500000D01*
X101700000Y-109500000D02*
X101700000Y-127700000D01*
X101700000Y-127700000D02*
X151000000Y-127700000D01*
X151000000Y-127700000D02*
X151000000Y-155200000D01*
X151000000Y-155200000D02*
X101700000Y-155200000D01*
X101700000Y-155200000D02*
X101700000Y-127700000D01*
D12*
X173181190Y-123684761D02*
X173181190Y-125113333D01*
X173085952Y-125399047D01*
X172895476Y-125589523D01*
X172609761Y-125684761D01*
X172419285Y-125684761D01*
X174419285Y-125684761D02*
X174228809Y-125589523D01*
X174133571Y-125494285D01*
X174038333Y-125303809D01*
X174038333Y-124732380D01*
X174133571Y-124541904D01*
X174228809Y-124446666D01*
X174419285Y-124351428D01*
X174705000Y-124351428D01*
X174895476Y-124446666D01*
X174990714Y-124541904D01*
X175085952Y-124732380D01*
X175085952Y-125303809D01*
X174990714Y-125494285D01*
X174895476Y-125589523D01*
X174705000Y-125684761D01*
X174419285Y-125684761D01*
X175847857Y-125589523D02*
X176038333Y-125684761D01*
X176419285Y-125684761D01*
X176609761Y-125589523D01*
X176705000Y-125399047D01*
X176705000Y-125303809D01*
X176609761Y-125113333D01*
X176419285Y-125018095D01*
X176133571Y-125018095D01*
X175943095Y-124922857D01*
X175847857Y-124732380D01*
X175847857Y-124637142D01*
X175943095Y-124446666D01*
X176133571Y-124351428D01*
X176419285Y-124351428D01*
X176609761Y-124446666D01*
X177562142Y-125684761D02*
X177562142Y-123684761D01*
X178419285Y-125684761D02*
X178419285Y-124637142D01*
X178324047Y-124446666D01*
X178133571Y-124351428D01*
X177847857Y-124351428D01*
X177657380Y-124446666D01*
X177562142Y-124541904D01*
X180228809Y-124351428D02*
X180228809Y-125684761D01*
X179371666Y-124351428D02*
X179371666Y-125399047D01*
X179466904Y-125589523D01*
X179657380Y-125684761D01*
X179943095Y-125684761D01*
X180133571Y-125589523D01*
X180228809Y-125494285D01*
X182038333Y-125684761D02*
X182038333Y-124637142D01*
X181943095Y-124446666D01*
X181752619Y-124351428D01*
X181371666Y-124351428D01*
X181181190Y-124446666D01*
X182038333Y-125589523D02*
X181847857Y-125684761D01*
X181371666Y-125684761D01*
X181181190Y-125589523D01*
X181085952Y-125399047D01*
X181085952Y-125208571D01*
X181181190Y-125018095D01*
X181371666Y-124922857D01*
X181847857Y-124922857D01*
X182038333Y-124827619D01*
X184514523Y-125684761D02*
X184514523Y-123684761D01*
X185181190Y-125113333D01*
X185847857Y-123684761D01*
X185847857Y-125684761D01*
X187657380Y-124351428D02*
X187657380Y-125684761D01*
X186800238Y-124351428D02*
X186800238Y-125399047D01*
X186895476Y-125589523D01*
X187085952Y-125684761D01*
X187371666Y-125684761D01*
X187562142Y-125589523D01*
X187657380Y-125494285D01*
X188895476Y-125684761D02*
X188705000Y-125589523D01*
X188609761Y-125399047D01*
X188609761Y-123684761D01*
X190514523Y-125684761D02*
X190514523Y-124637142D01*
X190419285Y-124446666D01*
X190228809Y-124351428D01*
X189847857Y-124351428D01*
X189657380Y-124446666D01*
X190514523Y-125589523D02*
X190324047Y-125684761D01*
X189847857Y-125684761D01*
X189657380Y-125589523D01*
X189562142Y-125399047D01*
X189562142Y-125208571D01*
X189657380Y-125018095D01*
X189847857Y-124922857D01*
X190324047Y-124922857D01*
X190514523Y-124827619D01*
X191466904Y-125684761D02*
X191466904Y-124351428D01*
X191466904Y-124732380D02*
X191562142Y-124541904D01*
X191657380Y-124446666D01*
X191847857Y-124351428D01*
X192038333Y-124351428D01*
X193562142Y-125589523D02*
X193371666Y-125684761D01*
X192990714Y-125684761D01*
X192800238Y-125589523D01*
X192705000Y-125494285D01*
X192609761Y-125303809D01*
X192609761Y-124732380D01*
X192705000Y-124541904D01*
X192800238Y-124446666D01*
X192990714Y-124351428D01*
X193371666Y-124351428D01*
X193562142Y-124446666D01*
X194228809Y-124351428D02*
X195276428Y-124351428D01*
X194228809Y-125684761D01*
X195276428Y-125684761D01*
X195847857Y-124351428D02*
X196324047Y-125684761D01*
X196800238Y-124351428D02*
X196324047Y-125684761D01*
X196133571Y-126160952D01*
X196038333Y-126256190D01*
X195847857Y-126351428D01*
X197562142Y-125684761D02*
X197562142Y-123684761D01*
X197752619Y-124922857D02*
X198324047Y-125684761D01*
X198324047Y-124351428D02*
X197562142Y-125113333D01*
X173085952Y-128714285D02*
X172990714Y-128809523D01*
X172704999Y-128904761D01*
X172514523Y-128904761D01*
X172228809Y-128809523D01*
X172038333Y-128619047D01*
X171943095Y-128428571D01*
X171847857Y-128047619D01*
X171847857Y-127761904D01*
X171943095Y-127380952D01*
X172038333Y-127190476D01*
X172228809Y-127000000D01*
X172514523Y-126904761D01*
X172704999Y-126904761D01*
X172990714Y-127000000D01*
X173085952Y-127095238D01*
X173943095Y-128904761D02*
X173943095Y-126904761D01*
X174800238Y-128904761D02*
X174800238Y-127857142D01*
X174704999Y-127666666D01*
X174514523Y-127571428D01*
X174228809Y-127571428D01*
X174038333Y-127666666D01*
X173943095Y-127761904D01*
X175752619Y-128904761D02*
X175752619Y-127571428D01*
X175752619Y-127952380D02*
X175847857Y-127761904D01*
X175943095Y-127666666D01*
X176133571Y-127571428D01*
X176324047Y-127571428D01*
X176990714Y-128904761D02*
X176990714Y-127571428D01*
X176990714Y-126904761D02*
X176895476Y-127000000D01*
X176990714Y-127095238D01*
X177085952Y-127000000D01*
X176990714Y-126904761D01*
X176990714Y-127095238D01*
X177847857Y-128809523D02*
X178038333Y-128904761D01*
X178419285Y-128904761D01*
X178609761Y-128809523D01*
X178704999Y-128619047D01*
X178704999Y-128523809D01*
X178609761Y-128333333D01*
X178419285Y-128238095D01*
X178133571Y-128238095D01*
X177943095Y-128142857D01*
X177847857Y-127952380D01*
X177847857Y-127857142D01*
X177943095Y-127666666D01*
X178133571Y-127571428D01*
X178419285Y-127571428D01*
X178609761Y-127666666D01*
X179276428Y-127571428D02*
X180038333Y-127571428D01*
X179562142Y-126904761D02*
X179562142Y-128619047D01*
X179657380Y-128809523D01*
X179847857Y-128904761D01*
X180038333Y-128904761D01*
X180704999Y-128904761D02*
X180704999Y-127571428D01*
X180704999Y-126904761D02*
X180609761Y-127000000D01*
X180704999Y-127095238D01*
X180800238Y-127000000D01*
X180704999Y-126904761D01*
X180704999Y-127095238D01*
X182514523Y-128904761D02*
X182514523Y-127857142D01*
X182419285Y-127666666D01*
X182228809Y-127571428D01*
X181847857Y-127571428D01*
X181657380Y-127666666D01*
X182514523Y-128809523D02*
X182324047Y-128904761D01*
X181847857Y-128904761D01*
X181657380Y-128809523D01*
X181562142Y-128619047D01*
X181562142Y-128428571D01*
X181657380Y-128238095D01*
X181847857Y-128142857D01*
X182324047Y-128142857D01*
X182514523Y-128047619D01*
X183466904Y-127571428D02*
X183466904Y-128904761D01*
X183466904Y-127761904D02*
X183562142Y-127666666D01*
X183752619Y-127571428D01*
X184038333Y-127571428D01*
X184228809Y-127666666D01*
X184324047Y-127857142D01*
X184324047Y-128904761D01*
X186609761Y-126904761D02*
X187085952Y-128904761D01*
X187466904Y-127476190D01*
X187847857Y-128904761D01*
X188324047Y-126904761D01*
X189085952Y-128904761D02*
X189085952Y-127571428D01*
X189085952Y-126904761D02*
X188990714Y-127000000D01*
X189085952Y-127095238D01*
X189181190Y-127000000D01*
X189085952Y-126904761D01*
X189085952Y-127095238D01*
X190324047Y-128904761D02*
X190133571Y-128809523D01*
X190038333Y-128619047D01*
X190038333Y-126904761D01*
X191371666Y-128904761D02*
X191181190Y-128809523D01*
X191085952Y-128619047D01*
X191085952Y-126904761D01*
X192133571Y-128904761D02*
X192133571Y-127571428D01*
X192133571Y-126904761D02*
X192038333Y-127000000D01*
X192133571Y-127095238D01*
X192228809Y-127000000D01*
X192133571Y-126904761D01*
X192133571Y-127095238D01*
X193943095Y-128904761D02*
X193943095Y-127857142D01*
X193847857Y-127666666D01*
X193657380Y-127571428D01*
X193276428Y-127571428D01*
X193085952Y-127666666D01*
X193943095Y-128809523D02*
X193752619Y-128904761D01*
X193276428Y-128904761D01*
X193085952Y-128809523D01*
X192990714Y-128619047D01*
X192990714Y-128428571D01*
X193085952Y-128238095D01*
X193276428Y-128142857D01*
X193752619Y-128142857D01*
X193943095Y-128047619D01*
X194895476Y-128904761D02*
X194895476Y-127571428D01*
X194895476Y-127761904D02*
X194990714Y-127666666D01*
X195181190Y-127571428D01*
X195466904Y-127571428D01*
X195657380Y-127666666D01*
X195752619Y-127857142D01*
X195752619Y-128904761D01*
X195752619Y-127857142D02*
X195847857Y-127666666D01*
X196038333Y-127571428D01*
X196324047Y-127571428D01*
X196514523Y-127666666D01*
X196609761Y-127857142D01*
X196609761Y-128904761D01*
X197466904Y-128809523D02*
X197657380Y-128904761D01*
X198038333Y-128904761D01*
X198228809Y-128809523D01*
X198324047Y-128619047D01*
X198324047Y-128523809D01*
X198228809Y-128333333D01*
X198038333Y-128238095D01*
X197752619Y-128238095D01*
X197562142Y-128142857D01*
X197466904Y-127952380D01*
X197466904Y-127857142D01*
X197562142Y-127666666D01*
X197752619Y-127571428D01*
X198038333Y-127571428D01*
X198228809Y-127666666D01*
X158514523Y-131077142D02*
X159181190Y-131077142D01*
X159466904Y-132124761D02*
X158514523Y-132124761D01*
X158514523Y-130124761D01*
X159466904Y-130124761D01*
X160324047Y-132124761D02*
X160324047Y-130124761D01*
X161466904Y-132124761D01*
X161466904Y-130124761D01*
X163466904Y-130220000D02*
X163276428Y-130124761D01*
X162990714Y-130124761D01*
X162705000Y-130220000D01*
X162514523Y-130410476D01*
X162419285Y-130600952D01*
X162324047Y-130981904D01*
X162324047Y-131267619D01*
X162419285Y-131648571D01*
X162514523Y-131839047D01*
X162705000Y-132029523D01*
X162990714Y-132124761D01*
X163181190Y-132124761D01*
X163466904Y-132029523D01*
X163562142Y-131934285D01*
X163562142Y-131267619D01*
X163181190Y-131267619D01*
X165562142Y-132124761D02*
X164895476Y-131172380D01*
X164419285Y-132124761D02*
X164419285Y-130124761D01*
X165181190Y-130124761D01*
X165371666Y-130220000D01*
X165466904Y-130315238D01*
X165562142Y-130505714D01*
X165562142Y-130791428D01*
X165466904Y-130981904D01*
X165371666Y-131077142D01*
X165181190Y-131172380D01*
X164419285Y-131172380D01*
X167752619Y-130124761D02*
X168990714Y-130124761D01*
X168324047Y-130886666D01*
X168609761Y-130886666D01*
X168800238Y-130981904D01*
X168895476Y-131077142D01*
X168990714Y-131267619D01*
X168990714Y-131743809D01*
X168895476Y-131934285D01*
X168800238Y-132029523D01*
X168609761Y-132124761D01*
X168038333Y-132124761D01*
X167847857Y-132029523D01*
X167752619Y-131934285D01*
X170800238Y-130124761D02*
X169847857Y-130124761D01*
X169752619Y-131077142D01*
X169847857Y-130981904D01*
X170038333Y-130886666D01*
X170514523Y-130886666D01*
X170705000Y-130981904D01*
X170800238Y-131077142D01*
X170895476Y-131267619D01*
X170895476Y-131743809D01*
X170800238Y-131934285D01*
X170705000Y-132029523D01*
X170514523Y-132124761D01*
X170038333Y-132124761D01*
X169847857Y-132029523D01*
X169752619Y-131934285D01*
X171562142Y-130124761D02*
X172895476Y-130124761D01*
X172038333Y-132124761D01*
X175181190Y-131362857D02*
X176705000Y-131362857D01*
X179181190Y-131077142D02*
X179847857Y-131077142D01*
X180133571Y-132124761D02*
X179181190Y-132124761D01*
X179181190Y-130124761D01*
X180133571Y-130124761D01*
X181276428Y-132124761D02*
X181085952Y-132029523D01*
X180990714Y-131839047D01*
X180990714Y-130124761D01*
X182800238Y-132029523D02*
X182609761Y-132124761D01*
X182228809Y-132124761D01*
X182038333Y-132029523D01*
X181943095Y-131839047D01*
X181943095Y-131077142D01*
X182038333Y-130886666D01*
X182228809Y-130791428D01*
X182609761Y-130791428D01*
X182800238Y-130886666D01*
X182895476Y-131077142D01*
X182895476Y-131267619D01*
X181943095Y-131458095D01*
X184609761Y-132029523D02*
X184419285Y-132124761D01*
X184038333Y-132124761D01*
X183847857Y-132029523D01*
X183752619Y-131934285D01*
X183657380Y-131743809D01*
X183657380Y-131172380D01*
X183752619Y-130981904D01*
X183847857Y-130886666D01*
X184038333Y-130791428D01*
X184419285Y-130791428D01*
X184609761Y-130886666D01*
X185181190Y-130791428D02*
X185943095Y-130791428D01*
X185466904Y-130124761D02*
X185466904Y-131839047D01*
X185562142Y-132029523D01*
X185752619Y-132124761D01*
X185943095Y-132124761D01*
X186609761Y-132124761D02*
X186609761Y-130791428D01*
X186609761Y-131172380D02*
X186705000Y-130981904D01*
X186800238Y-130886666D01*
X186990714Y-130791428D01*
X187181190Y-130791428D01*
X188133571Y-132124761D02*
X187943095Y-132029523D01*
X187847857Y-131934285D01*
X187752619Y-131743809D01*
X187752619Y-131172380D01*
X187847857Y-130981904D01*
X187943095Y-130886666D01*
X188133571Y-130791428D01*
X188419285Y-130791428D01*
X188609761Y-130886666D01*
X188705000Y-130981904D01*
X188800238Y-131172380D01*
X188800238Y-131743809D01*
X188705000Y-131934285D01*
X188609761Y-132029523D01*
X188419285Y-132124761D01*
X188133571Y-132124761D01*
X189657380Y-130791428D02*
X189657380Y-132124761D01*
X189657380Y-130981904D02*
X189752619Y-130886666D01*
X189943095Y-130791428D01*
X190228809Y-130791428D01*
X190419285Y-130886666D01*
X190514523Y-131077142D01*
X190514523Y-132124761D01*
X191466904Y-132124761D02*
X191466904Y-130791428D01*
X191466904Y-130124761D02*
X191371666Y-130220000D01*
X191466904Y-130315238D01*
X191562142Y-130220000D01*
X191466904Y-130124761D01*
X191466904Y-130315238D01*
X193276428Y-132029523D02*
X193085952Y-132124761D01*
X192705000Y-132124761D01*
X192514523Y-132029523D01*
X192419285Y-131934285D01*
X192324047Y-131743809D01*
X192324047Y-131172380D01*
X192419285Y-130981904D01*
X192514523Y-130886666D01*
X192705000Y-130791428D01*
X193085952Y-130791428D01*
X193276428Y-130886666D01*
X194038333Y-132029523D02*
X194228809Y-132124761D01*
X194609761Y-132124761D01*
X194800238Y-132029523D01*
X194895476Y-131839047D01*
X194895476Y-131743809D01*
X194800238Y-131553333D01*
X194609761Y-131458095D01*
X194324047Y-131458095D01*
X194133571Y-131362857D01*
X194038333Y-131172380D01*
X194038333Y-131077142D01*
X194133571Y-130886666D01*
X194324047Y-130791428D01*
X194609761Y-130791428D01*
X194800238Y-130886666D01*
X197276428Y-132124761D02*
X197276428Y-130124761D01*
X198228809Y-132124761D02*
X198228809Y-130124761D01*
D11*
X105604761Y-107452380D02*
X106176190Y-107452380D01*
X105890476Y-108452380D02*
X105890476Y-107452380D01*
X106938095Y-108452380D02*
X106938095Y-107928571D01*
X106890476Y-107833333D01*
X106795238Y-107785714D01*
X106604761Y-107785714D01*
X106509523Y-107833333D01*
X106938095Y-108404761D02*
X106842857Y-108452380D01*
X106604761Y-108452380D01*
X106509523Y-108404761D01*
X106461904Y-108309523D01*
X106461904Y-108214285D01*
X106509523Y-108119047D01*
X106604761Y-108071428D01*
X106842857Y-108071428D01*
X106938095Y-108023809D01*
X107319047Y-107785714D02*
X107557142Y-108452380D01*
X107795238Y-107785714D02*
X107557142Y-108452380D01*
X107461904Y-108690476D01*
X107414285Y-108738095D01*
X107319047Y-108785714D01*
X108319047Y-108452380D02*
X108223809Y-108404761D01*
X108176190Y-108309523D01*
X108176190Y-107452380D01*
X108842857Y-108452380D02*
X108747619Y-108404761D01*
X108700000Y-108357142D01*
X108652380Y-108261904D01*
X108652380Y-107976190D01*
X108700000Y-107880952D01*
X108747619Y-107833333D01*
X108842857Y-107785714D01*
X108985714Y-107785714D01*
X109080952Y-107833333D01*
X109128571Y-107880952D01*
X109176190Y-107976190D01*
X109176190Y-108261904D01*
X109128571Y-108357142D01*
X109080952Y-108404761D01*
X108985714Y-108452380D01*
X108842857Y-108452380D01*
X109985714Y-108404761D02*
X109890476Y-108452380D01*
X109700000Y-108452380D01*
X109604761Y-108404761D01*
X109557142Y-108309523D01*
X109557142Y-107928571D01*
X109604761Y-107833333D01*
X109700000Y-107785714D01*
X109890476Y-107785714D01*
X109985714Y-107833333D01*
X110033333Y-107928571D01*
X110033333Y-108023809D01*
X109557142Y-108119047D01*
X111223809Y-108452380D02*
X111223809Y-107452380D01*
X111557142Y-108166666D01*
X111890476Y-107452380D01*
X111890476Y-108452380D01*
X112366666Y-108452380D02*
X112366666Y-107785714D01*
X112366666Y-107452380D02*
X112319047Y-107500000D01*
X112366666Y-107547619D01*
X112414285Y-107500000D01*
X112366666Y-107452380D01*
X112366666Y-107547619D01*
X112747619Y-108452380D02*
X113271428Y-107785714D01*
X112747619Y-107785714D02*
X113271428Y-108452380D01*
X114033333Y-108404761D02*
X113938095Y-108452380D01*
X113747619Y-108452380D01*
X113652380Y-108404761D01*
X113604761Y-108309523D01*
X113604761Y-107928571D01*
X113652380Y-107833333D01*
X113747619Y-107785714D01*
X113938095Y-107785714D01*
X114033333Y-107833333D01*
X114080952Y-107928571D01*
X114080952Y-108023809D01*
X113604761Y-108119047D01*
X114509523Y-108452380D02*
X114509523Y-107785714D01*
X114509523Y-107976190D02*
X114557142Y-107880952D01*
X114604761Y-107833333D01*
X114700000Y-107785714D01*
X114795238Y-107785714D01*
X135928571Y-110752380D02*
X136261904Y-111752380D01*
X136595238Y-110752380D01*
X137071428Y-111752380D02*
X136976190Y-111704761D01*
X136928571Y-111657142D01*
X136880952Y-111561904D01*
X136880952Y-111276190D01*
X136928571Y-111180952D01*
X136976190Y-111133333D01*
X137071428Y-111085714D01*
X137214285Y-111085714D01*
X137309523Y-111133333D01*
X137357142Y-111180952D01*
X137404761Y-111276190D01*
X137404761Y-111561904D01*
X137357142Y-111657142D01*
X137309523Y-111704761D01*
X137214285Y-111752380D01*
X137071428Y-111752380D01*
X137976190Y-111752380D02*
X137880952Y-111704761D01*
X137833333Y-111609523D01*
X137833333Y-110752380D01*
X138214285Y-111085714D02*
X138595238Y-111085714D01*
X138357142Y-110752380D02*
X138357142Y-111609523D01*
X138404761Y-111704761D01*
X138500000Y-111752380D01*
X138595238Y-111752380D01*
X139357142Y-111752380D02*
X139357142Y-111228571D01*
X139309523Y-111133333D01*
X139214285Y-111085714D01*
X139023809Y-111085714D01*
X138928571Y-111133333D01*
X139357142Y-111704761D02*
X139261904Y-111752380D01*
X139023809Y-111752380D01*
X138928571Y-111704761D01*
X138880952Y-111609523D01*
X138880952Y-111514285D01*
X138928571Y-111419047D01*
X139023809Y-111371428D01*
X139261904Y-111371428D01*
X139357142Y-111323809D01*
X140261904Y-111085714D02*
X140261904Y-111895238D01*
X140214285Y-111990476D01*
X140166666Y-112038095D01*
X140071428Y-112085714D01*
X139928571Y-112085714D01*
X139833333Y-112038095D01*
X140261904Y-111704761D02*
X140166666Y-111752380D01*
X139976190Y-111752380D01*
X139880952Y-111704761D01*
X139833333Y-111657142D01*
X139785714Y-111561904D01*
X139785714Y-111276190D01*
X139833333Y-111180952D01*
X139880952Y-111133333D01*
X139976190Y-111085714D01*
X140166666Y-111085714D01*
X140261904Y-111133333D01*
X141119047Y-111704761D02*
X141023809Y-111752380D01*
X140833333Y-111752380D01*
X140738095Y-111704761D01*
X140690476Y-111609523D01*
X140690476Y-111228571D01*
X140738095Y-111133333D01*
X140833333Y-111085714D01*
X141023809Y-111085714D01*
X141119047Y-111133333D01*
X141166666Y-111228571D01*
X141166666Y-111323809D01*
X140690476Y-111419047D01*
X142309523Y-111704761D02*
X142452380Y-111752380D01*
X142690476Y-111752380D01*
X142785714Y-111704761D01*
X142833333Y-111657142D01*
X142880952Y-111561904D01*
X142880952Y-111466666D01*
X142833333Y-111371428D01*
X142785714Y-111323809D01*
X142690476Y-111276190D01*
X142500000Y-111228571D01*
X142404761Y-111180952D01*
X142357142Y-111133333D01*
X142309523Y-111038095D01*
X142309523Y-110942857D01*
X142357142Y-110847619D01*
X142404761Y-110800000D01*
X142500000Y-110752380D01*
X142738095Y-110752380D01*
X142880952Y-110800000D01*
X143309523Y-111752380D02*
X143309523Y-111085714D01*
X143309523Y-111180952D02*
X143357142Y-111133333D01*
X143452380Y-111085714D01*
X143595238Y-111085714D01*
X143690476Y-111133333D01*
X143738095Y-111228571D01*
X143738095Y-111752380D01*
X143738095Y-111228571D02*
X143785714Y-111133333D01*
X143880952Y-111085714D01*
X144023809Y-111085714D01*
X144119047Y-111133333D01*
X144166666Y-111228571D01*
X144166666Y-111752380D01*
X144785714Y-111752380D02*
X144690476Y-111704761D01*
X144642857Y-111657142D01*
X144595238Y-111561904D01*
X144595238Y-111276190D01*
X144642857Y-111180952D01*
X144690476Y-111133333D01*
X144785714Y-111085714D01*
X144928571Y-111085714D01*
X145023809Y-111133333D01*
X145071428Y-111180952D01*
X145119047Y-111276190D01*
X145119047Y-111561904D01*
X145071428Y-111657142D01*
X145023809Y-111704761D01*
X144928571Y-111752380D01*
X144785714Y-111752380D01*
X145690476Y-111752380D02*
X145595238Y-111704761D01*
X145547619Y-111657142D01*
X145500000Y-111561904D01*
X145500000Y-111276190D01*
X145547619Y-111180952D01*
X145595238Y-111133333D01*
X145690476Y-111085714D01*
X145833333Y-111085714D01*
X145928571Y-111133333D01*
X145976190Y-111180952D01*
X146023809Y-111276190D01*
X146023809Y-111561904D01*
X145976190Y-111657142D01*
X145928571Y-111704761D01*
X145833333Y-111752380D01*
X145690476Y-111752380D01*
X146309523Y-111085714D02*
X146690476Y-111085714D01*
X146452380Y-110752380D02*
X146452380Y-111609523D01*
X146500000Y-111704761D01*
X146595238Y-111752380D01*
X146690476Y-111752380D01*
X147023809Y-111752380D02*
X147023809Y-110752380D01*
X147452380Y-111752380D02*
X147452380Y-111228571D01*
X147404761Y-111133333D01*
X147309523Y-111085714D01*
X147166666Y-111085714D01*
X147071428Y-111133333D01*
X147023809Y-111180952D01*
X148309523Y-111704761D02*
X148214285Y-111752380D01*
X148023809Y-111752380D01*
X147928571Y-111704761D01*
X147880952Y-111609523D01*
X147880952Y-111228571D01*
X147928571Y-111133333D01*
X148023809Y-111085714D01*
X148214285Y-111085714D01*
X148309523Y-111133333D01*
X148357142Y-111228571D01*
X148357142Y-111323809D01*
X147880952Y-111419047D01*
X148785714Y-111752380D02*
X148785714Y-111085714D01*
X148785714Y-111276190D02*
X148833333Y-111180952D01*
X148880952Y-111133333D01*
X148976190Y-111085714D01*
X149071428Y-111085714D01*
X160509523Y-102352380D02*
X160700000Y-102352380D01*
X160795238Y-102400000D01*
X160890476Y-102495238D01*
X160938095Y-102685714D01*
X160938095Y-103019047D01*
X160890476Y-103209523D01*
X160795238Y-103304761D01*
X160700000Y-103352380D01*
X160509523Y-103352380D01*
X160414285Y-103304761D01*
X160319047Y-103209523D01*
X160271428Y-103019047D01*
X160271428Y-102685714D01*
X160319047Y-102495238D01*
X160414285Y-102400000D01*
X160509523Y-102352380D01*
X161319047Y-103304761D02*
X161414285Y-103352380D01*
X161604761Y-103352380D01*
X161700000Y-103304761D01*
X161747619Y-103209523D01*
X161747619Y-103161904D01*
X161700000Y-103066666D01*
X161604761Y-103019047D01*
X161461904Y-103019047D01*
X161366666Y-102971428D01*
X161319047Y-102876190D01*
X161319047Y-102828571D01*
X161366666Y-102733333D01*
X161461904Y-102685714D01*
X161604761Y-102685714D01*
X161700000Y-102733333D01*
X162604761Y-103304761D02*
X162509523Y-103352380D01*
X162319047Y-103352380D01*
X162223809Y-103304761D01*
X162176190Y-103257142D01*
X162128571Y-103161904D01*
X162128571Y-102876190D01*
X162176190Y-102780952D01*
X162223809Y-102733333D01*
X162319047Y-102685714D01*
X162509523Y-102685714D01*
X162604761Y-102733333D01*
X163033333Y-103352380D02*
X163033333Y-102685714D01*
X163033333Y-102352380D02*
X162985714Y-102400000D01*
X163033333Y-102447619D01*
X163080952Y-102400000D01*
X163033333Y-102352380D01*
X163033333Y-102447619D01*
X163652380Y-103352380D02*
X163557142Y-103304761D01*
X163509523Y-103209523D01*
X163509523Y-102352380D01*
X164176190Y-103352380D02*
X164080952Y-103304761D01*
X164033333Y-103209523D01*
X164033333Y-102352380D01*
X164985714Y-103352380D02*
X164985714Y-102828571D01*
X164938095Y-102733333D01*
X164842857Y-102685714D01*
X164652380Y-102685714D01*
X164557142Y-102733333D01*
X164985714Y-103304761D02*
X164890476Y-103352380D01*
X164652380Y-103352380D01*
X164557142Y-103304761D01*
X164509523Y-103209523D01*
X164509523Y-103114285D01*
X164557142Y-103019047D01*
X164652380Y-102971428D01*
X164890476Y-102971428D01*
X164985714Y-102923809D01*
X165319047Y-102685714D02*
X165700000Y-102685714D01*
X165461904Y-102352380D02*
X165461904Y-103209523D01*
X165509523Y-103304761D01*
X165604761Y-103352380D01*
X165700000Y-103352380D01*
X166176190Y-103352380D02*
X166080952Y-103304761D01*
X166033333Y-103257142D01*
X165985714Y-103161904D01*
X165985714Y-102876190D01*
X166033333Y-102780952D01*
X166080952Y-102733333D01*
X166176190Y-102685714D01*
X166319047Y-102685714D01*
X166414285Y-102733333D01*
X166461904Y-102780952D01*
X166509523Y-102876190D01*
X166509523Y-103161904D01*
X166461904Y-103257142D01*
X166414285Y-103304761D01*
X166319047Y-103352380D01*
X166176190Y-103352380D01*
X166938095Y-103352380D02*
X166938095Y-102685714D01*
X166938095Y-102876190D02*
X166985714Y-102780952D01*
X167033333Y-102733333D01*
X167128571Y-102685714D01*
X167223809Y-102685714D01*
X180609523Y-122052380D02*
X180133333Y-122052380D01*
X180133333Y-121052380D01*
X181085714Y-122052380D02*
X180990476Y-122004761D01*
X180942857Y-121957142D01*
X180895238Y-121861904D01*
X180895238Y-121576190D01*
X180942857Y-121480952D01*
X180990476Y-121433333D01*
X181085714Y-121385714D01*
X181228571Y-121385714D01*
X181323809Y-121433333D01*
X181371428Y-121480952D01*
X181419047Y-121576190D01*
X181419047Y-121861904D01*
X181371428Y-121957142D01*
X181323809Y-122004761D01*
X181228571Y-122052380D01*
X181085714Y-122052380D01*
X181752380Y-121385714D02*
X181942857Y-122052380D01*
X182133333Y-121576190D01*
X182323809Y-122052380D01*
X182514285Y-121385714D01*
X182895238Y-121671428D02*
X183657142Y-121671428D01*
X184133333Y-122052380D02*
X184133333Y-121052380D01*
X184514285Y-121052380D01*
X184609523Y-121100000D01*
X184657142Y-121147619D01*
X184704761Y-121242857D01*
X184704761Y-121385714D01*
X184657142Y-121480952D01*
X184609523Y-121528571D01*
X184514285Y-121576190D01*
X184133333Y-121576190D01*
X185561904Y-122052380D02*
X185561904Y-121528571D01*
X185514285Y-121433333D01*
X185419047Y-121385714D01*
X185228571Y-121385714D01*
X185133333Y-121433333D01*
X185561904Y-122004761D02*
X185466666Y-122052380D01*
X185228571Y-122052380D01*
X185133333Y-122004761D01*
X185085714Y-121909523D01*
X185085714Y-121814285D01*
X185133333Y-121719047D01*
X185228571Y-121671428D01*
X185466666Y-121671428D01*
X185561904Y-121623809D01*
X185990476Y-122004761D02*
X186085714Y-122052380D01*
X186276190Y-122052380D01*
X186371428Y-122004761D01*
X186419047Y-121909523D01*
X186419047Y-121861904D01*
X186371428Y-121766666D01*
X186276190Y-121719047D01*
X186133333Y-121719047D01*
X186038095Y-121671428D01*
X185990476Y-121576190D01*
X185990476Y-121528571D01*
X186038095Y-121433333D01*
X186133333Y-121385714D01*
X186276190Y-121385714D01*
X186371428Y-121433333D01*
X186800000Y-122004761D02*
X186895238Y-122052380D01*
X187085714Y-122052380D01*
X187180952Y-122004761D01*
X187228571Y-121909523D01*
X187228571Y-121861904D01*
X187180952Y-121766666D01*
X187085714Y-121719047D01*
X186942857Y-121719047D01*
X186847619Y-121671428D01*
X186800000Y-121576190D01*
X186800000Y-121528571D01*
X186847619Y-121433333D01*
X186942857Y-121385714D01*
X187085714Y-121385714D01*
X187180952Y-121433333D01*
X188752380Y-121528571D02*
X188419047Y-121528571D01*
X188419047Y-122052380D02*
X188419047Y-121052380D01*
X188895238Y-121052380D01*
X189276190Y-122052380D02*
X189276190Y-121385714D01*
X189276190Y-121052380D02*
X189228571Y-121100000D01*
X189276190Y-121147619D01*
X189323809Y-121100000D01*
X189276190Y-121052380D01*
X189276190Y-121147619D01*
X189895238Y-122052380D02*
X189800000Y-122004761D01*
X189752380Y-121909523D01*
X189752380Y-121052380D01*
X190133333Y-121385714D02*
X190514285Y-121385714D01*
X190276190Y-121052380D02*
X190276190Y-121909523D01*
X190323809Y-122004761D01*
X190419047Y-122052380D01*
X190514285Y-122052380D01*
X191228571Y-122004761D02*
X191133333Y-122052380D01*
X190942857Y-122052380D01*
X190847619Y-122004761D01*
X190800000Y-121909523D01*
X190800000Y-121528571D01*
X190847619Y-121433333D01*
X190942857Y-121385714D01*
X191133333Y-121385714D01*
X191228571Y-121433333D01*
X191276190Y-121528571D01*
X191276190Y-121623809D01*
X190800000Y-121719047D01*
X191704761Y-122052380D02*
X191704761Y-121385714D01*
X191704761Y-121576190D02*
X191752380Y-121480952D01*
X191800000Y-121433333D01*
X191895238Y-121385714D01*
X191990476Y-121385714D01*
X193371428Y-122433333D02*
X193323809Y-122385714D01*
X193228571Y-122242857D01*
X193180952Y-122147619D01*
X193133333Y-122004761D01*
X193085714Y-121766666D01*
X193085714Y-121576190D01*
X193133333Y-121338095D01*
X193180952Y-121195238D01*
X193228571Y-121100000D01*
X193323809Y-120957142D01*
X193371428Y-120909523D01*
X194276190Y-122052380D02*
X193704761Y-122052380D01*
X193990476Y-122052380D02*
X193990476Y-121052380D01*
X193895238Y-121195238D01*
X193800000Y-121290476D01*
X193704761Y-121338095D01*
X194895238Y-121052380D02*
X194990476Y-121052380D01*
X195085714Y-121100000D01*
X195133333Y-121147619D01*
X195180952Y-121242857D01*
X195228571Y-121433333D01*
X195228571Y-121671428D01*
X195180952Y-121861904D01*
X195133333Y-121957142D01*
X195085714Y-122004761D01*
X194990476Y-122052380D01*
X194895238Y-122052380D01*
X194800000Y-122004761D01*
X194752380Y-121957142D01*
X194704761Y-121861904D01*
X194657142Y-121671428D01*
X194657142Y-121433333D01*
X194704761Y-121242857D01*
X194752380Y-121147619D01*
X194800000Y-121100000D01*
X194895238Y-121052380D01*
X195847619Y-121052380D02*
X195942857Y-121052380D01*
X196038095Y-121100000D01*
X196085714Y-121147619D01*
X196133333Y-121242857D01*
X196180952Y-121433333D01*
X196180952Y-121671428D01*
X196133333Y-121861904D01*
X196085714Y-121957142D01*
X196038095Y-122004761D01*
X195942857Y-122052380D01*
X195847619Y-122052380D01*
X195752380Y-122004761D01*
X195704761Y-121957142D01*
X195657142Y-121861904D01*
X195609523Y-121671428D01*
X195609523Y-121433333D01*
X195657142Y-121242857D01*
X195704761Y-121147619D01*
X195752380Y-121100000D01*
X195847619Y-121052380D01*
X196609523Y-122052380D02*
X196609523Y-121052380D01*
X196704761Y-121671428D02*
X196990476Y-122052380D01*
X196990476Y-121385714D02*
X196609523Y-121766666D01*
X197419047Y-122052380D02*
X197419047Y-121052380D01*
X197419047Y-121528571D02*
X197990476Y-121528571D01*
X197990476Y-122052380D02*
X197990476Y-121052380D01*
X198371428Y-121385714D02*
X198895238Y-121385714D01*
X198371428Y-122052380D01*
X198895238Y-122052380D01*
X199180952Y-122433333D02*
X199228571Y-122385714D01*
X199323809Y-122242857D01*
X199371428Y-122147619D01*
X199419047Y-122004761D01*
X199466666Y-121766666D01*
X199466666Y-121576190D01*
X199419047Y-121338095D01*
X199371428Y-121195238D01*
X199323809Y-121100000D01*
X199228571Y-120957142D01*
X199180952Y-120909523D01*
X122171428Y-74628571D02*
X122314285Y-74676190D01*
X122361904Y-74723809D01*
X122409523Y-74819047D01*
X122409523Y-74961904D01*
X122361904Y-75057142D01*
X122314285Y-75104761D01*
X122219047Y-75152380D01*
X121838095Y-75152380D01*
X121838095Y-74152380D01*
X122171428Y-74152380D01*
X122266666Y-74200000D01*
X122314285Y-74247619D01*
X122361904Y-74342857D01*
X122361904Y-74438095D01*
X122314285Y-74533333D01*
X122266666Y-74580952D01*
X122171428Y-74628571D01*
X121838095Y-74628571D01*
X123266666Y-75152380D02*
X123266666Y-74628571D01*
X123219047Y-74533333D01*
X123123809Y-74485714D01*
X122933333Y-74485714D01*
X122838095Y-74533333D01*
X123266666Y-75104761D02*
X123171428Y-75152380D01*
X122933333Y-75152380D01*
X122838095Y-75104761D01*
X122790476Y-75009523D01*
X122790476Y-74914285D01*
X122838095Y-74819047D01*
X122933333Y-74771428D01*
X123171428Y-74771428D01*
X123266666Y-74723809D01*
X123742857Y-74485714D02*
X123742857Y-75152380D01*
X123742857Y-74580952D02*
X123790476Y-74533333D01*
X123885714Y-74485714D01*
X124028571Y-74485714D01*
X124123809Y-74533333D01*
X124171428Y-74628571D01*
X124171428Y-75152380D01*
X125076190Y-75152380D02*
X125076190Y-74152380D01*
X125076190Y-75104761D02*
X124980952Y-75152380D01*
X124790476Y-75152380D01*
X124695238Y-75104761D01*
X124647619Y-75057142D01*
X124600000Y-74961904D01*
X124600000Y-74676190D01*
X124647619Y-74580952D01*
X124695238Y-74533333D01*
X124790476Y-74485714D01*
X124980952Y-74485714D01*
X125076190Y-74533333D01*
X125552380Y-74485714D02*
X125552380Y-75485714D01*
X125552380Y-74533333D02*
X125647619Y-74485714D01*
X125838095Y-74485714D01*
X125933333Y-74533333D01*
X125980952Y-74580952D01*
X126028571Y-74676190D01*
X126028571Y-74961904D01*
X125980952Y-75057142D01*
X125933333Y-75104761D01*
X125838095Y-75152380D01*
X125647619Y-75152380D01*
X125552380Y-75104761D01*
X126885714Y-75152380D02*
X126885714Y-74628571D01*
X126838095Y-74533333D01*
X126742857Y-74485714D01*
X126552380Y-74485714D01*
X126457142Y-74533333D01*
X126885714Y-75104761D02*
X126790476Y-75152380D01*
X126552380Y-75152380D01*
X126457142Y-75104761D01*
X126409523Y-75009523D01*
X126409523Y-74914285D01*
X126457142Y-74819047D01*
X126552380Y-74771428D01*
X126790476Y-74771428D01*
X126885714Y-74723809D01*
X127314285Y-75104761D02*
X127409523Y-75152380D01*
X127600000Y-75152380D01*
X127695238Y-75104761D01*
X127742857Y-75009523D01*
X127742857Y-74961904D01*
X127695238Y-74866666D01*
X127600000Y-74819047D01*
X127457142Y-74819047D01*
X127361904Y-74771428D01*
X127314285Y-74676190D01*
X127314285Y-74628571D01*
X127361904Y-74533333D01*
X127457142Y-74485714D01*
X127600000Y-74485714D01*
X127695238Y-74533333D01*
X128123809Y-75104761D02*
X128219047Y-75152380D01*
X128409523Y-75152380D01*
X128504761Y-75104761D01*
X128552380Y-75009523D01*
X128552380Y-74961904D01*
X128504761Y-74866666D01*
X128409523Y-74819047D01*
X128266666Y-74819047D01*
X128171428Y-74771428D01*
X128123809Y-74676190D01*
X128123809Y-74628571D01*
X128171428Y-74533333D01*
X128266666Y-74485714D01*
X128409523Y-74485714D01*
X128504761Y-74533333D01*
X130076190Y-74628571D02*
X129742857Y-74628571D01*
X129742857Y-75152380D02*
X129742857Y-74152380D01*
X130219047Y-74152380D01*
X130600000Y-75152380D02*
X130600000Y-74485714D01*
X130600000Y-74152380D02*
X130552380Y-74200000D01*
X130600000Y-74247619D01*
X130647619Y-74200000D01*
X130600000Y-74152380D01*
X130600000Y-74247619D01*
X131219047Y-75152380D02*
X131123809Y-75104761D01*
X131076190Y-75009523D01*
X131076190Y-74152380D01*
X131457142Y-74485714D02*
X131838095Y-74485714D01*
X131600000Y-74152380D02*
X131600000Y-75009523D01*
X131647619Y-75104761D01*
X131742857Y-75152380D01*
X131838095Y-75152380D01*
X132552380Y-75104761D02*
X132457142Y-75152380D01*
X132266666Y-75152380D01*
X132171428Y-75104761D01*
X132123809Y-75009523D01*
X132123809Y-74628571D01*
X132171428Y-74533333D01*
X132266666Y-74485714D01*
X132457142Y-74485714D01*
X132552380Y-74533333D01*
X132600000Y-74628571D01*
X132600000Y-74723809D01*
X132123809Y-74819047D01*
X133028571Y-75152380D02*
X133028571Y-74485714D01*
X133028571Y-74676190D02*
X133076190Y-74580952D01*
X133123809Y-74533333D01*
X133219047Y-74485714D01*
X133314285Y-74485714D01*
X134695238Y-75533333D02*
X134647619Y-75485714D01*
X134552380Y-75342857D01*
X134504761Y-75247619D01*
X134457142Y-75104761D01*
X134409523Y-74866666D01*
X134409523Y-74676190D01*
X134457142Y-74438095D01*
X134504761Y-74295238D01*
X134552380Y-74200000D01*
X134647619Y-74057142D01*
X134695238Y-74009523D01*
X134980952Y-74152380D02*
X135647619Y-74152380D01*
X135219047Y-75152380D01*
X136028571Y-74771428D02*
X136790476Y-74771428D01*
X137790476Y-75152380D02*
X137219047Y-75152380D01*
X137504761Y-75152380D02*
X137504761Y-74152380D01*
X137409523Y-74295238D01*
X137314285Y-74390476D01*
X137219047Y-74438095D01*
X138361904Y-74580952D02*
X138266666Y-74533333D01*
X138219047Y-74485714D01*
X138171428Y-74390476D01*
X138171428Y-74342857D01*
X138219047Y-74247619D01*
X138266666Y-74200000D01*
X138361904Y-74152380D01*
X138552380Y-74152380D01*
X138647619Y-74200000D01*
X138695238Y-74247619D01*
X138742857Y-74342857D01*
X138742857Y-74390476D01*
X138695238Y-74485714D01*
X138647619Y-74533333D01*
X138552380Y-74580952D01*
X138361904Y-74580952D01*
X138266666Y-74628571D01*
X138219047Y-74676190D01*
X138171428Y-74771428D01*
X138171428Y-74961904D01*
X138219047Y-75057142D01*
X138266666Y-75104761D01*
X138361904Y-75152380D01*
X138552380Y-75152380D01*
X138647619Y-75104761D01*
X138695238Y-75057142D01*
X138742857Y-74961904D01*
X138742857Y-74771428D01*
X138695238Y-74676190D01*
X138647619Y-74628571D01*
X138552380Y-74580952D01*
X139171428Y-75152380D02*
X139171428Y-74152380D01*
X139504761Y-74866666D01*
X139838095Y-74152380D01*
X139838095Y-75152380D01*
X140314285Y-75152380D02*
X140314285Y-74152380D01*
X140314285Y-74628571D02*
X140885714Y-74628571D01*
X140885714Y-75152380D02*
X140885714Y-74152380D01*
X141266666Y-74485714D02*
X141790476Y-74485714D01*
X141266666Y-75152380D01*
X141790476Y-75152380D01*
X142076190Y-75533333D02*
X142123809Y-75485714D01*
X142219047Y-75342857D01*
X142266666Y-75247619D01*
X142314285Y-75104761D01*
X142361904Y-74866666D01*
X142361904Y-74676190D01*
X142314285Y-74438095D01*
X142266666Y-74295238D01*
X142219047Y-74200000D01*
X142123809Y-74057142D01*
X142076190Y-74009523D01*
D13*
X157314285Y-153714285D02*
X157742857Y-153857142D01*
X158457142Y-153857142D01*
X158742857Y-153714285D01*
X158885714Y-153571428D01*
X159028571Y-153285714D01*
X159028571Y-153000000D01*
X158885714Y-152714285D01*
X158742857Y-152571428D01*
X158457142Y-152428571D01*
X157885714Y-152285714D01*
X157600000Y-152142857D01*
X157457142Y-152000000D01*
X157314285Y-151714285D01*
X157314285Y-151428571D01*
X157457142Y-151142857D01*
X157600000Y-151000000D01*
X157885714Y-150857142D01*
X158600000Y-150857142D01*
X159028571Y-151000000D01*
X160314285Y-153857142D02*
X160314285Y-150857142D01*
X161028571Y-150857142D01*
X161457142Y-151000000D01*
X161742857Y-151285714D01*
X161885714Y-151571428D01*
X162028571Y-152142857D01*
X162028571Y-152571428D01*
X161885714Y-153142857D01*
X161742857Y-153428571D01*
X161457142Y-153714285D01*
X161028571Y-153857142D01*
X160314285Y-153857142D01*
X165028571Y-153857142D02*
X164028571Y-152428571D01*
X163314285Y-153857142D02*
X163314285Y-150857142D01*
X164457142Y-150857142D01*
X164742857Y-151000000D01*
X164885714Y-151142857D01*
X165028571Y-151428571D01*
X165028571Y-151857142D01*
X164885714Y-152142857D01*
X164742857Y-152285714D01*
X164457142Y-152428571D01*
X163314285Y-152428571D01*
X170314285Y-153857142D02*
X169314285Y-152428571D01*
X168600000Y-153857142D02*
X168600000Y-150857142D01*
X169742857Y-150857142D01*
X170028571Y-151000000D01*
X170171428Y-151142857D01*
X170314285Y-151428571D01*
X170314285Y-151857142D01*
X170171428Y-152142857D01*
X170028571Y-152285714D01*
X169742857Y-152428571D01*
X168600000Y-152428571D01*
X172742857Y-153714285D02*
X172457142Y-153857142D01*
X171885714Y-153857142D01*
X171600000Y-153714285D01*
X171457142Y-153428571D01*
X171457142Y-152285714D01*
X171600000Y-152000000D01*
X171885714Y-151857142D01*
X172457142Y-151857142D01*
X172742857Y-152000000D01*
X172885714Y-152285714D01*
X172885714Y-152571428D01*
X171457142Y-152857142D01*
X175457142Y-153714285D02*
X175171428Y-153857142D01*
X174600000Y-153857142D01*
X174314285Y-153714285D01*
X174171428Y-153571428D01*
X174028571Y-153285714D01*
X174028571Y-152428571D01*
X174171428Y-152142857D01*
X174314285Y-152000000D01*
X174600000Y-151857142D01*
X175171428Y-151857142D01*
X175457142Y-152000000D01*
X177885714Y-153714285D02*
X177600000Y-153857142D01*
X177028571Y-153857142D01*
X176742857Y-153714285D01*
X176600000Y-153428571D01*
X176600000Y-152285714D01*
X176742857Y-152000000D01*
X177028571Y-151857142D01*
X177600000Y-151857142D01*
X177885714Y-152000000D01*
X178028571Y-152285714D01*
X178028571Y-152571428D01*
X176600000Y-152857142D01*
X179314285Y-153857142D02*
X179314285Y-151857142D01*
X179314285Y-150857142D02*
X179171428Y-151000000D01*
X179314285Y-151142857D01*
X179457142Y-151000000D01*
X179314285Y-150857142D01*
X179314285Y-151142857D01*
X180457142Y-151857142D02*
X181171428Y-153857142D01*
X181885714Y-151857142D01*
X184171428Y-153714285D02*
X183885714Y-153857142D01*
X183314285Y-153857142D01*
X183028571Y-153714285D01*
X182885714Y-153428571D01*
X182885714Y-152285714D01*
X183028571Y-152000000D01*
X183314285Y-151857142D01*
X183885714Y-151857142D01*
X184171428Y-152000000D01*
X184314285Y-152285714D01*
X184314285Y-152571428D01*
X182885714Y-152857142D01*
X185600000Y-153857142D02*
X185600000Y-151857142D01*
X185600000Y-152428571D02*
X185742857Y-152142857D01*
X185885714Y-152000000D01*
X186171428Y-151857142D01*
X186457142Y-151857142D01*
X189314285Y-150857142D02*
X190314285Y-153857142D01*
X191314285Y-150857142D01*
X193742857Y-150857142D02*
X192314285Y-150857142D01*
X192171428Y-152285714D01*
X192314285Y-152142857D01*
X192600000Y-152000000D01*
X193314285Y-152000000D01*
X193600000Y-152142857D01*
X193742857Y-152285714D01*
X193885714Y-152571428D01*
X193885714Y-153285714D01*
X193742857Y-153571428D01*
X193600000Y-153714285D01*
X193314285Y-153857142D01*
X192600000Y-153857142D01*
X192314285Y-153714285D01*
X192171428Y-153571428D01*
D11*
%TO.C,J2*%
X192990780Y-63508325D02*
X193705392Y-63508325D01*
X193848315Y-63555966D01*
X193943596Y-63651248D01*
X193991237Y-63794170D01*
X193991237Y-63889452D01*
X193086062Y-63079558D02*
X193038421Y-63031917D01*
X192990780Y-62936635D01*
X192990780Y-62698431D01*
X193038421Y-62603150D01*
X193086062Y-62555509D01*
X193181343Y-62507868D01*
X193276625Y-62507868D01*
X193419547Y-62555509D01*
X193991237Y-63127199D01*
X193991237Y-62507868D01*
%TO.C,R9*%
X128533333Y-101502380D02*
X128200000Y-101026190D01*
X127961904Y-101502380D02*
X127961904Y-100502380D01*
X128342857Y-100502380D01*
X128438095Y-100550000D01*
X128485714Y-100597619D01*
X128533333Y-100692857D01*
X128533333Y-100835714D01*
X128485714Y-100930952D01*
X128438095Y-100978571D01*
X128342857Y-101026190D01*
X127961904Y-101026190D01*
X129009523Y-101502380D02*
X129200000Y-101502380D01*
X129295238Y-101454761D01*
X129342857Y-101407142D01*
X129438095Y-101264285D01*
X129485714Y-101073809D01*
X129485714Y-100692857D01*
X129438095Y-100597619D01*
X129390476Y-100550000D01*
X129295238Y-100502380D01*
X129104761Y-100502380D01*
X129009523Y-100550000D01*
X128961904Y-100597619D01*
X128914285Y-100692857D01*
X128914285Y-100930952D01*
X128961904Y-101026190D01*
X129009523Y-101073809D01*
X129104761Y-101121428D01*
X129295238Y-101121428D01*
X129390476Y-101073809D01*
X129438095Y-101026190D01*
X129485714Y-100930952D01*
%TO.C,R8*%
X129933333Y-84402380D02*
X129600000Y-83926190D01*
X129361904Y-84402380D02*
X129361904Y-83402380D01*
X129742857Y-83402380D01*
X129838095Y-83450000D01*
X129885714Y-83497619D01*
X129933333Y-83592857D01*
X129933333Y-83735714D01*
X129885714Y-83830952D01*
X129838095Y-83878571D01*
X129742857Y-83926190D01*
X129361904Y-83926190D01*
X130504761Y-83830952D02*
X130409523Y-83783333D01*
X130361904Y-83735714D01*
X130314285Y-83640476D01*
X130314285Y-83592857D01*
X130361904Y-83497619D01*
X130409523Y-83450000D01*
X130504761Y-83402380D01*
X130695238Y-83402380D01*
X130790476Y-83450000D01*
X130838095Y-83497619D01*
X130885714Y-83592857D01*
X130885714Y-83640476D01*
X130838095Y-83735714D01*
X130790476Y-83783333D01*
X130695238Y-83830952D01*
X130504761Y-83830952D01*
X130409523Y-83878571D01*
X130361904Y-83926190D01*
X130314285Y-84021428D01*
X130314285Y-84211904D01*
X130361904Y-84307142D01*
X130409523Y-84354761D01*
X130504761Y-84402380D01*
X130695238Y-84402380D01*
X130790476Y-84354761D01*
X130838095Y-84307142D01*
X130885714Y-84211904D01*
X130885714Y-84021428D01*
X130838095Y-83926190D01*
X130790476Y-83878571D01*
X130695238Y-83830952D01*
%TO.C,L1*%
X129433333Y-64152380D02*
X128957142Y-64152380D01*
X128957142Y-63152380D01*
X130290476Y-64152380D02*
X129719047Y-64152380D01*
X130004761Y-64152380D02*
X130004761Y-63152380D01*
X129909523Y-63295238D01*
X129814285Y-63390476D01*
X129719047Y-63438095D01*
%TO.C,L2*%
X134533333Y-65562380D02*
X134057142Y-65562380D01*
X134057142Y-64562380D01*
X134819047Y-64657619D02*
X134866666Y-64610000D01*
X134961904Y-64562380D01*
X135200000Y-64562380D01*
X135295238Y-64610000D01*
X135342857Y-64657619D01*
X135390476Y-64752857D01*
X135390476Y-64848095D01*
X135342857Y-64990952D01*
X134771428Y-65562380D01*
X135390476Y-65562380D01*
%TO.C,L3*%
X129433333Y-65952380D02*
X128957142Y-65952380D01*
X128957142Y-64952380D01*
X129671428Y-64952380D02*
X130290476Y-64952380D01*
X129957142Y-65333333D01*
X130100000Y-65333333D01*
X130195238Y-65380952D01*
X130242857Y-65428571D01*
X130290476Y-65523809D01*
X130290476Y-65761904D01*
X130242857Y-65857142D01*
X130195238Y-65904761D01*
X130100000Y-65952380D01*
X129814285Y-65952380D01*
X129719047Y-65904761D01*
X129671428Y-65857142D01*
%TO.C,C13*%
X123107142Y-119580103D02*
X123154761Y-119627722D01*
X123202380Y-119770579D01*
X123202380Y-119865817D01*
X123154761Y-120008674D01*
X123059523Y-120103912D01*
X122964285Y-120151531D01*
X122773809Y-120199150D01*
X122630952Y-120199150D01*
X122440476Y-120151531D01*
X122345238Y-120103912D01*
X122250000Y-120008674D01*
X122202380Y-119865817D01*
X122202380Y-119770579D01*
X122250000Y-119627722D01*
X122297619Y-119580103D01*
X123202380Y-118627722D02*
X123202380Y-119199150D01*
X123202380Y-118913436D02*
X122202380Y-118913436D01*
X122345238Y-119008674D01*
X122440476Y-119103912D01*
X122488095Y-119199150D01*
X122202380Y-118294388D02*
X122202380Y-117675341D01*
X122583333Y-118008674D01*
X122583333Y-117865817D01*
X122630952Y-117770579D01*
X122678571Y-117722960D01*
X122773809Y-117675341D01*
X123011904Y-117675341D01*
X123107142Y-117722960D01*
X123154761Y-117770579D01*
X123202380Y-117865817D01*
X123202380Y-118151531D01*
X123154761Y-118246769D01*
X123107142Y-118294388D01*
%TO.C,R1*%
X124902380Y-118466666D02*
X124426190Y-118800000D01*
X124902380Y-119038095D02*
X123902380Y-119038095D01*
X123902380Y-118657142D01*
X123950000Y-118561904D01*
X123997619Y-118514285D01*
X124092857Y-118466666D01*
X124235714Y-118466666D01*
X124330952Y-118514285D01*
X124378571Y-118561904D01*
X124426190Y-118657142D01*
X124426190Y-119038095D01*
X124902380Y-117514285D02*
X124902380Y-118085714D01*
X124902380Y-117800000D02*
X123902380Y-117800000D01*
X124045238Y-117895238D01*
X124140476Y-117990476D01*
X124188095Y-118085714D01*
%TO.C,TP13*%
X149361904Y-99654380D02*
X149933333Y-99654380D01*
X149647619Y-100654380D02*
X149647619Y-99654380D01*
X150266666Y-100654380D02*
X150266666Y-99654380D01*
X150647619Y-99654380D01*
X150742857Y-99702000D01*
X150790476Y-99749619D01*
X150838095Y-99844857D01*
X150838095Y-99987714D01*
X150790476Y-100082952D01*
X150742857Y-100130571D01*
X150647619Y-100178190D01*
X150266666Y-100178190D01*
X151790476Y-100654380D02*
X151219047Y-100654380D01*
X151504761Y-100654380D02*
X151504761Y-99654380D01*
X151409523Y-99797238D01*
X151314285Y-99892476D01*
X151219047Y-99940095D01*
X152123809Y-99654380D02*
X152742857Y-99654380D01*
X152409523Y-100035333D01*
X152552380Y-100035333D01*
X152647619Y-100082952D01*
X152695238Y-100130571D01*
X152742857Y-100225809D01*
X152742857Y-100463904D01*
X152695238Y-100559142D01*
X152647619Y-100606761D01*
X152552380Y-100654380D01*
X152266666Y-100654380D01*
X152171428Y-100606761D01*
X152123809Y-100559142D01*
%TO.C,TP14*%
X163961904Y-90754380D02*
X164533333Y-90754380D01*
X164247619Y-91754380D02*
X164247619Y-90754380D01*
X164866666Y-91754380D02*
X164866666Y-90754380D01*
X165247619Y-90754380D01*
X165342857Y-90802000D01*
X165390476Y-90849619D01*
X165438095Y-90944857D01*
X165438095Y-91087714D01*
X165390476Y-91182952D01*
X165342857Y-91230571D01*
X165247619Y-91278190D01*
X164866666Y-91278190D01*
X166390476Y-91754380D02*
X165819047Y-91754380D01*
X166104761Y-91754380D02*
X166104761Y-90754380D01*
X166009523Y-90897238D01*
X165914285Y-90992476D01*
X165819047Y-91040095D01*
X167247619Y-91087714D02*
X167247619Y-91754380D01*
X167009523Y-90706761D02*
X166771428Y-91421047D01*
X167390476Y-91421047D01*
%TO.C,TP15*%
X162661904Y-80754380D02*
X163233333Y-80754380D01*
X162947619Y-81754380D02*
X162947619Y-80754380D01*
X163566666Y-81754380D02*
X163566666Y-80754380D01*
X163947619Y-80754380D01*
X164042857Y-80802000D01*
X164090476Y-80849619D01*
X164138095Y-80944857D01*
X164138095Y-81087714D01*
X164090476Y-81182952D01*
X164042857Y-81230571D01*
X163947619Y-81278190D01*
X163566666Y-81278190D01*
X165090476Y-81754380D02*
X164519047Y-81754380D01*
X164804761Y-81754380D02*
X164804761Y-80754380D01*
X164709523Y-80897238D01*
X164614285Y-80992476D01*
X164519047Y-81040095D01*
X165995238Y-80754380D02*
X165519047Y-80754380D01*
X165471428Y-81230571D01*
X165519047Y-81182952D01*
X165614285Y-81135333D01*
X165852380Y-81135333D01*
X165947619Y-81182952D01*
X165995238Y-81230571D01*
X166042857Y-81325809D01*
X166042857Y-81563904D01*
X165995238Y-81659142D01*
X165947619Y-81706761D01*
X165852380Y-81754380D01*
X165614285Y-81754380D01*
X165519047Y-81706761D01*
X165471428Y-81659142D01*
%TO.C,C17*%
X127057142Y-107937142D02*
X127009523Y-107984761D01*
X126866666Y-108032380D01*
X126771428Y-108032380D01*
X126628571Y-107984761D01*
X126533333Y-107889523D01*
X126485714Y-107794285D01*
X126438095Y-107603809D01*
X126438095Y-107460952D01*
X126485714Y-107270476D01*
X126533333Y-107175238D01*
X126628571Y-107080000D01*
X126771428Y-107032380D01*
X126866666Y-107032380D01*
X127009523Y-107080000D01*
X127057142Y-107127619D01*
X128009523Y-108032380D02*
X127438095Y-108032380D01*
X127723809Y-108032380D02*
X127723809Y-107032380D01*
X127628571Y-107175238D01*
X127533333Y-107270476D01*
X127438095Y-107318095D01*
X128342857Y-107032380D02*
X129009523Y-107032380D01*
X128580952Y-108032380D01*
%TO.C,TP12*%
X195161904Y-77354380D02*
X195733333Y-77354380D01*
X195447619Y-78354380D02*
X195447619Y-77354380D01*
X196066666Y-78354380D02*
X196066666Y-77354380D01*
X196447619Y-77354380D01*
X196542857Y-77402000D01*
X196590476Y-77449619D01*
X196638095Y-77544857D01*
X196638095Y-77687714D01*
X196590476Y-77782952D01*
X196542857Y-77830571D01*
X196447619Y-77878190D01*
X196066666Y-77878190D01*
X197590476Y-78354380D02*
X197019047Y-78354380D01*
X197304761Y-78354380D02*
X197304761Y-77354380D01*
X197209523Y-77497238D01*
X197114285Y-77592476D01*
X197019047Y-77640095D01*
X197971428Y-77449619D02*
X198019047Y-77402000D01*
X198114285Y-77354380D01*
X198352380Y-77354380D01*
X198447619Y-77402000D01*
X198495238Y-77449619D01*
X198542857Y-77544857D01*
X198542857Y-77640095D01*
X198495238Y-77782952D01*
X197923809Y-78354380D01*
X198542857Y-78354380D01*
%TO.C,R21*%
X194702380Y-75742857D02*
X194226190Y-76076190D01*
X194702380Y-76314285D02*
X193702380Y-76314285D01*
X193702380Y-75933333D01*
X193750000Y-75838095D01*
X193797619Y-75790476D01*
X193892857Y-75742857D01*
X194035714Y-75742857D01*
X194130952Y-75790476D01*
X194178571Y-75838095D01*
X194226190Y-75933333D01*
X194226190Y-76314285D01*
X193797619Y-75361904D02*
X193750000Y-75314285D01*
X193702380Y-75219047D01*
X193702380Y-74980952D01*
X193750000Y-74885714D01*
X193797619Y-74838095D01*
X193892857Y-74790476D01*
X193988095Y-74790476D01*
X194130952Y-74838095D01*
X194702380Y-75409523D01*
X194702380Y-74790476D01*
X194702380Y-73838095D02*
X194702380Y-74409523D01*
X194702380Y-74123809D02*
X193702380Y-74123809D01*
X193845238Y-74219047D01*
X193940476Y-74314285D01*
X193988095Y-74409523D01*
%TO.C,TP2*%
X142938095Y-67554380D02*
X143509523Y-67554380D01*
X143223809Y-68554380D02*
X143223809Y-67554380D01*
X143842857Y-68554380D02*
X143842857Y-67554380D01*
X144223809Y-67554380D01*
X144319047Y-67602000D01*
X144366666Y-67649619D01*
X144414285Y-67744857D01*
X144414285Y-67887714D01*
X144366666Y-67982952D01*
X144319047Y-68030571D01*
X144223809Y-68078190D01*
X143842857Y-68078190D01*
X144795238Y-67649619D02*
X144842857Y-67602000D01*
X144938095Y-67554380D01*
X145176190Y-67554380D01*
X145271428Y-67602000D01*
X145319047Y-67649619D01*
X145366666Y-67744857D01*
X145366666Y-67840095D01*
X145319047Y-67982952D01*
X144747619Y-68554380D01*
X145366666Y-68554380D01*
%TO.C,TP9*%
X173638095Y-110654380D02*
X174209523Y-110654380D01*
X173923809Y-111654380D02*
X173923809Y-110654380D01*
X174542857Y-111654380D02*
X174542857Y-110654380D01*
X174923809Y-110654380D01*
X175019047Y-110702000D01*
X175066666Y-110749619D01*
X175114285Y-110844857D01*
X175114285Y-110987714D01*
X175066666Y-111082952D01*
X175019047Y-111130571D01*
X174923809Y-111178190D01*
X174542857Y-111178190D01*
X175590476Y-111654380D02*
X175780952Y-111654380D01*
X175876190Y-111606761D01*
X175923809Y-111559142D01*
X176019047Y-111416285D01*
X176066666Y-111225809D01*
X176066666Y-110844857D01*
X176019047Y-110749619D01*
X175971428Y-110702000D01*
X175876190Y-110654380D01*
X175685714Y-110654380D01*
X175590476Y-110702000D01*
X175542857Y-110749619D01*
X175495238Y-110844857D01*
X175495238Y-111082952D01*
X175542857Y-111178190D01*
X175590476Y-111225809D01*
X175685714Y-111273428D01*
X175876190Y-111273428D01*
X175971428Y-111225809D01*
X176019047Y-111178190D01*
X176066666Y-111082952D01*
%TO.C,A1*%
X102736666Y-143104285D02*
X102736666Y-142628095D01*
X103022380Y-143199523D02*
X102022380Y-142866190D01*
X103022380Y-142532857D01*
X103022380Y-141675714D02*
X103022380Y-142247142D01*
X103022380Y-141961428D02*
X102022380Y-141961428D01*
X102165238Y-142056666D01*
X102260476Y-142151904D01*
X102308095Y-142247142D01*
%TO.C,C20*%
X186557142Y-107177142D02*
X186509523Y-107224761D01*
X186366666Y-107272380D01*
X186271428Y-107272380D01*
X186128571Y-107224761D01*
X186033333Y-107129523D01*
X185985714Y-107034285D01*
X185938095Y-106843809D01*
X185938095Y-106700952D01*
X185985714Y-106510476D01*
X186033333Y-106415238D01*
X186128571Y-106320000D01*
X186271428Y-106272380D01*
X186366666Y-106272380D01*
X186509523Y-106320000D01*
X186557142Y-106367619D01*
X186938095Y-106367619D02*
X186985714Y-106320000D01*
X187080952Y-106272380D01*
X187319047Y-106272380D01*
X187414285Y-106320000D01*
X187461904Y-106367619D01*
X187509523Y-106462857D01*
X187509523Y-106558095D01*
X187461904Y-106700952D01*
X186890476Y-107272380D01*
X187509523Y-107272380D01*
X188128571Y-106272380D02*
X188223809Y-106272380D01*
X188319047Y-106320000D01*
X188366666Y-106367619D01*
X188414285Y-106462857D01*
X188461904Y-106653333D01*
X188461904Y-106891428D01*
X188414285Y-107081904D01*
X188366666Y-107177142D01*
X188319047Y-107224761D01*
X188223809Y-107272380D01*
X188128571Y-107272380D01*
X188033333Y-107224761D01*
X187985714Y-107177142D01*
X187938095Y-107081904D01*
X187890476Y-106891428D01*
X187890476Y-106653333D01*
X187938095Y-106462857D01*
X187985714Y-106367619D01*
X188033333Y-106320000D01*
X188128571Y-106272380D01*
%TO.C,C27*%
X190257142Y-82637142D02*
X190209523Y-82684761D01*
X190066666Y-82732380D01*
X189971428Y-82732380D01*
X189828571Y-82684761D01*
X189733333Y-82589523D01*
X189685714Y-82494285D01*
X189638095Y-82303809D01*
X189638095Y-82160952D01*
X189685714Y-81970476D01*
X189733333Y-81875238D01*
X189828571Y-81780000D01*
X189971428Y-81732380D01*
X190066666Y-81732380D01*
X190209523Y-81780000D01*
X190257142Y-81827619D01*
X190638095Y-81827619D02*
X190685714Y-81780000D01*
X190780952Y-81732380D01*
X191019047Y-81732380D01*
X191114285Y-81780000D01*
X191161904Y-81827619D01*
X191209523Y-81922857D01*
X191209523Y-82018095D01*
X191161904Y-82160952D01*
X190590476Y-82732380D01*
X191209523Y-82732380D01*
X191542857Y-81732380D02*
X192209523Y-81732380D01*
X191780952Y-82732380D01*
%TO.C,R13*%
X188402380Y-104342857D02*
X187926190Y-104676190D01*
X188402380Y-104914285D02*
X187402380Y-104914285D01*
X187402380Y-104533333D01*
X187450000Y-104438095D01*
X187497619Y-104390476D01*
X187592857Y-104342857D01*
X187735714Y-104342857D01*
X187830952Y-104390476D01*
X187878571Y-104438095D01*
X187926190Y-104533333D01*
X187926190Y-104914285D01*
X188402380Y-103390476D02*
X188402380Y-103961904D01*
X188402380Y-103676190D02*
X187402380Y-103676190D01*
X187545238Y-103771428D01*
X187640476Y-103866666D01*
X187688095Y-103961904D01*
X187402380Y-103057142D02*
X187402380Y-102438095D01*
X187783333Y-102771428D01*
X187783333Y-102628571D01*
X187830952Y-102533333D01*
X187878571Y-102485714D01*
X187973809Y-102438095D01*
X188211904Y-102438095D01*
X188307142Y-102485714D01*
X188354761Y-102533333D01*
X188402380Y-102628571D01*
X188402380Y-102914285D01*
X188354761Y-103009523D01*
X188307142Y-103057142D01*
%TO.C,TP5*%
X116975595Y-96854380D02*
X117547023Y-96854380D01*
X117261309Y-97854380D02*
X117261309Y-96854380D01*
X117880357Y-97854380D02*
X117880357Y-96854380D01*
X118261309Y-96854380D01*
X118356547Y-96902000D01*
X118404166Y-96949619D01*
X118451785Y-97044857D01*
X118451785Y-97187714D01*
X118404166Y-97282952D01*
X118356547Y-97330571D01*
X118261309Y-97378190D01*
X117880357Y-97378190D01*
X119356547Y-96854380D02*
X118880357Y-96854380D01*
X118832738Y-97330571D01*
X118880357Y-97282952D01*
X118975595Y-97235333D01*
X119213690Y-97235333D01*
X119308928Y-97282952D01*
X119356547Y-97330571D01*
X119404166Y-97425809D01*
X119404166Y-97663904D01*
X119356547Y-97759142D01*
X119308928Y-97806761D01*
X119213690Y-97854380D01*
X118975595Y-97854380D01*
X118880357Y-97806761D01*
X118832738Y-97759142D01*
%TO.C,C2*%
X152437142Y-60066666D02*
X152484761Y-60114285D01*
X152532380Y-60257142D01*
X152532380Y-60352380D01*
X152484761Y-60495238D01*
X152389523Y-60590476D01*
X152294285Y-60638095D01*
X152103809Y-60685714D01*
X151960952Y-60685714D01*
X151770476Y-60638095D01*
X151675238Y-60590476D01*
X151580000Y-60495238D01*
X151532380Y-60352380D01*
X151532380Y-60257142D01*
X151580000Y-60114285D01*
X151627619Y-60066666D01*
X151627619Y-59685714D02*
X151580000Y-59638095D01*
X151532380Y-59542857D01*
X151532380Y-59304761D01*
X151580000Y-59209523D01*
X151627619Y-59161904D01*
X151722857Y-59114285D01*
X151818095Y-59114285D01*
X151960952Y-59161904D01*
X152532380Y-59733333D01*
X152532380Y-59114285D01*
%TO.C,C14*%
X144757142Y-123442857D02*
X144804761Y-123490476D01*
X144852380Y-123633333D01*
X144852380Y-123728571D01*
X144804761Y-123871428D01*
X144709523Y-123966666D01*
X144614285Y-124014285D01*
X144423809Y-124061904D01*
X144280952Y-124061904D01*
X144090476Y-124014285D01*
X143995238Y-123966666D01*
X143900000Y-123871428D01*
X143852380Y-123728571D01*
X143852380Y-123633333D01*
X143900000Y-123490476D01*
X143947619Y-123442857D01*
X144852380Y-122490476D02*
X144852380Y-123061904D01*
X144852380Y-122776190D02*
X143852380Y-122776190D01*
X143995238Y-122871428D01*
X144090476Y-122966666D01*
X144138095Y-123061904D01*
X144185714Y-121633333D02*
X144852380Y-121633333D01*
X143804761Y-121871428D02*
X144519047Y-122109523D01*
X144519047Y-121490476D01*
%TO.C,R5*%
X128133333Y-93232380D02*
X127800000Y-92756190D01*
X127561904Y-93232380D02*
X127561904Y-92232380D01*
X127942857Y-92232380D01*
X128038095Y-92280000D01*
X128085714Y-92327619D01*
X128133333Y-92422857D01*
X128133333Y-92565714D01*
X128085714Y-92660952D01*
X128038095Y-92708571D01*
X127942857Y-92756190D01*
X127561904Y-92756190D01*
X129038095Y-92232380D02*
X128561904Y-92232380D01*
X128514285Y-92708571D01*
X128561904Y-92660952D01*
X128657142Y-92613333D01*
X128895238Y-92613333D01*
X128990476Y-92660952D01*
X129038095Y-92708571D01*
X129085714Y-92803809D01*
X129085714Y-93041904D01*
X129038095Y-93137142D01*
X128990476Y-93184761D01*
X128895238Y-93232380D01*
X128657142Y-93232380D01*
X128561904Y-93184761D01*
X128514285Y-93137142D01*
%TO.C,C18*%
X133277142Y-90142857D02*
X133324761Y-90190476D01*
X133372380Y-90333333D01*
X133372380Y-90428571D01*
X133324761Y-90571428D01*
X133229523Y-90666666D01*
X133134285Y-90714285D01*
X132943809Y-90761904D01*
X132800952Y-90761904D01*
X132610476Y-90714285D01*
X132515238Y-90666666D01*
X132420000Y-90571428D01*
X132372380Y-90428571D01*
X132372380Y-90333333D01*
X132420000Y-90190476D01*
X132467619Y-90142857D01*
X133372380Y-89190476D02*
X133372380Y-89761904D01*
X133372380Y-89476190D02*
X132372380Y-89476190D01*
X132515238Y-89571428D01*
X132610476Y-89666666D01*
X132658095Y-89761904D01*
X132800952Y-88619047D02*
X132753333Y-88714285D01*
X132705714Y-88761904D01*
X132610476Y-88809523D01*
X132562857Y-88809523D01*
X132467619Y-88761904D01*
X132420000Y-88714285D01*
X132372380Y-88619047D01*
X132372380Y-88428571D01*
X132420000Y-88333333D01*
X132467619Y-88285714D01*
X132562857Y-88238095D01*
X132610476Y-88238095D01*
X132705714Y-88285714D01*
X132753333Y-88333333D01*
X132800952Y-88428571D01*
X132800952Y-88619047D01*
X132848571Y-88714285D01*
X132896190Y-88761904D01*
X132991428Y-88809523D01*
X133181904Y-88809523D01*
X133277142Y-88761904D01*
X133324761Y-88714285D01*
X133372380Y-88619047D01*
X133372380Y-88428571D01*
X133324761Y-88333333D01*
X133277142Y-88285714D01*
X133181904Y-88238095D01*
X132991428Y-88238095D01*
X132896190Y-88285714D01*
X132848571Y-88333333D01*
X132800952Y-88428571D01*
%TO.C,TP1*%
X142938095Y-62054380D02*
X143509523Y-62054380D01*
X143223809Y-63054380D02*
X143223809Y-62054380D01*
X143842857Y-63054380D02*
X143842857Y-62054380D01*
X144223809Y-62054380D01*
X144319047Y-62102000D01*
X144366666Y-62149619D01*
X144414285Y-62244857D01*
X144414285Y-62387714D01*
X144366666Y-62482952D01*
X144319047Y-62530571D01*
X144223809Y-62578190D01*
X143842857Y-62578190D01*
X145366666Y-63054380D02*
X144795238Y-63054380D01*
X145080952Y-63054380D02*
X145080952Y-62054380D01*
X144985714Y-62197238D01*
X144890476Y-62292476D01*
X144795238Y-62340095D01*
%TO.C,C11*%
X122394642Y-88077142D02*
X122347023Y-88124761D01*
X122204166Y-88172380D01*
X122108928Y-88172380D01*
X121966071Y-88124761D01*
X121870833Y-88029523D01*
X121823214Y-87934285D01*
X121775595Y-87743809D01*
X121775595Y-87600952D01*
X121823214Y-87410476D01*
X121870833Y-87315238D01*
X121966071Y-87220000D01*
X122108928Y-87172380D01*
X122204166Y-87172380D01*
X122347023Y-87220000D01*
X122394642Y-87267619D01*
X123347023Y-88172380D02*
X122775595Y-88172380D01*
X123061309Y-88172380D02*
X123061309Y-87172380D01*
X122966071Y-87315238D01*
X122870833Y-87410476D01*
X122775595Y-87458095D01*
X124299404Y-88172380D02*
X123727976Y-88172380D01*
X124013690Y-88172380D02*
X124013690Y-87172380D01*
X123918452Y-87315238D01*
X123823214Y-87410476D01*
X123727976Y-87458095D01*
%TO.C,TP10*%
X191761904Y-110054380D02*
X192333333Y-110054380D01*
X192047619Y-111054380D02*
X192047619Y-110054380D01*
X192666666Y-111054380D02*
X192666666Y-110054380D01*
X193047619Y-110054380D01*
X193142857Y-110102000D01*
X193190476Y-110149619D01*
X193238095Y-110244857D01*
X193238095Y-110387714D01*
X193190476Y-110482952D01*
X193142857Y-110530571D01*
X193047619Y-110578190D01*
X192666666Y-110578190D01*
X194190476Y-111054380D02*
X193619047Y-111054380D01*
X193904761Y-111054380D02*
X193904761Y-110054380D01*
X193809523Y-110197238D01*
X193714285Y-110292476D01*
X193619047Y-110340095D01*
X194809523Y-110054380D02*
X194904761Y-110054380D01*
X195000000Y-110102000D01*
X195047619Y-110149619D01*
X195095238Y-110244857D01*
X195142857Y-110435333D01*
X195142857Y-110673428D01*
X195095238Y-110863904D01*
X195047619Y-110959142D01*
X195000000Y-111006761D01*
X194904761Y-111054380D01*
X194809523Y-111054380D01*
X194714285Y-111006761D01*
X194666666Y-110959142D01*
X194619047Y-110863904D01*
X194571428Y-110673428D01*
X194571428Y-110435333D01*
X194619047Y-110244857D01*
X194666666Y-110149619D01*
X194714285Y-110102000D01*
X194809523Y-110054380D01*
%TO.C,C23*%
X186357142Y-100937142D02*
X186309523Y-100984761D01*
X186166666Y-101032380D01*
X186071428Y-101032380D01*
X185928571Y-100984761D01*
X185833333Y-100889523D01*
X185785714Y-100794285D01*
X185738095Y-100603809D01*
X185738095Y-100460952D01*
X185785714Y-100270476D01*
X185833333Y-100175238D01*
X185928571Y-100080000D01*
X186071428Y-100032380D01*
X186166666Y-100032380D01*
X186309523Y-100080000D01*
X186357142Y-100127619D01*
X186738095Y-100127619D02*
X186785714Y-100080000D01*
X186880952Y-100032380D01*
X187119047Y-100032380D01*
X187214285Y-100080000D01*
X187261904Y-100127619D01*
X187309523Y-100222857D01*
X187309523Y-100318095D01*
X187261904Y-100460952D01*
X186690476Y-101032380D01*
X187309523Y-101032380D01*
X187642857Y-100032380D02*
X188261904Y-100032380D01*
X187928571Y-100413333D01*
X188071428Y-100413333D01*
X188166666Y-100460952D01*
X188214285Y-100508571D01*
X188261904Y-100603809D01*
X188261904Y-100841904D01*
X188214285Y-100937142D01*
X188166666Y-100984761D01*
X188071428Y-101032380D01*
X187785714Y-101032380D01*
X187690476Y-100984761D01*
X187642857Y-100937142D01*
%TO.C,J1*%
X116166666Y-73752380D02*
X116166666Y-74466666D01*
X116119047Y-74609523D01*
X116023809Y-74704761D01*
X115880952Y-74752380D01*
X115785714Y-74752380D01*
X117166666Y-74752380D02*
X116595238Y-74752380D01*
X116880952Y-74752380D02*
X116880952Y-73752380D01*
X116785714Y-73895238D01*
X116690476Y-73990476D01*
X116595238Y-74038095D01*
%TO.C,R14*%
X169502380Y-88842857D02*
X169026190Y-89176190D01*
X169502380Y-89414285D02*
X168502380Y-89414285D01*
X168502380Y-89033333D01*
X168550000Y-88938095D01*
X168597619Y-88890476D01*
X168692857Y-88842857D01*
X168835714Y-88842857D01*
X168930952Y-88890476D01*
X168978571Y-88938095D01*
X169026190Y-89033333D01*
X169026190Y-89414285D01*
X169502380Y-87890476D02*
X169502380Y-88461904D01*
X169502380Y-88176190D02*
X168502380Y-88176190D01*
X168645238Y-88271428D01*
X168740476Y-88366666D01*
X168788095Y-88461904D01*
X168835714Y-87033333D02*
X169502380Y-87033333D01*
X168454761Y-87271428D02*
X169169047Y-87509523D01*
X169169047Y-86890476D01*
%TO.C,TP11*%
X170061904Y-79054380D02*
X170633333Y-79054380D01*
X170347619Y-80054380D02*
X170347619Y-79054380D01*
X170966666Y-80054380D02*
X170966666Y-79054380D01*
X171347619Y-79054380D01*
X171442857Y-79102000D01*
X171490476Y-79149619D01*
X171538095Y-79244857D01*
X171538095Y-79387714D01*
X171490476Y-79482952D01*
X171442857Y-79530571D01*
X171347619Y-79578190D01*
X170966666Y-79578190D01*
X172490476Y-80054380D02*
X171919047Y-80054380D01*
X172204761Y-80054380D02*
X172204761Y-79054380D01*
X172109523Y-79197238D01*
X172014285Y-79292476D01*
X171919047Y-79340095D01*
X173442857Y-80054380D02*
X172871428Y-80054380D01*
X173157142Y-80054380D02*
X173157142Y-79054380D01*
X173061904Y-79197238D01*
X172966666Y-79292476D01*
X172871428Y-79340095D01*
%TO.C,R10*%
X180602380Y-113742857D02*
X180126190Y-114076190D01*
X180602380Y-114314285D02*
X179602380Y-114314285D01*
X179602380Y-113933333D01*
X179650000Y-113838095D01*
X179697619Y-113790476D01*
X179792857Y-113742857D01*
X179935714Y-113742857D01*
X180030952Y-113790476D01*
X180078571Y-113838095D01*
X180126190Y-113933333D01*
X180126190Y-114314285D01*
X180602380Y-112790476D02*
X180602380Y-113361904D01*
X180602380Y-113076190D02*
X179602380Y-113076190D01*
X179745238Y-113171428D01*
X179840476Y-113266666D01*
X179888095Y-113361904D01*
X179602380Y-112171428D02*
X179602380Y-112076190D01*
X179650000Y-111980952D01*
X179697619Y-111933333D01*
X179792857Y-111885714D01*
X179983333Y-111838095D01*
X180221428Y-111838095D01*
X180411904Y-111885714D01*
X180507142Y-111933333D01*
X180554761Y-111980952D01*
X180602380Y-112076190D01*
X180602380Y-112171428D01*
X180554761Y-112266666D01*
X180507142Y-112314285D01*
X180411904Y-112361904D01*
X180221428Y-112409523D01*
X179983333Y-112409523D01*
X179792857Y-112361904D01*
X179697619Y-112314285D01*
X179650000Y-112266666D01*
X179602380Y-112171428D01*
%TO.C,C25*%
X187137142Y-82042857D02*
X187184761Y-82090476D01*
X187232380Y-82233333D01*
X187232380Y-82328571D01*
X187184761Y-82471428D01*
X187089523Y-82566666D01*
X186994285Y-82614285D01*
X186803809Y-82661904D01*
X186660952Y-82661904D01*
X186470476Y-82614285D01*
X186375238Y-82566666D01*
X186280000Y-82471428D01*
X186232380Y-82328571D01*
X186232380Y-82233333D01*
X186280000Y-82090476D01*
X186327619Y-82042857D01*
X186327619Y-81661904D02*
X186280000Y-81614285D01*
X186232380Y-81519047D01*
X186232380Y-81280952D01*
X186280000Y-81185714D01*
X186327619Y-81138095D01*
X186422857Y-81090476D01*
X186518095Y-81090476D01*
X186660952Y-81138095D01*
X187232380Y-81709523D01*
X187232380Y-81090476D01*
X186232380Y-80185714D02*
X186232380Y-80661904D01*
X186708571Y-80709523D01*
X186660952Y-80661904D01*
X186613333Y-80566666D01*
X186613333Y-80328571D01*
X186660952Y-80233333D01*
X186708571Y-80185714D01*
X186803809Y-80138095D01*
X187041904Y-80138095D01*
X187137142Y-80185714D01*
X187184761Y-80233333D01*
X187232380Y-80328571D01*
X187232380Y-80566666D01*
X187184761Y-80661904D01*
X187137142Y-80709523D01*
%TO.C,R17*%
X190557142Y-97802380D02*
X190223809Y-97326190D01*
X189985714Y-97802380D02*
X189985714Y-96802380D01*
X190366666Y-96802380D01*
X190461904Y-96850000D01*
X190509523Y-96897619D01*
X190557142Y-96992857D01*
X190557142Y-97135714D01*
X190509523Y-97230952D01*
X190461904Y-97278571D01*
X190366666Y-97326190D01*
X189985714Y-97326190D01*
X191509523Y-97802380D02*
X190938095Y-97802380D01*
X191223809Y-97802380D02*
X191223809Y-96802380D01*
X191128571Y-96945238D01*
X191033333Y-97040476D01*
X190938095Y-97088095D01*
X191842857Y-96802380D02*
X192509523Y-96802380D01*
X192080952Y-97802380D01*
%TO.C,Y1*%
X150323809Y-92526190D02*
X150323809Y-93002380D01*
X149990476Y-92002380D02*
X150323809Y-92526190D01*
X150657142Y-92002380D01*
X151514285Y-93002380D02*
X150942857Y-93002380D01*
X151228571Y-93002380D02*
X151228571Y-92002380D01*
X151133333Y-92145238D01*
X151038095Y-92240476D01*
X150942857Y-92288095D01*
%TO.C,U1*%
X157938095Y-93352380D02*
X157938095Y-94161904D01*
X157985714Y-94257142D01*
X158033333Y-94304761D01*
X158128571Y-94352380D01*
X158319047Y-94352380D01*
X158414285Y-94304761D01*
X158461904Y-94257142D01*
X158509523Y-94161904D01*
X158509523Y-93352380D01*
X159509523Y-94352380D02*
X158938095Y-94352380D01*
X159223809Y-94352380D02*
X159223809Y-93352380D01*
X159128571Y-93495238D01*
X159033333Y-93590476D01*
X158938095Y-93638095D01*
%TO.C,U3*%
X140738095Y-77152380D02*
X140738095Y-77961904D01*
X140785714Y-78057142D01*
X140833333Y-78104761D01*
X140928571Y-78152380D01*
X141119047Y-78152380D01*
X141214285Y-78104761D01*
X141261904Y-78057142D01*
X141309523Y-77961904D01*
X141309523Y-77152380D01*
X141690476Y-77152380D02*
X142309523Y-77152380D01*
X141976190Y-77533333D01*
X142119047Y-77533333D01*
X142214285Y-77580952D01*
X142261904Y-77628571D01*
X142309523Y-77723809D01*
X142309523Y-77961904D01*
X142261904Y-78057142D01*
X142214285Y-78104761D01*
X142119047Y-78152380D01*
X141833333Y-78152380D01*
X141738095Y-78104761D01*
X141690476Y-78057142D01*
%TO.C,C3*%
X166937142Y-97066666D02*
X166984761Y-97114285D01*
X167032380Y-97257142D01*
X167032380Y-97352380D01*
X166984761Y-97495238D01*
X166889523Y-97590476D01*
X166794285Y-97638095D01*
X166603809Y-97685714D01*
X166460952Y-97685714D01*
X166270476Y-97638095D01*
X166175238Y-97590476D01*
X166080000Y-97495238D01*
X166032380Y-97352380D01*
X166032380Y-97257142D01*
X166080000Y-97114285D01*
X166127619Y-97066666D01*
X166032380Y-96733333D02*
X166032380Y-96114285D01*
X166413333Y-96447619D01*
X166413333Y-96304761D01*
X166460952Y-96209523D01*
X166508571Y-96161904D01*
X166603809Y-96114285D01*
X166841904Y-96114285D01*
X166937142Y-96161904D01*
X166984761Y-96209523D01*
X167032380Y-96304761D01*
X167032380Y-96590476D01*
X166984761Y-96685714D01*
X166937142Y-96733333D01*
%TO.C,C12*%
X122294642Y-86637142D02*
X122247023Y-86684761D01*
X122104166Y-86732380D01*
X122008928Y-86732380D01*
X121866071Y-86684761D01*
X121770833Y-86589523D01*
X121723214Y-86494285D01*
X121675595Y-86303809D01*
X121675595Y-86160952D01*
X121723214Y-85970476D01*
X121770833Y-85875238D01*
X121866071Y-85780000D01*
X122008928Y-85732380D01*
X122104166Y-85732380D01*
X122247023Y-85780000D01*
X122294642Y-85827619D01*
X123247023Y-86732380D02*
X122675595Y-86732380D01*
X122961309Y-86732380D02*
X122961309Y-85732380D01*
X122866071Y-85875238D01*
X122770833Y-85970476D01*
X122675595Y-86018095D01*
X123627976Y-85827619D02*
X123675595Y-85780000D01*
X123770833Y-85732380D01*
X124008928Y-85732380D01*
X124104166Y-85780000D01*
X124151785Y-85827619D01*
X124199404Y-85922857D01*
X124199404Y-86018095D01*
X124151785Y-86160952D01*
X123580357Y-86732380D01*
X124199404Y-86732380D01*
%TO.C,C21*%
X142657142Y-131042857D02*
X142704761Y-131090476D01*
X142752380Y-131233333D01*
X142752380Y-131328571D01*
X142704761Y-131471428D01*
X142609523Y-131566666D01*
X142514285Y-131614285D01*
X142323809Y-131661904D01*
X142180952Y-131661904D01*
X141990476Y-131614285D01*
X141895238Y-131566666D01*
X141800000Y-131471428D01*
X141752380Y-131328571D01*
X141752380Y-131233333D01*
X141800000Y-131090476D01*
X141847619Y-131042857D01*
X141847619Y-130661904D02*
X141800000Y-130614285D01*
X141752380Y-130519047D01*
X141752380Y-130280952D01*
X141800000Y-130185714D01*
X141847619Y-130138095D01*
X141942857Y-130090476D01*
X142038095Y-130090476D01*
X142180952Y-130138095D01*
X142752380Y-130709523D01*
X142752380Y-130090476D01*
X142752380Y-129138095D02*
X142752380Y-129709523D01*
X142752380Y-129423809D02*
X141752380Y-129423809D01*
X141895238Y-129519047D01*
X141990476Y-129614285D01*
X142038095Y-129709523D01*
%TO.C,R19*%
X123922380Y-130742857D02*
X123446190Y-131076190D01*
X123922380Y-131314285D02*
X122922380Y-131314285D01*
X122922380Y-130933333D01*
X122970000Y-130838095D01*
X123017619Y-130790476D01*
X123112857Y-130742857D01*
X123255714Y-130742857D01*
X123350952Y-130790476D01*
X123398571Y-130838095D01*
X123446190Y-130933333D01*
X123446190Y-131314285D01*
X123922380Y-129790476D02*
X123922380Y-130361904D01*
X123922380Y-130076190D02*
X122922380Y-130076190D01*
X123065238Y-130171428D01*
X123160476Y-130266666D01*
X123208095Y-130361904D01*
X123922380Y-129314285D02*
X123922380Y-129123809D01*
X123874761Y-129028571D01*
X123827142Y-128980952D01*
X123684285Y-128885714D01*
X123493809Y-128838095D01*
X123112857Y-128838095D01*
X123017619Y-128885714D01*
X122970000Y-128933333D01*
X122922380Y-129028571D01*
X122922380Y-129219047D01*
X122970000Y-129314285D01*
X123017619Y-129361904D01*
X123112857Y-129409523D01*
X123350952Y-129409523D01*
X123446190Y-129361904D01*
X123493809Y-129314285D01*
X123541428Y-129219047D01*
X123541428Y-129028571D01*
X123493809Y-128933333D01*
X123446190Y-128885714D01*
X123350952Y-128838095D01*
%TO.C,R18*%
X125822380Y-130642857D02*
X125346190Y-130976190D01*
X125822380Y-131214285D02*
X124822380Y-131214285D01*
X124822380Y-130833333D01*
X124870000Y-130738095D01*
X124917619Y-130690476D01*
X125012857Y-130642857D01*
X125155714Y-130642857D01*
X125250952Y-130690476D01*
X125298571Y-130738095D01*
X125346190Y-130833333D01*
X125346190Y-131214285D01*
X125822380Y-129690476D02*
X125822380Y-130261904D01*
X125822380Y-129976190D02*
X124822380Y-129976190D01*
X124965238Y-130071428D01*
X125060476Y-130166666D01*
X125108095Y-130261904D01*
X125250952Y-129119047D02*
X125203333Y-129214285D01*
X125155714Y-129261904D01*
X125060476Y-129309523D01*
X125012857Y-129309523D01*
X124917619Y-129261904D01*
X124870000Y-129214285D01*
X124822380Y-129119047D01*
X124822380Y-128928571D01*
X124870000Y-128833333D01*
X124917619Y-128785714D01*
X125012857Y-128738095D01*
X125060476Y-128738095D01*
X125155714Y-128785714D01*
X125203333Y-128833333D01*
X125250952Y-128928571D01*
X125250952Y-129119047D01*
X125298571Y-129214285D01*
X125346190Y-129261904D01*
X125441428Y-129309523D01*
X125631904Y-129309523D01*
X125727142Y-129261904D01*
X125774761Y-129214285D01*
X125822380Y-129119047D01*
X125822380Y-128928571D01*
X125774761Y-128833333D01*
X125727142Y-128785714D01*
X125631904Y-128738095D01*
X125441428Y-128738095D01*
X125346190Y-128785714D01*
X125298571Y-128833333D01*
X125250952Y-128928571D01*
%TO.C,C22*%
X180257142Y-100937142D02*
X180209523Y-100984761D01*
X180066666Y-101032380D01*
X179971428Y-101032380D01*
X179828571Y-100984761D01*
X179733333Y-100889523D01*
X179685714Y-100794285D01*
X179638095Y-100603809D01*
X179638095Y-100460952D01*
X179685714Y-100270476D01*
X179733333Y-100175238D01*
X179828571Y-100080000D01*
X179971428Y-100032380D01*
X180066666Y-100032380D01*
X180209523Y-100080000D01*
X180257142Y-100127619D01*
X180638095Y-100127619D02*
X180685714Y-100080000D01*
X180780952Y-100032380D01*
X181019047Y-100032380D01*
X181114285Y-100080000D01*
X181161904Y-100127619D01*
X181209523Y-100222857D01*
X181209523Y-100318095D01*
X181161904Y-100460952D01*
X180590476Y-101032380D01*
X181209523Y-101032380D01*
X181590476Y-100127619D02*
X181638095Y-100080000D01*
X181733333Y-100032380D01*
X181971428Y-100032380D01*
X182066666Y-100080000D01*
X182114285Y-100127619D01*
X182161904Y-100222857D01*
X182161904Y-100318095D01*
X182114285Y-100460952D01*
X181542857Y-101032380D01*
X182161904Y-101032380D01*
%TO.C,R15*%
X198402380Y-88942857D02*
X197926190Y-89276190D01*
X198402380Y-89514285D02*
X197402380Y-89514285D01*
X197402380Y-89133333D01*
X197450000Y-89038095D01*
X197497619Y-88990476D01*
X197592857Y-88942857D01*
X197735714Y-88942857D01*
X197830952Y-88990476D01*
X197878571Y-89038095D01*
X197926190Y-89133333D01*
X197926190Y-89514285D01*
X198402380Y-87990476D02*
X198402380Y-88561904D01*
X198402380Y-88276190D02*
X197402380Y-88276190D01*
X197545238Y-88371428D01*
X197640476Y-88466666D01*
X197688095Y-88561904D01*
X197402380Y-87085714D02*
X197402380Y-87561904D01*
X197878571Y-87609523D01*
X197830952Y-87561904D01*
X197783333Y-87466666D01*
X197783333Y-87228571D01*
X197830952Y-87133333D01*
X197878571Y-87085714D01*
X197973809Y-87038095D01*
X198211904Y-87038095D01*
X198307142Y-87085714D01*
X198354761Y-87133333D01*
X198402380Y-87228571D01*
X198402380Y-87466666D01*
X198354761Y-87561904D01*
X198307142Y-87609523D01*
%TO.C,R12*%
X183802380Y-104342857D02*
X183326190Y-104676190D01*
X183802380Y-104914285D02*
X182802380Y-104914285D01*
X182802380Y-104533333D01*
X182850000Y-104438095D01*
X182897619Y-104390476D01*
X182992857Y-104342857D01*
X183135714Y-104342857D01*
X183230952Y-104390476D01*
X183278571Y-104438095D01*
X183326190Y-104533333D01*
X183326190Y-104914285D01*
X183802380Y-103390476D02*
X183802380Y-103961904D01*
X183802380Y-103676190D02*
X182802380Y-103676190D01*
X182945238Y-103771428D01*
X183040476Y-103866666D01*
X183088095Y-103961904D01*
X182897619Y-103009523D02*
X182850000Y-102961904D01*
X182802380Y-102866666D01*
X182802380Y-102628571D01*
X182850000Y-102533333D01*
X182897619Y-102485714D01*
X182992857Y-102438095D01*
X183088095Y-102438095D01*
X183230952Y-102485714D01*
X183802380Y-103057142D01*
X183802380Y-102438095D01*
%TO.C,TP4*%
X117075595Y-90454380D02*
X117647023Y-90454380D01*
X117361309Y-91454380D02*
X117361309Y-90454380D01*
X117980357Y-91454380D02*
X117980357Y-90454380D01*
X118361309Y-90454380D01*
X118456547Y-90502000D01*
X118504166Y-90549619D01*
X118551785Y-90644857D01*
X118551785Y-90787714D01*
X118504166Y-90882952D01*
X118456547Y-90930571D01*
X118361309Y-90978190D01*
X117980357Y-90978190D01*
X119408928Y-90787714D02*
X119408928Y-91454380D01*
X119170833Y-90406761D02*
X118932738Y-91121047D01*
X119551785Y-91121047D01*
%TO.C,TP8*%
X133238095Y-104954380D02*
X133809523Y-104954380D01*
X133523809Y-105954380D02*
X133523809Y-104954380D01*
X134142857Y-105954380D02*
X134142857Y-104954380D01*
X134523809Y-104954380D01*
X134619047Y-105002000D01*
X134666666Y-105049619D01*
X134714285Y-105144857D01*
X134714285Y-105287714D01*
X134666666Y-105382952D01*
X134619047Y-105430571D01*
X134523809Y-105478190D01*
X134142857Y-105478190D01*
X135285714Y-105382952D02*
X135190476Y-105335333D01*
X135142857Y-105287714D01*
X135095238Y-105192476D01*
X135095238Y-105144857D01*
X135142857Y-105049619D01*
X135190476Y-105002000D01*
X135285714Y-104954380D01*
X135476190Y-104954380D01*
X135571428Y-105002000D01*
X135619047Y-105049619D01*
X135666666Y-105144857D01*
X135666666Y-105192476D01*
X135619047Y-105287714D01*
X135571428Y-105335333D01*
X135476190Y-105382952D01*
X135285714Y-105382952D01*
X135190476Y-105430571D01*
X135142857Y-105478190D01*
X135095238Y-105573428D01*
X135095238Y-105763904D01*
X135142857Y-105859142D01*
X135190476Y-105906761D01*
X135285714Y-105954380D01*
X135476190Y-105954380D01*
X135571428Y-105906761D01*
X135619047Y-105859142D01*
X135666666Y-105763904D01*
X135666666Y-105573428D01*
X135619047Y-105478190D01*
X135571428Y-105430571D01*
X135476190Y-105382952D01*
%TO.C,R3*%
X162233333Y-69152380D02*
X161900000Y-68676190D01*
X161661904Y-69152380D02*
X161661904Y-68152380D01*
X162042857Y-68152380D01*
X162138095Y-68200000D01*
X162185714Y-68247619D01*
X162233333Y-68342857D01*
X162233333Y-68485714D01*
X162185714Y-68580952D01*
X162138095Y-68628571D01*
X162042857Y-68676190D01*
X161661904Y-68676190D01*
X162566666Y-68152380D02*
X163185714Y-68152380D01*
X162852380Y-68533333D01*
X162995238Y-68533333D01*
X163090476Y-68580952D01*
X163138095Y-68628571D01*
X163185714Y-68723809D01*
X163185714Y-68961904D01*
X163138095Y-69057142D01*
X163090476Y-69104761D01*
X162995238Y-69152380D01*
X162709523Y-69152380D01*
X162614285Y-69104761D01*
X162566666Y-69057142D01*
%TO.C,C5*%
X151233333Y-65277142D02*
X151185714Y-65324761D01*
X151042857Y-65372380D01*
X150947619Y-65372380D01*
X150804761Y-65324761D01*
X150709523Y-65229523D01*
X150661904Y-65134285D01*
X150614285Y-64943809D01*
X150614285Y-64800952D01*
X150661904Y-64610476D01*
X150709523Y-64515238D01*
X150804761Y-64420000D01*
X150947619Y-64372380D01*
X151042857Y-64372380D01*
X151185714Y-64420000D01*
X151233333Y-64467619D01*
X152138095Y-64372380D02*
X151661904Y-64372380D01*
X151614285Y-64848571D01*
X151661904Y-64800952D01*
X151757142Y-64753333D01*
X151995238Y-64753333D01*
X152090476Y-64800952D01*
X152138095Y-64848571D01*
X152185714Y-64943809D01*
X152185714Y-65181904D01*
X152138095Y-65277142D01*
X152090476Y-65324761D01*
X151995238Y-65372380D01*
X151757142Y-65372380D01*
X151661904Y-65324761D01*
X151614285Y-65277142D01*
%TO.C,TP6*%
X116638095Y-82154380D02*
X117209523Y-82154380D01*
X116923809Y-83154380D02*
X116923809Y-82154380D01*
X117542857Y-83154380D02*
X117542857Y-82154380D01*
X117923809Y-82154380D01*
X118019047Y-82202000D01*
X118066666Y-82249619D01*
X118114285Y-82344857D01*
X118114285Y-82487714D01*
X118066666Y-82582952D01*
X118019047Y-82630571D01*
X117923809Y-82678190D01*
X117542857Y-82678190D01*
X118971428Y-82154380D02*
X118780952Y-82154380D01*
X118685714Y-82202000D01*
X118638095Y-82249619D01*
X118542857Y-82392476D01*
X118495238Y-82582952D01*
X118495238Y-82963904D01*
X118542857Y-83059142D01*
X118590476Y-83106761D01*
X118685714Y-83154380D01*
X118876190Y-83154380D01*
X118971428Y-83106761D01*
X119019047Y-83059142D01*
X119066666Y-82963904D01*
X119066666Y-82725809D01*
X119019047Y-82630571D01*
X118971428Y-82582952D01*
X118876190Y-82535333D01*
X118685714Y-82535333D01*
X118590476Y-82582952D01*
X118542857Y-82630571D01*
X118495238Y-82725809D01*
%TO.C,C9*%
X122870833Y-97877142D02*
X122823214Y-97924761D01*
X122680357Y-97972380D01*
X122585119Y-97972380D01*
X122442261Y-97924761D01*
X122347023Y-97829523D01*
X122299404Y-97734285D01*
X122251785Y-97543809D01*
X122251785Y-97400952D01*
X122299404Y-97210476D01*
X122347023Y-97115238D01*
X122442261Y-97020000D01*
X122585119Y-96972380D01*
X122680357Y-96972380D01*
X122823214Y-97020000D01*
X122870833Y-97067619D01*
X123347023Y-97972380D02*
X123537500Y-97972380D01*
X123632738Y-97924761D01*
X123680357Y-97877142D01*
X123775595Y-97734285D01*
X123823214Y-97543809D01*
X123823214Y-97162857D01*
X123775595Y-97067619D01*
X123727976Y-97020000D01*
X123632738Y-96972380D01*
X123442261Y-96972380D01*
X123347023Y-97020000D01*
X123299404Y-97067619D01*
X123251785Y-97162857D01*
X123251785Y-97400952D01*
X123299404Y-97496190D01*
X123347023Y-97543809D01*
X123442261Y-97591428D01*
X123632738Y-97591428D01*
X123727976Y-97543809D01*
X123775595Y-97496190D01*
X123823214Y-97400952D01*
%TO.C,C4*%
X158833333Y-61057142D02*
X158785714Y-61104761D01*
X158642857Y-61152380D01*
X158547619Y-61152380D01*
X158404761Y-61104761D01*
X158309523Y-61009523D01*
X158261904Y-60914285D01*
X158214285Y-60723809D01*
X158214285Y-60580952D01*
X158261904Y-60390476D01*
X158309523Y-60295238D01*
X158404761Y-60200000D01*
X158547619Y-60152380D01*
X158642857Y-60152380D01*
X158785714Y-60200000D01*
X158833333Y-60247619D01*
X159690476Y-60485714D02*
X159690476Y-61152380D01*
X159452380Y-60104761D02*
X159214285Y-60819047D01*
X159833333Y-60819047D01*
%TO.C,R6*%
X128133333Y-89532380D02*
X127800000Y-89056190D01*
X127561904Y-89532380D02*
X127561904Y-88532380D01*
X127942857Y-88532380D01*
X128038095Y-88580000D01*
X128085714Y-88627619D01*
X128133333Y-88722857D01*
X128133333Y-88865714D01*
X128085714Y-88960952D01*
X128038095Y-89008571D01*
X127942857Y-89056190D01*
X127561904Y-89056190D01*
X128990476Y-88532380D02*
X128800000Y-88532380D01*
X128704761Y-88580000D01*
X128657142Y-88627619D01*
X128561904Y-88770476D01*
X128514285Y-88960952D01*
X128514285Y-89341904D01*
X128561904Y-89437142D01*
X128609523Y-89484761D01*
X128704761Y-89532380D01*
X128895238Y-89532380D01*
X128990476Y-89484761D01*
X129038095Y-89437142D01*
X129085714Y-89341904D01*
X129085714Y-89103809D01*
X129038095Y-89008571D01*
X128990476Y-88960952D01*
X128895238Y-88913333D01*
X128704761Y-88913333D01*
X128609523Y-88960952D01*
X128561904Y-89008571D01*
X128514285Y-89103809D01*
%TO.C,C16*%
X129457142Y-77477142D02*
X129409523Y-77524761D01*
X129266666Y-77572380D01*
X129171428Y-77572380D01*
X129028571Y-77524761D01*
X128933333Y-77429523D01*
X128885714Y-77334285D01*
X128838095Y-77143809D01*
X128838095Y-77000952D01*
X128885714Y-76810476D01*
X128933333Y-76715238D01*
X129028571Y-76620000D01*
X129171428Y-76572380D01*
X129266666Y-76572380D01*
X129409523Y-76620000D01*
X129457142Y-76667619D01*
X130409523Y-77572380D02*
X129838095Y-77572380D01*
X130123809Y-77572380D02*
X130123809Y-76572380D01*
X130028571Y-76715238D01*
X129933333Y-76810476D01*
X129838095Y-76858095D01*
X131266666Y-76572380D02*
X131076190Y-76572380D01*
X130980952Y-76620000D01*
X130933333Y-76667619D01*
X130838095Y-76810476D01*
X130790476Y-77000952D01*
X130790476Y-77381904D01*
X130838095Y-77477142D01*
X130885714Y-77524761D01*
X130980952Y-77572380D01*
X131171428Y-77572380D01*
X131266666Y-77524761D01*
X131314285Y-77477142D01*
X131361904Y-77381904D01*
X131361904Y-77143809D01*
X131314285Y-77048571D01*
X131266666Y-77000952D01*
X131171428Y-76953333D01*
X130980952Y-76953333D01*
X130885714Y-77000952D01*
X130838095Y-77048571D01*
X130790476Y-77143809D01*
%TO.C,C8*%
X135537142Y-122366666D02*
X135584761Y-122414285D01*
X135632380Y-122557142D01*
X135632380Y-122652380D01*
X135584761Y-122795238D01*
X135489523Y-122890476D01*
X135394285Y-122938095D01*
X135203809Y-122985714D01*
X135060952Y-122985714D01*
X134870476Y-122938095D01*
X134775238Y-122890476D01*
X134680000Y-122795238D01*
X134632380Y-122652380D01*
X134632380Y-122557142D01*
X134680000Y-122414285D01*
X134727619Y-122366666D01*
X135060952Y-121795238D02*
X135013333Y-121890476D01*
X134965714Y-121938095D01*
X134870476Y-121985714D01*
X134822857Y-121985714D01*
X134727619Y-121938095D01*
X134680000Y-121890476D01*
X134632380Y-121795238D01*
X134632380Y-121604761D01*
X134680000Y-121509523D01*
X134727619Y-121461904D01*
X134822857Y-121414285D01*
X134870476Y-121414285D01*
X134965714Y-121461904D01*
X135013333Y-121509523D01*
X135060952Y-121604761D01*
X135060952Y-121795238D01*
X135108571Y-121890476D01*
X135156190Y-121938095D01*
X135251428Y-121985714D01*
X135441904Y-121985714D01*
X135537142Y-121938095D01*
X135584761Y-121890476D01*
X135632380Y-121795238D01*
X135632380Y-121604761D01*
X135584761Y-121509523D01*
X135537142Y-121461904D01*
X135441904Y-121414285D01*
X135251428Y-121414285D01*
X135156190Y-121461904D01*
X135108571Y-121509523D01*
X135060952Y-121604761D01*
%TO.C,TP7*%
X180538095Y-116554380D02*
X181109523Y-116554380D01*
X180823809Y-117554380D02*
X180823809Y-116554380D01*
X181442857Y-117554380D02*
X181442857Y-116554380D01*
X181823809Y-116554380D01*
X181919047Y-116602000D01*
X181966666Y-116649619D01*
X182014285Y-116744857D01*
X182014285Y-116887714D01*
X181966666Y-116982952D01*
X181919047Y-117030571D01*
X181823809Y-117078190D01*
X181442857Y-117078190D01*
X182347619Y-116554380D02*
X183014285Y-116554380D01*
X182585714Y-117554380D01*
%TO.C,U4*%
X178738095Y-83052380D02*
X178738095Y-83861904D01*
X178785714Y-83957142D01*
X178833333Y-84004761D01*
X178928571Y-84052380D01*
X179119047Y-84052380D01*
X179214285Y-84004761D01*
X179261904Y-83957142D01*
X179309523Y-83861904D01*
X179309523Y-83052380D01*
X180214285Y-83385714D02*
X180214285Y-84052380D01*
X179976190Y-83004761D02*
X179738095Y-83719047D01*
X180357142Y-83719047D01*
%TO.C,C10*%
X122394642Y-96237142D02*
X122347023Y-96284761D01*
X122204166Y-96332380D01*
X122108928Y-96332380D01*
X121966071Y-96284761D01*
X121870833Y-96189523D01*
X121823214Y-96094285D01*
X121775595Y-95903809D01*
X121775595Y-95760952D01*
X121823214Y-95570476D01*
X121870833Y-95475238D01*
X121966071Y-95380000D01*
X122108928Y-95332380D01*
X122204166Y-95332380D01*
X122347023Y-95380000D01*
X122394642Y-95427619D01*
X123347023Y-96332380D02*
X122775595Y-96332380D01*
X123061309Y-96332380D02*
X123061309Y-95332380D01*
X122966071Y-95475238D01*
X122870833Y-95570476D01*
X122775595Y-95618095D01*
X123966071Y-95332380D02*
X124061309Y-95332380D01*
X124156547Y-95380000D01*
X124204166Y-95427619D01*
X124251785Y-95522857D01*
X124299404Y-95713333D01*
X124299404Y-95951428D01*
X124251785Y-96141904D01*
X124204166Y-96237142D01*
X124156547Y-96284761D01*
X124061309Y-96332380D01*
X123966071Y-96332380D01*
X123870833Y-96284761D01*
X123823214Y-96237142D01*
X123775595Y-96141904D01*
X123727976Y-95951428D01*
X123727976Y-95713333D01*
X123775595Y-95522857D01*
X123823214Y-95427619D01*
X123870833Y-95380000D01*
X123966071Y-95332380D01*
%TO.C,R4*%
X128195833Y-96932380D02*
X127862500Y-96456190D01*
X127624404Y-96932380D02*
X127624404Y-95932380D01*
X128005357Y-95932380D01*
X128100595Y-95980000D01*
X128148214Y-96027619D01*
X128195833Y-96122857D01*
X128195833Y-96265714D01*
X128148214Y-96360952D01*
X128100595Y-96408571D01*
X128005357Y-96456190D01*
X127624404Y-96456190D01*
X129052976Y-96265714D02*
X129052976Y-96932380D01*
X128814880Y-95884761D02*
X128576785Y-96599047D01*
X129195833Y-96599047D01*
%TO.C,C6*%
X111270833Y-82077142D02*
X111223214Y-82124761D01*
X111080357Y-82172380D01*
X110985119Y-82172380D01*
X110842261Y-82124761D01*
X110747023Y-82029523D01*
X110699404Y-81934285D01*
X110651785Y-81743809D01*
X110651785Y-81600952D01*
X110699404Y-81410476D01*
X110747023Y-81315238D01*
X110842261Y-81220000D01*
X110985119Y-81172380D01*
X111080357Y-81172380D01*
X111223214Y-81220000D01*
X111270833Y-81267619D01*
X112127976Y-81172380D02*
X111937500Y-81172380D01*
X111842261Y-81220000D01*
X111794642Y-81267619D01*
X111699404Y-81410476D01*
X111651785Y-81600952D01*
X111651785Y-81981904D01*
X111699404Y-82077142D01*
X111747023Y-82124761D01*
X111842261Y-82172380D01*
X112032738Y-82172380D01*
X112127976Y-82124761D01*
X112175595Y-82077142D01*
X112223214Y-81981904D01*
X112223214Y-81743809D01*
X112175595Y-81648571D01*
X112127976Y-81600952D01*
X112032738Y-81553333D01*
X111842261Y-81553333D01*
X111747023Y-81600952D01*
X111699404Y-81648571D01*
X111651785Y-81743809D01*
%TO.C,R16*%
X175457142Y-94502380D02*
X175123809Y-94026190D01*
X174885714Y-94502380D02*
X174885714Y-93502380D01*
X175266666Y-93502380D01*
X175361904Y-93550000D01*
X175409523Y-93597619D01*
X175457142Y-93692857D01*
X175457142Y-93835714D01*
X175409523Y-93930952D01*
X175361904Y-93978571D01*
X175266666Y-94026190D01*
X174885714Y-94026190D01*
X176409523Y-94502380D02*
X175838095Y-94502380D01*
X176123809Y-94502380D02*
X176123809Y-93502380D01*
X176028571Y-93645238D01*
X175933333Y-93740476D01*
X175838095Y-93788095D01*
X177266666Y-93502380D02*
X177076190Y-93502380D01*
X176980952Y-93550000D01*
X176933333Y-93597619D01*
X176838095Y-93740476D01*
X176790476Y-93930952D01*
X176790476Y-94311904D01*
X176838095Y-94407142D01*
X176885714Y-94454761D01*
X176980952Y-94502380D01*
X177171428Y-94502380D01*
X177266666Y-94454761D01*
X177314285Y-94407142D01*
X177361904Y-94311904D01*
X177361904Y-94073809D01*
X177314285Y-93978571D01*
X177266666Y-93930952D01*
X177171428Y-93883333D01*
X176980952Y-93883333D01*
X176885714Y-93930952D01*
X176838095Y-93978571D01*
X176790476Y-94073809D01*
%TO.C,R11*%
X188602380Y-113742857D02*
X188126190Y-114076190D01*
X188602380Y-114314285D02*
X187602380Y-114314285D01*
X187602380Y-113933333D01*
X187650000Y-113838095D01*
X187697619Y-113790476D01*
X187792857Y-113742857D01*
X187935714Y-113742857D01*
X188030952Y-113790476D01*
X188078571Y-113838095D01*
X188126190Y-113933333D01*
X188126190Y-114314285D01*
X188602380Y-112790476D02*
X188602380Y-113361904D01*
X188602380Y-113076190D02*
X187602380Y-113076190D01*
X187745238Y-113171428D01*
X187840476Y-113266666D01*
X187888095Y-113361904D01*
X188602380Y-111838095D02*
X188602380Y-112409523D01*
X188602380Y-112123809D02*
X187602380Y-112123809D01*
X187745238Y-112219047D01*
X187840476Y-112314285D01*
X187888095Y-112409523D01*
%TO.C,C1*%
X141433333Y-61137142D02*
X141385714Y-61184761D01*
X141242857Y-61232380D01*
X141147619Y-61232380D01*
X141004761Y-61184761D01*
X140909523Y-61089523D01*
X140861904Y-60994285D01*
X140814285Y-60803809D01*
X140814285Y-60660952D01*
X140861904Y-60470476D01*
X140909523Y-60375238D01*
X141004761Y-60280000D01*
X141147619Y-60232380D01*
X141242857Y-60232380D01*
X141385714Y-60280000D01*
X141433333Y-60327619D01*
X142385714Y-61232380D02*
X141814285Y-61232380D01*
X142100000Y-61232380D02*
X142100000Y-60232380D01*
X142004761Y-60375238D01*
X141909523Y-60470476D01*
X141814285Y-60518095D01*
%TO.C,C19*%
X180257142Y-110637142D02*
X180209523Y-110684761D01*
X180066666Y-110732380D01*
X179971428Y-110732380D01*
X179828571Y-110684761D01*
X179733333Y-110589523D01*
X179685714Y-110494285D01*
X179638095Y-110303809D01*
X179638095Y-110160952D01*
X179685714Y-109970476D01*
X179733333Y-109875238D01*
X179828571Y-109780000D01*
X179971428Y-109732380D01*
X180066666Y-109732380D01*
X180209523Y-109780000D01*
X180257142Y-109827619D01*
X181209523Y-110732380D02*
X180638095Y-110732380D01*
X180923809Y-110732380D02*
X180923809Y-109732380D01*
X180828571Y-109875238D01*
X180733333Y-109970476D01*
X180638095Y-110018095D01*
X181685714Y-110732380D02*
X181876190Y-110732380D01*
X181971428Y-110684761D01*
X182019047Y-110637142D01*
X182114285Y-110494285D01*
X182161904Y-110303809D01*
X182161904Y-109922857D01*
X182114285Y-109827619D01*
X182066666Y-109780000D01*
X181971428Y-109732380D01*
X181780952Y-109732380D01*
X181685714Y-109780000D01*
X181638095Y-109827619D01*
X181590476Y-109922857D01*
X181590476Y-110160952D01*
X181638095Y-110256190D01*
X181685714Y-110303809D01*
X181780952Y-110351428D01*
X181971428Y-110351428D01*
X182066666Y-110303809D01*
X182114285Y-110256190D01*
X182161904Y-110160952D01*
%TO.C,C7*%
X130737142Y-122566666D02*
X130784761Y-122614285D01*
X130832380Y-122757142D01*
X130832380Y-122852380D01*
X130784761Y-122995238D01*
X130689523Y-123090476D01*
X130594285Y-123138095D01*
X130403809Y-123185714D01*
X130260952Y-123185714D01*
X130070476Y-123138095D01*
X129975238Y-123090476D01*
X129880000Y-122995238D01*
X129832380Y-122852380D01*
X129832380Y-122757142D01*
X129880000Y-122614285D01*
X129927619Y-122566666D01*
X129832380Y-122233333D02*
X129832380Y-121566666D01*
X130832380Y-121995238D01*
%TO.C,R20*%
X177402380Y-76242857D02*
X176926190Y-76576190D01*
X177402380Y-76814285D02*
X176402380Y-76814285D01*
X176402380Y-76433333D01*
X176450000Y-76338095D01*
X176497619Y-76290476D01*
X176592857Y-76242857D01*
X176735714Y-76242857D01*
X176830952Y-76290476D01*
X176878571Y-76338095D01*
X176926190Y-76433333D01*
X176926190Y-76814285D01*
X176497619Y-75861904D02*
X176450000Y-75814285D01*
X176402380Y-75719047D01*
X176402380Y-75480952D01*
X176450000Y-75385714D01*
X176497619Y-75338095D01*
X176592857Y-75290476D01*
X176688095Y-75290476D01*
X176830952Y-75338095D01*
X177402380Y-75909523D01*
X177402380Y-75290476D01*
X176402380Y-74671428D02*
X176402380Y-74576190D01*
X176450000Y-74480952D01*
X176497619Y-74433333D01*
X176592857Y-74385714D01*
X176783333Y-74338095D01*
X177021428Y-74338095D01*
X177211904Y-74385714D01*
X177307142Y-74433333D01*
X177354761Y-74480952D01*
X177402380Y-74576190D01*
X177402380Y-74671428D01*
X177354761Y-74766666D01*
X177307142Y-74814285D01*
X177211904Y-74861904D01*
X177021428Y-74909523D01*
X176783333Y-74909523D01*
X176592857Y-74861904D01*
X176497619Y-74814285D01*
X176450000Y-74766666D01*
X176402380Y-74671428D01*
%TO.C,R2*%
X162333333Y-64852380D02*
X162000000Y-64376190D01*
X161761904Y-64852380D02*
X161761904Y-63852380D01*
X162142857Y-63852380D01*
X162238095Y-63900000D01*
X162285714Y-63947619D01*
X162333333Y-64042857D01*
X162333333Y-64185714D01*
X162285714Y-64280952D01*
X162238095Y-64328571D01*
X162142857Y-64376190D01*
X161761904Y-64376190D01*
X162714285Y-63947619D02*
X162761904Y-63900000D01*
X162857142Y-63852380D01*
X163095238Y-63852380D01*
X163190476Y-63900000D01*
X163238095Y-63947619D01*
X163285714Y-64042857D01*
X163285714Y-64138095D01*
X163238095Y-64280952D01*
X162666666Y-64852380D01*
X163285714Y-64852380D01*
%TO.C,C24*%
X117357142Y-130642857D02*
X117404761Y-130690476D01*
X117452380Y-130833333D01*
X117452380Y-130928571D01*
X117404761Y-131071428D01*
X117309523Y-131166666D01*
X117214285Y-131214285D01*
X117023809Y-131261904D01*
X116880952Y-131261904D01*
X116690476Y-131214285D01*
X116595238Y-131166666D01*
X116500000Y-131071428D01*
X116452380Y-130928571D01*
X116452380Y-130833333D01*
X116500000Y-130690476D01*
X116547619Y-130642857D01*
X116547619Y-130261904D02*
X116500000Y-130214285D01*
X116452380Y-130119047D01*
X116452380Y-129880952D01*
X116500000Y-129785714D01*
X116547619Y-129738095D01*
X116642857Y-129690476D01*
X116738095Y-129690476D01*
X116880952Y-129738095D01*
X117452380Y-130309523D01*
X117452380Y-129690476D01*
X116785714Y-128833333D02*
X117452380Y-128833333D01*
X116404761Y-129071428D02*
X117119047Y-129309523D01*
X117119047Y-128690476D01*
%TO.C,C26*%
X178057142Y-82737142D02*
X178009523Y-82784761D01*
X177866666Y-82832380D01*
X177771428Y-82832380D01*
X177628571Y-82784761D01*
X177533333Y-82689523D01*
X177485714Y-82594285D01*
X177438095Y-82403809D01*
X177438095Y-82260952D01*
X177485714Y-82070476D01*
X177533333Y-81975238D01*
X177628571Y-81880000D01*
X177771428Y-81832380D01*
X177866666Y-81832380D01*
X178009523Y-81880000D01*
X178057142Y-81927619D01*
X178438095Y-81927619D02*
X178485714Y-81880000D01*
X178580952Y-81832380D01*
X178819047Y-81832380D01*
X178914285Y-81880000D01*
X178961904Y-81927619D01*
X179009523Y-82022857D01*
X179009523Y-82118095D01*
X178961904Y-82260952D01*
X178390476Y-82832380D01*
X179009523Y-82832380D01*
X179866666Y-81832380D02*
X179676190Y-81832380D01*
X179580952Y-81880000D01*
X179533333Y-81927619D01*
X179438095Y-82070476D01*
X179390476Y-82260952D01*
X179390476Y-82641904D01*
X179438095Y-82737142D01*
X179485714Y-82784761D01*
X179580952Y-82832380D01*
X179771428Y-82832380D01*
X179866666Y-82784761D01*
X179914285Y-82737142D01*
X179961904Y-82641904D01*
X179961904Y-82403809D01*
X179914285Y-82308571D01*
X179866666Y-82260952D01*
X179771428Y-82213333D01*
X179580952Y-82213333D01*
X179485714Y-82260952D01*
X179438095Y-82308571D01*
X179390476Y-82403809D01*
%TO.C,TP3*%
X119975595Y-102954380D02*
X120547023Y-102954380D01*
X120261309Y-103954380D02*
X120261309Y-102954380D01*
X120880357Y-103954380D02*
X120880357Y-102954380D01*
X121261309Y-102954380D01*
X121356547Y-103002000D01*
X121404166Y-103049619D01*
X121451785Y-103144857D01*
X121451785Y-103287714D01*
X121404166Y-103382952D01*
X121356547Y-103430571D01*
X121261309Y-103478190D01*
X120880357Y-103478190D01*
X121785119Y-102954380D02*
X122404166Y-102954380D01*
X122070833Y-103335333D01*
X122213690Y-103335333D01*
X122308928Y-103382952D01*
X122356547Y-103430571D01*
X122404166Y-103525809D01*
X122404166Y-103763904D01*
X122356547Y-103859142D01*
X122308928Y-103906761D01*
X122213690Y-103954380D01*
X121927976Y-103954380D01*
X121832738Y-103906761D01*
X121785119Y-103859142D01*
%TO.C,C15*%
X134277142Y-103042857D02*
X134324761Y-103090476D01*
X134372380Y-103233333D01*
X134372380Y-103328571D01*
X134324761Y-103471428D01*
X134229523Y-103566666D01*
X134134285Y-103614285D01*
X133943809Y-103661904D01*
X133800952Y-103661904D01*
X133610476Y-103614285D01*
X133515238Y-103566666D01*
X133420000Y-103471428D01*
X133372380Y-103328571D01*
X133372380Y-103233333D01*
X133420000Y-103090476D01*
X133467619Y-103042857D01*
X134372380Y-102090476D02*
X134372380Y-102661904D01*
X134372380Y-102376190D02*
X133372380Y-102376190D01*
X133515238Y-102471428D01*
X133610476Y-102566666D01*
X133658095Y-102661904D01*
X133372380Y-101185714D02*
X133372380Y-101661904D01*
X133848571Y-101709523D01*
X133800952Y-101661904D01*
X133753333Y-101566666D01*
X133753333Y-101328571D01*
X133800952Y-101233333D01*
X133848571Y-101185714D01*
X133943809Y-101138095D01*
X134181904Y-101138095D01*
X134277142Y-101185714D01*
X134324761Y-101233333D01*
X134372380Y-101328571D01*
X134372380Y-101566666D01*
X134324761Y-101661904D01*
X134277142Y-101709523D01*
%TO.C,U2*%
X110375595Y-86252380D02*
X110375595Y-87061904D01*
X110423214Y-87157142D01*
X110470833Y-87204761D01*
X110566071Y-87252380D01*
X110756547Y-87252380D01*
X110851785Y-87204761D01*
X110899404Y-87157142D01*
X110947023Y-87061904D01*
X110947023Y-86252380D01*
X111375595Y-86347619D02*
X111423214Y-86300000D01*
X111518452Y-86252380D01*
X111756547Y-86252380D01*
X111851785Y-86300000D01*
X111899404Y-86347619D01*
X111947023Y-86442857D01*
X111947023Y-86538095D01*
X111899404Y-86680952D01*
X111327976Y-87252380D01*
X111947023Y-87252380D01*
%TO.C,R7*%
X128133333Y-85832380D02*
X127800000Y-85356190D01*
X127561904Y-85832380D02*
X127561904Y-84832380D01*
X127942857Y-84832380D01*
X128038095Y-84880000D01*
X128085714Y-84927619D01*
X128133333Y-85022857D01*
X128133333Y-85165714D01*
X128085714Y-85260952D01*
X128038095Y-85308571D01*
X127942857Y-85356190D01*
X127561904Y-85356190D01*
X128466666Y-84832380D02*
X129133333Y-84832380D01*
X128704761Y-85832380D01*
D14*
%TO.C,J2*%
X181100000Y-59000000D02*
X181100000Y-60000000D01*
X188600000Y-57000000D02*
X182600000Y-57000000D01*
X191800000Y-71000000D02*
X191800000Y-60000000D01*
X190100000Y-59000000D02*
X188600000Y-59000000D01*
X190100000Y-60000000D02*
X190100000Y-59000000D01*
X182600000Y-59000000D02*
X181100000Y-59000000D01*
X188600000Y-59000000D02*
X182600000Y-59000000D01*
X181100000Y-60000000D02*
X179400000Y-60000000D01*
X191800000Y-60000000D02*
X190100000Y-60000000D01*
X182600000Y-57000000D02*
X182600000Y-59000000D01*
X179400000Y-71000000D02*
X179400000Y-60000000D01*
X188600000Y-59000000D02*
X188600000Y-57000000D01*
X191800000Y-71000000D02*
X179400000Y-71000000D01*
D15*
X192570000Y-63500000D02*
G75*
G03*
X192570000Y-63500000I-170000J0D01*
G01*
D16*
%TO.C,R9*%
X128472936Y-101965000D02*
X128927064Y-101965000D01*
X128472936Y-103435000D02*
X128927064Y-103435000D01*
%TO.C,R8*%
X130327064Y-83035000D02*
X129872936Y-83035000D01*
X130327064Y-81565000D02*
X129872936Y-81565000D01*
%TO.C,L1*%
X117980000Y-59680000D02*
X121845000Y-59680000D01*
X117980000Y-59680000D02*
X117980000Y-64920000D01*
X124355000Y-59680000D02*
X128220000Y-59680000D01*
X128220000Y-59680000D02*
X128220000Y-64920000D01*
X117980000Y-64920000D02*
X121845000Y-64920000D01*
X124355000Y-64920000D02*
X128220000Y-64920000D01*
%TO.C,L2*%
X129580000Y-67280000D02*
X133445000Y-67280000D01*
X129580000Y-67280000D02*
X129580000Y-72520000D01*
X135955000Y-67280000D02*
X139820000Y-67280000D01*
X139820000Y-67280000D02*
X139820000Y-72520000D01*
X129580000Y-72520000D02*
X133445000Y-72520000D01*
X135955000Y-72520000D02*
X139820000Y-72520000D01*
%TO.C,L3*%
X117980000Y-67520000D02*
X121845000Y-67520000D01*
X117980000Y-67520000D02*
X117980000Y-72760000D01*
X124355000Y-67520000D02*
X128220000Y-67520000D01*
X128220000Y-67520000D02*
X128220000Y-72760000D01*
X117980000Y-72760000D02*
X121845000Y-72760000D01*
X124355000Y-72760000D02*
X128220000Y-72760000D01*
%TO.C,C13*%
X112060000Y-123378246D02*
X106741000Y-123378246D01*
X120853000Y-122298246D02*
X114940000Y-122298246D01*
X121369000Y-120778246D02*
X105631000Y-120778246D01*
X121360000Y-120818246D02*
X105640000Y-120818246D01*
X121350000Y-120858246D02*
X105650000Y-120858246D01*
X112060000Y-122978246D02*
X106496000Y-122978246D01*
X120386000Y-123178246D02*
X114940000Y-123178246D01*
X121405000Y-120618246D02*
X105595000Y-120618246D01*
X120778000Y-122458246D02*
X114940000Y-122458246D01*
X112060000Y-122378246D02*
X106184000Y-122378246D01*
X119697000Y-124138246D02*
X107303000Y-124138246D01*
X121299000Y-121058246D02*
X105701000Y-121058246D01*
X112060000Y-122178246D02*
X106094000Y-122178246D01*
X115718000Y-126738246D02*
X111282000Y-126738246D01*
X112060000Y-123178246D02*
X106614000Y-123178246D01*
X112060000Y-121658246D02*
X105889000Y-121658246D01*
X117773000Y-125818246D02*
X109227000Y-125818246D01*
X112060000Y-122578246D02*
X106281000Y-122578246D01*
X121580000Y-118977246D02*
X105420000Y-118977246D01*
X112060000Y-121938246D02*
X105994000Y-121938246D01*
X119525000Y-124338246D02*
X107475000Y-124338246D01*
X112060000Y-122018246D02*
X106026000Y-122018246D01*
X121340000Y-120898246D02*
X105660000Y-120898246D01*
X117898000Y-125738246D02*
X109102000Y-125738246D01*
X112060000Y-122338246D02*
X106166000Y-122338246D01*
X121205000Y-121378246D02*
X114940000Y-121378246D01*
X112060000Y-124058246D02*
X107237000Y-124058246D01*
X119340000Y-124538246D02*
X107660000Y-124538246D01*
X112060000Y-122938246D02*
X106473000Y-122938246D01*
X119102000Y-124778246D02*
X107898000Y-124778246D01*
X112060000Y-122418246D02*
X106203000Y-122418246D01*
X112060000Y-121738246D02*
X105918000Y-121738246D01*
X114851000Y-126938246D02*
X112149000Y-126938246D01*
X121254000Y-121218246D02*
X105746000Y-121218246D01*
X112060000Y-122538246D02*
X106261000Y-122538246D01*
X112060000Y-122658246D02*
X106322000Y-122658246D01*
X119920000Y-123858246D02*
X114940000Y-123858246D01*
X112060000Y-121698246D02*
X105903000Y-121698246D01*
X120527000Y-122938246D02*
X114940000Y-122938246D01*
X121561000Y-119497246D02*
X105439000Y-119497246D01*
X121166000Y-121498246D02*
X114940000Y-121498246D01*
X112060000Y-122698246D02*
X106343000Y-122698246D01*
X121459000Y-120338246D02*
X105541000Y-120338246D01*
X121576000Y-119217246D02*
X105424000Y-119217246D01*
X119224000Y-124658246D02*
X107776000Y-124658246D01*
X117836000Y-125778246D02*
X109164000Y-125778246D01*
X120834000Y-122338246D02*
X114940000Y-122338246D01*
X119018000Y-124858246D02*
X107982000Y-124858246D01*
X112060000Y-121578246D02*
X105861000Y-121578246D01*
X120615000Y-122778246D02*
X114940000Y-122778246D01*
X118855000Y-111047755D02*
X117255000Y-111047755D01*
X116097000Y-126618246D02*
X110903000Y-126618246D01*
X120152000Y-123538246D02*
X114940000Y-123538246D01*
X121218000Y-121338246D02*
X114940000Y-121338246D01*
X112060000Y-122298246D02*
X106147000Y-122298246D01*
X120410000Y-123138246D02*
X114940000Y-123138246D01*
X121022000Y-121898246D02*
X114940000Y-121898246D01*
X121396000Y-120658246D02*
X105604000Y-120658246D01*
X120336000Y-123258246D02*
X114940000Y-123258246D01*
X120906000Y-122178246D02*
X114940000Y-122178246D01*
X117959000Y-125698246D02*
X109041000Y-125698246D01*
X116424000Y-126498246D02*
X110576000Y-126498246D01*
X112060000Y-123338246D02*
X106715000Y-123338246D01*
X119489000Y-124378246D02*
X107511000Y-124378246D01*
X121082000Y-121738246D02*
X114940000Y-121738246D01*
X121541000Y-119738246D02*
X105459000Y-119738246D01*
X121514000Y-119978246D02*
X105486000Y-119978246D01*
X112060000Y-123218246D02*
X106639000Y-123218246D01*
X112060000Y-123658246D02*
X106932000Y-123658246D01*
X119730000Y-124098246D02*
X114940000Y-124098246D01*
X121577000Y-119177246D02*
X105423000Y-119177246D01*
X112060000Y-122138246D02*
X106077000Y-122138246D01*
X121288000Y-121098246D02*
X105712000Y-121098246D01*
X121277000Y-121138246D02*
X105723000Y-121138246D01*
X121566000Y-119417246D02*
X105434000Y-119417246D01*
X118458000Y-125338246D02*
X108542000Y-125338246D01*
X120179000Y-123498246D02*
X114940000Y-123498246D01*
X118509000Y-125298246D02*
X108491000Y-125298246D01*
X121097000Y-121698246D02*
X114940000Y-121698246D01*
X121242000Y-121258246D02*
X114940000Y-121258246D01*
X121564000Y-119457246D02*
X105436000Y-119457246D01*
X119663000Y-124178246D02*
X107337000Y-124178246D01*
X119184000Y-124698246D02*
X107816000Y-124698246D01*
X112060000Y-122818246D02*
X106406000Y-122818246D01*
X114598000Y-126978246D02*
X112402000Y-126978246D01*
X112060000Y-123698246D02*
X106961000Y-123698246D01*
X112060000Y-123938246D02*
X107142000Y-123938246D01*
X120940000Y-122098246D02*
X114940000Y-122098246D01*
X119827000Y-123978246D02*
X114940000Y-123978246D01*
X118843000Y-125018246D02*
X108157000Y-125018246D01*
X121180000Y-121458246D02*
X114940000Y-121458246D01*
X112060000Y-121258246D02*
X105758000Y-121258246D01*
X120096000Y-123618246D02*
X114940000Y-123618246D01*
X121139000Y-121578246D02*
X114940000Y-121578246D01*
X119378000Y-124498246D02*
X107622000Y-124498246D01*
X120233000Y-123418246D02*
X114940000Y-123418246D01*
X112060000Y-122858246D02*
X106428000Y-122858246D01*
X120871000Y-122258246D02*
X114940000Y-122258246D01*
X121053000Y-121818246D02*
X114940000Y-121818246D01*
X121579000Y-119097246D02*
X105421000Y-119097246D01*
X115064000Y-126898246D02*
X111936000Y-126898246D01*
X112060000Y-121818246D02*
X105947000Y-121818246D01*
X118704000Y-125138246D02*
X108296000Y-125138246D01*
X119060000Y-124818246D02*
X107940000Y-124818246D01*
X121578000Y-119137246D02*
X105422000Y-119137246D01*
X117137000Y-126178246D02*
X109863000Y-126178246D01*
X118888000Y-124978246D02*
X108112000Y-124978246D01*
X117215000Y-126138246D02*
X109785000Y-126138246D01*
X117364000Y-126058246D02*
X109636000Y-126058246D01*
X121111000Y-121658246D02*
X114940000Y-121658246D01*
X121330000Y-120938246D02*
X105670000Y-120938246D01*
X120990000Y-121978246D02*
X114940000Y-121978246D01*
X121421000Y-120538246D02*
X105579000Y-120538246D01*
X118751000Y-125098246D02*
X108249000Y-125098246D01*
X120923000Y-122138246D02*
X114940000Y-122138246D01*
X119629000Y-124218246D02*
X107371000Y-124218246D01*
X121555000Y-119577246D02*
X105445000Y-119577246D01*
X112060000Y-123418246D02*
X106767000Y-123418246D01*
X112060000Y-123738246D02*
X106990000Y-123738246D01*
X120481000Y-123018246D02*
X114940000Y-123018246D01*
X112060000Y-122898246D02*
X106451000Y-122898246D01*
X116620000Y-126418246D02*
X110380000Y-126418246D01*
X120719000Y-122578246D02*
X114940000Y-122578246D01*
X121452000Y-120378246D02*
X105548000Y-120378246D01*
X119795000Y-124018246D02*
X114940000Y-124018246D01*
X118191000Y-125538246D02*
X108809000Y-125538246D01*
X118932000Y-124938246D02*
X108068000Y-124938246D01*
X117290000Y-126098246D02*
X109710000Y-126098246D01*
X112060000Y-123458246D02*
X106794000Y-123458246D01*
X121552000Y-119617246D02*
X105448000Y-119617246D01*
X121387000Y-120698246D02*
X105613000Y-120698246D01*
X119263000Y-124618246D02*
X107737000Y-124618246D01*
X121497000Y-120098246D02*
X105503000Y-120098246D01*
X120657000Y-122698246D02*
X114940000Y-122698246D01*
X112060000Y-123258246D02*
X106664000Y-123258246D01*
X119890000Y-123898246D02*
X114940000Y-123898246D01*
X115851000Y-126698246D02*
X111149000Y-126698246D01*
X120889000Y-122218246D02*
X114940000Y-122218246D01*
X116803000Y-126338246D02*
X110197000Y-126338246D01*
X112060000Y-121498246D02*
X105834000Y-121498246D01*
X120816000Y-122378246D02*
X114940000Y-122378246D01*
X112060000Y-123818246D02*
X107050000Y-123818246D01*
X112060000Y-122098246D02*
X106060000Y-122098246D01*
X121580000Y-119017246D02*
X105420000Y-119017246D01*
X120594000Y-122818246D02*
X114940000Y-122818246D01*
X112060000Y-122498246D02*
X106242000Y-122498246D01*
X121006000Y-121938246D02*
X114940000Y-121938246D01*
X120974000Y-122018246D02*
X114940000Y-122018246D01*
X112060000Y-122458246D02*
X106222000Y-122458246D01*
X120039000Y-123698246D02*
X114940000Y-123698246D01*
X121230000Y-121298246D02*
X114940000Y-121298246D01*
X117057000Y-126218246D02*
X109943000Y-126218246D01*
X112060000Y-123778246D02*
X107020000Y-123778246D01*
X118134000Y-125578246D02*
X108866000Y-125578246D01*
X112060000Y-121418246D02*
X105807000Y-121418246D01*
X117576000Y-125938246D02*
X109424000Y-125938246D01*
X112060000Y-121378246D02*
X105795000Y-121378246D01*
X120758000Y-122498246D02*
X114940000Y-122498246D01*
X121503000Y-120058246D02*
X105497000Y-120058246D01*
X119858000Y-123938246D02*
X114940000Y-123938246D01*
X118797000Y-125058246D02*
X108203000Y-125058246D01*
X120124000Y-123578246D02*
X114940000Y-123578246D01*
X112060000Y-123138246D02*
X106590000Y-123138246D01*
X112060000Y-122738246D02*
X106364000Y-122738246D01*
X119595000Y-124258246D02*
X107405000Y-124258246D01*
X117643000Y-125898246D02*
X109357000Y-125898246D01*
X112060000Y-122618246D02*
X106301000Y-122618246D01*
X118300000Y-125458246D02*
X108700000Y-125458246D01*
X112060000Y-123538246D02*
X106848000Y-123538246D01*
X121508000Y-120018246D02*
X105492000Y-120018246D01*
X121437000Y-120458246D02*
X105563000Y-120458246D01*
X121571000Y-119337246D02*
X105429000Y-119337246D01*
X118975000Y-124898246D02*
X108025000Y-124898246D01*
X120504000Y-122978246D02*
X114940000Y-122978246D01*
X112060000Y-122258246D02*
X106129000Y-122258246D01*
X120797000Y-122418246D02*
X114940000Y-122418246D01*
X121429000Y-120498246D02*
X105571000Y-120498246D01*
X112060000Y-121978246D02*
X106010000Y-121978246D01*
X121413000Y-120578246D02*
X105587000Y-120578246D01*
X119560000Y-124298246D02*
X107440000Y-124298246D01*
X121533000Y-119818246D02*
X105467000Y-119818246D01*
X117507000Y-125978246D02*
X109493000Y-125978246D01*
X120957000Y-122058246D02*
X114940000Y-122058246D01*
X120259000Y-123378246D02*
X114940000Y-123378246D01*
X119416000Y-124458246D02*
X107584000Y-124458246D01*
X117709000Y-125858246D02*
X109291000Y-125858246D01*
X118559000Y-125258246D02*
X108441000Y-125258246D01*
X118019000Y-125658246D02*
X108981000Y-125658246D01*
X112060000Y-123018246D02*
X106519000Y-123018246D01*
X117436000Y-126018246D02*
X109564000Y-126018246D01*
X112060000Y-123978246D02*
X107173000Y-123978246D01*
X118406000Y-125378246D02*
X108594000Y-125378246D01*
X112060000Y-121538246D02*
X105847000Y-121538246D01*
X112060000Y-121898246D02*
X105978000Y-121898246D01*
X121472000Y-120258246D02*
X105528000Y-120258246D01*
X112060000Y-123898246D02*
X107110000Y-123898246D01*
X120361000Y-123218246D02*
X114940000Y-123218246D01*
X121320000Y-120978246D02*
X105680000Y-120978246D01*
X121528000Y-119858246D02*
X105472000Y-119858246D01*
X121037000Y-121858246D02*
X114940000Y-121858246D01*
X121193000Y-121418246D02*
X114940000Y-121418246D01*
X121549000Y-119658246D02*
X105451000Y-119658246D01*
X119452000Y-124418246D02*
X107548000Y-124418246D01*
X112060000Y-123058246D02*
X106542000Y-123058246D01*
X119950000Y-123818246D02*
X114940000Y-123818246D01*
X119302000Y-124578246D02*
X107698000Y-124578246D01*
X120206000Y-123458246D02*
X114940000Y-123458246D01*
X112060000Y-121618246D02*
X105875000Y-121618246D01*
X116211000Y-126578246D02*
X110789000Y-126578246D01*
X116890000Y-126298246D02*
X110110000Y-126298246D01*
X121068000Y-121778246D02*
X114940000Y-121778246D01*
X121378000Y-120738246D02*
X105622000Y-120738246D01*
X120699000Y-122618246D02*
X114940000Y-122618246D01*
X112060000Y-123578246D02*
X106876000Y-123578246D01*
X121265000Y-121178246D02*
X105735000Y-121178246D01*
X112060000Y-124018246D02*
X107205000Y-124018246D01*
X118354000Y-125418246D02*
X108646000Y-125418246D01*
X120572000Y-122858246D02*
X114940000Y-122858246D01*
X112060000Y-123498246D02*
X106821000Y-123498246D01*
X112060000Y-124098246D02*
X107270000Y-124098246D01*
X121519000Y-119938246D02*
X105481000Y-119938246D01*
X121574000Y-119257246D02*
X105426000Y-119257246D01*
X112060000Y-122218246D02*
X106111000Y-122218246D01*
X121153000Y-121538246D02*
X114940000Y-121538246D01*
X121310000Y-121018246D02*
X105690000Y-121018246D01*
X112060000Y-123858246D02*
X107080000Y-123858246D01*
X112060000Y-121338246D02*
X105782000Y-121338246D01*
X118077000Y-125618246D02*
X108923000Y-125618246D01*
X121491000Y-120138246D02*
X105509000Y-120138246D01*
X116320000Y-126538246D02*
X110680000Y-126538246D01*
X121485000Y-120178246D02*
X105515000Y-120178246D01*
X121581000Y-118937246D02*
X105419000Y-118937246D01*
X112060000Y-121298246D02*
X105770000Y-121298246D01*
X121466000Y-120298246D02*
X105534000Y-120298246D01*
X121569000Y-119377246D02*
X105431000Y-119377246D01*
X120434000Y-123098246D02*
X114940000Y-123098246D01*
X120311000Y-123298246D02*
X114940000Y-123298246D01*
X121558000Y-119537246D02*
X105442000Y-119537246D01*
X114265000Y-127018246D02*
X112735000Y-127018246D01*
X121444000Y-120418246D02*
X105556000Y-120418246D01*
X121537000Y-119778246D02*
X105463000Y-119778246D01*
X120285000Y-123338246D02*
X114940000Y-123338246D01*
X115420000Y-126818246D02*
X111580000Y-126818246D01*
X112060000Y-122058246D02*
X106043000Y-122058246D01*
X120458000Y-123058246D02*
X114940000Y-123058246D01*
X112060000Y-122778246D02*
X106385000Y-122778246D01*
X115978000Y-126658246D02*
X111022000Y-126658246D01*
X118055000Y-110247755D02*
X118055000Y-111847755D01*
X116713000Y-126378246D02*
X110287000Y-126378246D01*
X120068000Y-123658246D02*
X114940000Y-123658246D01*
X118246000Y-125498246D02*
X108754000Y-125498246D01*
X112060000Y-123618246D02*
X106904000Y-123618246D01*
X120549000Y-122898246D02*
X114940000Y-122898246D01*
X116975000Y-126258246D02*
X110025000Y-126258246D01*
X119763000Y-124058246D02*
X114940000Y-124058246D01*
X120636000Y-122738246D02*
X114940000Y-122738246D01*
X121573000Y-119297246D02*
X105427000Y-119297246D01*
X121545000Y-119698246D02*
X105455000Y-119698246D01*
X121479000Y-120218246D02*
X105521000Y-120218246D01*
X119980000Y-123778246D02*
X114940000Y-123778246D01*
X118608000Y-125218246D02*
X108392000Y-125218246D01*
X112060000Y-121458246D02*
X105820000Y-121458246D01*
X115252000Y-126858246D02*
X111748000Y-126858246D01*
X112060000Y-123298246D02*
X106689000Y-123298246D01*
X121524000Y-119898246D02*
X105476000Y-119898246D01*
X115574000Y-126778246D02*
X111426000Y-126778246D01*
X121580000Y-119057246D02*
X105420000Y-119057246D01*
X120010000Y-123738246D02*
X114940000Y-123738246D01*
X112060000Y-121778246D02*
X105932000Y-121778246D01*
X116524000Y-126458246D02*
X110476000Y-126458246D01*
X118656000Y-125178246D02*
X108344000Y-125178246D01*
X120678000Y-122658246D02*
X114940000Y-122658246D01*
X121125000Y-121618246D02*
X114940000Y-121618246D01*
X112060000Y-121858246D02*
X105963000Y-121858246D01*
X120739000Y-122538246D02*
X114940000Y-122538246D01*
X119143000Y-124738246D02*
X107857000Y-124738246D01*
X112060000Y-123098246D02*
X106566000Y-123098246D01*
X121620000Y-118937246D02*
G75*
G03*
X121620000Y-118937246I-8120000J0D01*
G01*
%TO.C,R1*%
X125365000Y-118527064D02*
X125365000Y-118072936D01*
X126835000Y-118527064D02*
X126835000Y-118072936D01*
%TO.C,TP13*%
X149900000Y-103400000D02*
X149900000Y-101000000D01*
X152300000Y-103400000D02*
X149900000Y-103400000D01*
X152300000Y-101000000D02*
X152300000Y-103400000D01*
X149900000Y-101000000D02*
X152300000Y-101000000D01*
%TO.C,TP14*%
X164500000Y-94500000D02*
X164500000Y-92100000D01*
X166900000Y-94500000D02*
X164500000Y-94500000D01*
X166900000Y-92100000D02*
X166900000Y-94500000D01*
X164500000Y-92100000D02*
X166900000Y-92100000D01*
%TO.C,TP15*%
X163200000Y-84500000D02*
X163200000Y-82100000D01*
X165600000Y-84500000D02*
X163200000Y-84500000D01*
X165600000Y-82100000D02*
X165600000Y-84500000D01*
X163200000Y-82100000D02*
X165600000Y-82100000D01*
%TO.C,C17*%
X127961252Y-105165000D02*
X127438748Y-105165000D01*
X127961252Y-106635000D02*
X127438748Y-106635000D01*
%TO.C,TP12*%
X198400000Y-79300000D02*
X198400000Y-81700000D01*
X196000000Y-79300000D02*
X198400000Y-79300000D01*
X196000000Y-81700000D02*
X196000000Y-79300000D01*
X198400000Y-81700000D02*
X196000000Y-81700000D01*
%TO.C,R21*%
X191865000Y-74872936D02*
X191865000Y-75327064D01*
X193335000Y-74872936D02*
X193335000Y-75327064D01*
%TO.C,TP2*%
X143000000Y-68900000D02*
X145400000Y-68900000D01*
X145400000Y-71300000D02*
X143000000Y-71300000D01*
X145400000Y-68900000D02*
X145400000Y-71300000D01*
X143000000Y-71300000D02*
X143000000Y-68900000D01*
%TO.C,TP9*%
X173700000Y-112000000D02*
X176100000Y-112000000D01*
X173700000Y-114400000D02*
X173700000Y-112000000D01*
X176100000Y-114400000D02*
X173700000Y-114400000D01*
X176100000Y-112000000D02*
X176100000Y-114400000D01*
%TO.C,A1*%
X108920000Y-148740000D02*
X144480000Y-148740000D01*
X144480000Y-148740000D02*
X144480000Y-151410000D01*
X147150000Y-151410000D02*
X147150000Y-133370000D01*
X106380000Y-136040000D02*
X144480000Y-136040000D01*
X108920000Y-148740000D02*
X106380000Y-148740000D01*
X103710000Y-151410000D02*
X106380000Y-151410000D01*
X108920000Y-151410000D02*
X147150000Y-151410000D01*
X108920000Y-148740000D02*
X108920000Y-151410000D01*
X147150000Y-133370000D02*
X103710000Y-133370000D01*
X106380000Y-136040000D02*
X106380000Y-133370000D01*
X103710000Y-133370000D02*
X103710000Y-151410000D01*
X144480000Y-136040000D02*
X144480000Y-133370000D01*
X106380000Y-148740000D02*
X106380000Y-151410000D01*
%TO.C,C20*%
X186938748Y-109235000D02*
X187461252Y-109235000D01*
X186938748Y-107765000D02*
X187461252Y-107765000D01*
%TO.C,C27*%
X191161252Y-79865000D02*
X190638748Y-79865000D01*
X191161252Y-81335000D02*
X190638748Y-81335000D01*
%TO.C,R13*%
X185565000Y-103472936D02*
X185565000Y-103927064D01*
X187035000Y-103472936D02*
X187035000Y-103927064D01*
%TO.C,TP5*%
X117037500Y-98200000D02*
X119437500Y-98200000D01*
X119437500Y-100600000D02*
X117037500Y-100600000D01*
X119437500Y-98200000D02*
X119437500Y-100600000D01*
X117037500Y-100600000D02*
X117037500Y-98200000D01*
%TO.C,C2*%
X151135000Y-59638748D02*
X151135000Y-60161252D01*
X149665000Y-59638748D02*
X149665000Y-60161252D01*
%TO.C,C14*%
X147135000Y-122861252D02*
X147135000Y-122338748D01*
X145665000Y-122861252D02*
X145665000Y-122338748D01*
%TO.C,R5*%
X127572936Y-95510000D02*
X129027064Y-95510000D01*
X127572936Y-93690000D02*
X129027064Y-93690000D01*
%TO.C,C18*%
X135335000Y-89761252D02*
X135335000Y-89238748D01*
X133865000Y-89761252D02*
X133865000Y-89238748D01*
%TO.C,TP1*%
X145400000Y-63400000D02*
X145400000Y-65800000D01*
X145400000Y-65800000D02*
X143000000Y-65800000D01*
X143000000Y-65800000D02*
X143000000Y-63400000D01*
X143000000Y-63400000D02*
X145400000Y-63400000D01*
%TO.C,C11*%
X122776248Y-90135000D02*
X123298752Y-90135000D01*
X122776248Y-88665000D02*
X123298752Y-88665000D01*
%TO.C,TP10*%
X194700000Y-113800000D02*
X192300000Y-113800000D01*
X194700000Y-111400000D02*
X194700000Y-113800000D01*
X192300000Y-111400000D02*
X194700000Y-111400000D01*
X192300000Y-113800000D02*
X192300000Y-111400000D01*
%TO.C,C23*%
X187261252Y-99635000D02*
X186738748Y-99635000D01*
X187261252Y-98165000D02*
X186738748Y-98165000D01*
%TO.C,J1*%
X116750000Y-73000000D02*
X101750000Y-73000000D01*
X101950000Y-65500000D02*
X102950000Y-66500000D01*
X116750000Y-58000000D02*
X116750000Y-73000000D01*
X101750000Y-58000000D02*
X116750000Y-58000000D01*
X101950000Y-65500000D02*
X102950000Y-64500000D01*
X101750000Y-73000000D02*
X101750000Y-58000000D01*
%TO.C,R14*%
X169965000Y-88427064D02*
X169965000Y-87972936D01*
X171435000Y-88427064D02*
X171435000Y-87972936D01*
%TO.C,TP11*%
X173000000Y-82800000D02*
X170600000Y-82800000D01*
X170600000Y-80400000D02*
X173000000Y-80400000D01*
X173000000Y-80400000D02*
X173000000Y-82800000D01*
X170600000Y-82800000D02*
X170600000Y-80400000D01*
%TO.C,R10*%
X181065000Y-113327064D02*
X181065000Y-112872936D01*
X182535000Y-113327064D02*
X182535000Y-112872936D01*
%TO.C,C25*%
X184365000Y-81138748D02*
X184365000Y-81661252D01*
X185835000Y-81138748D02*
X185835000Y-81661252D01*
%TO.C,R17*%
X191427064Y-94965000D02*
X190972936Y-94965000D01*
X191427064Y-96435000D02*
X190972936Y-96435000D01*
%TO.C,Y1*%
X148800000Y-96650000D02*
X152800000Y-96650000D01*
X148800000Y-93350000D02*
X148800000Y-96650000D01*
D11*
%TO.C,U1*%
X160375000Y-98175000D02*
X160375000Y-97875000D01*
X157025000Y-98175000D02*
X157025000Y-97875000D01*
X157025000Y-94825000D02*
X157025000Y-95050000D01*
X157025000Y-98175000D02*
X160375000Y-98175000D01*
X160375000Y-94825000D02*
X160375000Y-95125000D01*
X157025000Y-94825000D02*
X160375000Y-94825000D01*
X157025000Y-95050000D02*
X155800000Y-95050000D01*
D16*
%TO.C,U3*%
X141500000Y-78540000D02*
X143450000Y-78540000D01*
X141500000Y-78540000D02*
X138050000Y-78540000D01*
X141500000Y-83660000D02*
X143450000Y-83660000D01*
X141500000Y-83660000D02*
X139550000Y-83660000D01*
%TO.C,C3*%
X164165000Y-96638748D02*
X164165000Y-97161252D01*
X165635000Y-96638748D02*
X165635000Y-97161252D01*
%TO.C,C12*%
X123198752Y-83865000D02*
X122676248Y-83865000D01*
X123198752Y-85335000D02*
X122676248Y-85335000D01*
%TO.C,C21*%
X139885000Y-130138748D02*
X139885000Y-130661252D01*
X141355000Y-130138748D02*
X141355000Y-130661252D01*
%TO.C,R19*%
X122555000Y-129872936D02*
X122555000Y-130327064D01*
X121085000Y-129872936D02*
X121085000Y-130327064D01*
%TO.C,R18*%
X127755000Y-130227064D02*
X127755000Y-129772936D01*
X126285000Y-130227064D02*
X126285000Y-129772936D01*
%TO.C,C22*%
X181161252Y-99635000D02*
X180638748Y-99635000D01*
X181161252Y-98165000D02*
X180638748Y-98165000D01*
%TO.C,R15*%
X197035000Y-88072936D02*
X197035000Y-88527064D01*
X195565000Y-88072936D02*
X195565000Y-88527064D01*
%TO.C,R12*%
X180965000Y-103472936D02*
X180965000Y-103927064D01*
X182435000Y-103472936D02*
X182435000Y-103927064D01*
%TO.C,TP4*%
X119537500Y-94200000D02*
X117137500Y-94200000D01*
X117137500Y-91800000D02*
X119537500Y-91800000D01*
X117137500Y-94200000D02*
X117137500Y-91800000D01*
X119537500Y-91800000D02*
X119537500Y-94200000D01*
%TO.C,TP8*%
X135700000Y-108700000D02*
X133300000Y-108700000D01*
X133300000Y-106300000D02*
X135700000Y-106300000D01*
X133300000Y-108700000D02*
X133300000Y-106300000D01*
X135700000Y-106300000D02*
X135700000Y-108700000D01*
%TO.C,R3*%
X159477064Y-68090000D02*
X155122936Y-68090000D01*
X159477064Y-71510000D02*
X155122936Y-71510000D01*
%TO.C,C5*%
X151138748Y-65865000D02*
X151661252Y-65865000D01*
X151138748Y-67335000D02*
X151661252Y-67335000D01*
%TO.C,TP6*%
X119100000Y-83500000D02*
X119100000Y-85900000D01*
X119100000Y-85900000D02*
X116700000Y-85900000D01*
X116700000Y-85900000D02*
X116700000Y-83500000D01*
X116700000Y-83500000D02*
X119100000Y-83500000D01*
%TO.C,C9*%
X122776248Y-98465000D02*
X123298752Y-98465000D01*
X122776248Y-99935000D02*
X123298752Y-99935000D01*
%TO.C,C4*%
X158938748Y-59635000D02*
X159461252Y-59635000D01*
X158938748Y-58165000D02*
X159461252Y-58165000D01*
%TO.C,R6*%
X127572936Y-89990000D02*
X129027064Y-89990000D01*
X127572936Y-91810000D02*
X129027064Y-91810000D01*
%TO.C,C16*%
X129838748Y-78065000D02*
X130361252Y-78065000D01*
X129838748Y-79535000D02*
X130361252Y-79535000D01*
%TO.C,C8*%
X134235000Y-121938748D02*
X134235000Y-122461252D01*
X132765000Y-121938748D02*
X132765000Y-122461252D01*
%TO.C,TP7*%
X183000000Y-117900000D02*
X183000000Y-120300000D01*
X183000000Y-120300000D02*
X180600000Y-120300000D01*
X180600000Y-117900000D02*
X183000000Y-117900000D01*
X180600000Y-120300000D02*
X180600000Y-117900000D01*
%TO.C,U4*%
X179500000Y-84440000D02*
X181450000Y-84440000D01*
X179500000Y-84440000D02*
X176050000Y-84440000D01*
X179500000Y-89560000D02*
X177550000Y-89560000D01*
X179500000Y-89560000D02*
X181450000Y-89560000D01*
%TO.C,C10*%
X123298752Y-94935000D02*
X122776248Y-94935000D01*
X123298752Y-93465000D02*
X122776248Y-93465000D01*
%TO.C,R4*%
X127635436Y-99210000D02*
X129089564Y-99210000D01*
X127635436Y-97390000D02*
X129089564Y-97390000D01*
%TO.C,C6*%
X111176248Y-84135000D02*
X111698752Y-84135000D01*
X111176248Y-82665000D02*
X111698752Y-82665000D01*
%TO.C,R16*%
X175872936Y-96435000D02*
X176327064Y-96435000D01*
X175872936Y-94965000D02*
X176327064Y-94965000D01*
%TO.C,R11*%
X187235000Y-112872936D02*
X187235000Y-113327064D01*
X185765000Y-112872936D02*
X185765000Y-113327064D01*
%TO.C,C1*%
X141861252Y-58365000D02*
X141338748Y-58365000D01*
X141861252Y-59835000D02*
X141338748Y-59835000D01*
%TO.C,C19*%
X181161252Y-107865000D02*
X180638748Y-107865000D01*
X181161252Y-109335000D02*
X180638748Y-109335000D01*
%TO.C,C7*%
X129435000Y-122138748D02*
X129435000Y-122661252D01*
X127965000Y-122138748D02*
X127965000Y-122661252D01*
%TO.C,R20*%
X174565000Y-75372936D02*
X174565000Y-75827064D01*
X176035000Y-75372936D02*
X176035000Y-75827064D01*
%TO.C,R2*%
X155122936Y-63790000D02*
X159477064Y-63790000D01*
X155122936Y-67210000D02*
X159477064Y-67210000D01*
%TO.C,C24*%
X116055000Y-129738748D02*
X116055000Y-130261252D01*
X114585000Y-129738748D02*
X114585000Y-130261252D01*
%TO.C,C26*%
X178961252Y-81435000D02*
X178438748Y-81435000D01*
X178961252Y-79965000D02*
X178438748Y-79965000D01*
%TO.C,TP3*%
X120037500Y-104300000D02*
X122437500Y-104300000D01*
X122437500Y-106700000D02*
X120037500Y-106700000D01*
X122437500Y-104300000D02*
X122437500Y-106700000D01*
X120037500Y-106700000D02*
X120037500Y-104300000D01*
%TO.C,C15*%
X134865000Y-102661252D02*
X134865000Y-102138748D01*
X136335000Y-102661252D02*
X136335000Y-102138748D01*
%TO.C,U2*%
X111137500Y-97760000D02*
X109187500Y-97760000D01*
X111137500Y-87640000D02*
X107687500Y-87640000D01*
X111137500Y-97760000D02*
X113087500Y-97760000D01*
X111137500Y-87640000D02*
X113087500Y-87640000D01*
%TO.C,R7*%
X127572936Y-88110000D02*
X129027064Y-88110000D01*
X127572936Y-86290000D02*
X129027064Y-86290000D01*
%TD*%
M02*
