M48
; DRILL file {KiCad (6.0.4)} date Thu Apr 28 21:29:08 2022
; FORMAT={-:-/ absolute / inch / decimal}
; #@! TF.CreationDate,2022-04-28T21:29:08-07:00
; #@! TF.GenerationSoftware,Kicad,Pcbnew,(6.0.4)
; #@! TF.FileFunction,Plated,1,2,PTH
FMAT,2
INCH
; #@! TA.AperFunction,Plated,PTH,ViaDrill
T1C0.0157
; #@! TA.AperFunction,Plated,PTH,ComponentDrill
T2C0.0315
; #@! TA.AperFunction,Plated,PTH,ComponentDrill
T3C0.0350
; #@! TA.AperFunction,Plated,PTH,ComponentDrill
T4C0.0394
; #@! TA.AperFunction,Plated,PTH,ComponentDrill
T5C0.0472
; #@! TA.AperFunction,Plated,PTH,ComponentDrill
T6C0.0791
%
G90
G05
T1
X4.0906Y-3.4803
X4.0906Y-3.8268
X4.1339Y-3.1575
X4.1693Y-3.626
X4.1693Y-3.9291
X4.1732Y-5.1575
X4.1772Y-3.5276
X4.2008Y-3.122
X4.3346Y-5.0709
X4.3425Y-5.2323
X4.4606Y-3.1614
X4.4646Y-3.2441
X4.5Y-3.2953
X4.5039Y-3.4291
X4.5354Y-3.0935
X4.5433Y-3.4961
X4.5433Y-3.6732
X4.5512Y-3.7795
X4.5748Y-3.5551
X4.5827Y-2.2441
X4.6417Y-3.4055
X4.6457Y-3.5787
X4.6654Y-5.0748
X4.689Y-2.2795
X4.689Y-5.1693
X4.7047Y-3.7795
X4.7323Y-4.9764
X4.7402Y-3.7362
X4.752Y-2.9528
X4.7687Y-3.0157
X4.7687Y-3.0935
X4.7874Y-4.9951
X4.8268Y-4.8583
X4.8268Y-5.0236
X4.9409Y-3.1339
X4.9449Y-3.3346
X5.0551Y-4.5236
X5.0591Y-4.7283
X5.0748Y-5.0827
X5.0748Y-5.2205
X5.1496Y-3.3425
X5.1575Y-3.4843
X5.1614Y-3.4173
X5.1614Y-3.6496
X5.1614Y-3.7638
X5.1614Y-3.9488
X5.189Y-3.3465
X5.1899Y-3.8701
X5.2185Y-3.378
X5.2185Y-3.7323
X5.2441Y-4.437
X5.2756Y-3.3425
X5.2864Y-3.2047
X5.3214Y-3.4237
X5.3228Y-3.6575
X5.3425Y-3.7441
X5.3425Y-4.4331
X5.3701Y-3.252
X5.374Y-3.1732
X5.3937Y-3.8386
X5.4016Y-3.4488
X5.4213Y-3.5472
X5.4213Y-4.9449
X5.4252Y-5.1535
X5.4418Y-3.321
X5.4646Y-2.2283
X5.4646Y-2.3504
X5.4724Y-3.5945
X5.4843Y-4.5079
X5.4921Y-3.9961
X5.5512Y-4.9055
X5.5551Y-5.0472
X5.5748Y-2.4331
X5.5827Y-2.5827
X5.6693Y-3.0315
X5.6752Y-3.6339
X5.6929Y-2.2283
X5.6929Y-2.9488
X5.7023Y-2.3228
X5.7038Y-3.7087
X5.7323Y-3.8071
X5.7402Y-3.2205
X5.7707Y-3.2756
X5.7795Y-2.4252
X5.7859Y-2.3228
X5.7992Y-3.1654
X5.8031Y-3.7047
X5.8031Y-3.8583
X5.8583Y-2.8898
X5.8937Y-3.8504
X5.8937Y-5.1693
X5.9213Y-2.6693
X5.9567Y-2.7598
X5.9567Y-2.8583
X5.9921Y-2.5394
X5.9921Y-2.7402
X6.0394Y-3.7087
X6.0394Y-3.7874
X6.0551Y-3.8474
X6.0941Y-3.7569
X6.1063Y-3.8474
X6.1181Y-4.9921
X6.1614Y-3.9016
X6.1614Y-4.9488
X6.3346Y-3.6969
X6.3386Y-2.9528
X6.3937Y-3.7441
X6.4094Y-3.4528
X6.6535Y-3.437
X6.6535Y-3.7677
X6.6614Y-3.9016
X6.7165Y-4.4764
X6.7244Y-3.563
X6.7244Y-3.7717
X6.7756Y-3.2953
X6.7795Y-3.437
X6.815Y-3.4217
X6.8189Y-3.4843
X6.8346Y-2.8976
X6.8386Y-3.2411
X6.8543Y-3.689
X6.8583Y-3.3976
X6.8737Y-3.2129
X6.874Y-3.063
X6.8819Y-3.3465
X6.9016Y-3.185
X6.9055Y-3.5079
X6.9449Y-3.2136
X7.0276Y-3.8731
X7.0276Y-4.2756
X7.063Y-3.6535
X7.0669Y-3.7677
X7.122Y-3.0236
X7.122Y-3.1732
X7.1614Y-3.689
X7.1654Y-3.8346
X7.2244Y-3.1654
X7.2244Y-3.2953
X7.2283Y-3.3307
X7.2362Y-3.4567
X7.312Y-3.4921
X7.3203Y-3.3091
X7.3228Y-3.7874
X7.3465Y-4.5945
X7.4055Y-3.8228
X7.4094Y-3.6378
X7.4094Y-3.7717
X7.4291Y-2.8228
X7.4291Y-2.8819
X7.4291Y-3.1772
X7.4291Y-3.3031
X7.5591Y-3.6486
X7.563Y-3.7244
T3
X4.5059Y-2.5787
X4.5059Y-2.6787
T4
X4.2382Y-5.3059
X4.2382Y-5.9059
X4.3382Y-5.3059
X4.3382Y-5.9059
X4.4382Y-5.3059
X4.4382Y-5.9059
X4.5382Y-5.3059
X4.5382Y-5.9059
X4.6382Y-5.3059
X4.6382Y-5.9059
X4.6417Y-3.3346
X4.655Y-3.9134
X4.659Y-3.6614
X4.7382Y-5.3059
X4.7382Y-5.9059
X4.7731Y-4.1535
X4.8382Y-5.3059
X4.8382Y-5.9059
X4.8465Y-2.3528
X4.8465Y-2.5528
X4.8465Y-2.6614
X4.8465Y-2.8614
X4.9382Y-5.3059
X4.9382Y-5.9059
X5.0382Y-5.3059
X5.0382Y-5.9059
X5.1382Y-5.3059
X5.1382Y-5.9059
X5.2382Y-5.3059
X5.2382Y-5.9059
X5.2953Y-4.2323
X5.3031Y-2.652
X5.3031Y-2.852
X5.3382Y-5.3059
X5.3382Y-5.9059
X5.4382Y-5.3059
X5.4382Y-5.9059
X5.5382Y-5.3059
X5.5382Y-5.9059
X5.6382Y-5.3059
X5.6382Y-5.9059
X5.6772Y-2.5433
X5.6772Y-2.7598
X5.9488Y-4.0236
X6.4724Y-3.2795
X6.5236Y-3.6732
X6.7638Y-3.2126
X6.8858Y-4.4567
X7.1575Y-4.689
X7.6181Y-4.4331
X7.7638Y-3.1693
T5
X4.4685Y-4.5349
X4.4685Y-4.8302
T6
X4.3059Y-2.3787
X4.3059Y-2.7787
T2
G00X7.1102Y-2.6831
M15
G01X7.1102Y-2.7106
M16
G05
G00X7.2087Y-2.6831
M15
G01X7.2087Y-2.7106
M16
G05
G00X7.3209Y-2.5
M15
G01X7.2933Y-2.5
M16
G05
G00X7.4055Y-2.6831
M15
G01X7.4055Y-2.7106
M16
G05
G00X7.5039Y-2.6831
M15
G01X7.5039Y-2.7106
M16
G05
T0
M30
