%TF.GenerationSoftware,KiCad,Pcbnew,(6.0.4)*%
%TF.CreationDate,2022-06-06T09:07:08-07:00*%
%TF.ProjectId,Complete Schematic V6,436f6d70-6c65-4746-9520-536368656d61,rev?*%
%TF.SameCoordinates,Original*%
%TF.FileFunction,Legend,Top*%
%TF.FilePolarity,Positive*%
%FSLAX46Y46*%
G04 Gerber Fmt 4.6, Leading zero omitted, Abs format (unit mm)*
G04 Created by KiCad (PCBNEW (6.0.4)) date 2022-06-06 09:07:08*
%MOMM*%
%LPD*%
G01*
G04 APERTURE LIST*
%ADD10C,0.150000*%
%ADD11C,0.450000*%
%ADD12C,0.300000*%
%ADD13C,0.120000*%
%ADD14C,0.127000*%
%ADD15C,0.340000*%
G04 APERTURE END LIST*
D10*
X119888000Y-73279000D02*
X119888000Y-104013000D01*
X104521000Y-104013000D02*
X104521000Y-117729000D01*
X124587000Y-124841000D02*
X76327000Y-124841000D01*
X145923000Y-50927000D02*
X76327000Y-50927000D01*
X76327000Y-149733000D02*
X145923000Y-149733000D01*
X126619000Y-62357000D02*
X116459000Y-62357000D01*
X116459000Y-73279000D02*
X119888000Y-73279000D01*
X76327000Y-104013000D02*
X76327000Y-149733000D01*
X76327000Y-50927000D02*
X76327000Y-104013000D01*
X124587000Y-104013000D02*
X124587000Y-124841000D01*
X126619000Y-62357000D02*
X126619000Y-50927000D01*
X116459000Y-73279000D02*
X116459000Y-50927000D01*
X76327000Y-73279000D02*
X116459000Y-73279000D01*
X104521000Y-117729000D02*
X124587000Y-117729000D01*
X76327000Y-104013000D02*
X124587000Y-104013000D01*
X145923000Y-149733000D02*
X145923000Y-50927000D01*
X77954761Y-101052380D02*
X78526190Y-101052380D01*
X78240476Y-102052380D02*
X78240476Y-101052380D01*
X79288095Y-102052380D02*
X79288095Y-101528571D01*
X79240476Y-101433333D01*
X79145238Y-101385714D01*
X78954761Y-101385714D01*
X78859523Y-101433333D01*
X79288095Y-102004761D02*
X79192857Y-102052380D01*
X78954761Y-102052380D01*
X78859523Y-102004761D01*
X78811904Y-101909523D01*
X78811904Y-101814285D01*
X78859523Y-101719047D01*
X78954761Y-101671428D01*
X79192857Y-101671428D01*
X79288095Y-101623809D01*
X79669047Y-101385714D02*
X79907142Y-102052380D01*
X80145238Y-101385714D02*
X79907142Y-102052380D01*
X79811904Y-102290476D01*
X79764285Y-102338095D01*
X79669047Y-102385714D01*
X80669047Y-102052380D02*
X80573809Y-102004761D01*
X80526190Y-101909523D01*
X80526190Y-101052380D01*
X81192857Y-102052380D02*
X81097619Y-102004761D01*
X81050000Y-101957142D01*
X81002380Y-101861904D01*
X81002380Y-101576190D01*
X81050000Y-101480952D01*
X81097619Y-101433333D01*
X81192857Y-101385714D01*
X81335714Y-101385714D01*
X81430952Y-101433333D01*
X81478571Y-101480952D01*
X81526190Y-101576190D01*
X81526190Y-101861904D01*
X81478571Y-101957142D01*
X81430952Y-102004761D01*
X81335714Y-102052380D01*
X81192857Y-102052380D01*
X82335714Y-102004761D02*
X82240476Y-102052380D01*
X82050000Y-102052380D01*
X81954761Y-102004761D01*
X81907142Y-101909523D01*
X81907142Y-101528571D01*
X81954761Y-101433333D01*
X82050000Y-101385714D01*
X82240476Y-101385714D01*
X82335714Y-101433333D01*
X82383333Y-101528571D01*
X82383333Y-101623809D01*
X81907142Y-101719047D01*
X83573809Y-102052380D02*
X83573809Y-101052380D01*
X83907142Y-101766666D01*
X84240476Y-101052380D01*
X84240476Y-102052380D01*
X84716666Y-102052380D02*
X84716666Y-101385714D01*
X84716666Y-101052380D02*
X84669047Y-101100000D01*
X84716666Y-101147619D01*
X84764285Y-101100000D01*
X84716666Y-101052380D01*
X84716666Y-101147619D01*
X85097619Y-102052380D02*
X85621428Y-101385714D01*
X85097619Y-101385714D02*
X85621428Y-102052380D01*
X86383333Y-102004761D02*
X86288095Y-102052380D01*
X86097619Y-102052380D01*
X86002380Y-102004761D01*
X85954761Y-101909523D01*
X85954761Y-101528571D01*
X86002380Y-101433333D01*
X86097619Y-101385714D01*
X86288095Y-101385714D01*
X86383333Y-101433333D01*
X86430952Y-101528571D01*
X86430952Y-101623809D01*
X85954761Y-101719047D01*
X86859523Y-102052380D02*
X86859523Y-101385714D01*
X86859523Y-101576190D02*
X86907142Y-101480952D01*
X86954761Y-101433333D01*
X87050000Y-101385714D01*
X87145238Y-101385714D01*
D11*
X143073285Y-147444714D02*
X143216142Y-147016142D01*
X143216142Y-146301857D01*
X143073285Y-146016142D01*
X142930428Y-145873285D01*
X142644714Y-145730428D01*
X142359000Y-145730428D01*
X142073285Y-145873285D01*
X141930428Y-146016142D01*
X141787571Y-146301857D01*
X141644714Y-146873285D01*
X141501857Y-147159000D01*
X141359000Y-147301857D01*
X141073285Y-147444714D01*
X140787571Y-147444714D01*
X140501857Y-147301857D01*
X140359000Y-147159000D01*
X140216142Y-146873285D01*
X140216142Y-146159000D01*
X140359000Y-145730428D01*
X143216142Y-144444714D02*
X140216142Y-144444714D01*
X140216142Y-143730428D01*
X140359000Y-143301857D01*
X140644714Y-143016142D01*
X140930428Y-142873285D01*
X141501857Y-142730428D01*
X141930428Y-142730428D01*
X142501857Y-142873285D01*
X142787571Y-143016142D01*
X143073285Y-143301857D01*
X143216142Y-143730428D01*
X143216142Y-144444714D01*
X143216142Y-139730428D02*
X141787571Y-140730428D01*
X143216142Y-141444714D02*
X140216142Y-141444714D01*
X140216142Y-140301857D01*
X140359000Y-140016142D01*
X140501857Y-139873285D01*
X140787571Y-139730428D01*
X141216142Y-139730428D01*
X141501857Y-139873285D01*
X141644714Y-140016142D01*
X141787571Y-140301857D01*
X141787571Y-141444714D01*
X143216142Y-134444714D02*
X141787571Y-135444714D01*
X143216142Y-136159000D02*
X140216142Y-136159000D01*
X140216142Y-135016142D01*
X140359000Y-134730428D01*
X140501857Y-134587571D01*
X140787571Y-134444714D01*
X141216142Y-134444714D01*
X141501857Y-134587571D01*
X141644714Y-134730428D01*
X141787571Y-135016142D01*
X141787571Y-136159000D01*
X143073285Y-132016142D02*
X143216142Y-132301857D01*
X143216142Y-132873285D01*
X143073285Y-133159000D01*
X142787571Y-133301857D01*
X141644714Y-133301857D01*
X141359000Y-133159000D01*
X141216142Y-132873285D01*
X141216142Y-132301857D01*
X141359000Y-132016142D01*
X141644714Y-131873285D01*
X141930428Y-131873285D01*
X142216142Y-133301857D01*
X143073285Y-129301857D02*
X143216142Y-129587571D01*
X143216142Y-130159000D01*
X143073285Y-130444714D01*
X142930428Y-130587571D01*
X142644714Y-130730428D01*
X141787571Y-130730428D01*
X141501857Y-130587571D01*
X141359000Y-130444714D01*
X141216142Y-130159000D01*
X141216142Y-129587571D01*
X141359000Y-129301857D01*
X143073285Y-126873285D02*
X143216142Y-127159000D01*
X143216142Y-127730428D01*
X143073285Y-128016142D01*
X142787571Y-128159000D01*
X141644714Y-128159000D01*
X141359000Y-128016142D01*
X141216142Y-127730428D01*
X141216142Y-127159000D01*
X141359000Y-126873285D01*
X141644714Y-126730428D01*
X141930428Y-126730428D01*
X142216142Y-128159000D01*
X143216142Y-125444714D02*
X141216142Y-125444714D01*
X140216142Y-125444714D02*
X140359000Y-125587571D01*
X140501857Y-125444714D01*
X140359000Y-125301857D01*
X140216142Y-125444714D01*
X140501857Y-125444714D01*
X141216142Y-124301857D02*
X143216142Y-123587571D01*
X141216142Y-122873285D01*
X143073285Y-120587571D02*
X143216142Y-120873285D01*
X143216142Y-121444714D01*
X143073285Y-121730428D01*
X142787571Y-121873285D01*
X141644714Y-121873285D01*
X141359000Y-121730428D01*
X141216142Y-121444714D01*
X141216142Y-120873285D01*
X141359000Y-120587571D01*
X141644714Y-120444714D01*
X141930428Y-120444714D01*
X142216142Y-121873285D01*
X143216142Y-119159000D02*
X141216142Y-119159000D01*
X141787571Y-119159000D02*
X141501857Y-119016142D01*
X141359000Y-118873285D01*
X141216142Y-118587571D01*
X141216142Y-118301857D01*
X140216142Y-115444714D02*
X143216142Y-114444714D01*
X140216142Y-113444714D01*
X140216142Y-111159000D02*
X140216142Y-111730428D01*
X140359000Y-112016142D01*
X140501857Y-112159000D01*
X140930428Y-112444714D01*
X141501857Y-112587571D01*
X142644714Y-112587571D01*
X142930428Y-112444714D01*
X143073285Y-112301857D01*
X143216142Y-112016142D01*
X143216142Y-111444714D01*
X143073285Y-111159000D01*
X142930428Y-111016142D01*
X142644714Y-110873285D01*
X141930428Y-110873285D01*
X141644714Y-111016142D01*
X141501857Y-111159000D01*
X141359000Y-111444714D01*
X141359000Y-112016142D01*
X141501857Y-112301857D01*
X141644714Y-112444714D01*
X141930428Y-112587571D01*
D10*
X118515238Y-60507619D02*
X118562857Y-60460000D01*
X118658095Y-60412380D01*
X118896190Y-60412380D01*
X118991428Y-60460000D01*
X119039047Y-60507619D01*
X119086666Y-60602857D01*
X119086666Y-60698095D01*
X119039047Y-60840952D01*
X118467619Y-61412380D01*
X119086666Y-61412380D01*
X119515238Y-61317142D02*
X119562857Y-61364761D01*
X119515238Y-61412380D01*
X119467619Y-61364761D01*
X119515238Y-61317142D01*
X119515238Y-61412380D01*
X120467619Y-60412380D02*
X119991428Y-60412380D01*
X119943809Y-60888571D01*
X119991428Y-60840952D01*
X120086666Y-60793333D01*
X120324761Y-60793333D01*
X120420000Y-60840952D01*
X120467619Y-60888571D01*
X120515238Y-60983809D01*
X120515238Y-61221904D01*
X120467619Y-61317142D01*
X120420000Y-61364761D01*
X120324761Y-61412380D01*
X120086666Y-61412380D01*
X119991428Y-61364761D01*
X119943809Y-61317142D01*
X120800952Y-60412380D02*
X121134285Y-61412380D01*
X121467619Y-60412380D01*
X122896190Y-60888571D02*
X123039047Y-60936190D01*
X123086666Y-60983809D01*
X123134285Y-61079047D01*
X123134285Y-61221904D01*
X123086666Y-61317142D01*
X123039047Y-61364761D01*
X122943809Y-61412380D01*
X122562857Y-61412380D01*
X122562857Y-60412380D01*
X122896190Y-60412380D01*
X122991428Y-60460000D01*
X123039047Y-60507619D01*
X123086666Y-60602857D01*
X123086666Y-60698095D01*
X123039047Y-60793333D01*
X122991428Y-60840952D01*
X122896190Y-60888571D01*
X122562857Y-60888571D01*
X123562857Y-61412380D02*
X123562857Y-60745714D01*
X123562857Y-60412380D02*
X123515238Y-60460000D01*
X123562857Y-60507619D01*
X123610476Y-60460000D01*
X123562857Y-60412380D01*
X123562857Y-60507619D01*
X124467619Y-61412380D02*
X124467619Y-60888571D01*
X124420000Y-60793333D01*
X124324761Y-60745714D01*
X124134285Y-60745714D01*
X124039047Y-60793333D01*
X124467619Y-61364761D02*
X124372380Y-61412380D01*
X124134285Y-61412380D01*
X124039047Y-61364761D01*
X123991428Y-61269523D01*
X123991428Y-61174285D01*
X124039047Y-61079047D01*
X124134285Y-61031428D01*
X124372380Y-61031428D01*
X124467619Y-60983809D01*
X124896190Y-61364761D02*
X124991428Y-61412380D01*
X125181904Y-61412380D01*
X125277142Y-61364761D01*
X125324761Y-61269523D01*
X125324761Y-61221904D01*
X125277142Y-61126666D01*
X125181904Y-61079047D01*
X125039047Y-61079047D01*
X124943809Y-61031428D01*
X124896190Y-60936190D01*
X124896190Y-60888571D01*
X124943809Y-60793333D01*
X125039047Y-60745714D01*
X125181904Y-60745714D01*
X125277142Y-60793333D01*
X77248571Y-106132380D02*
X77581904Y-107132380D01*
X77915238Y-106132380D01*
X78391428Y-107132380D02*
X78296190Y-107084761D01*
X78248571Y-107037142D01*
X78200952Y-106941904D01*
X78200952Y-106656190D01*
X78248571Y-106560952D01*
X78296190Y-106513333D01*
X78391428Y-106465714D01*
X78534285Y-106465714D01*
X78629523Y-106513333D01*
X78677142Y-106560952D01*
X78724761Y-106656190D01*
X78724761Y-106941904D01*
X78677142Y-107037142D01*
X78629523Y-107084761D01*
X78534285Y-107132380D01*
X78391428Y-107132380D01*
X79296190Y-107132380D02*
X79200952Y-107084761D01*
X79153333Y-106989523D01*
X79153333Y-106132380D01*
X79534285Y-106465714D02*
X79915238Y-106465714D01*
X79677142Y-106132380D02*
X79677142Y-106989523D01*
X79724761Y-107084761D01*
X79820000Y-107132380D01*
X79915238Y-107132380D01*
X80677142Y-107132380D02*
X80677142Y-106608571D01*
X80629523Y-106513333D01*
X80534285Y-106465714D01*
X80343809Y-106465714D01*
X80248571Y-106513333D01*
X80677142Y-107084761D02*
X80581904Y-107132380D01*
X80343809Y-107132380D01*
X80248571Y-107084761D01*
X80200952Y-106989523D01*
X80200952Y-106894285D01*
X80248571Y-106799047D01*
X80343809Y-106751428D01*
X80581904Y-106751428D01*
X80677142Y-106703809D01*
X81581904Y-106465714D02*
X81581904Y-107275238D01*
X81534285Y-107370476D01*
X81486666Y-107418095D01*
X81391428Y-107465714D01*
X81248571Y-107465714D01*
X81153333Y-107418095D01*
X81581904Y-107084761D02*
X81486666Y-107132380D01*
X81296190Y-107132380D01*
X81200952Y-107084761D01*
X81153333Y-107037142D01*
X81105714Y-106941904D01*
X81105714Y-106656190D01*
X81153333Y-106560952D01*
X81200952Y-106513333D01*
X81296190Y-106465714D01*
X81486666Y-106465714D01*
X81581904Y-106513333D01*
X82439047Y-107084761D02*
X82343809Y-107132380D01*
X82153333Y-107132380D01*
X82058095Y-107084761D01*
X82010476Y-106989523D01*
X82010476Y-106608571D01*
X82058095Y-106513333D01*
X82153333Y-106465714D01*
X82343809Y-106465714D01*
X82439047Y-106513333D01*
X82486666Y-106608571D01*
X82486666Y-106703809D01*
X82010476Y-106799047D01*
X83629523Y-107084761D02*
X83772380Y-107132380D01*
X84010476Y-107132380D01*
X84105714Y-107084761D01*
X84153333Y-107037142D01*
X84200952Y-106941904D01*
X84200952Y-106846666D01*
X84153333Y-106751428D01*
X84105714Y-106703809D01*
X84010476Y-106656190D01*
X83820000Y-106608571D01*
X83724761Y-106560952D01*
X83677142Y-106513333D01*
X83629523Y-106418095D01*
X83629523Y-106322857D01*
X83677142Y-106227619D01*
X83724761Y-106180000D01*
X83820000Y-106132380D01*
X84058095Y-106132380D01*
X84200952Y-106180000D01*
X84629523Y-107132380D02*
X84629523Y-106465714D01*
X84629523Y-106560952D02*
X84677142Y-106513333D01*
X84772380Y-106465714D01*
X84915238Y-106465714D01*
X85010476Y-106513333D01*
X85058095Y-106608571D01*
X85058095Y-107132380D01*
X85058095Y-106608571D02*
X85105714Y-106513333D01*
X85200952Y-106465714D01*
X85343809Y-106465714D01*
X85439047Y-106513333D01*
X85486666Y-106608571D01*
X85486666Y-107132380D01*
X86105714Y-107132380D02*
X86010476Y-107084761D01*
X85962857Y-107037142D01*
X85915238Y-106941904D01*
X85915238Y-106656190D01*
X85962857Y-106560952D01*
X86010476Y-106513333D01*
X86105714Y-106465714D01*
X86248571Y-106465714D01*
X86343809Y-106513333D01*
X86391428Y-106560952D01*
X86439047Y-106656190D01*
X86439047Y-106941904D01*
X86391428Y-107037142D01*
X86343809Y-107084761D01*
X86248571Y-107132380D01*
X86105714Y-107132380D01*
X87010476Y-107132380D02*
X86915238Y-107084761D01*
X86867619Y-107037142D01*
X86820000Y-106941904D01*
X86820000Y-106656190D01*
X86867619Y-106560952D01*
X86915238Y-106513333D01*
X87010476Y-106465714D01*
X87153333Y-106465714D01*
X87248571Y-106513333D01*
X87296190Y-106560952D01*
X87343809Y-106656190D01*
X87343809Y-106941904D01*
X87296190Y-107037142D01*
X87248571Y-107084761D01*
X87153333Y-107132380D01*
X87010476Y-107132380D01*
X87629523Y-106465714D02*
X88010476Y-106465714D01*
X87772380Y-106132380D02*
X87772380Y-106989523D01*
X87820000Y-107084761D01*
X87915238Y-107132380D01*
X88010476Y-107132380D01*
X88343809Y-107132380D02*
X88343809Y-106132380D01*
X88772380Y-107132380D02*
X88772380Y-106608571D01*
X88724761Y-106513333D01*
X88629523Y-106465714D01*
X88486666Y-106465714D01*
X88391428Y-106513333D01*
X88343809Y-106560952D01*
X89629523Y-107084761D02*
X89534285Y-107132380D01*
X89343809Y-107132380D01*
X89248571Y-107084761D01*
X89200952Y-106989523D01*
X89200952Y-106608571D01*
X89248571Y-106513333D01*
X89343809Y-106465714D01*
X89534285Y-106465714D01*
X89629523Y-106513333D01*
X89677142Y-106608571D01*
X89677142Y-106703809D01*
X89200952Y-106799047D01*
X90105714Y-107132380D02*
X90105714Y-106465714D01*
X90105714Y-106656190D02*
X90153333Y-106560952D01*
X90200952Y-106513333D01*
X90296190Y-106465714D01*
X90391428Y-106465714D01*
X77701428Y-72089971D02*
X77844285Y-72137590D01*
X77891904Y-72185209D01*
X77939523Y-72280447D01*
X77939523Y-72423304D01*
X77891904Y-72518542D01*
X77844285Y-72566161D01*
X77749047Y-72613780D01*
X77368095Y-72613780D01*
X77368095Y-71613780D01*
X77701428Y-71613780D01*
X77796666Y-71661400D01*
X77844285Y-71709019D01*
X77891904Y-71804257D01*
X77891904Y-71899495D01*
X77844285Y-71994733D01*
X77796666Y-72042352D01*
X77701428Y-72089971D01*
X77368095Y-72089971D01*
X78796666Y-72613780D02*
X78796666Y-72089971D01*
X78749047Y-71994733D01*
X78653809Y-71947114D01*
X78463333Y-71947114D01*
X78368095Y-71994733D01*
X78796666Y-72566161D02*
X78701428Y-72613780D01*
X78463333Y-72613780D01*
X78368095Y-72566161D01*
X78320476Y-72470923D01*
X78320476Y-72375685D01*
X78368095Y-72280447D01*
X78463333Y-72232828D01*
X78701428Y-72232828D01*
X78796666Y-72185209D01*
X79272857Y-71947114D02*
X79272857Y-72613780D01*
X79272857Y-72042352D02*
X79320476Y-71994733D01*
X79415714Y-71947114D01*
X79558571Y-71947114D01*
X79653809Y-71994733D01*
X79701428Y-72089971D01*
X79701428Y-72613780D01*
X80606190Y-72613780D02*
X80606190Y-71613780D01*
X80606190Y-72566161D02*
X80510952Y-72613780D01*
X80320476Y-72613780D01*
X80225238Y-72566161D01*
X80177619Y-72518542D01*
X80130000Y-72423304D01*
X80130000Y-72137590D01*
X80177619Y-72042352D01*
X80225238Y-71994733D01*
X80320476Y-71947114D01*
X80510952Y-71947114D01*
X80606190Y-71994733D01*
X81082380Y-71947114D02*
X81082380Y-72947114D01*
X81082380Y-71994733D02*
X81177619Y-71947114D01*
X81368095Y-71947114D01*
X81463333Y-71994733D01*
X81510952Y-72042352D01*
X81558571Y-72137590D01*
X81558571Y-72423304D01*
X81510952Y-72518542D01*
X81463333Y-72566161D01*
X81368095Y-72613780D01*
X81177619Y-72613780D01*
X81082380Y-72566161D01*
X82415714Y-72613780D02*
X82415714Y-72089971D01*
X82368095Y-71994733D01*
X82272857Y-71947114D01*
X82082380Y-71947114D01*
X81987142Y-71994733D01*
X82415714Y-72566161D02*
X82320476Y-72613780D01*
X82082380Y-72613780D01*
X81987142Y-72566161D01*
X81939523Y-72470923D01*
X81939523Y-72375685D01*
X81987142Y-72280447D01*
X82082380Y-72232828D01*
X82320476Y-72232828D01*
X82415714Y-72185209D01*
X82844285Y-72566161D02*
X82939523Y-72613780D01*
X83130000Y-72613780D01*
X83225238Y-72566161D01*
X83272857Y-72470923D01*
X83272857Y-72423304D01*
X83225238Y-72328066D01*
X83130000Y-72280447D01*
X82987142Y-72280447D01*
X82891904Y-72232828D01*
X82844285Y-72137590D01*
X82844285Y-72089971D01*
X82891904Y-71994733D01*
X82987142Y-71947114D01*
X83130000Y-71947114D01*
X83225238Y-71994733D01*
X83653809Y-72566161D02*
X83749047Y-72613780D01*
X83939523Y-72613780D01*
X84034761Y-72566161D01*
X84082380Y-72470923D01*
X84082380Y-72423304D01*
X84034761Y-72328066D01*
X83939523Y-72280447D01*
X83796666Y-72280447D01*
X83701428Y-72232828D01*
X83653809Y-72137590D01*
X83653809Y-72089971D01*
X83701428Y-71994733D01*
X83796666Y-71947114D01*
X83939523Y-71947114D01*
X84034761Y-71994733D01*
X85606190Y-72089971D02*
X85272857Y-72089971D01*
X85272857Y-72613780D02*
X85272857Y-71613780D01*
X85749047Y-71613780D01*
X86130000Y-72613780D02*
X86130000Y-71947114D01*
X86130000Y-71613780D02*
X86082380Y-71661400D01*
X86130000Y-71709019D01*
X86177619Y-71661400D01*
X86130000Y-71613780D01*
X86130000Y-71709019D01*
X86749047Y-72613780D02*
X86653809Y-72566161D01*
X86606190Y-72470923D01*
X86606190Y-71613780D01*
X86987142Y-71947114D02*
X87368095Y-71947114D01*
X87130000Y-71613780D02*
X87130000Y-72470923D01*
X87177619Y-72566161D01*
X87272857Y-72613780D01*
X87368095Y-72613780D01*
X88082380Y-72566161D02*
X87987142Y-72613780D01*
X87796666Y-72613780D01*
X87701428Y-72566161D01*
X87653809Y-72470923D01*
X87653809Y-72089971D01*
X87701428Y-71994733D01*
X87796666Y-71947114D01*
X87987142Y-71947114D01*
X88082380Y-71994733D01*
X88130000Y-72089971D01*
X88130000Y-72185209D01*
X87653809Y-72280447D01*
X88558571Y-72613780D02*
X88558571Y-71947114D01*
X88558571Y-72137590D02*
X88606190Y-72042352D01*
X88653809Y-71994733D01*
X88749047Y-71947114D01*
X88844285Y-71947114D01*
X90225238Y-72994733D02*
X90177619Y-72947114D01*
X90082380Y-72804257D01*
X90034761Y-72709019D01*
X89987142Y-72566161D01*
X89939523Y-72328066D01*
X89939523Y-72137590D01*
X89987142Y-71899495D01*
X90034761Y-71756638D01*
X90082380Y-71661400D01*
X90177619Y-71518542D01*
X90225238Y-71470923D01*
X90510952Y-71613780D02*
X91177619Y-71613780D01*
X90749047Y-72613780D01*
X91558571Y-72232828D02*
X92320476Y-72232828D01*
X93320476Y-72613780D02*
X92749047Y-72613780D01*
X93034761Y-72613780D02*
X93034761Y-71613780D01*
X92939523Y-71756638D01*
X92844285Y-71851876D01*
X92749047Y-71899495D01*
X93891904Y-72042352D02*
X93796666Y-71994733D01*
X93749047Y-71947114D01*
X93701428Y-71851876D01*
X93701428Y-71804257D01*
X93749047Y-71709019D01*
X93796666Y-71661400D01*
X93891904Y-71613780D01*
X94082380Y-71613780D01*
X94177619Y-71661400D01*
X94225238Y-71709019D01*
X94272857Y-71804257D01*
X94272857Y-71851876D01*
X94225238Y-71947114D01*
X94177619Y-71994733D01*
X94082380Y-72042352D01*
X93891904Y-72042352D01*
X93796666Y-72089971D01*
X93749047Y-72137590D01*
X93701428Y-72232828D01*
X93701428Y-72423304D01*
X93749047Y-72518542D01*
X93796666Y-72566161D01*
X93891904Y-72613780D01*
X94082380Y-72613780D01*
X94177619Y-72566161D01*
X94225238Y-72518542D01*
X94272857Y-72423304D01*
X94272857Y-72232828D01*
X94225238Y-72137590D01*
X94177619Y-72089971D01*
X94082380Y-72042352D01*
X94701428Y-72613780D02*
X94701428Y-71613780D01*
X95034761Y-72328066D01*
X95368095Y-71613780D01*
X95368095Y-72613780D01*
X95844285Y-72613780D02*
X95844285Y-71613780D01*
X95844285Y-72089971D02*
X96415714Y-72089971D01*
X96415714Y-72613780D02*
X96415714Y-71613780D01*
X96796666Y-71947114D02*
X97320476Y-71947114D01*
X96796666Y-72613780D01*
X97320476Y-72613780D01*
X97606190Y-72994733D02*
X97653809Y-72947114D01*
X97749047Y-72804257D01*
X97796666Y-72709019D01*
X97844285Y-72566161D01*
X97891904Y-72328066D01*
X97891904Y-72137590D01*
X97844285Y-71899495D01*
X97796666Y-71756638D01*
X97749047Y-71661400D01*
X97653809Y-71518542D01*
X97606190Y-71470923D01*
D12*
X126748761Y-114364809D02*
X128177333Y-114364809D01*
X128463047Y-114460047D01*
X128653523Y-114650523D01*
X128748761Y-114936238D01*
X128748761Y-115126714D01*
X128748761Y-113126714D02*
X128653523Y-113317190D01*
X128558285Y-113412428D01*
X128367809Y-113507666D01*
X127796380Y-113507666D01*
X127605904Y-113412428D01*
X127510666Y-113317190D01*
X127415428Y-113126714D01*
X127415428Y-112841000D01*
X127510666Y-112650523D01*
X127605904Y-112555285D01*
X127796380Y-112460047D01*
X128367809Y-112460047D01*
X128558285Y-112555285D01*
X128653523Y-112650523D01*
X128748761Y-112841000D01*
X128748761Y-113126714D01*
X128653523Y-111698142D02*
X128748761Y-111507666D01*
X128748761Y-111126714D01*
X128653523Y-110936238D01*
X128463047Y-110841000D01*
X128367809Y-110841000D01*
X128177333Y-110936238D01*
X128082095Y-111126714D01*
X128082095Y-111412428D01*
X127986857Y-111602904D01*
X127796380Y-111698142D01*
X127701142Y-111698142D01*
X127510666Y-111602904D01*
X127415428Y-111412428D01*
X127415428Y-111126714D01*
X127510666Y-110936238D01*
X128748761Y-109983857D02*
X126748761Y-109983857D01*
X128748761Y-109126714D02*
X127701142Y-109126714D01*
X127510666Y-109221952D01*
X127415428Y-109412428D01*
X127415428Y-109698142D01*
X127510666Y-109888619D01*
X127605904Y-109983857D01*
X127415428Y-107317190D02*
X128748761Y-107317190D01*
X127415428Y-108174333D02*
X128463047Y-108174333D01*
X128653523Y-108079095D01*
X128748761Y-107888619D01*
X128748761Y-107602904D01*
X128653523Y-107412428D01*
X128558285Y-107317190D01*
X128748761Y-105507666D02*
X127701142Y-105507666D01*
X127510666Y-105602904D01*
X127415428Y-105793380D01*
X127415428Y-106174333D01*
X127510666Y-106364809D01*
X128653523Y-105507666D02*
X128748761Y-105698142D01*
X128748761Y-106174333D01*
X128653523Y-106364809D01*
X128463047Y-106460047D01*
X128272571Y-106460047D01*
X128082095Y-106364809D01*
X127986857Y-106174333D01*
X127986857Y-105698142D01*
X127891619Y-105507666D01*
X128748761Y-103031476D02*
X126748761Y-103031476D01*
X128177333Y-102364809D01*
X126748761Y-101698142D01*
X128748761Y-101698142D01*
X127415428Y-99888619D02*
X128748761Y-99888619D01*
X127415428Y-100745761D02*
X128463047Y-100745761D01*
X128653523Y-100650523D01*
X128748761Y-100460047D01*
X128748761Y-100174333D01*
X128653523Y-99983857D01*
X128558285Y-99888619D01*
X128748761Y-98650523D02*
X128653523Y-98841000D01*
X128463047Y-98936238D01*
X126748761Y-98936238D01*
X128748761Y-97031476D02*
X127701142Y-97031476D01*
X127510666Y-97126714D01*
X127415428Y-97317190D01*
X127415428Y-97698142D01*
X127510666Y-97888619D01*
X128653523Y-97031476D02*
X128748761Y-97221952D01*
X128748761Y-97698142D01*
X128653523Y-97888619D01*
X128463047Y-97983857D01*
X128272571Y-97983857D01*
X128082095Y-97888619D01*
X127986857Y-97698142D01*
X127986857Y-97221952D01*
X127891619Y-97031476D01*
X128748761Y-96079095D02*
X127415428Y-96079095D01*
X127796380Y-96079095D02*
X127605904Y-95983857D01*
X127510666Y-95888619D01*
X127415428Y-95698142D01*
X127415428Y-95507666D01*
X128653523Y-93983857D02*
X128748761Y-94174333D01*
X128748761Y-94555285D01*
X128653523Y-94745761D01*
X128558285Y-94841000D01*
X128367809Y-94936238D01*
X127796380Y-94936238D01*
X127605904Y-94841000D01*
X127510666Y-94745761D01*
X127415428Y-94555285D01*
X127415428Y-94174333D01*
X127510666Y-93983857D01*
X127415428Y-93317190D02*
X127415428Y-92269571D01*
X128748761Y-93317190D01*
X128748761Y-92269571D01*
X127415428Y-91698142D02*
X128748761Y-91221952D01*
X127415428Y-90745761D02*
X128748761Y-91221952D01*
X129224952Y-91412428D01*
X129320190Y-91507666D01*
X129415428Y-91698142D01*
X128748761Y-89983857D02*
X126748761Y-89983857D01*
X127986857Y-89793380D02*
X128748761Y-89221952D01*
X127415428Y-89221952D02*
X128177333Y-89983857D01*
X131778285Y-114460047D02*
X131873523Y-114555285D01*
X131968761Y-114841000D01*
X131968761Y-115031476D01*
X131873523Y-115317190D01*
X131683047Y-115507666D01*
X131492571Y-115602904D01*
X131111619Y-115698142D01*
X130825904Y-115698142D01*
X130444952Y-115602904D01*
X130254476Y-115507666D01*
X130064000Y-115317190D01*
X129968761Y-115031476D01*
X129968761Y-114841000D01*
X130064000Y-114555285D01*
X130159238Y-114460047D01*
X131968761Y-113602904D02*
X129968761Y-113602904D01*
X131968761Y-112745761D02*
X130921142Y-112745761D01*
X130730666Y-112841000D01*
X130635428Y-113031476D01*
X130635428Y-113317190D01*
X130730666Y-113507666D01*
X130825904Y-113602904D01*
X131968761Y-111793380D02*
X130635428Y-111793380D01*
X131016380Y-111793380D02*
X130825904Y-111698142D01*
X130730666Y-111602904D01*
X130635428Y-111412428D01*
X130635428Y-111221952D01*
X131968761Y-110555285D02*
X130635428Y-110555285D01*
X129968761Y-110555285D02*
X130064000Y-110650523D01*
X130159238Y-110555285D01*
X130064000Y-110460047D01*
X129968761Y-110555285D01*
X130159238Y-110555285D01*
X131873523Y-109698142D02*
X131968761Y-109507666D01*
X131968761Y-109126714D01*
X131873523Y-108936238D01*
X131683047Y-108841000D01*
X131587809Y-108841000D01*
X131397333Y-108936238D01*
X131302095Y-109126714D01*
X131302095Y-109412428D01*
X131206857Y-109602904D01*
X131016380Y-109698142D01*
X130921142Y-109698142D01*
X130730666Y-109602904D01*
X130635428Y-109412428D01*
X130635428Y-109126714D01*
X130730666Y-108936238D01*
X130635428Y-108269571D02*
X130635428Y-107507666D01*
X129968761Y-107983857D02*
X131683047Y-107983857D01*
X131873523Y-107888619D01*
X131968761Y-107698142D01*
X131968761Y-107507666D01*
X131968761Y-106841000D02*
X130635428Y-106841000D01*
X129968761Y-106841000D02*
X130064000Y-106936238D01*
X130159238Y-106841000D01*
X130064000Y-106745761D01*
X129968761Y-106841000D01*
X130159238Y-106841000D01*
X131968761Y-105031476D02*
X130921142Y-105031476D01*
X130730666Y-105126714D01*
X130635428Y-105317190D01*
X130635428Y-105698142D01*
X130730666Y-105888619D01*
X131873523Y-105031476D02*
X131968761Y-105221952D01*
X131968761Y-105698142D01*
X131873523Y-105888619D01*
X131683047Y-105983857D01*
X131492571Y-105983857D01*
X131302095Y-105888619D01*
X131206857Y-105698142D01*
X131206857Y-105221952D01*
X131111619Y-105031476D01*
X130635428Y-104079095D02*
X131968761Y-104079095D01*
X130825904Y-104079095D02*
X130730666Y-103983857D01*
X130635428Y-103793380D01*
X130635428Y-103507666D01*
X130730666Y-103317190D01*
X130921142Y-103221952D01*
X131968761Y-103221952D01*
X129968761Y-100936238D02*
X131968761Y-100460047D01*
X130540190Y-100079095D01*
X131968761Y-99698142D01*
X129968761Y-99221952D01*
X131968761Y-98460047D02*
X130635428Y-98460047D01*
X129968761Y-98460047D02*
X130064000Y-98555285D01*
X130159238Y-98460047D01*
X130064000Y-98364809D01*
X129968761Y-98460047D01*
X130159238Y-98460047D01*
X131968761Y-97221952D02*
X131873523Y-97412428D01*
X131683047Y-97507666D01*
X129968761Y-97507666D01*
X131968761Y-96174333D02*
X131873523Y-96364809D01*
X131683047Y-96460047D01*
X129968761Y-96460047D01*
X131968761Y-95412428D02*
X130635428Y-95412428D01*
X129968761Y-95412428D02*
X130064000Y-95507666D01*
X130159238Y-95412428D01*
X130064000Y-95317190D01*
X129968761Y-95412428D01*
X130159238Y-95412428D01*
X131968761Y-93602904D02*
X130921142Y-93602904D01*
X130730666Y-93698142D01*
X130635428Y-93888619D01*
X130635428Y-94269571D01*
X130730666Y-94460047D01*
X131873523Y-93602904D02*
X131968761Y-93793380D01*
X131968761Y-94269571D01*
X131873523Y-94460047D01*
X131683047Y-94555285D01*
X131492571Y-94555285D01*
X131302095Y-94460047D01*
X131206857Y-94269571D01*
X131206857Y-93793380D01*
X131111619Y-93602904D01*
X131968761Y-92650523D02*
X130635428Y-92650523D01*
X130825904Y-92650523D02*
X130730666Y-92555285D01*
X130635428Y-92364809D01*
X130635428Y-92079095D01*
X130730666Y-91888619D01*
X130921142Y-91793380D01*
X131968761Y-91793380D01*
X130921142Y-91793380D02*
X130730666Y-91698142D01*
X130635428Y-91507666D01*
X130635428Y-91221952D01*
X130730666Y-91031476D01*
X130921142Y-90936238D01*
X131968761Y-90936238D01*
X131873523Y-90079095D02*
X131968761Y-89888619D01*
X131968761Y-89507666D01*
X131873523Y-89317190D01*
X131683047Y-89221952D01*
X131587809Y-89221952D01*
X131397333Y-89317190D01*
X131302095Y-89507666D01*
X131302095Y-89793380D01*
X131206857Y-89983857D01*
X131016380Y-90079095D01*
X130921142Y-90079095D01*
X130730666Y-89983857D01*
X130635428Y-89793380D01*
X130635428Y-89507666D01*
X130730666Y-89317190D01*
X134141142Y-129031476D02*
X134141142Y-128364809D01*
X135188761Y-128079095D02*
X135188761Y-129031476D01*
X133188761Y-129031476D01*
X133188761Y-128079095D01*
X135188761Y-127221952D02*
X133188761Y-127221952D01*
X135188761Y-126079095D01*
X133188761Y-126079095D01*
X133284000Y-124079095D02*
X133188761Y-124269571D01*
X133188761Y-124555285D01*
X133284000Y-124840999D01*
X133474476Y-125031476D01*
X133664952Y-125126714D01*
X134045904Y-125221952D01*
X134331619Y-125221952D01*
X134712571Y-125126714D01*
X134903047Y-125031476D01*
X135093523Y-124840999D01*
X135188761Y-124555285D01*
X135188761Y-124364809D01*
X135093523Y-124079095D01*
X134998285Y-123983857D01*
X134331619Y-123983857D01*
X134331619Y-124364809D01*
X135188761Y-121983857D02*
X134236380Y-122650523D01*
X135188761Y-123126714D02*
X133188761Y-123126714D01*
X133188761Y-122364809D01*
X133284000Y-122174333D01*
X133379238Y-122079095D01*
X133569714Y-121983857D01*
X133855428Y-121983857D01*
X134045904Y-122079095D01*
X134141142Y-122174333D01*
X134236380Y-122364809D01*
X134236380Y-123126714D01*
X133188761Y-119793380D02*
X133188761Y-118555285D01*
X133950666Y-119221952D01*
X133950666Y-118936238D01*
X134045904Y-118745761D01*
X134141142Y-118650523D01*
X134331619Y-118555285D01*
X134807809Y-118555285D01*
X134998285Y-118650523D01*
X135093523Y-118745761D01*
X135188761Y-118936238D01*
X135188761Y-119507666D01*
X135093523Y-119698142D01*
X134998285Y-119793380D01*
X133188761Y-116745761D02*
X133188761Y-117698142D01*
X134141142Y-117793380D01*
X134045904Y-117698142D01*
X133950666Y-117507666D01*
X133950666Y-117031476D01*
X134045904Y-116840999D01*
X134141142Y-116745761D01*
X134331619Y-116650523D01*
X134807809Y-116650523D01*
X134998285Y-116745761D01*
X135093523Y-116840999D01*
X135188761Y-117031476D01*
X135188761Y-117507666D01*
X135093523Y-117698142D01*
X134998285Y-117793380D01*
X133188761Y-115983857D02*
X133188761Y-114650523D01*
X135188761Y-115507666D01*
X134426857Y-112364809D02*
X134426857Y-110841000D01*
X134141142Y-108364809D02*
X134141142Y-107698142D01*
X135188761Y-107412428D02*
X135188761Y-108364809D01*
X133188761Y-108364809D01*
X133188761Y-107412428D01*
X135188761Y-106269571D02*
X135093523Y-106460047D01*
X134903047Y-106555285D01*
X133188761Y-106555285D01*
X135093523Y-104745761D02*
X135188761Y-104936238D01*
X135188761Y-105317190D01*
X135093523Y-105507666D01*
X134903047Y-105602904D01*
X134141142Y-105602904D01*
X133950666Y-105507666D01*
X133855428Y-105317190D01*
X133855428Y-104936238D01*
X133950666Y-104745761D01*
X134141142Y-104650523D01*
X134331619Y-104650523D01*
X134522095Y-105602904D01*
X135093523Y-102936238D02*
X135188761Y-103126714D01*
X135188761Y-103507666D01*
X135093523Y-103698142D01*
X134998285Y-103793380D01*
X134807809Y-103888619D01*
X134236380Y-103888619D01*
X134045904Y-103793380D01*
X133950666Y-103698142D01*
X133855428Y-103507666D01*
X133855428Y-103126714D01*
X133950666Y-102936238D01*
X133855428Y-102364809D02*
X133855428Y-101602904D01*
X133188761Y-102079095D02*
X134903047Y-102079095D01*
X135093523Y-101983857D01*
X135188761Y-101793380D01*
X135188761Y-101602904D01*
X135188761Y-100936238D02*
X133855428Y-100936238D01*
X134236380Y-100936238D02*
X134045904Y-100841000D01*
X133950666Y-100745761D01*
X133855428Y-100555285D01*
X133855428Y-100364809D01*
X135188761Y-99412428D02*
X135093523Y-99602904D01*
X134998285Y-99698142D01*
X134807809Y-99793380D01*
X134236380Y-99793380D01*
X134045904Y-99698142D01*
X133950666Y-99602904D01*
X133855428Y-99412428D01*
X133855428Y-99126714D01*
X133950666Y-98936238D01*
X134045904Y-98841000D01*
X134236380Y-98745761D01*
X134807809Y-98745761D01*
X134998285Y-98841000D01*
X135093523Y-98936238D01*
X135188761Y-99126714D01*
X135188761Y-99412428D01*
X133855428Y-97888619D02*
X135188761Y-97888619D01*
X134045904Y-97888619D02*
X133950666Y-97793380D01*
X133855428Y-97602904D01*
X133855428Y-97317190D01*
X133950666Y-97126714D01*
X134141142Y-97031476D01*
X135188761Y-97031476D01*
X135188761Y-96079095D02*
X133855428Y-96079095D01*
X133188761Y-96079095D02*
X133284000Y-96174333D01*
X133379238Y-96079095D01*
X133284000Y-95983857D01*
X133188761Y-96079095D01*
X133379238Y-96079095D01*
X135093523Y-94269571D02*
X135188761Y-94460047D01*
X135188761Y-94841000D01*
X135093523Y-95031476D01*
X134998285Y-95126714D01*
X134807809Y-95221952D01*
X134236380Y-95221952D01*
X134045904Y-95126714D01*
X133950666Y-95031476D01*
X133855428Y-94841000D01*
X133855428Y-94460047D01*
X133950666Y-94269571D01*
X135093523Y-93507666D02*
X135188761Y-93317190D01*
X135188761Y-92936238D01*
X135093523Y-92745761D01*
X134903047Y-92650523D01*
X134807809Y-92650523D01*
X134617333Y-92745761D01*
X134522095Y-92936238D01*
X134522095Y-93221952D01*
X134426857Y-93412428D01*
X134236380Y-93507666D01*
X134141142Y-93507666D01*
X133950666Y-93412428D01*
X133855428Y-93221952D01*
X133855428Y-92936238D01*
X133950666Y-92745761D01*
X135188761Y-90269571D02*
X133188761Y-90269571D01*
X135188761Y-89317190D02*
X133188761Y-89317190D01*
D10*
X111109523Y-104862380D02*
X111300000Y-104862380D01*
X111395238Y-104910000D01*
X111490476Y-105005238D01*
X111538095Y-105195714D01*
X111538095Y-105529047D01*
X111490476Y-105719523D01*
X111395238Y-105814761D01*
X111300000Y-105862380D01*
X111109523Y-105862380D01*
X111014285Y-105814761D01*
X110919047Y-105719523D01*
X110871428Y-105529047D01*
X110871428Y-105195714D01*
X110919047Y-105005238D01*
X111014285Y-104910000D01*
X111109523Y-104862380D01*
X111919047Y-105814761D02*
X112014285Y-105862380D01*
X112204761Y-105862380D01*
X112300000Y-105814761D01*
X112347619Y-105719523D01*
X112347619Y-105671904D01*
X112300000Y-105576666D01*
X112204761Y-105529047D01*
X112061904Y-105529047D01*
X111966666Y-105481428D01*
X111919047Y-105386190D01*
X111919047Y-105338571D01*
X111966666Y-105243333D01*
X112061904Y-105195714D01*
X112204761Y-105195714D01*
X112300000Y-105243333D01*
X113204761Y-105814761D02*
X113109523Y-105862380D01*
X112919047Y-105862380D01*
X112823809Y-105814761D01*
X112776190Y-105767142D01*
X112728571Y-105671904D01*
X112728571Y-105386190D01*
X112776190Y-105290952D01*
X112823809Y-105243333D01*
X112919047Y-105195714D01*
X113109523Y-105195714D01*
X113204761Y-105243333D01*
X113633333Y-105862380D02*
X113633333Y-105195714D01*
X113633333Y-104862380D02*
X113585714Y-104910000D01*
X113633333Y-104957619D01*
X113680952Y-104910000D01*
X113633333Y-104862380D01*
X113633333Y-104957619D01*
X114252380Y-105862380D02*
X114157142Y-105814761D01*
X114109523Y-105719523D01*
X114109523Y-104862380D01*
X114776190Y-105862380D02*
X114680952Y-105814761D01*
X114633333Y-105719523D01*
X114633333Y-104862380D01*
X115585714Y-105862380D02*
X115585714Y-105338571D01*
X115538095Y-105243333D01*
X115442857Y-105195714D01*
X115252380Y-105195714D01*
X115157142Y-105243333D01*
X115585714Y-105814761D02*
X115490476Y-105862380D01*
X115252380Y-105862380D01*
X115157142Y-105814761D01*
X115109523Y-105719523D01*
X115109523Y-105624285D01*
X115157142Y-105529047D01*
X115252380Y-105481428D01*
X115490476Y-105481428D01*
X115585714Y-105433809D01*
X115919047Y-105195714D02*
X116300000Y-105195714D01*
X116061904Y-104862380D02*
X116061904Y-105719523D01*
X116109523Y-105814761D01*
X116204761Y-105862380D01*
X116300000Y-105862380D01*
X116776190Y-105862380D02*
X116680952Y-105814761D01*
X116633333Y-105767142D01*
X116585714Y-105671904D01*
X116585714Y-105386190D01*
X116633333Y-105290952D01*
X116680952Y-105243333D01*
X116776190Y-105195714D01*
X116919047Y-105195714D01*
X117014285Y-105243333D01*
X117061904Y-105290952D01*
X117109523Y-105386190D01*
X117109523Y-105671904D01*
X117061904Y-105767142D01*
X117014285Y-105814761D01*
X116919047Y-105862380D01*
X116776190Y-105862380D01*
X117538095Y-105862380D02*
X117538095Y-105195714D01*
X117538095Y-105386190D02*
X117585714Y-105290952D01*
X117633333Y-105243333D01*
X117728571Y-105195714D01*
X117823809Y-105195714D01*
%TO.C,A1*%
X124626666Y-135344285D02*
X124626666Y-134868095D01*
X124912380Y-135439523D02*
X123912380Y-135106190D01*
X124912380Y-134772857D01*
X124912380Y-133915714D02*
X124912380Y-134487142D01*
X124912380Y-134201428D02*
X123912380Y-134201428D01*
X124055238Y-134296666D01*
X124150476Y-134391904D01*
X124198095Y-134487142D01*
%TO.C,TP3*%
X91651295Y-93288580D02*
X92222723Y-93288580D01*
X91937009Y-94288580D02*
X91937009Y-93288580D01*
X92556057Y-94288580D02*
X92556057Y-93288580D01*
X92937009Y-93288580D01*
X93032247Y-93336200D01*
X93079866Y-93383819D01*
X93127485Y-93479057D01*
X93127485Y-93621914D01*
X93079866Y-93717152D01*
X93032247Y-93764771D01*
X92937009Y-93812390D01*
X92556057Y-93812390D01*
X93460819Y-93288580D02*
X94079866Y-93288580D01*
X93746533Y-93669533D01*
X93889390Y-93669533D01*
X93984628Y-93717152D01*
X94032247Y-93764771D01*
X94079866Y-93860009D01*
X94079866Y-94098104D01*
X94032247Y-94193342D01*
X93984628Y-94240961D01*
X93889390Y-94288580D01*
X93603676Y-94288580D01*
X93508438Y-94240961D01*
X93460819Y-94193342D01*
%TO.C,C11*%
X99848942Y-84183457D02*
X99896561Y-84231076D01*
X99944180Y-84373933D01*
X99944180Y-84469171D01*
X99896561Y-84612028D01*
X99801323Y-84707266D01*
X99706085Y-84754885D01*
X99515609Y-84802504D01*
X99372752Y-84802504D01*
X99182276Y-84754885D01*
X99087038Y-84707266D01*
X98991800Y-84612028D01*
X98944180Y-84469171D01*
X98944180Y-84373933D01*
X98991800Y-84231076D01*
X99039419Y-84183457D01*
X99944180Y-83231076D02*
X99944180Y-83802504D01*
X99944180Y-83516790D02*
X98944180Y-83516790D01*
X99087038Y-83612028D01*
X99182276Y-83707266D01*
X99229895Y-83802504D01*
X99944180Y-82278695D02*
X99944180Y-82850123D01*
X99944180Y-82564409D02*
X98944180Y-82564409D01*
X99087038Y-82659647D01*
X99182276Y-82754885D01*
X99229895Y-82850123D01*
%TO.C,C10*%
X99841842Y-88323657D02*
X99889461Y-88371276D01*
X99937080Y-88514133D01*
X99937080Y-88609371D01*
X99889461Y-88752228D01*
X99794223Y-88847466D01*
X99698985Y-88895085D01*
X99508509Y-88942704D01*
X99365652Y-88942704D01*
X99175176Y-88895085D01*
X99079938Y-88847466D01*
X98984700Y-88752228D01*
X98937080Y-88609371D01*
X98937080Y-88514133D01*
X98984700Y-88371276D01*
X99032319Y-88323657D01*
X99937080Y-87371276D02*
X99937080Y-87942704D01*
X99937080Y-87656990D02*
X98937080Y-87656990D01*
X99079938Y-87752228D01*
X99175176Y-87847466D01*
X99222795Y-87942704D01*
X98937080Y-86752228D02*
X98937080Y-86656990D01*
X98984700Y-86561752D01*
X99032319Y-86514133D01*
X99127557Y-86466514D01*
X99318033Y-86418895D01*
X99556128Y-86418895D01*
X99746604Y-86466514D01*
X99841842Y-86514133D01*
X99889461Y-86561752D01*
X99937080Y-86656990D01*
X99937080Y-86752228D01*
X99889461Y-86847466D01*
X99841842Y-86895085D01*
X99746604Y-86942704D01*
X99556128Y-86990323D01*
X99318033Y-86990323D01*
X99127557Y-86942704D01*
X99032319Y-86895085D01*
X98984700Y-86847466D01*
X98937080Y-86752228D01*
%TO.C,J2*%
X141858380Y-58352125D02*
X142572992Y-58352125D01*
X142715915Y-58399766D01*
X142811196Y-58495048D01*
X142858837Y-58637970D01*
X142858837Y-58733252D01*
X141953662Y-57923358D02*
X141906021Y-57875717D01*
X141858380Y-57780435D01*
X141858380Y-57542231D01*
X141906021Y-57446950D01*
X141953662Y-57399309D01*
X142048943Y-57351668D01*
X142144225Y-57351668D01*
X142287147Y-57399309D01*
X142858837Y-57970999D01*
X142858837Y-57351668D01*
%TO.C,C16*%
X100023142Y-76157057D02*
X100070761Y-76204676D01*
X100118380Y-76347533D01*
X100118380Y-76442771D01*
X100070761Y-76585628D01*
X99975523Y-76680866D01*
X99880285Y-76728485D01*
X99689809Y-76776104D01*
X99546952Y-76776104D01*
X99356476Y-76728485D01*
X99261238Y-76680866D01*
X99166000Y-76585628D01*
X99118380Y-76442771D01*
X99118380Y-76347533D01*
X99166000Y-76204676D01*
X99213619Y-76157057D01*
X100118380Y-75204676D02*
X100118380Y-75776104D01*
X100118380Y-75490390D02*
X99118380Y-75490390D01*
X99261238Y-75585628D01*
X99356476Y-75680866D01*
X99404095Y-75776104D01*
X99118380Y-74347533D02*
X99118380Y-74538009D01*
X99166000Y-74633247D01*
X99213619Y-74680866D01*
X99356476Y-74776104D01*
X99546952Y-74823723D01*
X99927904Y-74823723D01*
X100023142Y-74776104D01*
X100070761Y-74728485D01*
X100118380Y-74633247D01*
X100118380Y-74442771D01*
X100070761Y-74347533D01*
X100023142Y-74299914D01*
X99927904Y-74252295D01*
X99689809Y-74252295D01*
X99594571Y-74299914D01*
X99546952Y-74347533D01*
X99499333Y-74442771D01*
X99499333Y-74633247D01*
X99546952Y-74728485D01*
X99594571Y-74776104D01*
X99689809Y-74823723D01*
%TO.C,C1*%
X108717142Y-54776666D02*
X108764761Y-54824285D01*
X108812380Y-54967142D01*
X108812380Y-55062380D01*
X108764761Y-55205238D01*
X108669523Y-55300476D01*
X108574285Y-55348095D01*
X108383809Y-55395714D01*
X108240952Y-55395714D01*
X108050476Y-55348095D01*
X107955238Y-55300476D01*
X107860000Y-55205238D01*
X107812380Y-55062380D01*
X107812380Y-54967142D01*
X107860000Y-54824285D01*
X107907619Y-54776666D01*
X108812380Y-53824285D02*
X108812380Y-54395714D01*
X108812380Y-54110000D02*
X107812380Y-54110000D01*
X107955238Y-54205238D01*
X108050476Y-54300476D01*
X108098095Y-54395714D01*
%TO.C,C24*%
X113911142Y-148849142D02*
X113863523Y-148896761D01*
X113720666Y-148944380D01*
X113625428Y-148944380D01*
X113482571Y-148896761D01*
X113387333Y-148801523D01*
X113339714Y-148706285D01*
X113292095Y-148515809D01*
X113292095Y-148372952D01*
X113339714Y-148182476D01*
X113387333Y-148087238D01*
X113482571Y-147992000D01*
X113625428Y-147944380D01*
X113720666Y-147944380D01*
X113863523Y-147992000D01*
X113911142Y-148039619D01*
X114292095Y-148039619D02*
X114339714Y-147992000D01*
X114434952Y-147944380D01*
X114673047Y-147944380D01*
X114768285Y-147992000D01*
X114815904Y-148039619D01*
X114863523Y-148134857D01*
X114863523Y-148230095D01*
X114815904Y-148372952D01*
X114244476Y-148944380D01*
X114863523Y-148944380D01*
X115720666Y-148277714D02*
X115720666Y-148944380D01*
X115482571Y-147896761D02*
X115244476Y-148611047D01*
X115863523Y-148611047D01*
%TO.C,C26*%
X141660942Y-78199257D02*
X141708561Y-78246876D01*
X141756180Y-78389733D01*
X141756180Y-78484971D01*
X141708561Y-78627828D01*
X141613323Y-78723066D01*
X141518085Y-78770685D01*
X141327609Y-78818304D01*
X141184752Y-78818304D01*
X140994276Y-78770685D01*
X140899038Y-78723066D01*
X140803800Y-78627828D01*
X140756180Y-78484971D01*
X140756180Y-78389733D01*
X140803800Y-78246876D01*
X140851419Y-78199257D01*
X140851419Y-77818304D02*
X140803800Y-77770685D01*
X140756180Y-77675447D01*
X140756180Y-77437352D01*
X140803800Y-77342114D01*
X140851419Y-77294495D01*
X140946657Y-77246876D01*
X141041895Y-77246876D01*
X141184752Y-77294495D01*
X141756180Y-77865923D01*
X141756180Y-77246876D01*
X140756180Y-76389733D02*
X140756180Y-76580209D01*
X140803800Y-76675447D01*
X140851419Y-76723066D01*
X140994276Y-76818304D01*
X141184752Y-76865923D01*
X141565704Y-76865923D01*
X141660942Y-76818304D01*
X141708561Y-76770685D01*
X141756180Y-76675447D01*
X141756180Y-76484971D01*
X141708561Y-76389733D01*
X141660942Y-76342114D01*
X141565704Y-76294495D01*
X141327609Y-76294495D01*
X141232371Y-76342114D01*
X141184752Y-76389733D01*
X141137133Y-76484971D01*
X141137133Y-76675447D01*
X141184752Y-76770685D01*
X141232371Y-76818304D01*
X141327609Y-76865923D01*
%TO.C,L1*%
X95083333Y-52522380D02*
X94607142Y-52522380D01*
X94607142Y-51522380D01*
X95940476Y-52522380D02*
X95369047Y-52522380D01*
X95654761Y-52522380D02*
X95654761Y-51522380D01*
X95559523Y-51665238D01*
X95464285Y-51760476D01*
X95369047Y-51808095D01*
%TO.C,TP1*%
X109228095Y-57144380D02*
X109799523Y-57144380D01*
X109513809Y-58144380D02*
X109513809Y-57144380D01*
X110132857Y-58144380D02*
X110132857Y-57144380D01*
X110513809Y-57144380D01*
X110609047Y-57192000D01*
X110656666Y-57239619D01*
X110704285Y-57334857D01*
X110704285Y-57477714D01*
X110656666Y-57572952D01*
X110609047Y-57620571D01*
X110513809Y-57668190D01*
X110132857Y-57668190D01*
X111656666Y-58144380D02*
X111085238Y-58144380D01*
X111370952Y-58144380D02*
X111370952Y-57144380D01*
X111275714Y-57287238D01*
X111180476Y-57382476D01*
X111085238Y-57430095D01*
%TO.C,U3*%
X114376295Y-88526580D02*
X114376295Y-89336104D01*
X114423914Y-89431342D01*
X114471533Y-89478961D01*
X114566771Y-89526580D01*
X114757247Y-89526580D01*
X114852485Y-89478961D01*
X114900104Y-89431342D01*
X114947723Y-89336104D01*
X114947723Y-88526580D01*
X115328676Y-88526580D02*
X115947723Y-88526580D01*
X115614390Y-88907533D01*
X115757247Y-88907533D01*
X115852485Y-88955152D01*
X115900104Y-89002771D01*
X115947723Y-89098009D01*
X115947723Y-89336104D01*
X115900104Y-89431342D01*
X115852485Y-89478961D01*
X115757247Y-89526580D01*
X115471533Y-89526580D01*
X115376295Y-89478961D01*
X115328676Y-89431342D01*
%TO.C,R3*%
X124344133Y-59558180D02*
X124010800Y-59081990D01*
X123772704Y-59558180D02*
X123772704Y-58558180D01*
X124153657Y-58558180D01*
X124248895Y-58605800D01*
X124296514Y-58653419D01*
X124344133Y-58748657D01*
X124344133Y-58891514D01*
X124296514Y-58986752D01*
X124248895Y-59034371D01*
X124153657Y-59081990D01*
X123772704Y-59081990D01*
X124677466Y-58558180D02*
X125296514Y-58558180D01*
X124963180Y-58939133D01*
X125106038Y-58939133D01*
X125201276Y-58986752D01*
X125248895Y-59034371D01*
X125296514Y-59129609D01*
X125296514Y-59367704D01*
X125248895Y-59462942D01*
X125201276Y-59510561D01*
X125106038Y-59558180D01*
X124820323Y-59558180D01*
X124725085Y-59510561D01*
X124677466Y-59462942D01*
%TO.C,TP15*%
X109412304Y-115166180D02*
X109983733Y-115166180D01*
X109698019Y-116166180D02*
X109698019Y-115166180D01*
X110317066Y-116166180D02*
X110317066Y-115166180D01*
X110698019Y-115166180D01*
X110793257Y-115213800D01*
X110840876Y-115261419D01*
X110888495Y-115356657D01*
X110888495Y-115499514D01*
X110840876Y-115594752D01*
X110793257Y-115642371D01*
X110698019Y-115689990D01*
X110317066Y-115689990D01*
X111840876Y-116166180D02*
X111269447Y-116166180D01*
X111555161Y-116166180D02*
X111555161Y-115166180D01*
X111459923Y-115309038D01*
X111364685Y-115404276D01*
X111269447Y-115451895D01*
X112745638Y-115166180D02*
X112269447Y-115166180D01*
X112221828Y-115642371D01*
X112269447Y-115594752D01*
X112364685Y-115547133D01*
X112602780Y-115547133D01*
X112698019Y-115594752D01*
X112745638Y-115642371D01*
X112793257Y-115737609D01*
X112793257Y-115975704D01*
X112745638Y-116070942D01*
X112698019Y-116118561D01*
X112602780Y-116166180D01*
X112364685Y-116166180D01*
X112269447Y-116118561D01*
X112221828Y-116070942D01*
%TO.C,TP11*%
X137682504Y-66313780D02*
X138253933Y-66313780D01*
X137968219Y-67313780D02*
X137968219Y-66313780D01*
X138587266Y-67313780D02*
X138587266Y-66313780D01*
X138968219Y-66313780D01*
X139063457Y-66361400D01*
X139111076Y-66409019D01*
X139158695Y-66504257D01*
X139158695Y-66647114D01*
X139111076Y-66742352D01*
X139063457Y-66789971D01*
X138968219Y-66837590D01*
X138587266Y-66837590D01*
X140111076Y-67313780D02*
X139539647Y-67313780D01*
X139825361Y-67313780D02*
X139825361Y-66313780D01*
X139730123Y-66456638D01*
X139634885Y-66551876D01*
X139539647Y-66599495D01*
X141063457Y-67313780D02*
X140492028Y-67313780D01*
X140777742Y-67313780D02*
X140777742Y-66313780D01*
X140682504Y-66456638D01*
X140587266Y-66551876D01*
X140492028Y-66599495D01*
%TO.C,C21*%
X103713342Y-122141257D02*
X103760961Y-122188876D01*
X103808580Y-122331733D01*
X103808580Y-122426971D01*
X103760961Y-122569828D01*
X103665723Y-122665066D01*
X103570485Y-122712685D01*
X103380009Y-122760304D01*
X103237152Y-122760304D01*
X103046676Y-122712685D01*
X102951438Y-122665066D01*
X102856200Y-122569828D01*
X102808580Y-122426971D01*
X102808580Y-122331733D01*
X102856200Y-122188876D01*
X102903819Y-122141257D01*
X102903819Y-121760304D02*
X102856200Y-121712685D01*
X102808580Y-121617447D01*
X102808580Y-121379352D01*
X102856200Y-121284114D01*
X102903819Y-121236495D01*
X102999057Y-121188876D01*
X103094295Y-121188876D01*
X103237152Y-121236495D01*
X103808580Y-121807923D01*
X103808580Y-121188876D01*
X103808580Y-120236495D02*
X103808580Y-120807923D01*
X103808580Y-120522209D02*
X102808580Y-120522209D01*
X102951438Y-120617447D01*
X103046676Y-120712685D01*
X103094295Y-120807923D01*
%TO.C,R7*%
X103084333Y-78489980D02*
X102751000Y-78013790D01*
X102512904Y-78489980D02*
X102512904Y-77489980D01*
X102893857Y-77489980D01*
X102989095Y-77537600D01*
X103036714Y-77585219D01*
X103084333Y-77680457D01*
X103084333Y-77823314D01*
X103036714Y-77918552D01*
X102989095Y-77966171D01*
X102893857Y-78013790D01*
X102512904Y-78013790D01*
X103417666Y-77489980D02*
X104084333Y-77489980D01*
X103655761Y-78489980D01*
%TO.C,C15*%
X103116142Y-99388142D02*
X103068523Y-99435761D01*
X102925666Y-99483380D01*
X102830428Y-99483380D01*
X102687571Y-99435761D01*
X102592333Y-99340523D01*
X102544714Y-99245285D01*
X102497095Y-99054809D01*
X102497095Y-98911952D01*
X102544714Y-98721476D01*
X102592333Y-98626238D01*
X102687571Y-98531000D01*
X102830428Y-98483380D01*
X102925666Y-98483380D01*
X103068523Y-98531000D01*
X103116142Y-98578619D01*
X104068523Y-99483380D02*
X103497095Y-99483380D01*
X103782809Y-99483380D02*
X103782809Y-98483380D01*
X103687571Y-98626238D01*
X103592333Y-98721476D01*
X103497095Y-98769095D01*
X104973285Y-98483380D02*
X104497095Y-98483380D01*
X104449476Y-98959571D01*
X104497095Y-98911952D01*
X104592333Y-98864333D01*
X104830428Y-98864333D01*
X104925666Y-98911952D01*
X104973285Y-98959571D01*
X105020904Y-99054809D01*
X105020904Y-99292904D01*
X104973285Y-99388142D01*
X104925666Y-99435761D01*
X104830428Y-99483380D01*
X104592333Y-99483380D01*
X104497095Y-99435761D01*
X104449476Y-99388142D01*
%TO.C,C6*%
X84821733Y-74699342D02*
X84774114Y-74746961D01*
X84631257Y-74794580D01*
X84536019Y-74794580D01*
X84393161Y-74746961D01*
X84297923Y-74651723D01*
X84250304Y-74556485D01*
X84202685Y-74366009D01*
X84202685Y-74223152D01*
X84250304Y-74032676D01*
X84297923Y-73937438D01*
X84393161Y-73842200D01*
X84536019Y-73794580D01*
X84631257Y-73794580D01*
X84774114Y-73842200D01*
X84821733Y-73889819D01*
X85678876Y-73794580D02*
X85488400Y-73794580D01*
X85393161Y-73842200D01*
X85345542Y-73889819D01*
X85250304Y-74032676D01*
X85202685Y-74223152D01*
X85202685Y-74604104D01*
X85250304Y-74699342D01*
X85297923Y-74746961D01*
X85393161Y-74794580D01*
X85583638Y-74794580D01*
X85678876Y-74746961D01*
X85726495Y-74699342D01*
X85774114Y-74604104D01*
X85774114Y-74366009D01*
X85726495Y-74270771D01*
X85678876Y-74223152D01*
X85583638Y-74175533D01*
X85393161Y-74175533D01*
X85297923Y-74223152D01*
X85250304Y-74270771D01*
X85202685Y-74366009D01*
%TO.C,C3*%
X106322342Y-108700866D02*
X106369961Y-108748485D01*
X106417580Y-108891342D01*
X106417580Y-108986580D01*
X106369961Y-109129438D01*
X106274723Y-109224676D01*
X106179485Y-109272295D01*
X105989009Y-109319914D01*
X105846152Y-109319914D01*
X105655676Y-109272295D01*
X105560438Y-109224676D01*
X105465200Y-109129438D01*
X105417580Y-108986580D01*
X105417580Y-108891342D01*
X105465200Y-108748485D01*
X105512819Y-108700866D01*
X105417580Y-108367533D02*
X105417580Y-107748485D01*
X105798533Y-108081819D01*
X105798533Y-107938961D01*
X105846152Y-107843723D01*
X105893771Y-107796104D01*
X105989009Y-107748485D01*
X106227104Y-107748485D01*
X106322342Y-107796104D01*
X106369961Y-107843723D01*
X106417580Y-107938961D01*
X106417580Y-108224676D01*
X106369961Y-108319914D01*
X106322342Y-108367533D01*
%TO.C,R18*%
X102432380Y-147454857D02*
X101956190Y-147788190D01*
X102432380Y-148026285D02*
X101432380Y-148026285D01*
X101432380Y-147645333D01*
X101480000Y-147550095D01*
X101527619Y-147502476D01*
X101622857Y-147454857D01*
X101765714Y-147454857D01*
X101860952Y-147502476D01*
X101908571Y-147550095D01*
X101956190Y-147645333D01*
X101956190Y-148026285D01*
X102432380Y-146502476D02*
X102432380Y-147073904D01*
X102432380Y-146788190D02*
X101432380Y-146788190D01*
X101575238Y-146883428D01*
X101670476Y-146978666D01*
X101718095Y-147073904D01*
X101860952Y-145931047D02*
X101813333Y-146026285D01*
X101765714Y-146073904D01*
X101670476Y-146121523D01*
X101622857Y-146121523D01*
X101527619Y-146073904D01*
X101480000Y-146026285D01*
X101432380Y-145931047D01*
X101432380Y-145740571D01*
X101480000Y-145645333D01*
X101527619Y-145597714D01*
X101622857Y-145550095D01*
X101670476Y-145550095D01*
X101765714Y-145597714D01*
X101813333Y-145645333D01*
X101860952Y-145740571D01*
X101860952Y-145931047D01*
X101908571Y-146026285D01*
X101956190Y-146073904D01*
X102051428Y-146121523D01*
X102241904Y-146121523D01*
X102337142Y-146073904D01*
X102384761Y-146026285D01*
X102432380Y-145931047D01*
X102432380Y-145740571D01*
X102384761Y-145645333D01*
X102337142Y-145597714D01*
X102241904Y-145550095D01*
X102051428Y-145550095D01*
X101956190Y-145597714D01*
X101908571Y-145645333D01*
X101860952Y-145740571D01*
%TO.C,R6*%
X103135133Y-82376180D02*
X102801800Y-81899990D01*
X102563704Y-82376180D02*
X102563704Y-81376180D01*
X102944657Y-81376180D01*
X103039895Y-81423800D01*
X103087514Y-81471419D01*
X103135133Y-81566657D01*
X103135133Y-81709514D01*
X103087514Y-81804752D01*
X103039895Y-81852371D01*
X102944657Y-81899990D01*
X102563704Y-81899990D01*
X103992276Y-81376180D02*
X103801800Y-81376180D01*
X103706561Y-81423800D01*
X103658942Y-81471419D01*
X103563704Y-81614276D01*
X103516085Y-81804752D01*
X103516085Y-82185704D01*
X103563704Y-82280942D01*
X103611323Y-82328561D01*
X103706561Y-82376180D01*
X103897038Y-82376180D01*
X103992276Y-82328561D01*
X104039895Y-82280942D01*
X104087514Y-82185704D01*
X104087514Y-81947609D01*
X104039895Y-81852371D01*
X103992276Y-81804752D01*
X103897038Y-81757133D01*
X103706561Y-81757133D01*
X103611323Y-81804752D01*
X103563704Y-81852371D01*
X103516085Y-81947609D01*
%TO.C,TP4*%
X91244895Y-82239580D02*
X91816323Y-82239580D01*
X91530609Y-83239580D02*
X91530609Y-82239580D01*
X92149657Y-83239580D02*
X92149657Y-82239580D01*
X92530609Y-82239580D01*
X92625847Y-82287200D01*
X92673466Y-82334819D01*
X92721085Y-82430057D01*
X92721085Y-82572914D01*
X92673466Y-82668152D01*
X92625847Y-82715771D01*
X92530609Y-82763390D01*
X92149657Y-82763390D01*
X93578228Y-82572914D02*
X93578228Y-83239580D01*
X93340133Y-82191961D02*
X93102038Y-82906247D01*
X93721085Y-82906247D01*
%TO.C,TP12*%
X128005104Y-66212180D02*
X128576533Y-66212180D01*
X128290819Y-67212180D02*
X128290819Y-66212180D01*
X128909866Y-67212180D02*
X128909866Y-66212180D01*
X129290819Y-66212180D01*
X129386057Y-66259800D01*
X129433676Y-66307419D01*
X129481295Y-66402657D01*
X129481295Y-66545514D01*
X129433676Y-66640752D01*
X129386057Y-66688371D01*
X129290819Y-66735990D01*
X128909866Y-66735990D01*
X130433676Y-67212180D02*
X129862247Y-67212180D01*
X130147961Y-67212180D02*
X130147961Y-66212180D01*
X130052723Y-66355038D01*
X129957485Y-66450276D01*
X129862247Y-66497895D01*
X130814628Y-66307419D02*
X130862247Y-66259800D01*
X130957485Y-66212180D01*
X131195580Y-66212180D01*
X131290819Y-66259800D01*
X131338438Y-66307419D01*
X131386057Y-66402657D01*
X131386057Y-66497895D01*
X131338438Y-66640752D01*
X130767009Y-67212180D01*
X131386057Y-67212180D01*
%TO.C,TP8*%
X128151095Y-79877380D02*
X128722523Y-79877380D01*
X128436809Y-80877380D02*
X128436809Y-79877380D01*
X129055857Y-80877380D02*
X129055857Y-79877380D01*
X129436809Y-79877380D01*
X129532047Y-79925000D01*
X129579666Y-79972619D01*
X129627285Y-80067857D01*
X129627285Y-80210714D01*
X129579666Y-80305952D01*
X129532047Y-80353571D01*
X129436809Y-80401190D01*
X129055857Y-80401190D01*
X130198714Y-80305952D02*
X130103476Y-80258333D01*
X130055857Y-80210714D01*
X130008238Y-80115476D01*
X130008238Y-80067857D01*
X130055857Y-79972619D01*
X130103476Y-79925000D01*
X130198714Y-79877380D01*
X130389190Y-79877380D01*
X130484428Y-79925000D01*
X130532047Y-79972619D01*
X130579666Y-80067857D01*
X130579666Y-80115476D01*
X130532047Y-80210714D01*
X130484428Y-80258333D01*
X130389190Y-80305952D01*
X130198714Y-80305952D01*
X130103476Y-80353571D01*
X130055857Y-80401190D01*
X130008238Y-80496428D01*
X130008238Y-80686904D01*
X130055857Y-80782142D01*
X130103476Y-80829761D01*
X130198714Y-80877380D01*
X130389190Y-80877380D01*
X130484428Y-80829761D01*
X130532047Y-80782142D01*
X130579666Y-80686904D01*
X130579666Y-80496428D01*
X130532047Y-80401190D01*
X130484428Y-80353571D01*
X130389190Y-80305952D01*
%TO.C,R2*%
X120457933Y-59380380D02*
X120124600Y-58904190D01*
X119886504Y-59380380D02*
X119886504Y-58380380D01*
X120267457Y-58380380D01*
X120362695Y-58428000D01*
X120410314Y-58475619D01*
X120457933Y-58570857D01*
X120457933Y-58713714D01*
X120410314Y-58808952D01*
X120362695Y-58856571D01*
X120267457Y-58904190D01*
X119886504Y-58904190D01*
X120838885Y-58475619D02*
X120886504Y-58428000D01*
X120981742Y-58380380D01*
X121219838Y-58380380D01*
X121315076Y-58428000D01*
X121362695Y-58475619D01*
X121410314Y-58570857D01*
X121410314Y-58666095D01*
X121362695Y-58808952D01*
X120791266Y-59380380D01*
X121410314Y-59380380D01*
%TO.C,TP16*%
X80913504Y-95523780D02*
X81484933Y-95523780D01*
X81199219Y-96523780D02*
X81199219Y-95523780D01*
X81818266Y-96523780D02*
X81818266Y-95523780D01*
X82199219Y-95523780D01*
X82294457Y-95571400D01*
X82342076Y-95619019D01*
X82389695Y-95714257D01*
X82389695Y-95857114D01*
X82342076Y-95952352D01*
X82294457Y-95999971D01*
X82199219Y-96047590D01*
X81818266Y-96047590D01*
X83342076Y-96523780D02*
X82770647Y-96523780D01*
X83056361Y-96523780D02*
X83056361Y-95523780D01*
X82961123Y-95666638D01*
X82865885Y-95761876D01*
X82770647Y-95809495D01*
X84199219Y-95523780D02*
X84008742Y-95523780D01*
X83913504Y-95571400D01*
X83865885Y-95619019D01*
X83770647Y-95761876D01*
X83723028Y-95952352D01*
X83723028Y-96333304D01*
X83770647Y-96428542D01*
X83818266Y-96476161D01*
X83913504Y-96523780D01*
X84103980Y-96523780D01*
X84199219Y-96476161D01*
X84246838Y-96428542D01*
X84294457Y-96333304D01*
X84294457Y-96095209D01*
X84246838Y-95999971D01*
X84199219Y-95952352D01*
X84103980Y-95904733D01*
X83913504Y-95904733D01*
X83818266Y-95952352D01*
X83770647Y-95999971D01*
X83723028Y-96095209D01*
%TO.C,C13*%
X99726342Y-116914857D02*
X99773961Y-116962476D01*
X99821580Y-117105333D01*
X99821580Y-117200571D01*
X99773961Y-117343428D01*
X99678723Y-117438666D01*
X99583485Y-117486285D01*
X99393009Y-117533904D01*
X99250152Y-117533904D01*
X99059676Y-117486285D01*
X98964438Y-117438666D01*
X98869200Y-117343428D01*
X98821580Y-117200571D01*
X98821580Y-117105333D01*
X98869200Y-116962476D01*
X98916819Y-116914857D01*
X99821580Y-115962476D02*
X99821580Y-116533904D01*
X99821580Y-116248190D02*
X98821580Y-116248190D01*
X98964438Y-116343428D01*
X99059676Y-116438666D01*
X99107295Y-116533904D01*
X98821580Y-115629142D02*
X98821580Y-115010095D01*
X99202533Y-115343428D01*
X99202533Y-115200571D01*
X99250152Y-115105333D01*
X99297771Y-115057714D01*
X99393009Y-115010095D01*
X99631104Y-115010095D01*
X99726342Y-115057714D01*
X99773961Y-115105333D01*
X99821580Y-115200571D01*
X99821580Y-115486285D01*
X99773961Y-115581523D01*
X99726342Y-115629142D01*
%TO.C,TP13*%
X117489504Y-115242380D02*
X118060933Y-115242380D01*
X117775219Y-116242380D02*
X117775219Y-115242380D01*
X118394266Y-116242380D02*
X118394266Y-115242380D01*
X118775219Y-115242380D01*
X118870457Y-115290000D01*
X118918076Y-115337619D01*
X118965695Y-115432857D01*
X118965695Y-115575714D01*
X118918076Y-115670952D01*
X118870457Y-115718571D01*
X118775219Y-115766190D01*
X118394266Y-115766190D01*
X119918076Y-116242380D02*
X119346647Y-116242380D01*
X119632361Y-116242380D02*
X119632361Y-115242380D01*
X119537123Y-115385238D01*
X119441885Y-115480476D01*
X119346647Y-115528095D01*
X120251409Y-115242380D02*
X120870457Y-115242380D01*
X120537123Y-115623333D01*
X120679980Y-115623333D01*
X120775219Y-115670952D01*
X120822838Y-115718571D01*
X120870457Y-115813809D01*
X120870457Y-116051904D01*
X120822838Y-116147142D01*
X120775219Y-116194761D01*
X120679980Y-116242380D01*
X120394266Y-116242380D01*
X120299028Y-116194761D01*
X120251409Y-116147142D01*
%TO.C,R5*%
X103160533Y-86516380D02*
X102827200Y-86040190D01*
X102589104Y-86516380D02*
X102589104Y-85516380D01*
X102970057Y-85516380D01*
X103065295Y-85564000D01*
X103112914Y-85611619D01*
X103160533Y-85706857D01*
X103160533Y-85849714D01*
X103112914Y-85944952D01*
X103065295Y-85992571D01*
X102970057Y-86040190D01*
X102589104Y-86040190D01*
X104065295Y-85516380D02*
X103589104Y-85516380D01*
X103541485Y-85992571D01*
X103589104Y-85944952D01*
X103684342Y-85897333D01*
X103922438Y-85897333D01*
X104017676Y-85944952D01*
X104065295Y-85992571D01*
X104112914Y-86087809D01*
X104112914Y-86325904D01*
X104065295Y-86421142D01*
X104017676Y-86468761D01*
X103922438Y-86516380D01*
X103684342Y-86516380D01*
X103589104Y-86468761D01*
X103541485Y-86421142D01*
%TO.C,C8*%
X106957342Y-121654866D02*
X107004961Y-121702485D01*
X107052580Y-121845342D01*
X107052580Y-121940580D01*
X107004961Y-122083438D01*
X106909723Y-122178676D01*
X106814485Y-122226295D01*
X106624009Y-122273914D01*
X106481152Y-122273914D01*
X106290676Y-122226295D01*
X106195438Y-122178676D01*
X106100200Y-122083438D01*
X106052580Y-121940580D01*
X106052580Y-121845342D01*
X106100200Y-121702485D01*
X106147819Y-121654866D01*
X106481152Y-121083438D02*
X106433533Y-121178676D01*
X106385914Y-121226295D01*
X106290676Y-121273914D01*
X106243057Y-121273914D01*
X106147819Y-121226295D01*
X106100200Y-121178676D01*
X106052580Y-121083438D01*
X106052580Y-120892961D01*
X106100200Y-120797723D01*
X106147819Y-120750104D01*
X106243057Y-120702485D01*
X106290676Y-120702485D01*
X106385914Y-120750104D01*
X106433533Y-120797723D01*
X106481152Y-120892961D01*
X106481152Y-121083438D01*
X106528771Y-121178676D01*
X106576390Y-121226295D01*
X106671628Y-121273914D01*
X106862104Y-121273914D01*
X106957342Y-121226295D01*
X107004961Y-121178676D01*
X107052580Y-121083438D01*
X107052580Y-120892961D01*
X107004961Y-120797723D01*
X106957342Y-120750104D01*
X106862104Y-120702485D01*
X106671628Y-120702485D01*
X106576390Y-120750104D01*
X106528771Y-120797723D01*
X106481152Y-120892961D01*
%TO.C,J1*%
X89836666Y-69302380D02*
X89836666Y-70016666D01*
X89789047Y-70159523D01*
X89693809Y-70254761D01*
X89550952Y-70302380D01*
X89455714Y-70302380D01*
X90836666Y-70302380D02*
X90265238Y-70302380D01*
X90550952Y-70302380D02*
X90550952Y-69302380D01*
X90455714Y-69445238D01*
X90360476Y-69540476D01*
X90265238Y-69588095D01*
%TO.C,R8*%
X106801180Y-75704366D02*
X106324990Y-76037700D01*
X106801180Y-76275795D02*
X105801180Y-76275795D01*
X105801180Y-75894842D01*
X105848800Y-75799604D01*
X105896419Y-75751985D01*
X105991657Y-75704366D01*
X106134514Y-75704366D01*
X106229752Y-75751985D01*
X106277371Y-75799604D01*
X106324990Y-75894842D01*
X106324990Y-76275795D01*
X106229752Y-75132938D02*
X106182133Y-75228176D01*
X106134514Y-75275795D01*
X106039276Y-75323414D01*
X105991657Y-75323414D01*
X105896419Y-75275795D01*
X105848800Y-75228176D01*
X105801180Y-75132938D01*
X105801180Y-74942461D01*
X105848800Y-74847223D01*
X105896419Y-74799604D01*
X105991657Y-74751985D01*
X106039276Y-74751985D01*
X106134514Y-74799604D01*
X106182133Y-74847223D01*
X106229752Y-74942461D01*
X106229752Y-75132938D01*
X106277371Y-75228176D01*
X106324990Y-75275795D01*
X106420228Y-75323414D01*
X106610704Y-75323414D01*
X106705942Y-75275795D01*
X106753561Y-75228176D01*
X106801180Y-75132938D01*
X106801180Y-74942461D01*
X106753561Y-74847223D01*
X106705942Y-74799604D01*
X106610704Y-74751985D01*
X106420228Y-74751985D01*
X106324990Y-74799604D01*
X106277371Y-74847223D01*
X106229752Y-74942461D01*
%TO.C,C4*%
X112527142Y-54776666D02*
X112574761Y-54824285D01*
X112622380Y-54967142D01*
X112622380Y-55062380D01*
X112574761Y-55205238D01*
X112479523Y-55300476D01*
X112384285Y-55348095D01*
X112193809Y-55395714D01*
X112050952Y-55395714D01*
X111860476Y-55348095D01*
X111765238Y-55300476D01*
X111670000Y-55205238D01*
X111622380Y-55062380D01*
X111622380Y-54967142D01*
X111670000Y-54824285D01*
X111717619Y-54776666D01*
X111955714Y-53919523D02*
X112622380Y-53919523D01*
X111574761Y-54157619D02*
X112289047Y-54395714D01*
X112289047Y-53776666D01*
%TO.C,TP14*%
X113298504Y-115216980D02*
X113869933Y-115216980D01*
X113584219Y-116216980D02*
X113584219Y-115216980D01*
X114203266Y-116216980D02*
X114203266Y-115216980D01*
X114584219Y-115216980D01*
X114679457Y-115264600D01*
X114727076Y-115312219D01*
X114774695Y-115407457D01*
X114774695Y-115550314D01*
X114727076Y-115645552D01*
X114679457Y-115693171D01*
X114584219Y-115740790D01*
X114203266Y-115740790D01*
X115727076Y-116216980D02*
X115155647Y-116216980D01*
X115441361Y-116216980D02*
X115441361Y-115216980D01*
X115346123Y-115359838D01*
X115250885Y-115455076D01*
X115155647Y-115502695D01*
X116584219Y-115550314D02*
X116584219Y-116216980D01*
X116346123Y-115169361D02*
X116108028Y-115883647D01*
X116727076Y-115883647D01*
%TO.C,C5*%
X122108933Y-55754542D02*
X122061314Y-55802161D01*
X121918457Y-55849780D01*
X121823219Y-55849780D01*
X121680361Y-55802161D01*
X121585123Y-55706923D01*
X121537504Y-55611685D01*
X121489885Y-55421209D01*
X121489885Y-55278352D01*
X121537504Y-55087876D01*
X121585123Y-54992638D01*
X121680361Y-54897400D01*
X121823219Y-54849780D01*
X121918457Y-54849780D01*
X122061314Y-54897400D01*
X122108933Y-54945019D01*
X123013695Y-54849780D02*
X122537504Y-54849780D01*
X122489885Y-55325971D01*
X122537504Y-55278352D01*
X122632742Y-55230733D01*
X122870838Y-55230733D01*
X122966076Y-55278352D01*
X123013695Y-55325971D01*
X123061314Y-55421209D01*
X123061314Y-55659304D01*
X123013695Y-55754542D01*
X122966076Y-55802161D01*
X122870838Y-55849780D01*
X122632742Y-55849780D01*
X122537504Y-55802161D01*
X122489885Y-55754542D01*
%TO.C,Y1*%
X120580209Y-105970390D02*
X120580209Y-106446580D01*
X120246876Y-105446580D02*
X120580209Y-105970390D01*
X120913542Y-105446580D01*
X121770685Y-106446580D02*
X121199257Y-106446580D01*
X121484971Y-106446580D02*
X121484971Y-105446580D01*
X121389733Y-105589438D01*
X121294495Y-105684676D01*
X121199257Y-105732295D01*
%TO.C,R4*%
X103211333Y-90377180D02*
X102878000Y-89900990D01*
X102639904Y-90377180D02*
X102639904Y-89377180D01*
X103020857Y-89377180D01*
X103116095Y-89424800D01*
X103163714Y-89472419D01*
X103211333Y-89567657D01*
X103211333Y-89710514D01*
X103163714Y-89805752D01*
X103116095Y-89853371D01*
X103020857Y-89900990D01*
X102639904Y-89900990D01*
X104068476Y-89710514D02*
X104068476Y-90377180D01*
X103830380Y-89329561D02*
X103592285Y-90043847D01*
X104211333Y-90043847D01*
%TO.C,TP7*%
X138387295Y-79750380D02*
X138958723Y-79750380D01*
X138673009Y-80750380D02*
X138673009Y-79750380D01*
X139292057Y-80750380D02*
X139292057Y-79750380D01*
X139673009Y-79750380D01*
X139768247Y-79798000D01*
X139815866Y-79845619D01*
X139863485Y-79940857D01*
X139863485Y-80083714D01*
X139815866Y-80178952D01*
X139768247Y-80226571D01*
X139673009Y-80274190D01*
X139292057Y-80274190D01*
X140196819Y-79750380D02*
X140863485Y-79750380D01*
X140434914Y-80750380D01*
%TO.C,C17*%
X100814142Y-96919057D02*
X100861761Y-96966676D01*
X100909380Y-97109533D01*
X100909380Y-97204771D01*
X100861761Y-97347628D01*
X100766523Y-97442866D01*
X100671285Y-97490485D01*
X100480809Y-97538104D01*
X100337952Y-97538104D01*
X100147476Y-97490485D01*
X100052238Y-97442866D01*
X99957000Y-97347628D01*
X99909380Y-97204771D01*
X99909380Y-97109533D01*
X99957000Y-96966676D01*
X100004619Y-96919057D01*
X100909380Y-95966676D02*
X100909380Y-96538104D01*
X100909380Y-96252390D02*
X99909380Y-96252390D01*
X100052238Y-96347628D01*
X100147476Y-96442866D01*
X100195095Y-96538104D01*
X99909380Y-95633342D02*
X99909380Y-94966676D01*
X100909380Y-95395247D01*
%TO.C,TP6*%
X91143295Y-76651580D02*
X91714723Y-76651580D01*
X91429009Y-77651580D02*
X91429009Y-76651580D01*
X92048057Y-77651580D02*
X92048057Y-76651580D01*
X92429009Y-76651580D01*
X92524247Y-76699200D01*
X92571866Y-76746819D01*
X92619485Y-76842057D01*
X92619485Y-76984914D01*
X92571866Y-77080152D01*
X92524247Y-77127771D01*
X92429009Y-77175390D01*
X92048057Y-77175390D01*
X93476628Y-76651580D02*
X93286152Y-76651580D01*
X93190914Y-76699200D01*
X93143295Y-76746819D01*
X93048057Y-76889676D01*
X93000438Y-77080152D01*
X93000438Y-77461104D01*
X93048057Y-77556342D01*
X93095676Y-77603961D01*
X93190914Y-77651580D01*
X93381390Y-77651580D01*
X93476628Y-77603961D01*
X93524247Y-77556342D01*
X93571866Y-77461104D01*
X93571866Y-77223009D01*
X93524247Y-77127771D01*
X93476628Y-77080152D01*
X93381390Y-77032533D01*
X93190914Y-77032533D01*
X93095676Y-77080152D01*
X93048057Y-77127771D01*
X93000438Y-77223009D01*
%TO.C,C12*%
X99841842Y-80246457D02*
X99889461Y-80294076D01*
X99937080Y-80436933D01*
X99937080Y-80532171D01*
X99889461Y-80675028D01*
X99794223Y-80770266D01*
X99698985Y-80817885D01*
X99508509Y-80865504D01*
X99365652Y-80865504D01*
X99175176Y-80817885D01*
X99079938Y-80770266D01*
X98984700Y-80675028D01*
X98937080Y-80532171D01*
X98937080Y-80436933D01*
X98984700Y-80294076D01*
X99032319Y-80246457D01*
X99937080Y-79294076D02*
X99937080Y-79865504D01*
X99937080Y-79579790D02*
X98937080Y-79579790D01*
X99079938Y-79675028D01*
X99175176Y-79770266D01*
X99222795Y-79865504D01*
X99032319Y-78913123D02*
X98984700Y-78865504D01*
X98937080Y-78770266D01*
X98937080Y-78532171D01*
X98984700Y-78436933D01*
X99032319Y-78389314D01*
X99127557Y-78341695D01*
X99222795Y-78341695D01*
X99365652Y-78389314D01*
X99937080Y-78960742D01*
X99937080Y-78341695D01*
%TO.C,C9*%
X99925142Y-91835266D02*
X99972761Y-91882885D01*
X100020380Y-92025742D01*
X100020380Y-92120980D01*
X99972761Y-92263838D01*
X99877523Y-92359076D01*
X99782285Y-92406695D01*
X99591809Y-92454314D01*
X99448952Y-92454314D01*
X99258476Y-92406695D01*
X99163238Y-92359076D01*
X99068000Y-92263838D01*
X99020380Y-92120980D01*
X99020380Y-92025742D01*
X99068000Y-91882885D01*
X99115619Y-91835266D01*
X100020380Y-91359076D02*
X100020380Y-91168600D01*
X99972761Y-91073361D01*
X99925142Y-91025742D01*
X99782285Y-90930504D01*
X99591809Y-90882885D01*
X99210857Y-90882885D01*
X99115619Y-90930504D01*
X99068000Y-90978123D01*
X99020380Y-91073361D01*
X99020380Y-91263838D01*
X99068000Y-91359076D01*
X99115619Y-91406695D01*
X99210857Y-91454314D01*
X99448952Y-91454314D01*
X99544190Y-91406695D01*
X99591809Y-91359076D01*
X99639428Y-91263838D01*
X99639428Y-91073361D01*
X99591809Y-90978123D01*
X99544190Y-90930504D01*
X99448952Y-90882885D01*
%TO.C,C2*%
X108717142Y-59856666D02*
X108764761Y-59904285D01*
X108812380Y-60047142D01*
X108812380Y-60142380D01*
X108764761Y-60285238D01*
X108669523Y-60380476D01*
X108574285Y-60428095D01*
X108383809Y-60475714D01*
X108240952Y-60475714D01*
X108050476Y-60428095D01*
X107955238Y-60380476D01*
X107860000Y-60285238D01*
X107812380Y-60142380D01*
X107812380Y-60047142D01*
X107860000Y-59904285D01*
X107907619Y-59856666D01*
X107907619Y-59475714D02*
X107860000Y-59428095D01*
X107812380Y-59332857D01*
X107812380Y-59094761D01*
X107860000Y-58999523D01*
X107907619Y-58951904D01*
X108002857Y-58904285D01*
X108098095Y-58904285D01*
X108240952Y-58951904D01*
X108812380Y-59523333D01*
X108812380Y-58904285D01*
%TO.C,TP2*%
X113038095Y-57144380D02*
X113609523Y-57144380D01*
X113323809Y-58144380D02*
X113323809Y-57144380D01*
X113942857Y-58144380D02*
X113942857Y-57144380D01*
X114323809Y-57144380D01*
X114419047Y-57192000D01*
X114466666Y-57239619D01*
X114514285Y-57334857D01*
X114514285Y-57477714D01*
X114466666Y-57572952D01*
X114419047Y-57620571D01*
X114323809Y-57668190D01*
X113942857Y-57668190D01*
X114895238Y-57239619D02*
X114942857Y-57192000D01*
X115038095Y-57144380D01*
X115276190Y-57144380D01*
X115371428Y-57192000D01*
X115419047Y-57239619D01*
X115466666Y-57334857D01*
X115466666Y-57430095D01*
X115419047Y-57572952D01*
X114847619Y-58144380D01*
X115466666Y-58144380D01*
%TO.C,L2*%
X107135833Y-71572380D02*
X106659642Y-71572380D01*
X106659642Y-70572380D01*
X107421547Y-70667619D02*
X107469166Y-70620000D01*
X107564404Y-70572380D01*
X107802500Y-70572380D01*
X107897738Y-70620000D01*
X107945357Y-70667619D01*
X107992976Y-70762857D01*
X107992976Y-70858095D01*
X107945357Y-71000952D01*
X107373928Y-71572380D01*
X107992976Y-71572380D01*
%TO.C,C7*%
X116914142Y-121639666D02*
X116961761Y-121687285D01*
X117009380Y-121830142D01*
X117009380Y-121925380D01*
X116961761Y-122068238D01*
X116866523Y-122163476D01*
X116771285Y-122211095D01*
X116580809Y-122258714D01*
X116437952Y-122258714D01*
X116247476Y-122211095D01*
X116152238Y-122163476D01*
X116057000Y-122068238D01*
X116009380Y-121925380D01*
X116009380Y-121830142D01*
X116057000Y-121687285D01*
X116104619Y-121639666D01*
X116009380Y-121306333D02*
X116009380Y-120639666D01*
X117009380Y-121068238D01*
%TO.C,U1*%
X112903095Y-110586580D02*
X112903095Y-111396104D01*
X112950714Y-111491342D01*
X112998333Y-111538961D01*
X113093571Y-111586580D01*
X113284047Y-111586580D01*
X113379285Y-111538961D01*
X113426904Y-111491342D01*
X113474523Y-111396104D01*
X113474523Y-110586580D01*
X114474523Y-111586580D02*
X113903095Y-111586580D01*
X114188809Y-111586580D02*
X114188809Y-110586580D01*
X114093571Y-110729438D01*
X113998333Y-110824676D01*
X113903095Y-110872295D01*
%TO.C,C14*%
X115194142Y-122115857D02*
X115241761Y-122163476D01*
X115289380Y-122306333D01*
X115289380Y-122401571D01*
X115241761Y-122544428D01*
X115146523Y-122639666D01*
X115051285Y-122687285D01*
X114860809Y-122734904D01*
X114717952Y-122734904D01*
X114527476Y-122687285D01*
X114432238Y-122639666D01*
X114337000Y-122544428D01*
X114289380Y-122401571D01*
X114289380Y-122306333D01*
X114337000Y-122163476D01*
X114384619Y-122115857D01*
X115289380Y-121163476D02*
X115289380Y-121734904D01*
X115289380Y-121449190D02*
X114289380Y-121449190D01*
X114432238Y-121544428D01*
X114527476Y-121639666D01*
X114575095Y-121734904D01*
X114622714Y-120306333D02*
X115289380Y-120306333D01*
X114241761Y-120544428D02*
X114956047Y-120782523D01*
X114956047Y-120163476D01*
%TO.C,TP5*%
X91346495Y-87954580D02*
X91917923Y-87954580D01*
X91632209Y-88954580D02*
X91632209Y-87954580D01*
X92251257Y-88954580D02*
X92251257Y-87954580D01*
X92632209Y-87954580D01*
X92727447Y-88002200D01*
X92775066Y-88049819D01*
X92822685Y-88145057D01*
X92822685Y-88287914D01*
X92775066Y-88383152D01*
X92727447Y-88430771D01*
X92632209Y-88478390D01*
X92251257Y-88478390D01*
X93727447Y-87954580D02*
X93251257Y-87954580D01*
X93203638Y-88430771D01*
X93251257Y-88383152D01*
X93346495Y-88335533D01*
X93584590Y-88335533D01*
X93679828Y-88383152D01*
X93727447Y-88430771D01*
X93775066Y-88526009D01*
X93775066Y-88764104D01*
X93727447Y-88859342D01*
X93679828Y-88906961D01*
X93584590Y-88954580D01*
X93346495Y-88954580D01*
X93251257Y-88906961D01*
X93203638Y-88859342D01*
%TO.C,R20*%
X141751580Y-73437357D02*
X141275390Y-73770690D01*
X141751580Y-74008785D02*
X140751580Y-74008785D01*
X140751580Y-73627833D01*
X140799200Y-73532595D01*
X140846819Y-73484976D01*
X140942057Y-73437357D01*
X141084914Y-73437357D01*
X141180152Y-73484976D01*
X141227771Y-73532595D01*
X141275390Y-73627833D01*
X141275390Y-74008785D01*
X140846819Y-73056404D02*
X140799200Y-73008785D01*
X140751580Y-72913547D01*
X140751580Y-72675452D01*
X140799200Y-72580214D01*
X140846819Y-72532595D01*
X140942057Y-72484976D01*
X141037295Y-72484976D01*
X141180152Y-72532595D01*
X141751580Y-73104023D01*
X141751580Y-72484976D01*
X140751580Y-71865928D02*
X140751580Y-71770690D01*
X140799200Y-71675452D01*
X140846819Y-71627833D01*
X140942057Y-71580214D01*
X141132533Y-71532595D01*
X141370628Y-71532595D01*
X141561104Y-71580214D01*
X141656342Y-71627833D01*
X141703961Y-71675452D01*
X141751580Y-71770690D01*
X141751580Y-71865928D01*
X141703961Y-71961166D01*
X141656342Y-72008785D01*
X141561104Y-72056404D01*
X141370628Y-72104023D01*
X141132533Y-72104023D01*
X140942057Y-72056404D01*
X140846819Y-72008785D01*
X140799200Y-71961166D01*
X140751580Y-71865928D01*
%TO.C,R1*%
X121408180Y-121754566D02*
X120931990Y-122087900D01*
X121408180Y-122325995D02*
X120408180Y-122325995D01*
X120408180Y-121945042D01*
X120455800Y-121849804D01*
X120503419Y-121802185D01*
X120598657Y-121754566D01*
X120741514Y-121754566D01*
X120836752Y-121802185D01*
X120884371Y-121849804D01*
X120931990Y-121945042D01*
X120931990Y-122325995D01*
X121408180Y-120802185D02*
X121408180Y-121373614D01*
X121408180Y-121087900D02*
X120408180Y-121087900D01*
X120551038Y-121183138D01*
X120646276Y-121278376D01*
X120693895Y-121373614D01*
%TO.C,R9*%
X107335580Y-96432666D02*
X106859390Y-96766000D01*
X107335580Y-97004095D02*
X106335580Y-97004095D01*
X106335580Y-96623142D01*
X106383200Y-96527904D01*
X106430819Y-96480285D01*
X106526057Y-96432666D01*
X106668914Y-96432666D01*
X106764152Y-96480285D01*
X106811771Y-96527904D01*
X106859390Y-96623142D01*
X106859390Y-97004095D01*
X107335580Y-95956476D02*
X107335580Y-95766000D01*
X107287961Y-95670761D01*
X107240342Y-95623142D01*
X107097485Y-95527904D01*
X106907009Y-95480285D01*
X106526057Y-95480285D01*
X106430819Y-95527904D01*
X106383200Y-95575523D01*
X106335580Y-95670761D01*
X106335580Y-95861238D01*
X106383200Y-95956476D01*
X106430819Y-96004095D01*
X106526057Y-96051714D01*
X106764152Y-96051714D01*
X106859390Y-96004095D01*
X106907009Y-95956476D01*
X106954628Y-95861238D01*
X106954628Y-95670761D01*
X106907009Y-95575523D01*
X106859390Y-95527904D01*
X106764152Y-95480285D01*
%TO.C,L3*%
X94981733Y-71115180D02*
X94505542Y-71115180D01*
X94505542Y-70115180D01*
X95219828Y-70115180D02*
X95838876Y-70115180D01*
X95505542Y-70496133D01*
X95648400Y-70496133D01*
X95743638Y-70543752D01*
X95791257Y-70591371D01*
X95838876Y-70686609D01*
X95838876Y-70924704D01*
X95791257Y-71019942D01*
X95743638Y-71067561D01*
X95648400Y-71115180D01*
X95362685Y-71115180D01*
X95267447Y-71067561D01*
X95219828Y-71019942D01*
%TO.C,R19*%
X104339380Y-147454857D02*
X103863190Y-147788190D01*
X104339380Y-148026285D02*
X103339380Y-148026285D01*
X103339380Y-147645333D01*
X103387000Y-147550095D01*
X103434619Y-147502476D01*
X103529857Y-147454857D01*
X103672714Y-147454857D01*
X103767952Y-147502476D01*
X103815571Y-147550095D01*
X103863190Y-147645333D01*
X103863190Y-148026285D01*
X104339380Y-146502476D02*
X104339380Y-147073904D01*
X104339380Y-146788190D02*
X103339380Y-146788190D01*
X103482238Y-146883428D01*
X103577476Y-146978666D01*
X103625095Y-147073904D01*
X104339380Y-146026285D02*
X104339380Y-145835809D01*
X104291761Y-145740571D01*
X104244142Y-145692952D01*
X104101285Y-145597714D01*
X103910809Y-145550095D01*
X103529857Y-145550095D01*
X103434619Y-145597714D01*
X103387000Y-145645333D01*
X103339380Y-145740571D01*
X103339380Y-145931047D01*
X103387000Y-146026285D01*
X103434619Y-146073904D01*
X103529857Y-146121523D01*
X103767952Y-146121523D01*
X103863190Y-146073904D01*
X103910809Y-146026285D01*
X103958428Y-145931047D01*
X103958428Y-145740571D01*
X103910809Y-145645333D01*
X103863190Y-145597714D01*
X103767952Y-145550095D01*
%TO.C,U2*%
X84328095Y-78642380D02*
X84328095Y-79451904D01*
X84375714Y-79547142D01*
X84423333Y-79594761D01*
X84518571Y-79642380D01*
X84709047Y-79642380D01*
X84804285Y-79594761D01*
X84851904Y-79547142D01*
X84899523Y-79451904D01*
X84899523Y-78642380D01*
X85328095Y-78737619D02*
X85375714Y-78690000D01*
X85470952Y-78642380D01*
X85709047Y-78642380D01*
X85804285Y-78690000D01*
X85851904Y-78737619D01*
X85899523Y-78832857D01*
X85899523Y-78928095D01*
X85851904Y-79070952D01*
X85280476Y-79642380D01*
X85899523Y-79642380D01*
%TO.C,C27*%
X131643142Y-78294457D02*
X131690761Y-78342076D01*
X131738380Y-78484933D01*
X131738380Y-78580171D01*
X131690761Y-78723028D01*
X131595523Y-78818266D01*
X131500285Y-78865885D01*
X131309809Y-78913504D01*
X131166952Y-78913504D01*
X130976476Y-78865885D01*
X130881238Y-78818266D01*
X130786000Y-78723028D01*
X130738380Y-78580171D01*
X130738380Y-78484933D01*
X130786000Y-78342076D01*
X130833619Y-78294457D01*
X130833619Y-77913504D02*
X130786000Y-77865885D01*
X130738380Y-77770647D01*
X130738380Y-77532552D01*
X130786000Y-77437314D01*
X130833619Y-77389695D01*
X130928857Y-77342076D01*
X131024095Y-77342076D01*
X131166952Y-77389695D01*
X131738380Y-77961123D01*
X131738380Y-77342076D01*
X130738380Y-77008742D02*
X130738380Y-76342076D01*
X131738380Y-76770647D01*
%TO.C,R21*%
X131693180Y-73568157D02*
X131216990Y-73901490D01*
X131693180Y-74139585D02*
X130693180Y-74139585D01*
X130693180Y-73758633D01*
X130740800Y-73663395D01*
X130788419Y-73615776D01*
X130883657Y-73568157D01*
X131026514Y-73568157D01*
X131121752Y-73615776D01*
X131169371Y-73663395D01*
X131216990Y-73758633D01*
X131216990Y-74139585D01*
X130788419Y-73187204D02*
X130740800Y-73139585D01*
X130693180Y-73044347D01*
X130693180Y-72806252D01*
X130740800Y-72711014D01*
X130788419Y-72663395D01*
X130883657Y-72615776D01*
X130978895Y-72615776D01*
X131121752Y-72663395D01*
X131693180Y-73234823D01*
X131693180Y-72615776D01*
X131693180Y-71663395D02*
X131693180Y-72234823D01*
X131693180Y-71949109D02*
X130693180Y-71949109D01*
X130836038Y-72044347D01*
X130931276Y-72139585D01*
X130978895Y-72234823D01*
D13*
%TO.C,A1*%
X118110000Y-128280000D02*
X82550000Y-128280000D01*
X120650000Y-140980000D02*
X82550000Y-140980000D01*
X120650000Y-128280000D02*
X120650000Y-125610000D01*
X118110000Y-128280000D02*
X120650000Y-128280000D01*
X118110000Y-128280000D02*
X118110000Y-125610000D01*
X79880000Y-143650000D02*
X123320000Y-143650000D01*
X79880000Y-125610000D02*
X79880000Y-143650000D01*
X82550000Y-128280000D02*
X82550000Y-125610000D01*
X120650000Y-140980000D02*
X120650000Y-143650000D01*
X118110000Y-125610000D02*
X79880000Y-125610000D01*
X123320000Y-125610000D02*
X120650000Y-125610000D01*
X82550000Y-140980000D02*
X82550000Y-143650000D01*
X123320000Y-143650000D02*
X123320000Y-125610000D01*
%TO.C,TP3*%
X91713200Y-94634200D02*
X94113200Y-94634200D01*
X94113200Y-94634200D02*
X94113200Y-97034200D01*
X94113200Y-97034200D02*
X91713200Y-97034200D01*
X91713200Y-97034200D02*
X91713200Y-94634200D01*
%TO.C,C11*%
X97069700Y-83355548D02*
X97069700Y-83878052D01*
X98539700Y-83355548D02*
X98539700Y-83878052D01*
%TO.C,C10*%
X98539700Y-87419548D02*
X98539700Y-87942052D01*
X97069700Y-87419548D02*
X97069700Y-87942052D01*
D14*
%TO.C,J2*%
X137467600Y-51843800D02*
X131467600Y-51843800D01*
X140667600Y-54843800D02*
X138967600Y-54843800D01*
X131467600Y-51843800D02*
X131467600Y-53843800D01*
X138967600Y-54843800D02*
X138967600Y-53843800D01*
X137467600Y-53843800D02*
X137467600Y-51843800D01*
X140667600Y-65843800D02*
X128267600Y-65843800D01*
X137467600Y-53843800D02*
X131467600Y-53843800D01*
X138967600Y-53843800D02*
X137467600Y-53843800D01*
X129967600Y-54843800D02*
X128267600Y-54843800D01*
X131467600Y-53843800D02*
X129967600Y-53843800D01*
X129967600Y-53843800D02*
X129967600Y-54843800D01*
X140667600Y-65843800D02*
X140667600Y-54843800D01*
X128267600Y-65843800D02*
X128267600Y-54843800D01*
D15*
X141437600Y-58343800D02*
G75*
G03*
X141437600Y-58343800I-170000J0D01*
G01*
D13*
%TO.C,C16*%
X102081000Y-75775452D02*
X102081000Y-75252948D01*
X100611000Y-75775452D02*
X100611000Y-75252948D01*
%TO.C,C1*%
X105945000Y-54348748D02*
X105945000Y-54871252D01*
X107415000Y-54348748D02*
X107415000Y-54871252D01*
%TO.C,C24*%
X114815252Y-146077000D02*
X114292748Y-146077000D01*
X114815252Y-147547000D02*
X114292748Y-147547000D01*
%TO.C,C26*%
X138888800Y-77295148D02*
X138888800Y-77817652D01*
X140358800Y-77295148D02*
X140358800Y-77817652D01*
%TO.C,L1*%
X100315000Y-59770000D02*
X104180000Y-59770000D01*
X93940000Y-54530000D02*
X93940000Y-59770000D01*
X100315000Y-54530000D02*
X104180000Y-54530000D01*
X93940000Y-54530000D02*
X97805000Y-54530000D01*
X93940000Y-59770000D02*
X97805000Y-59770000D01*
X104180000Y-54530000D02*
X104180000Y-59770000D01*
%TO.C,TP1*%
X109290000Y-60890000D02*
X109290000Y-58490000D01*
X111690000Y-58490000D02*
X111690000Y-60890000D01*
X109290000Y-58490000D02*
X111690000Y-58490000D01*
X111690000Y-60890000D02*
X109290000Y-60890000D01*
%TO.C,U3*%
X115138200Y-83114200D02*
X117088200Y-83114200D01*
X115138200Y-88234200D02*
X113188200Y-88234200D01*
X115138200Y-88234200D02*
X118588200Y-88234200D01*
X115138200Y-83114200D02*
X113188200Y-83114200D01*
%TO.C,R3*%
X124232936Y-56415000D02*
X124687064Y-56415000D01*
X124232936Y-57885000D02*
X124687064Y-57885000D01*
%TO.C,TP15*%
X112350400Y-114915800D02*
X109950400Y-114915800D01*
X109950400Y-114915800D02*
X109950400Y-112515800D01*
X112350400Y-112515800D02*
X112350400Y-114915800D01*
X109950400Y-112515800D02*
X112350400Y-112515800D01*
%TO.C,TP11*%
X140620600Y-70059400D02*
X138220600Y-70059400D01*
X138220600Y-67659400D02*
X140620600Y-67659400D01*
X138220600Y-70059400D02*
X138220600Y-67659400D01*
X140620600Y-67659400D02*
X140620600Y-70059400D01*
%TO.C,C21*%
X100941200Y-121237148D02*
X100941200Y-121759652D01*
X102411200Y-121237148D02*
X102411200Y-121759652D01*
%TO.C,R7*%
X102523936Y-80767600D02*
X103978064Y-80767600D01*
X102523936Y-78947600D02*
X103978064Y-78947600D01*
%TO.C,C15*%
X103497748Y-99976000D02*
X104020252Y-99976000D01*
X103497748Y-101446000D02*
X104020252Y-101446000D01*
%TO.C,C6*%
X84727148Y-76757200D02*
X85249652Y-76757200D01*
X84727148Y-75287200D02*
X85249652Y-75287200D01*
%TO.C,C3*%
X106910200Y-108795452D02*
X106910200Y-108272948D01*
X108380200Y-108795452D02*
X108380200Y-108272948D01*
%TO.C,R18*%
X99595000Y-146584936D02*
X99595000Y-147039064D01*
X101065000Y-146584936D02*
X101065000Y-147039064D01*
%TO.C,R6*%
X102574736Y-82833800D02*
X104028864Y-82833800D01*
X102574736Y-84653800D02*
X104028864Y-84653800D01*
%TO.C,TP4*%
X93706800Y-83585200D02*
X93706800Y-85985200D01*
X91306800Y-83585200D02*
X93706800Y-83585200D01*
X93706800Y-85985200D02*
X91306800Y-85985200D01*
X91306800Y-85985200D02*
X91306800Y-83585200D01*
%TO.C,TP12*%
X128543200Y-67557800D02*
X130943200Y-67557800D01*
X128543200Y-69957800D02*
X128543200Y-67557800D01*
X130943200Y-69957800D02*
X128543200Y-69957800D01*
X130943200Y-67557800D02*
X130943200Y-69957800D01*
%TO.C,TP8*%
X130613000Y-83623000D02*
X128213000Y-83623000D01*
X128213000Y-81223000D02*
X130613000Y-81223000D01*
X130613000Y-81223000D02*
X130613000Y-83623000D01*
X128213000Y-83623000D02*
X128213000Y-81223000D01*
%TO.C,R2*%
X120422936Y-56415000D02*
X120877064Y-56415000D01*
X120422936Y-57885000D02*
X120877064Y-57885000D01*
%TO.C,TP16*%
X81451600Y-99269400D02*
X81451600Y-96869400D01*
X83851600Y-99269400D02*
X81451600Y-99269400D01*
X81451600Y-96869400D02*
X83851600Y-96869400D01*
X83851600Y-96869400D02*
X83851600Y-99269400D01*
%TO.C,C13*%
X96771200Y-120873000D02*
X91559200Y-120873000D01*
X96108200Y-121713000D02*
X84130200Y-121713000D01*
X88679200Y-119753000D02*
X82822200Y-119753000D01*
X98127200Y-117353000D02*
X82111200Y-117353000D01*
X94638200Y-122993000D02*
X85600200Y-122993000D01*
X88679200Y-121433000D02*
X83889200Y-121433000D01*
X97508200Y-119553000D02*
X91559200Y-119553000D01*
X88679200Y-121353000D02*
X83824200Y-121353000D01*
X97472200Y-119633000D02*
X91559200Y-119633000D01*
X97377200Y-119833000D02*
X91559200Y-119833000D01*
X98098200Y-117553000D02*
X82140200Y-117553000D01*
X95843200Y-121993000D02*
X84395200Y-121993000D01*
X97861200Y-118593000D02*
X91559200Y-118593000D01*
X97873200Y-118553000D02*
X82365200Y-118553000D01*
X97758200Y-118913000D02*
X91559200Y-118913000D01*
X97490200Y-119593000D02*
X91559200Y-119593000D01*
X88679200Y-118913000D02*
X82480200Y-118913000D01*
X88679200Y-119993000D02*
X82941200Y-119993000D01*
X88679200Y-119873000D02*
X82880200Y-119873000D01*
X95762200Y-122073000D02*
X84476200Y-122073000D01*
X93834200Y-123473000D02*
X86404200Y-123473000D01*
X97168200Y-120233000D02*
X91559200Y-120233000D01*
X97146200Y-120273000D02*
X91559200Y-120273000D01*
X88679200Y-120393000D02*
X83161200Y-120393000D01*
X88679200Y-120753000D02*
X83386200Y-120753000D01*
X95416200Y-122393000D02*
X84822200Y-122393000D01*
X94517200Y-123073000D02*
X85721200Y-123073000D01*
X97029200Y-120473000D02*
X91559200Y-120473000D01*
X95474200Y-108382509D02*
X93874200Y-108382509D01*
X88679200Y-118793000D02*
X82439200Y-118793000D01*
X92039200Y-124153000D02*
X88199200Y-124153000D01*
X97123200Y-120313000D02*
X91559200Y-120313000D01*
X88679200Y-120073000D02*
X82983200Y-120073000D01*
X97730200Y-118993000D02*
X91559200Y-118993000D01*
X97338200Y-119913000D02*
X91559200Y-119913000D01*
X96904200Y-120673000D02*
X91559200Y-120673000D01*
X96569200Y-121153000D02*
X91559200Y-121153000D01*
X96715200Y-120953000D02*
X91559200Y-120953000D01*
X98122200Y-117393000D02*
X82116200Y-117393000D01*
X98056200Y-117793000D02*
X82182200Y-117793000D01*
X88679200Y-120353000D02*
X83138200Y-120353000D01*
X97453200Y-119673000D02*
X91559200Y-119673000D01*
X96214200Y-121593000D02*
X84024200Y-121593000D01*
X92597200Y-123993000D02*
X87641200Y-123993000D01*
X98188200Y-116712000D02*
X82050200Y-116712000D01*
X97559200Y-119433000D02*
X91559200Y-119433000D01*
X97716200Y-119033000D02*
X91559200Y-119033000D01*
X94392200Y-123153000D02*
X85846200Y-123153000D01*
X93756200Y-123513000D02*
X86482200Y-123513000D01*
X97988200Y-118113000D02*
X82250200Y-118113000D01*
X93143200Y-123793000D02*
X87095200Y-123793000D01*
X97609200Y-119313000D02*
X91559200Y-119313000D01*
X98174200Y-116912000D02*
X82064200Y-116912000D01*
X88679200Y-119113000D02*
X82551200Y-119113000D01*
X88679200Y-119033000D02*
X82522200Y-119033000D01*
X98006200Y-118033000D02*
X82232200Y-118033000D01*
X88679200Y-119913000D02*
X82900200Y-119913000D01*
X88679200Y-120713000D02*
X83360200Y-120713000D01*
X96035200Y-121793000D02*
X84203200Y-121793000D01*
X97077200Y-120393000D02*
X91559200Y-120393000D01*
X98063200Y-117753000D02*
X82175200Y-117753000D01*
X88679200Y-119473000D02*
X82696200Y-119473000D01*
X94328200Y-123193000D02*
X85910200Y-123193000D01*
X88679200Y-121313000D02*
X83792200Y-121313000D01*
X94753200Y-122913000D02*
X85485200Y-122913000D01*
X97701200Y-119073000D02*
X91559200Y-119073000D01*
X98195200Y-116552000D02*
X82043200Y-116552000D01*
X88679200Y-119393000D02*
X82662200Y-119393000D01*
X97837200Y-118673000D02*
X91559200Y-118673000D01*
X95323200Y-122473000D02*
X84915200Y-122473000D01*
X98180200Y-116832000D02*
X82058200Y-116832000D01*
X91217200Y-124313000D02*
X89021200Y-124313000D01*
X88679200Y-118953000D02*
X82494200Y-118953000D01*
X88679200Y-121033000D02*
X83580200Y-121033000D01*
X94262200Y-123233000D02*
X85976200Y-123233000D01*
X91683200Y-124233000D02*
X88555200Y-124233000D01*
X94055200Y-123353000D02*
X86183200Y-123353000D01*
X96477200Y-121273000D02*
X91559200Y-121273000D01*
X97234200Y-120113000D02*
X91559200Y-120113000D01*
X97918200Y-118393000D02*
X82320200Y-118393000D01*
X97542200Y-119473000D02*
X91559200Y-119473000D01*
X88679200Y-121073000D02*
X83609200Y-121073000D01*
X88679200Y-120793000D02*
X83413200Y-120793000D01*
X97525200Y-119513000D02*
X91559200Y-119513000D01*
X93239200Y-123753000D02*
X86999200Y-123753000D01*
X97397200Y-119793000D02*
X91559200Y-119793000D01*
X88679200Y-120673000D02*
X83334200Y-120673000D01*
X95959200Y-121873000D02*
X84279200Y-121873000D01*
X93676200Y-123553000D02*
X86562200Y-123553000D01*
X88679200Y-118993000D02*
X82508200Y-118993000D01*
X97979200Y-118153000D02*
X82259200Y-118153000D01*
X97799200Y-118793000D02*
X91559200Y-118793000D01*
X97416200Y-119753000D02*
X91559200Y-119753000D01*
X96687200Y-120993000D02*
X91559200Y-120993000D01*
X88679200Y-120193000D02*
X83047200Y-120193000D01*
X96658200Y-121033000D02*
X91559200Y-121033000D01*
X93422200Y-123673000D02*
X86816200Y-123673000D01*
X95551200Y-122273000D02*
X84687200Y-122273000D01*
X98015200Y-117993000D02*
X82223200Y-117993000D01*
X95679200Y-122153000D02*
X84559200Y-122153000D01*
X88679200Y-119233000D02*
X82597200Y-119233000D01*
X92830200Y-123913000D02*
X87408200Y-123913000D01*
X96798200Y-120833000D02*
X91559200Y-120833000D01*
X88679200Y-118713000D02*
X82414200Y-118713000D01*
X97005200Y-120513000D02*
X91559200Y-120513000D01*
X97896200Y-118473000D02*
X82342200Y-118473000D01*
X88679200Y-120233000D02*
X83070200Y-120233000D01*
X95721200Y-122113000D02*
X84517200Y-122113000D01*
X96878200Y-120713000D02*
X91559200Y-120713000D01*
X97744200Y-118953000D02*
X91559200Y-118953000D01*
X98032200Y-117913000D02*
X82206200Y-117913000D01*
X98192200Y-116632000D02*
X82046200Y-116632000D01*
X97625200Y-119273000D02*
X91559200Y-119273000D01*
X94919200Y-122793000D02*
X85319200Y-122793000D01*
X97997200Y-118073000D02*
X82241200Y-118073000D01*
X88679200Y-120433000D02*
X83185200Y-120433000D01*
X98024200Y-117953000D02*
X82214200Y-117953000D01*
X88679200Y-120833000D02*
X83440200Y-120833000D01*
X95997200Y-121833000D02*
X84241200Y-121833000D01*
X95128200Y-122633000D02*
X85110200Y-122633000D01*
X96248200Y-121553000D02*
X83990200Y-121553000D01*
X92470200Y-124033000D02*
X87768200Y-124033000D01*
X98199200Y-116392000D02*
X82039200Y-116392000D01*
X96509200Y-121233000D02*
X91559200Y-121233000D01*
X97785200Y-118833000D02*
X91559200Y-118833000D01*
X94865200Y-122833000D02*
X85373200Y-122833000D01*
X96144200Y-121673000D02*
X84094200Y-121673000D01*
X97812200Y-118753000D02*
X91559200Y-118753000D01*
X98048200Y-117833000D02*
X82190200Y-117833000D01*
X96349200Y-121433000D02*
X91559200Y-121433000D01*
X98196200Y-116512000D02*
X82042200Y-116512000D01*
X88679200Y-119513000D02*
X82713200Y-119513000D01*
X88679200Y-120033000D02*
X82962200Y-120033000D01*
X96629200Y-121073000D02*
X91559200Y-121073000D01*
X88679200Y-119433000D02*
X82679200Y-119433000D01*
X95025200Y-122713000D02*
X85213200Y-122713000D01*
X95077200Y-122673000D02*
X85161200Y-122673000D01*
X93043200Y-123833000D02*
X87195200Y-123833000D01*
X96599200Y-121113000D02*
X91559200Y-121113000D01*
X93594200Y-123593000D02*
X86644200Y-123593000D01*
X96382200Y-121393000D02*
X91559200Y-121393000D01*
X97687200Y-119113000D02*
X91559200Y-119113000D01*
X98197200Y-116472000D02*
X82041200Y-116472000D01*
X88679200Y-118873000D02*
X82466200Y-118873000D01*
X94973200Y-122753000D02*
X85265200Y-122753000D01*
X88679200Y-120633000D02*
X83308200Y-120633000D01*
X95882200Y-121953000D02*
X84356200Y-121953000D01*
X95594200Y-122233000D02*
X84644200Y-122233000D01*
X88679200Y-119273000D02*
X82613200Y-119273000D01*
X97255200Y-120073000D02*
X91559200Y-120073000D01*
X88679200Y-121393000D02*
X83856200Y-121393000D01*
X98156200Y-117113000D02*
X82082200Y-117113000D01*
X98040200Y-117873000D02*
X82198200Y-117873000D01*
X97949200Y-118273000D02*
X82289200Y-118273000D01*
X88679200Y-118593000D02*
X82377200Y-118593000D01*
X98200200Y-116272000D02*
X82038200Y-116272000D01*
X98071200Y-117713000D02*
X82167200Y-117713000D01*
X91871200Y-124193000D02*
X88367200Y-124193000D01*
X98091200Y-117593000D02*
X82147200Y-117593000D01*
X96316200Y-121473000D02*
X83922200Y-121473000D01*
X88679200Y-119953000D02*
X82920200Y-119953000D01*
X96179200Y-121633000D02*
X84059200Y-121633000D01*
X97969200Y-118193000D02*
X82269200Y-118193000D01*
X94810200Y-122873000D02*
X85428200Y-122873000D01*
X88679200Y-120153000D02*
X83025200Y-120153000D01*
X88679200Y-118753000D02*
X82426200Y-118753000D01*
X97593200Y-119353000D02*
X91559200Y-119353000D01*
X97824200Y-118713000D02*
X91559200Y-118713000D01*
X98190200Y-116672000D02*
X82048200Y-116672000D01*
X98152200Y-117153000D02*
X82086200Y-117153000D01*
X97297200Y-119993000D02*
X91559200Y-119993000D01*
X91470200Y-124273000D02*
X88768200Y-124273000D01*
X97849200Y-118633000D02*
X91559200Y-118633000D01*
X97576200Y-119393000D02*
X91559200Y-119393000D01*
X94455200Y-123113000D02*
X85783200Y-123113000D01*
X96282200Y-121513000D02*
X83956200Y-121513000D01*
X95275200Y-122513000D02*
X84963200Y-122513000D01*
X97656200Y-119193000D02*
X91559200Y-119193000D01*
X98199200Y-116312000D02*
X82039200Y-116312000D01*
X88679200Y-119833000D02*
X82861200Y-119833000D01*
X97100200Y-120353000D02*
X91559200Y-120353000D01*
X94674200Y-107582509D02*
X94674200Y-109182509D01*
X98185200Y-116752000D02*
X82053200Y-116752000D01*
X96414200Y-121353000D02*
X91559200Y-121353000D01*
X97435200Y-119713000D02*
X91559200Y-119713000D01*
X88679200Y-121233000D02*
X83729200Y-121233000D01*
X95507200Y-122313000D02*
X84731200Y-122313000D01*
X88679200Y-120273000D02*
X83092200Y-120273000D01*
X93509200Y-123633000D02*
X86729200Y-123633000D01*
X97641200Y-119233000D02*
X91559200Y-119233000D01*
X98168200Y-116993000D02*
X82070200Y-116993000D01*
X97939200Y-118313000D02*
X82299200Y-118313000D01*
X95637200Y-122193000D02*
X84601200Y-122193000D01*
X98104200Y-117513000D02*
X82134200Y-117513000D01*
X92716200Y-123953000D02*
X87522200Y-123953000D01*
X88679200Y-120553000D02*
X83258200Y-120553000D01*
X90884200Y-124353000D02*
X89354200Y-124353000D01*
X88679200Y-120873000D02*
X83467200Y-120873000D01*
X96071200Y-121753000D02*
X84167200Y-121753000D01*
X97318200Y-119953000D02*
X91559200Y-119953000D01*
X88679200Y-120313000D02*
X83115200Y-120313000D01*
X88679200Y-119313000D02*
X82629200Y-119313000D01*
X97772200Y-118873000D02*
X91559200Y-118873000D01*
X97672200Y-119153000D02*
X91559200Y-119153000D01*
X95178200Y-122593000D02*
X85060200Y-122593000D01*
X88679200Y-118633000D02*
X82389200Y-118633000D01*
X98171200Y-116952000D02*
X82067200Y-116952000D01*
X96539200Y-121193000D02*
X91559200Y-121193000D01*
X98147200Y-117193000D02*
X82091200Y-117193000D01*
X94696200Y-122953000D02*
X85542200Y-122953000D01*
X96825200Y-120793000D02*
X91559200Y-120793000D01*
X95803200Y-122033000D02*
X84435200Y-122033000D01*
X92939200Y-123873000D02*
X87299200Y-123873000D01*
X94126200Y-123313000D02*
X86112200Y-123313000D01*
X97358200Y-119873000D02*
X91559200Y-119873000D01*
X94578200Y-123033000D02*
X85660200Y-123033000D01*
X88679200Y-120593000D02*
X83283200Y-120593000D01*
X88679200Y-119713000D02*
X82803200Y-119713000D01*
X97929200Y-118353000D02*
X82309200Y-118353000D01*
X94195200Y-123273000D02*
X86043200Y-123273000D01*
X98138200Y-117273000D02*
X82100200Y-117273000D01*
X97191200Y-120193000D02*
X91559200Y-120193000D01*
X88679200Y-118833000D02*
X82453200Y-118833000D01*
X88679200Y-119633000D02*
X82766200Y-119633000D01*
X88679200Y-120913000D02*
X83495200Y-120913000D01*
X95370200Y-122433000D02*
X84868200Y-122433000D01*
X88679200Y-121193000D02*
X83699200Y-121193000D01*
X98193200Y-116592000D02*
X82045200Y-116592000D01*
X96852200Y-120753000D02*
X91559200Y-120753000D01*
X98110200Y-117473000D02*
X82128200Y-117473000D01*
X98143200Y-117233000D02*
X82095200Y-117233000D01*
X88679200Y-119593000D02*
X82748200Y-119593000D01*
X88679200Y-118673000D02*
X82401200Y-118673000D01*
X98085200Y-117633000D02*
X82153200Y-117633000D01*
X96743200Y-120913000D02*
X91559200Y-120913000D01*
X92193200Y-124113000D02*
X88045200Y-124113000D01*
X97959200Y-118233000D02*
X82279200Y-118233000D01*
X88679200Y-119793000D02*
X82841200Y-119793000D01*
X88679200Y-121113000D02*
X83639200Y-121113000D01*
X96980200Y-120553000D02*
X91559200Y-120553000D01*
X98199200Y-116352000D02*
X82039200Y-116352000D01*
X98078200Y-117673000D02*
X82160200Y-117673000D01*
X96955200Y-120593000D02*
X91559200Y-120593000D01*
X88679200Y-119193000D02*
X82582200Y-119193000D01*
X98133200Y-117313000D02*
X82105200Y-117313000D01*
X88679200Y-119153000D02*
X82566200Y-119153000D01*
X98160200Y-117073000D02*
X82078200Y-117073000D01*
X93909200Y-123433000D02*
X86329200Y-123433000D01*
X88679200Y-119353000D02*
X82645200Y-119353000D01*
X96446200Y-121313000D02*
X91559200Y-121313000D01*
X92337200Y-124073000D02*
X87901200Y-124073000D01*
X93983200Y-123393000D02*
X86255200Y-123393000D01*
X98164200Y-117033000D02*
X82074200Y-117033000D01*
X88679200Y-121273000D02*
X83761200Y-121273000D01*
X88679200Y-120953000D02*
X83523200Y-120953000D01*
X88679200Y-119553000D02*
X82730200Y-119553000D01*
X88679200Y-120473000D02*
X83209200Y-120473000D01*
X95921200Y-121913000D02*
X84317200Y-121913000D01*
X88679200Y-120513000D02*
X83233200Y-120513000D01*
X97053200Y-120433000D02*
X91559200Y-120433000D01*
X88679200Y-120113000D02*
X83004200Y-120113000D01*
X97276200Y-120033000D02*
X91559200Y-120033000D01*
X98198200Y-116432000D02*
X82040200Y-116432000D01*
X98177200Y-116872000D02*
X82061200Y-116872000D01*
X98183200Y-116792000D02*
X82055200Y-116792000D01*
X95462200Y-122353000D02*
X84776200Y-122353000D01*
X93332200Y-123713000D02*
X86906200Y-123713000D01*
X97213200Y-120153000D02*
X91559200Y-120153000D01*
X88679200Y-119073000D02*
X82537200Y-119073000D01*
X97884200Y-118513000D02*
X82354200Y-118513000D01*
X98116200Y-117433000D02*
X82122200Y-117433000D01*
X95227200Y-122553000D02*
X85011200Y-122553000D01*
X88679200Y-119673000D02*
X82785200Y-119673000D01*
X88679200Y-121153000D02*
X83669200Y-121153000D01*
X97907200Y-118433000D02*
X82331200Y-118433000D01*
X96930200Y-120633000D02*
X91559200Y-120633000D01*
X88679200Y-120993000D02*
X83551200Y-120993000D01*
X98239200Y-116272000D02*
G75*
G03*
X98239200Y-116272000I-8120000J0D01*
G01*
%TO.C,TP13*%
X118027600Y-114992000D02*
X118027600Y-112592000D01*
X120427600Y-114992000D02*
X118027600Y-114992000D01*
X118027600Y-112592000D02*
X120427600Y-112592000D01*
X120427600Y-112592000D02*
X120427600Y-114992000D01*
%TO.C,R5*%
X102600136Y-88794000D02*
X104054264Y-88794000D01*
X102600136Y-86974000D02*
X104054264Y-86974000D01*
%TO.C,C8*%
X107545200Y-121749452D02*
X107545200Y-121226948D01*
X109015200Y-121749452D02*
X109015200Y-121226948D01*
%TO.C,J1*%
X92470000Y-68460000D02*
X77470000Y-68460000D01*
X77670000Y-60960000D02*
X78670000Y-59960000D01*
X92470000Y-53460000D02*
X92470000Y-68460000D01*
X77670000Y-60960000D02*
X78670000Y-61960000D01*
X77470000Y-68460000D02*
X77470000Y-53460000D01*
X77470000Y-53460000D02*
X92470000Y-53460000D01*
%TO.C,R8*%
X103963800Y-75310636D02*
X103963800Y-75764764D01*
X105433800Y-75310636D02*
X105433800Y-75764764D01*
%TO.C,C4*%
X111225000Y-54348748D02*
X111225000Y-54871252D01*
X109755000Y-54348748D02*
X109755000Y-54871252D01*
%TO.C,TP14*%
X116236600Y-112566600D02*
X116236600Y-114966600D01*
X113836600Y-114966600D02*
X113836600Y-112566600D01*
X116236600Y-114966600D02*
X113836600Y-114966600D01*
X113836600Y-112566600D02*
X116236600Y-112566600D01*
%TO.C,C5*%
X122613052Y-53011400D02*
X122090548Y-53011400D01*
X122613052Y-54481400D02*
X122090548Y-54481400D01*
%TO.C,Y1*%
X123361200Y-110463600D02*
X123361200Y-107163600D01*
X123361200Y-107163600D02*
X119361200Y-107163600D01*
%TO.C,R4*%
X102650936Y-90834800D02*
X104105064Y-90834800D01*
X102650936Y-92654800D02*
X104105064Y-92654800D01*
%TO.C,TP7*%
X140849200Y-83496000D02*
X138449200Y-83496000D01*
X140849200Y-81096000D02*
X140849200Y-83496000D01*
X138449200Y-81096000D02*
X140849200Y-81096000D01*
X138449200Y-83496000D02*
X138449200Y-81096000D01*
%TO.C,C17*%
X102792200Y-96040348D02*
X102792200Y-96562852D01*
X101322200Y-96040348D02*
X101322200Y-96562852D01*
%TO.C,TP6*%
X91205200Y-77997200D02*
X93605200Y-77997200D01*
X91205200Y-80397200D02*
X91205200Y-77997200D01*
X93605200Y-77997200D02*
X93605200Y-80397200D01*
X93605200Y-80397200D02*
X91205200Y-80397200D01*
%TO.C,C12*%
X97069700Y-79342348D02*
X97069700Y-79864852D01*
X98539700Y-79342348D02*
X98539700Y-79864852D01*
%TO.C,C9*%
X97069700Y-91407348D02*
X97069700Y-91929852D01*
X98539700Y-91407348D02*
X98539700Y-91929852D01*
%TO.C,C2*%
X107415000Y-59428748D02*
X107415000Y-59951252D01*
X105945000Y-59428748D02*
X105945000Y-59951252D01*
%TO.C,TP2*%
X113100000Y-60890000D02*
X113100000Y-58490000D01*
X115500000Y-58490000D02*
X115500000Y-60890000D01*
X113100000Y-58490000D02*
X115500000Y-58490000D01*
X115500000Y-60890000D02*
X113100000Y-60890000D01*
%TO.C,L2*%
X115610000Y-63420000D02*
X115610000Y-68660000D01*
X111745000Y-68660000D02*
X115610000Y-68660000D01*
X105370000Y-68660000D02*
X109235000Y-68660000D01*
X105370000Y-63420000D02*
X109235000Y-63420000D01*
X105370000Y-63420000D02*
X105370000Y-68660000D01*
X111745000Y-63420000D02*
X115610000Y-63420000D01*
%TO.C,C7*%
X117502000Y-121734252D02*
X117502000Y-121211748D01*
X118972000Y-121734252D02*
X118972000Y-121211748D01*
D10*
%TO.C,U1*%
X115340000Y-106859200D02*
X111990000Y-106859200D01*
X111990000Y-106859200D02*
X111990000Y-107159200D01*
X115340000Y-110209200D02*
X111990000Y-110209200D01*
X115340000Y-110209200D02*
X115340000Y-109984200D01*
X115340000Y-106859200D02*
X115340000Y-107159200D01*
X115340000Y-109984200D02*
X116565000Y-109984200D01*
X111990000Y-110209200D02*
X111990000Y-109909200D01*
D13*
%TO.C,C14*%
X112422000Y-121211748D02*
X112422000Y-121734252D01*
X113892000Y-121211748D02*
X113892000Y-121734252D01*
%TO.C,TP5*%
X91408400Y-91700200D02*
X91408400Y-89300200D01*
X93808400Y-91700200D02*
X91408400Y-91700200D01*
X93808400Y-89300200D02*
X93808400Y-91700200D01*
X91408400Y-89300200D02*
X93808400Y-89300200D01*
%TO.C,R20*%
X140384200Y-72567436D02*
X140384200Y-73021564D01*
X138914200Y-72567436D02*
X138914200Y-73021564D01*
%TO.C,R1*%
X123340800Y-121814964D02*
X123340800Y-121360836D01*
X121870800Y-121814964D02*
X121870800Y-121360836D01*
%TO.C,R9*%
X104471800Y-96493064D02*
X104471800Y-96038936D01*
X105941800Y-96493064D02*
X105941800Y-96038936D01*
%TO.C,L3*%
X104180000Y-63420000D02*
X104180000Y-68660000D01*
X100315000Y-68660000D02*
X104180000Y-68660000D01*
X100315000Y-63420000D02*
X104180000Y-63420000D01*
X93940000Y-68660000D02*
X97805000Y-68660000D01*
X93940000Y-63420000D02*
X97805000Y-63420000D01*
X93940000Y-63420000D02*
X93940000Y-68660000D01*
%TO.C,R19*%
X104802000Y-147039064D02*
X104802000Y-146584936D01*
X106272000Y-147039064D02*
X106272000Y-146584936D01*
%TO.C,U2*%
X85090000Y-90150000D02*
X87040000Y-90150000D01*
X85090000Y-90150000D02*
X83140000Y-90150000D01*
X85090000Y-80030000D02*
X87040000Y-80030000D01*
X85090000Y-80030000D02*
X81640000Y-80030000D01*
%TO.C,C27*%
X128871000Y-77390348D02*
X128871000Y-77912852D01*
X130341000Y-77390348D02*
X130341000Y-77912852D01*
%TO.C,R21*%
X130325800Y-72698236D02*
X130325800Y-73152364D01*
X128855800Y-72698236D02*
X128855800Y-73152364D01*
%TD*%
M02*
