%TF.GenerationSoftware,KiCad,Pcbnew,(6.0.4)*%
%TF.CreationDate,2022-06-06T09:07:08-07:00*%
%TF.ProjectId,Complete Schematic V6,436f6d70-6c65-4746-9520-536368656d61,rev?*%
%TF.SameCoordinates,Original*%
%TF.FileFunction,Soldermask,Top*%
%TF.FilePolarity,Negative*%
%FSLAX46Y46*%
G04 Gerber Fmt 4.6, Leading zero omitted, Abs format (unit mm)*
G04 Created by KiCad (PCBNEW (6.0.4)) date 2022-06-06 09:07:08*
%MOMM*%
%LPD*%
G01*
G04 APERTURE LIST*
G04 Aperture macros list*
%AMRoundRect*
0 Rectangle with rounded corners*
0 $1 Rounding radius*
0 $2 $3 $4 $5 $6 $7 $8 $9 X,Y pos of 4 corners*
0 Add a 4 corners polygon primitive as box body*
4,1,4,$2,$3,$4,$5,$6,$7,$8,$9,$2,$3,0*
0 Add four circle primitives for the rounded corners*
1,1,$1+$1,$2,$3*
1,1,$1+$1,$4,$5*
1,1,$1+$1,$6,$7*
1,1,$1+$1,$8,$9*
0 Add four rect primitives between the rounded corners*
20,1,$1+$1,$2,$3,$4,$5,0*
20,1,$1+$1,$4,$5,$6,$7,0*
20,1,$1+$1,$6,$7,$8,$9,0*
20,1,$1+$1,$8,$9,$2,$3,0*%
G04 Aperture macros list end*
%ADD10R,1.600000X1.600000*%
%ADD11O,1.600000X1.600000*%
%ADD12R,2.000000X2.000000*%
%ADD13RoundRect,0.250000X-0.475000X0.250000X-0.475000X-0.250000X0.475000X-0.250000X0.475000X0.250000X0*%
%ADD14C,1.200000*%
%ADD15O,2.616000X1.308000*%
%ADD16O,1.308000X2.616000*%
%ADD17RoundRect,0.250000X0.475000X-0.250000X0.475000X0.250000X-0.475000X0.250000X-0.475000X-0.250000X0*%
%ADD18RoundRect,0.250000X0.250000X0.475000X-0.250000X0.475000X-0.250000X-0.475000X0.250000X-0.475000X0*%
%ADD19C,2.000000*%
%ADD20RoundRect,0.150000X0.825000X0.150000X-0.825000X0.150000X-0.825000X-0.150000X0.825000X-0.150000X0*%
%ADD21RoundRect,0.250000X-0.262500X-0.450000X0.262500X-0.450000X0.262500X0.450000X-0.262500X0.450000X0*%
%ADD22RoundRect,0.250000X-0.312500X-0.625000X0.312500X-0.625000X0.312500X0.625000X-0.312500X0.625000X0*%
%ADD23RoundRect,0.250000X-0.250000X-0.475000X0.250000X-0.475000X0.250000X0.475000X-0.250000X0.475000X0*%
%ADD24RoundRect,0.250000X-0.450000X0.262500X-0.450000X-0.262500X0.450000X-0.262500X0.450000X0.262500X0*%
%ADD25R,2.400000X2.400000*%
%ADD26C,2.400000*%
%ADD27O,2.500000X1.600000*%
%ADD28O,7.000000X3.500000*%
%ADD29R,1.400000X1.200000*%
%ADD30R,1.400000X0.300000*%
%ADD31RoundRect,0.250000X0.450000X-0.262500X0.450000X0.262500X-0.450000X0.262500X-0.450000X-0.262500X0*%
%ADD32RoundRect,0.150000X-0.825000X-0.150000X0.825000X-0.150000X0.825000X0.150000X-0.825000X0.150000X0*%
G04 APERTURE END LIST*
D10*
%TO.C,A1*%
X119380000Y-127010000D03*
D11*
X116840000Y-127010000D03*
X114300000Y-127010000D03*
X111760000Y-127010000D03*
X109220000Y-127010000D03*
X106680000Y-127010000D03*
X104140000Y-127010000D03*
X101600000Y-127010000D03*
X99060000Y-127010000D03*
X96520000Y-127010000D03*
X93980000Y-127010000D03*
X91440000Y-127010000D03*
X88900000Y-127010000D03*
X86360000Y-127010000D03*
X83820000Y-127010000D03*
X83820000Y-142250000D03*
X86360000Y-142250000D03*
X88900000Y-142250000D03*
X91440000Y-142250000D03*
X93980000Y-142250000D03*
X96520000Y-142250000D03*
X99060000Y-142250000D03*
X101600000Y-142250000D03*
X104140000Y-142250000D03*
X106680000Y-142250000D03*
X109220000Y-142250000D03*
X111760000Y-142250000D03*
X114300000Y-142250000D03*
X116840000Y-142250000D03*
X119380000Y-142250000D03*
%TD*%
D12*
%TO.C,TP3*%
X92913200Y-95834200D03*
%TD*%
D13*
%TO.C,C11*%
X97804700Y-82666800D03*
X97804700Y-84566800D03*
%TD*%
%TO.C,C10*%
X97804700Y-86730800D03*
X97804700Y-88630800D03*
%TD*%
D14*
%TO.C,J2*%
X139467600Y-55843800D03*
X139467600Y-58343800D03*
X129467600Y-55843800D03*
X129467600Y-58343800D03*
X134467600Y-63343800D03*
D15*
X134467600Y-58343800D03*
D16*
X129467600Y-63343800D03*
X139467600Y-63343800D03*
X131967600Y-63343800D03*
X136967600Y-63343800D03*
%TD*%
D17*
%TO.C,C16*%
X101346000Y-76464200D03*
X101346000Y-74564200D03*
%TD*%
D13*
%TO.C,C1*%
X106680000Y-53660000D03*
X106680000Y-55560000D03*
%TD*%
D18*
%TO.C,C24*%
X115504000Y-146812000D03*
X113604000Y-146812000D03*
%TD*%
D13*
%TO.C,C26*%
X139623800Y-76606400D03*
X139623800Y-78506400D03*
%TD*%
D19*
%TO.C,L1*%
X99060000Y-54610000D03*
X99060000Y-59690000D03*
%TD*%
D12*
%TO.C,TP1*%
X110490000Y-59690000D03*
%TD*%
D20*
%TO.C,U3*%
X117613200Y-87579200D03*
X117613200Y-86309200D03*
X117613200Y-85039200D03*
X117613200Y-83769200D03*
X112663200Y-83769200D03*
X112663200Y-85039200D03*
X112663200Y-86309200D03*
X112663200Y-87579200D03*
%TD*%
D21*
%TO.C,R3*%
X123547500Y-57150000D03*
X125372500Y-57150000D03*
%TD*%
D12*
%TO.C,TP15*%
X111150400Y-113715800D03*
%TD*%
%TO.C,TP11*%
X139420600Y-68859400D03*
%TD*%
D13*
%TO.C,C21*%
X101676200Y-120548400D03*
X101676200Y-122448400D03*
%TD*%
D22*
%TO.C,R7*%
X101788500Y-79857600D03*
X104713500Y-79857600D03*
%TD*%
D23*
%TO.C,C15*%
X102809000Y-100711000D03*
X104709000Y-100711000D03*
%TD*%
%TO.C,C6*%
X84038400Y-76022200D03*
X85938400Y-76022200D03*
%TD*%
D17*
%TO.C,C3*%
X107645200Y-109484200D03*
X107645200Y-107584200D03*
%TD*%
D24*
%TO.C,R18*%
X100330000Y-145899500D03*
X100330000Y-147724500D03*
%TD*%
D22*
%TO.C,R6*%
X101839300Y-83743800D03*
X104764300Y-83743800D03*
%TD*%
D12*
%TO.C,TP4*%
X92506800Y-84785200D03*
%TD*%
%TO.C,TP12*%
X129743200Y-68757800D03*
%TD*%
%TO.C,TP8*%
X129413000Y-82423000D03*
%TD*%
D21*
%TO.C,R2*%
X119737500Y-57150000D03*
X121562500Y-57150000D03*
%TD*%
D12*
%TO.C,TP16*%
X82651600Y-98069400D03*
%TD*%
D25*
%TO.C,C13*%
X90119200Y-112522000D03*
D26*
X90119200Y-120022000D03*
%TD*%
D12*
%TO.C,TP13*%
X119227600Y-113792000D03*
%TD*%
D22*
%TO.C,R5*%
X101864700Y-87884000D03*
X104789700Y-87884000D03*
%TD*%
D17*
%TO.C,C8*%
X108280200Y-122438200D03*
X108280200Y-120538200D03*
%TD*%
D27*
%TO.C,J1*%
X90170000Y-60960000D03*
D28*
X85090000Y-66040000D03*
D27*
X90170000Y-63500000D03*
D28*
X85090000Y-55880000D03*
%TD*%
D24*
%TO.C,R8*%
X104698800Y-74625200D03*
X104698800Y-76450200D03*
%TD*%
D13*
%TO.C,C4*%
X110490000Y-53660000D03*
X110490000Y-55560000D03*
%TD*%
D12*
%TO.C,TP14*%
X115036600Y-113766600D03*
%TD*%
D18*
%TO.C,C5*%
X123301800Y-53746400D03*
X121401800Y-53746400D03*
%TD*%
D29*
%TO.C,Y1*%
X122461200Y-107963600D03*
X120261200Y-107963600D03*
X120261200Y-109663600D03*
X122461200Y-109663600D03*
%TD*%
D22*
%TO.C,R4*%
X101915500Y-91744800D03*
X104840500Y-91744800D03*
%TD*%
D12*
%TO.C,TP7*%
X139649200Y-82296000D03*
%TD*%
D13*
%TO.C,C17*%
X102057200Y-95351600D03*
X102057200Y-97251600D03*
%TD*%
D12*
%TO.C,TP6*%
X92405200Y-79197200D03*
%TD*%
D13*
%TO.C,C12*%
X97804700Y-78653600D03*
X97804700Y-80553600D03*
%TD*%
%TO.C,C9*%
X97804700Y-90718600D03*
X97804700Y-92618600D03*
%TD*%
%TO.C,C2*%
X106680000Y-58740000D03*
X106680000Y-60640000D03*
%TD*%
D12*
%TO.C,TP2*%
X114300000Y-59690000D03*
%TD*%
D19*
%TO.C,L2*%
X110490000Y-63500000D03*
X110490000Y-68580000D03*
%TD*%
D17*
%TO.C,C7*%
X118237000Y-122423000D03*
X118237000Y-120523000D03*
%TD*%
D30*
%TO.C,U1*%
X115865000Y-109534200D03*
X115865000Y-109034200D03*
X115865000Y-108534200D03*
X115865000Y-108034200D03*
X115865000Y-107534200D03*
X111465000Y-107534200D03*
X111465000Y-108034200D03*
X111465000Y-108534200D03*
X111465000Y-109034200D03*
X111465000Y-109534200D03*
%TD*%
D13*
%TO.C,C14*%
X113157000Y-120523000D03*
X113157000Y-122423000D03*
%TD*%
D12*
%TO.C,TP5*%
X92608400Y-90500200D03*
%TD*%
D24*
%TO.C,R20*%
X139649200Y-71882000D03*
X139649200Y-73707000D03*
%TD*%
D31*
%TO.C,R1*%
X122605800Y-122500400D03*
X122605800Y-120675400D03*
%TD*%
%TO.C,R9*%
X105206800Y-97178500D03*
X105206800Y-95353500D03*
%TD*%
D19*
%TO.C,L3*%
X99060000Y-63500000D03*
X99060000Y-68580000D03*
%TD*%
D31*
%TO.C,R19*%
X105537000Y-147724500D03*
X105537000Y-145899500D03*
%TD*%
D32*
%TO.C,U2*%
X82615000Y-80645000D03*
X82615000Y-81915000D03*
X82615000Y-83185000D03*
X82615000Y-84455000D03*
X82615000Y-85725000D03*
X82615000Y-86995000D03*
X82615000Y-88265000D03*
X82615000Y-89535000D03*
X87565000Y-89535000D03*
X87565000Y-88265000D03*
X87565000Y-86995000D03*
X87565000Y-85725000D03*
X87565000Y-84455000D03*
X87565000Y-83185000D03*
X87565000Y-81915000D03*
X87565000Y-80645000D03*
%TD*%
D13*
%TO.C,C27*%
X129606000Y-76701600D03*
X129606000Y-78601600D03*
%TD*%
D24*
%TO.C,R21*%
X129590800Y-72012800D03*
X129590800Y-73837800D03*
%TD*%
M02*
